G04 #@! TF.GenerationSoftware,KiCad,Pcbnew,8.0.7*
G04 #@! TF.CreationDate,2025-01-18T17:23:32-06:00*
G04 #@! TF.ProjectId,Controls-Leader,436f6e74-726f-46c7-932d-4c6561646572,rev?*
G04 #@! TF.SameCoordinates,Original*
G04 #@! TF.FileFunction,Soldermask,Bot*
G04 #@! TF.FilePolarity,Negative*
%FSLAX46Y46*%
G04 Gerber Fmt 4.6, Leading zero omitted, Abs format (unit mm)*
G04 Created by KiCad (PCBNEW 8.0.7) date 2025-01-18 17:23:32*
%MOMM*%
%LPD*%
G01*
G04 APERTURE LIST*
G04 Aperture macros list*
%AMRoundRect*
0 Rectangle with rounded corners*
0 $1 Rounding radius*
0 $2 $3 $4 $5 $6 $7 $8 $9 X,Y pos of 4 corners*
0 Add a 4 corners polygon primitive as box body*
4,1,4,$2,$3,$4,$5,$6,$7,$8,$9,$2,$3,0*
0 Add four circle primitives for the rounded corners*
1,1,$1+$1,$2,$3*
1,1,$1+$1,$4,$5*
1,1,$1+$1,$6,$7*
1,1,$1+$1,$8,$9*
0 Add four rect primitives between the rounded corners*
20,1,$1+$1,$2,$3,$4,$5,0*
20,1,$1+$1,$4,$5,$6,$7,0*
20,1,$1+$1,$6,$7,$8,$9,0*
20,1,$1+$1,$8,$9,$2,$3,0*%
G04 Aperture macros list end*
%ADD10C,1.372000*%
%ADD11RoundRect,0.267001X0.793999X-0.533999X0.793999X0.533999X-0.793999X0.533999X-0.793999X-0.533999X0*%
%ADD12O,2.122000X1.602000*%
%ADD13RoundRect,0.051000X-0.850000X-0.850000X0.850000X-0.850000X0.850000X0.850000X-0.850000X0.850000X0*%
%ADD14O,1.802000X1.802000*%
%ADD15RoundRect,0.051000X-0.850000X0.850000X-0.850000X-0.850000X0.850000X-0.850000X0.850000X0.850000X0*%
%ADD16RoundRect,0.051000X0.850000X0.850000X-0.850000X0.850000X-0.850000X-0.850000X0.850000X-0.850000X0*%
%ADD17C,1.802000*%
%ADD18C,2.902000*%
%ADD19C,3.102000*%
%ADD20RoundRect,0.051000X0.850000X-0.850000X0.850000X0.850000X-0.850000X0.850000X-0.850000X-0.850000X0*%
%ADD21RoundRect,0.267001X-0.793999X0.533999X-0.793999X-0.533999X0.793999X-0.533999X0.793999X0.533999X0*%
%ADD22C,1.122000*%
%ADD23RoundRect,0.267001X-0.533999X-0.533999X0.533999X-0.533999X0.533999X0.533999X-0.533999X0.533999X0*%
%ADD24C,1.602000*%
%ADD25O,2.002000X1.302000*%
%ADD26C,1.552000*%
%ADD27C,1.102000*%
%ADD28RoundRect,0.051000X0.750000X0.750000X-0.750000X0.750000X-0.750000X-0.750000X0.750000X-0.750000X0*%
%ADD29RoundRect,0.267001X0.533999X0.793999X-0.533999X0.793999X-0.533999X-0.793999X0.533999X-0.793999X0*%
%ADD30O,1.602000X2.122000*%
%ADD31RoundRect,0.267001X-0.533999X-0.793999X0.533999X-0.793999X0.533999X0.793999X-0.533999X0.793999X0*%
%ADD32O,1.902000X1.302000*%
G04 APERTURE END LIST*
D10*
G04 #@! TO.C,J7*
X113540000Y-71390000D03*
X113540000Y-59390000D03*
D11*
X115500000Y-68390000D03*
D12*
X115500000Y-65390000D03*
X115500000Y-62390000D03*
G04 #@! TD*
D10*
G04 #@! TO.C,J12*
X113540000Y-96780000D03*
X113540000Y-87780000D03*
D11*
X115500000Y-93780000D03*
D12*
X115500000Y-90780000D03*
G04 #@! TD*
D13*
G04 #@! TO.C,J3*
X152960000Y-70980000D03*
D14*
X155500000Y-70980000D03*
X152960000Y-73520000D03*
X155500000Y-73520000D03*
X152960000Y-76060000D03*
X155500000Y-76060000D03*
X152960000Y-78600000D03*
X155500000Y-78600000D03*
X152960000Y-81140000D03*
X155500000Y-81140000D03*
X152960000Y-83680000D03*
X155500000Y-83680000D03*
G04 #@! TD*
D15*
G04 #@! TO.C,J25*
X130159999Y-96350000D03*
D14*
X127619999Y-96350000D03*
X125079999Y-96350000D03*
G04 #@! TD*
D15*
G04 #@! TO.C,JP2*
X171775000Y-77100000D03*
D14*
X169235000Y-77100000D03*
G04 #@! TD*
D16*
G04 #@! TO.C,J13*
X170090000Y-92640000D03*
D14*
X170090000Y-90100000D03*
X170090000Y-87560000D03*
G04 #@! TD*
D10*
G04 #@! TO.C,J21*
X167390000Y-52410000D03*
X182390000Y-52410000D03*
D17*
X170390000Y-54370000D03*
X173390000Y-54370000D03*
X176390000Y-54370000D03*
X179390000Y-54370000D03*
G04 #@! TD*
D10*
G04 #@! TO.C,J18*
X190590000Y-111920000D03*
X190590000Y-120920000D03*
D17*
X188630000Y-114920000D03*
X188630000Y-117920000D03*
G04 #@! TD*
D18*
G04 #@! TO.C,TP8*
X189300000Y-128100000D03*
G04 #@! TD*
D19*
G04 #@! TO.C,H3*
X187750000Y-144750000D03*
G04 #@! TD*
D13*
G04 #@! TO.C,J8*
X166000000Y-88170000D03*
D14*
X166000000Y-90710000D03*
X166000000Y-93250000D03*
X166000000Y-95790000D03*
G04 #@! TD*
D20*
G04 #@! TO.C,JP1*
X133878000Y-79428000D03*
D14*
X136418000Y-79428000D03*
G04 #@! TD*
D13*
G04 #@! TO.C,J2*
X166350000Y-103660000D03*
D14*
X166350000Y-106200000D03*
X166350000Y-108740000D03*
G04 #@! TD*
D10*
G04 #@! TO.C,J14*
X190700000Y-59980000D03*
X190700000Y-68980000D03*
D21*
X188740000Y-62980000D03*
D12*
X188740000Y-65980000D03*
G04 #@! TD*
D22*
G04 #@! TO.C,J5*
X132780000Y-57890000D03*
X144780000Y-57890000D03*
D23*
X135780000Y-53950000D03*
D24*
X138780000Y-53950000D03*
X141780000Y-53950000D03*
X135780000Y-56950000D03*
X138780000Y-56950000D03*
X141780000Y-56950000D03*
G04 #@! TD*
D19*
G04 #@! TO.C,H2*
X116500000Y-55250000D03*
G04 #@! TD*
D25*
G04 #@! TO.C,J23*
X114922500Y-98997500D03*
D26*
X117622500Y-99997500D03*
X117622500Y-104997500D03*
D25*
X114922500Y-105997500D03*
G04 #@! TD*
D10*
G04 #@! TO.C,J17*
X190700000Y-88940000D03*
X190700000Y-103940000D03*
D21*
X188740000Y-91940000D03*
D12*
X188740000Y-94940000D03*
X188740000Y-97940000D03*
X188740000Y-100940000D03*
G04 #@! TD*
D16*
G04 #@! TO.C,J27*
X146070000Y-79179000D03*
D14*
X146070000Y-76639000D03*
G04 #@! TD*
D27*
G04 #@! TO.C,J4*
X167500000Y-141860000D03*
X146500000Y-141860000D03*
D28*
X164500000Y-145800000D03*
D24*
X161500000Y-145800000D03*
X158500000Y-145800000D03*
X155500000Y-145800000D03*
X152500000Y-145800000D03*
X149500000Y-145800000D03*
X164500000Y-142800000D03*
X161500000Y-142800000D03*
X158500000Y-142800000D03*
X155500000Y-142800000D03*
X152500000Y-142800000D03*
X149500000Y-142800000D03*
G04 #@! TD*
D20*
G04 #@! TO.C,J15*
X126770000Y-90840000D03*
D14*
X126770000Y-88300000D03*
X129310000Y-90840000D03*
X129310000Y-88300000D03*
X131850000Y-90840000D03*
X131850000Y-88300000D03*
G04 #@! TD*
D10*
G04 #@! TO.C,J10*
X113540000Y-123290000D03*
X113540000Y-108290000D03*
D11*
X115500000Y-120290000D03*
D12*
X115500000Y-117290000D03*
X115500000Y-114290000D03*
X115500000Y-111290000D03*
G04 #@! TD*
D10*
G04 #@! TO.C,J22*
X148430000Y-52410000D03*
X163430000Y-52410000D03*
D17*
X151430000Y-54370000D03*
X154430000Y-54370000D03*
X157430000Y-54370000D03*
X160430000Y-54370000D03*
G04 #@! TD*
D10*
G04 #@! TO.C,J9*
X113540000Y-85610000D03*
X113540000Y-73610000D03*
D11*
X115500000Y-82610000D03*
D12*
X115500000Y-79610000D03*
X115500000Y-76610000D03*
G04 #@! TD*
D18*
G04 #@! TO.C,TP5*
X122250000Y-139500000D03*
G04 #@! TD*
D10*
G04 #@! TO.C,J6*
X190700000Y-71390000D03*
X190700000Y-86390000D03*
D21*
X188740000Y-74390000D03*
D12*
X188740000Y-77390000D03*
X188740000Y-80390000D03*
X188740000Y-83390000D03*
G04 #@! TD*
D10*
G04 #@! TO.C,L_BLINK_EXT1*
X190700000Y-131500000D03*
X190700000Y-140500000D03*
D21*
X188740000Y-134500000D03*
D12*
X188740000Y-137500000D03*
G04 #@! TD*
D10*
G04 #@! TO.C,R_BLINK_EXT1*
X180000000Y-147760000D03*
X171000000Y-147760000D03*
D29*
X177000000Y-145800000D03*
D30*
X174000000Y-145800000D03*
G04 #@! TD*
D19*
G04 #@! TO.C,H4*
X116500000Y-144750000D03*
G04 #@! TD*
D10*
G04 #@! TO.C,BRAKELIGHT1*
X143500000Y-147760000D03*
X134500000Y-147760000D03*
D29*
X140500000Y-145800000D03*
D30*
X137500000Y-145800000D03*
G04 #@! TD*
D18*
G04 #@! TO.C,TP4*
X188950000Y-107590000D03*
G04 #@! TD*
G04 #@! TO.C,TP6*
X131100000Y-113900000D03*
G04 #@! TD*
G04 #@! TO.C,TP9*
X129250000Y-145150000D03*
G04 #@! TD*
G04 #@! TO.C,TP10*
X129250000Y-139500000D03*
G04 #@! TD*
D10*
G04 #@! TO.C,J11*
X113540000Y-140600000D03*
X113540000Y-125600000D03*
D11*
X115500000Y-137600000D03*
D12*
X115500000Y-134600000D03*
X115500000Y-131600000D03*
X115500000Y-128600000D03*
G04 #@! TD*
D18*
G04 #@! TO.C,TP7*
X181950000Y-130100000D03*
G04 #@! TD*
D19*
G04 #@! TO.C,H1*
X187750000Y-55250000D03*
G04 #@! TD*
D10*
G04 #@! TO.C,J1*
X122010000Y-123649999D03*
X122010000Y-111649999D03*
D17*
X123970000Y-120649999D03*
X123970000Y-117649999D03*
X123970000Y-114649999D03*
G04 #@! TD*
D10*
G04 #@! TO.C,J16*
X120980000Y-52330000D03*
X129980000Y-52330000D03*
D31*
X123980000Y-54290000D03*
D30*
X126980000Y-54290000D03*
G04 #@! TD*
D32*
G04 #@! TO.C,U12*
X180340000Y-120649999D03*
X180340000Y-118110000D03*
X180340000Y-115569998D03*
X180340000Y-113029999D03*
G04 #@! TD*
M02*
