M48
; DRILL file {KiCad 8.0.7} date 2025-01-18T17:23:32-0600
; FORMAT={-:-/ absolute / metric / decimal}
; #@! TF.CreationDate,2025-01-18T17:23:32-06:00
; #@! TF.GenerationSoftware,Kicad,Pcbnew,8.0.7
; #@! TF.FileFunction,NonPlated,1,2,NPTH
FMAT,2
METRIC
; #@! TA.AperFunction,NonPlated,NPTH,ComponentDrill
T1C1.000
; #@! TA.AperFunction,NonPlated,NPTH,ComponentDrill
T2C1.020
; #@! TA.AperFunction,NonPlated,NPTH,ComponentDrill
T3C1.270
; #@! TA.AperFunction,NonPlated,NPTH,ComponentDrill
T4C3.000
%
G90
G05
T1
X146.5Y-141.86
X167.5Y-141.86
T2
X132.78Y-57.89
X144.78Y-57.89
T3
X113.54Y-59.39
X113.54Y-71.39
X113.54Y-73.61
X113.54Y-85.61
X113.54Y-87.78
X113.54Y-96.78
X113.54Y-108.29
X113.54Y-123.29
X113.54Y-125.6
X113.54Y-140.6
X120.98Y-52.33
X122.01Y-111.65
X122.01Y-123.65
X129.98Y-52.33
X134.5Y-147.76
X143.5Y-147.76
X148.43Y-52.41
X163.43Y-52.41
X167.39Y-52.41
X171.0Y-147.76
X180.0Y-147.76
X182.39Y-52.41
X190.59Y-111.92
X190.59Y-120.92
X190.7Y-59.98
X190.7Y-68.98
X190.7Y-71.39
X190.7Y-86.39
X190.7Y-88.94
X190.7Y-103.94
X190.7Y-131.5
X190.7Y-140.5
T4
X116.5Y-55.25
X116.5Y-144.75
X187.75Y-55.25
X187.75Y-144.75
M30
