M48
; DRILL file {KiCad 8.0.7} date 2025-01-18T17:23:32-0600
; FORMAT={-:-/ absolute / metric / decimal}
; #@! TF.CreationDate,2025-01-18T17:23:32-06:00
; #@! TF.GenerationSoftware,Kicad,Pcbnew,8.0.7
; #@! TF.FileFunction,Plated,1,2,PTH
FMAT,2
METRIC
; #@! TA.AperFunction,Plated,PTH,ViaDrill
T1C0.300
; #@! TA.AperFunction,Plated,PTH,ComponentDrill
T2C0.600
; #@! TA.AperFunction,Plated,PTH,ComponentDrill
T3C0.850
; #@! TA.AperFunction,Plated,PTH,ComponentDrill
T4C1.000
; #@! TA.AperFunction,Plated,PTH,ComponentDrill
T5C1.020
; #@! TA.AperFunction,Plated,PTH,ComponentDrill
T6C1.600
%
G90
G05
T1
X116.373Y-101.555
X118.25Y-107.15
X118.95Y-101.222
X118.95Y-102.53
X120.438Y-70.525
X120.47Y-102.88
X120.58Y-98.68
X120.58Y-100.58
X121.087Y-80.216
X121.35Y-108.25
X121.54Y-102.165
X122.026Y-106.596
X122.3Y-75.5
X122.3Y-88.0
X125.09Y-134.0
X125.755Y-72.075
X126.258Y-66.86
X126.3Y-63.2
X126.365Y-133.935
X126.938Y-82.05
X127.602Y-104.215
X127.605Y-103.212
X128.625Y-109.825
X128.905Y-123.27
X129.05Y-65.625
X129.21Y-83.64
X129.8Y-80.25
X130.75Y-75.0
X131.575Y-100.625
X131.59Y-107.647
X131.75Y-75.0
X132.453Y-102.447
X133.5Y-104.95
X133.878Y-71.95
X134.0Y-134.0
X134.65Y-137.1
X134.65Y-139.9
X136.4Y-95.68
X136.525Y-123.27
X137.37Y-104.245
X137.525Y-111.895
X137.6Y-59.8
X137.735Y-133.925
X137.875Y-119.7
X138.4Y-112.2
X138.41Y-105.31
X138.45Y-70.705
X138.45Y-71.975
X140.2Y-117.977
X140.215Y-127.675
X140.34Y-111.455
X140.5Y-61.35
X143.4Y-116.092
X143.75Y-123.25
X143.84Y-127.675
X143.84Y-133.925
X144.6Y-101.1
X144.7Y-95.5
X144.85Y-120.5
X146.041Y-123.27
X146.55Y-116.05
X146.6Y-107.07
X146.782Y-89.159
X146.8Y-97.7
X146.825Y-95.65
X146.917Y-103.16
X147.3Y-91.306
X147.465Y-127.675
X147.6Y-119.2
X147.8Y-83.675
X147.807Y-71.893
X148.4Y-123.3
X148.5Y-109.6
X148.9Y-60.6
X149.55Y-102.65
X149.6Y-97.5
X149.6Y-116.1
X149.7Y-99.65
X149.7Y-108.3
X150.817Y-87.233
X151.024Y-136.088
X151.1Y-119.1
X151.13Y-127.685
X151.13Y-133.935
X151.21Y-98.41
X151.7Y-60.6
X151.9Y-99.035
X152.385Y-86.535
X152.6Y-99.7
X152.7Y-85.8
X152.85Y-116.1
X153.018Y-125.095
X153.05Y-123.3
X153.75Y-67.75
X153.9Y-121.64
X154.0Y-118.9
X154.49Y-74.51
X154.585Y-86.1
X154.965Y-127.675
X155.1Y-89.8
X155.1Y-90.6
X155.35Y-123.25
X155.84Y-136.088
X156.0Y-118.0
X156.5Y-86.3
X156.55Y-124.3
X157.044Y-63.312
X157.044Y-65.41
X157.255Y-120.5
X157.3Y-75.8
X157.326Y-97.6
X157.326Y-103.6
X157.669Y-125.095
X158.0Y-92.3
X158.2Y-105.25
X158.2Y-114.0
X158.464Y-100.691
X158.665Y-127.685
X159.25Y-116.077
X159.35Y-121.46
X159.5Y-74.7
X159.9Y-90.0
X160.0Y-115.0
X160.0Y-123.3
X160.02Y-105.664
X160.11Y-121.84
X160.525Y-88.8
X160.6Y-63.312
X160.6Y-65.344
X160.713Y-120.5
X161.036Y-105.45
X162.45Y-116.05
X162.85Y-96.65
X163.575Y-93.35
X163.635Y-127.685
X163.83Y-121.92
X163.9Y-63.82
X164.325Y-118.6
X164.4Y-98.16
X164.719Y-119.45
X165.1Y-121.92
X166.4Y-120.6
X166.971Y-125.095
X167.335Y-127.685
X168.25Y-101.0
X168.575Y-96.566
X169.2Y-96.0
X169.79Y-133.925
X170.075Y-66.4
X171.06Y-127.675
X171.06Y-133.925
X171.17Y-140.46
X171.325Y-59.815
X171.325Y-67.6
X171.437Y-101.29
X171.9Y-56.2
X171.912Y-136.5
X172.488Y-58.398
X172.95Y-124.55
X173.3Y-66.4
X173.3Y-67.63
X173.3Y-72.7
X173.475Y-133.925
X173.75Y-124.15
X174.76Y-133.935
X175.912Y-136.5
X176.3Y-69.888
X176.348Y-67.884
X176.9Y-77.1
X177.165Y-133.935
X178.3Y-73.75
X178.3Y-75.65
X178.45Y-133.95
X179.6Y-69.5
X179.882Y-108.361
X179.912Y-136.5
X180.008Y-57.792
X182.15Y-72.1
X182.775Y-125.85
X184.15Y-119.435
X185.925Y-121.975
T3
X117.622Y-99.998
X117.622Y-104.998
X180.34Y-113.03
X180.34Y-115.57
X180.34Y-118.11
X180.34Y-120.65
T4
X125.08Y-96.35
X126.77Y-88.3
X126.77Y-90.84
X127.62Y-96.35
X129.31Y-88.3
X129.31Y-90.84
X130.16Y-96.35
X131.85Y-88.3
X131.85Y-90.84
X133.878Y-79.428
X136.418Y-79.428
X146.07Y-76.639
X146.07Y-79.179
X149.5Y-142.8
X149.5Y-145.8
X152.5Y-142.8
X152.5Y-145.8
X152.96Y-70.98
X152.96Y-73.52
X152.96Y-76.06
X152.96Y-78.6
X152.96Y-81.14
X152.96Y-83.68
X155.5Y-70.98
X155.5Y-73.52
X155.5Y-76.06
X155.5Y-78.6
X155.5Y-81.14
X155.5Y-83.68
X155.5Y-142.8
X155.5Y-145.8
X158.5Y-142.8
X158.5Y-145.8
X161.5Y-142.8
X161.5Y-145.8
X164.5Y-142.8
X164.5Y-145.8
X166.0Y-88.17
X166.0Y-90.71
X166.0Y-93.25
X166.0Y-95.79
X166.35Y-103.66
X166.35Y-106.2
X166.35Y-108.74
X169.235Y-77.1
X170.09Y-87.56
X170.09Y-90.1
X170.09Y-92.64
X171.775Y-77.1
T5
X115.5Y-62.39
X115.5Y-65.39
X115.5Y-68.39
X115.5Y-76.61
X115.5Y-79.61
X115.5Y-82.61
X115.5Y-90.78
X115.5Y-93.78
X115.5Y-111.29
X115.5Y-114.29
X115.5Y-117.29
X115.5Y-120.29
X115.5Y-128.6
X115.5Y-131.6
X115.5Y-134.6
X115.5Y-137.6
X123.97Y-114.65
X123.97Y-117.65
X123.97Y-120.65
X123.98Y-54.29
X126.98Y-54.29
X135.78Y-53.95
X135.78Y-56.95
X137.5Y-145.8
X138.78Y-53.95
X138.78Y-56.95
X140.5Y-145.8
X141.78Y-53.95
X141.78Y-56.95
X151.43Y-54.37
X154.43Y-54.37
X157.43Y-54.37
X160.43Y-54.37
X170.39Y-54.37
X173.39Y-54.37
X174.0Y-145.8
X176.39Y-54.37
X177.0Y-145.8
X179.39Y-54.37
X188.63Y-114.92
X188.63Y-117.92
X188.74Y-62.98
X188.74Y-65.98
X188.74Y-74.39
X188.74Y-77.39
X188.74Y-80.39
X188.74Y-83.39
X188.74Y-91.94
X188.74Y-94.94
X188.74Y-97.94
X188.74Y-100.94
X188.74Y-134.5
X188.74Y-137.5
T6
X122.25Y-139.5
X129.25Y-139.5
X129.25Y-145.15
X131.1Y-113.9
X181.95Y-130.1
X188.95Y-107.59
X189.3Y-128.1
T2
G00X114.572Y-98.998
M15
G01X115.272Y-98.998
M16
G05
G00X115.272Y-105.998
M15
G01X114.572Y-105.998
M16
G05
M30
