%TF.GenerationSoftware,KiCad,Pcbnew,8.0.7*%
%TF.CreationDate,2025-01-18T17:23:32-06:00*%
%TF.ProjectId,Controls-Leader,436f6e74-726f-46c7-932d-4c6561646572,rev?*%
%TF.SameCoordinates,Original*%
%TF.FileFunction,Drillmap*%
%TF.FilePolarity,Positive*%
%FSLAX45Y45*%
G04 Gerber Fmt 4.5, Leading zero omitted, Abs format (unit mm)*
G04 Created by KiCad (PCBNEW 8.0.7) date 2025-01-18 17:23:32*
%MOMM*%
%LPD*%
G01*
G04 APERTURE LIST*
%ADD10C,0.050000*%
%ADD11C,0.200000*%
%ADD12C,0.100000*%
%ADD13C,0.102000*%
%ADD14C,0.127000*%
%ADD15C,0.300000*%
G04 APERTURE END LIST*
D10*
X11250000Y-14475000D02*
X11250000Y-5525000D01*
X19175000Y-5525000D02*
X19175000Y-14475000D01*
X18775000Y-5125000D02*
G75*
G02*
X19175000Y-5525000I0J-400000D01*
G01*
X18775000Y-14875000D02*
X11650000Y-14875000D01*
X11650000Y-5125000D02*
X18775000Y-5125000D01*
X11250000Y-5525000D02*
G75*
G02*
X11650000Y-5125000I400000J0D01*
G01*
X11650000Y-14875000D02*
G75*
G02*
X11250000Y-14475000I0J400000D01*
G01*
X19175000Y-14475000D02*
G75*
G02*
X18775000Y-14875000I-400000J0D01*
G01*
D11*
D12*
X14600000Y-14136000D02*
X14700000Y-14236000D01*
X14700000Y-14136000D02*
X14600000Y-14236000D01*
X16700000Y-14136000D02*
X16800000Y-14236000D01*
X16800000Y-14136000D02*
X16700000Y-14236000D01*
D13*
X13329000Y-5789000D02*
G75*
G02*
X13227000Y-5789000I-51000J0D01*
G01*
X13227000Y-5789000D02*
G75*
G02*
X13329000Y-5789000I51000J0D01*
G01*
X14529000Y-5789000D02*
G75*
G02*
X14427000Y-5789000I-51000J0D01*
G01*
X14427000Y-5789000D02*
G75*
G02*
X14529000Y-5789000I51000J0D01*
G01*
D14*
X11354000Y-5875500D02*
X11354000Y-6002500D01*
X11290500Y-5939000D02*
X11417500Y-5939000D01*
X11354000Y-7075500D02*
X11354000Y-7202500D01*
X11290500Y-7139000D02*
X11417500Y-7139000D01*
X11354000Y-7297500D02*
X11354000Y-7424500D01*
X11290500Y-7361000D02*
X11417500Y-7361000D01*
X11354000Y-8497500D02*
X11354000Y-8624500D01*
X11290500Y-8561000D02*
X11417500Y-8561000D01*
X11354000Y-8714500D02*
X11354000Y-8841500D01*
X11290500Y-8778000D02*
X11417500Y-8778000D01*
X11354000Y-9614500D02*
X11354000Y-9741500D01*
X11290500Y-9678000D02*
X11417500Y-9678000D01*
X11354000Y-10765500D02*
X11354000Y-10892500D01*
X11290500Y-10829000D02*
X11417500Y-10829000D01*
X11354000Y-12265500D02*
X11354000Y-12392500D01*
X11290500Y-12329000D02*
X11417500Y-12329000D01*
X11354000Y-12496500D02*
X11354000Y-12623500D01*
X11290500Y-12560000D02*
X11417500Y-12560000D01*
X11354000Y-13996500D02*
X11354000Y-14123500D01*
X11290500Y-14060000D02*
X11417500Y-14060000D01*
X12098000Y-5169500D02*
X12098000Y-5296500D01*
X12034500Y-5233000D02*
X12161500Y-5233000D01*
X12201000Y-11101500D02*
X12201000Y-11228500D01*
X12137500Y-11165000D02*
X12264500Y-11165000D01*
X12201000Y-12301500D02*
X12201000Y-12428500D01*
X12137500Y-12365000D02*
X12264500Y-12365000D01*
X12998000Y-5169500D02*
X12998000Y-5296500D01*
X12934500Y-5233000D02*
X13061500Y-5233000D01*
X13450000Y-14712500D02*
X13450000Y-14839500D01*
X13386500Y-14776000D02*
X13513500Y-14776000D01*
X14350000Y-14712500D02*
X14350000Y-14839500D01*
X14286500Y-14776000D02*
X14413500Y-14776000D01*
X14843000Y-5177500D02*
X14843000Y-5304500D01*
X14779500Y-5241000D02*
X14906500Y-5241000D01*
X16343000Y-5177500D02*
X16343000Y-5304500D01*
X16279500Y-5241000D02*
X16406500Y-5241000D01*
X16739000Y-5177500D02*
X16739000Y-5304500D01*
X16675500Y-5241000D02*
X16802500Y-5241000D01*
X17100000Y-14712500D02*
X17100000Y-14839500D01*
X17036500Y-14776000D02*
X17163500Y-14776000D01*
X18000000Y-14712500D02*
X18000000Y-14839500D01*
X17936500Y-14776000D02*
X18063500Y-14776000D01*
X18239000Y-5177500D02*
X18239000Y-5304500D01*
X18175500Y-5241000D02*
X18302500Y-5241000D01*
X19059000Y-11128500D02*
X19059000Y-11255500D01*
X18995500Y-11192000D02*
X19122500Y-11192000D01*
X19059000Y-12028500D02*
X19059000Y-12155500D01*
X18995500Y-12092000D02*
X19122500Y-12092000D01*
X19070000Y-5934500D02*
X19070000Y-6061500D01*
X19006500Y-5998000D02*
X19133500Y-5998000D01*
X19070000Y-6834500D02*
X19070000Y-6961500D01*
X19006500Y-6898000D02*
X19133500Y-6898000D01*
X19070000Y-7075500D02*
X19070000Y-7202500D01*
X19006500Y-7139000D02*
X19133500Y-7139000D01*
X19070000Y-8575500D02*
X19070000Y-8702500D01*
X19006500Y-8639000D02*
X19133500Y-8639000D01*
X19070000Y-8830500D02*
X19070000Y-8957500D01*
X19006500Y-8894000D02*
X19133500Y-8894000D01*
X19070000Y-10330500D02*
X19070000Y-10457500D01*
X19006500Y-10394000D02*
X19133500Y-10394000D01*
X19070000Y-13086500D02*
X19070000Y-13213500D01*
X19006500Y-13150000D02*
X19133500Y-13150000D01*
X19070000Y-13986500D02*
X19070000Y-14113500D01*
X19006500Y-14050000D02*
X19133500Y-14050000D01*
D15*
X11756067Y-5631067D02*
X11756067Y-5418933D01*
X11543933Y-5418933D01*
X11543933Y-5631067D01*
X11756067Y-5631067D01*
X11756067Y-14581067D02*
X11756067Y-14368933D01*
X11543933Y-14368933D01*
X11543933Y-14581067D01*
X11756067Y-14581067D01*
X18881067Y-5631067D02*
X18881067Y-5418933D01*
X18668933Y-5418933D01*
X18668933Y-5631067D01*
X18881067Y-5631067D01*
X18881067Y-14581067D02*
X18881067Y-14368933D01*
X18668933Y-14368933D01*
X18668933Y-14581067D01*
X18881067Y-14581067D01*
D11*
X11508277Y-15188984D02*
X11508277Y-14988984D01*
X11508277Y-14988984D02*
X11555896Y-14988984D01*
X11555896Y-14988984D02*
X11584467Y-14998508D01*
X11584467Y-14998508D02*
X11603515Y-15017555D01*
X11603515Y-15017555D02*
X11613039Y-15036603D01*
X11613039Y-15036603D02*
X11622562Y-15074698D01*
X11622562Y-15074698D02*
X11622562Y-15103269D01*
X11622562Y-15103269D02*
X11613039Y-15141365D01*
X11613039Y-15141365D02*
X11603515Y-15160412D01*
X11603515Y-15160412D02*
X11584467Y-15179460D01*
X11584467Y-15179460D02*
X11555896Y-15188984D01*
X11555896Y-15188984D02*
X11508277Y-15188984D01*
X11708277Y-15188984D02*
X11708277Y-15055650D01*
X11708277Y-15093746D02*
X11717801Y-15074698D01*
X11717801Y-15074698D02*
X11727324Y-15065174D01*
X11727324Y-15065174D02*
X11746372Y-15055650D01*
X11746372Y-15055650D02*
X11765420Y-15055650D01*
X11832086Y-15188984D02*
X11832086Y-15055650D01*
X11832086Y-14988984D02*
X11822562Y-14998508D01*
X11822562Y-14998508D02*
X11832086Y-15008031D01*
X11832086Y-15008031D02*
X11841610Y-14998508D01*
X11841610Y-14998508D02*
X11832086Y-14988984D01*
X11832086Y-14988984D02*
X11832086Y-15008031D01*
X11955896Y-15188984D02*
X11936848Y-15179460D01*
X11936848Y-15179460D02*
X11927324Y-15160412D01*
X11927324Y-15160412D02*
X11927324Y-14988984D01*
X12060658Y-15188984D02*
X12041610Y-15179460D01*
X12041610Y-15179460D02*
X12032086Y-15160412D01*
X12032086Y-15160412D02*
X12032086Y-14988984D01*
X12289229Y-15188984D02*
X12289229Y-14988984D01*
X12289229Y-14988984D02*
X12355896Y-15131841D01*
X12355896Y-15131841D02*
X12422562Y-14988984D01*
X12422562Y-14988984D02*
X12422562Y-15188984D01*
X12603515Y-15188984D02*
X12603515Y-15084222D01*
X12603515Y-15084222D02*
X12593991Y-15065174D01*
X12593991Y-15065174D02*
X12574943Y-15055650D01*
X12574943Y-15055650D02*
X12536848Y-15055650D01*
X12536848Y-15055650D02*
X12517801Y-15065174D01*
X12603515Y-15179460D02*
X12584467Y-15188984D01*
X12584467Y-15188984D02*
X12536848Y-15188984D01*
X12536848Y-15188984D02*
X12517801Y-15179460D01*
X12517801Y-15179460D02*
X12508277Y-15160412D01*
X12508277Y-15160412D02*
X12508277Y-15141365D01*
X12508277Y-15141365D02*
X12517801Y-15122317D01*
X12517801Y-15122317D02*
X12536848Y-15112793D01*
X12536848Y-15112793D02*
X12584467Y-15112793D01*
X12584467Y-15112793D02*
X12603515Y-15103269D01*
X12698753Y-15055650D02*
X12698753Y-15255650D01*
X12698753Y-15065174D02*
X12717801Y-15055650D01*
X12717801Y-15055650D02*
X12755896Y-15055650D01*
X12755896Y-15055650D02*
X12774943Y-15065174D01*
X12774943Y-15065174D02*
X12784467Y-15074698D01*
X12784467Y-15074698D02*
X12793991Y-15093746D01*
X12793991Y-15093746D02*
X12793991Y-15150888D01*
X12793991Y-15150888D02*
X12784467Y-15169936D01*
X12784467Y-15169936D02*
X12774943Y-15179460D01*
X12774943Y-15179460D02*
X12755896Y-15188984D01*
X12755896Y-15188984D02*
X12717801Y-15188984D01*
X12717801Y-15188984D02*
X12698753Y-15179460D01*
X12879705Y-15169936D02*
X12889229Y-15179460D01*
X12889229Y-15179460D02*
X12879705Y-15188984D01*
X12879705Y-15188984D02*
X12870182Y-15179460D01*
X12870182Y-15179460D02*
X12879705Y-15169936D01*
X12879705Y-15169936D02*
X12879705Y-15188984D01*
X12879705Y-15065174D02*
X12889229Y-15074698D01*
X12889229Y-15074698D02*
X12879705Y-15084222D01*
X12879705Y-15084222D02*
X12870182Y-15074698D01*
X12870182Y-15074698D02*
X12879705Y-15065174D01*
X12879705Y-15065174D02*
X12879705Y-15084222D01*
D12*
X11147500Y-15467500D02*
X11247500Y-15567500D01*
X11247500Y-15467500D02*
X11147500Y-15567500D01*
D11*
X11613039Y-15608984D02*
X11498753Y-15608984D01*
X11555896Y-15608984D02*
X11555896Y-15408984D01*
X11555896Y-15408984D02*
X11536848Y-15437555D01*
X11536848Y-15437555D02*
X11517801Y-15456603D01*
X11517801Y-15456603D02*
X11498753Y-15466127D01*
X11698753Y-15589936D02*
X11708277Y-15599460D01*
X11708277Y-15599460D02*
X11698753Y-15608984D01*
X11698753Y-15608984D02*
X11689229Y-15599460D01*
X11689229Y-15599460D02*
X11698753Y-15589936D01*
X11698753Y-15589936D02*
X11698753Y-15608984D01*
X11832086Y-15408984D02*
X11851134Y-15408984D01*
X11851134Y-15408984D02*
X11870182Y-15418508D01*
X11870182Y-15418508D02*
X11879705Y-15428031D01*
X11879705Y-15428031D02*
X11889229Y-15447079D01*
X11889229Y-15447079D02*
X11898753Y-15485174D01*
X11898753Y-15485174D02*
X11898753Y-15532793D01*
X11898753Y-15532793D02*
X11889229Y-15570888D01*
X11889229Y-15570888D02*
X11879705Y-15589936D01*
X11879705Y-15589936D02*
X11870182Y-15599460D01*
X11870182Y-15599460D02*
X11851134Y-15608984D01*
X11851134Y-15608984D02*
X11832086Y-15608984D01*
X11832086Y-15608984D02*
X11813039Y-15599460D01*
X11813039Y-15599460D02*
X11803515Y-15589936D01*
X11803515Y-15589936D02*
X11793991Y-15570888D01*
X11793991Y-15570888D02*
X11784467Y-15532793D01*
X11784467Y-15532793D02*
X11784467Y-15485174D01*
X11784467Y-15485174D02*
X11793991Y-15447079D01*
X11793991Y-15447079D02*
X11803515Y-15428031D01*
X11803515Y-15428031D02*
X11813039Y-15418508D01*
X11813039Y-15418508D02*
X11832086Y-15408984D01*
X12022562Y-15408984D02*
X12041610Y-15408984D01*
X12041610Y-15408984D02*
X12060658Y-15418508D01*
X12060658Y-15418508D02*
X12070182Y-15428031D01*
X12070182Y-15428031D02*
X12079705Y-15447079D01*
X12079705Y-15447079D02*
X12089229Y-15485174D01*
X12089229Y-15485174D02*
X12089229Y-15532793D01*
X12089229Y-15532793D02*
X12079705Y-15570888D01*
X12079705Y-15570888D02*
X12070182Y-15589936D01*
X12070182Y-15589936D02*
X12060658Y-15599460D01*
X12060658Y-15599460D02*
X12041610Y-15608984D01*
X12041610Y-15608984D02*
X12022562Y-15608984D01*
X12022562Y-15608984D02*
X12003515Y-15599460D01*
X12003515Y-15599460D02*
X11993991Y-15589936D01*
X11993991Y-15589936D02*
X11984467Y-15570888D01*
X11984467Y-15570888D02*
X11974943Y-15532793D01*
X11974943Y-15532793D02*
X11974943Y-15485174D01*
X11974943Y-15485174D02*
X11984467Y-15447079D01*
X11984467Y-15447079D02*
X11993991Y-15428031D01*
X11993991Y-15428031D02*
X12003515Y-15418508D01*
X12003515Y-15418508D02*
X12022562Y-15408984D01*
X12213039Y-15408984D02*
X12232086Y-15408984D01*
X12232086Y-15408984D02*
X12251134Y-15418508D01*
X12251134Y-15418508D02*
X12260658Y-15428031D01*
X12260658Y-15428031D02*
X12270182Y-15447079D01*
X12270182Y-15447079D02*
X12279705Y-15485174D01*
X12279705Y-15485174D02*
X12279705Y-15532793D01*
X12279705Y-15532793D02*
X12270182Y-15570888D01*
X12270182Y-15570888D02*
X12260658Y-15589936D01*
X12260658Y-15589936D02*
X12251134Y-15599460D01*
X12251134Y-15599460D02*
X12232086Y-15608984D01*
X12232086Y-15608984D02*
X12213039Y-15608984D01*
X12213039Y-15608984D02*
X12193991Y-15599460D01*
X12193991Y-15599460D02*
X12184467Y-15589936D01*
X12184467Y-15589936D02*
X12174943Y-15570888D01*
X12174943Y-15570888D02*
X12165420Y-15532793D01*
X12165420Y-15532793D02*
X12165420Y-15485174D01*
X12165420Y-15485174D02*
X12174943Y-15447079D01*
X12174943Y-15447079D02*
X12184467Y-15428031D01*
X12184467Y-15428031D02*
X12193991Y-15418508D01*
X12193991Y-15418508D02*
X12213039Y-15408984D01*
X12365420Y-15608984D02*
X12365420Y-15475650D01*
X12365420Y-15494698D02*
X12374943Y-15485174D01*
X12374943Y-15485174D02*
X12393991Y-15475650D01*
X12393991Y-15475650D02*
X12422563Y-15475650D01*
X12422563Y-15475650D02*
X12441610Y-15485174D01*
X12441610Y-15485174D02*
X12451134Y-15504222D01*
X12451134Y-15504222D02*
X12451134Y-15608984D01*
X12451134Y-15504222D02*
X12460658Y-15485174D01*
X12460658Y-15485174D02*
X12479705Y-15475650D01*
X12479705Y-15475650D02*
X12508277Y-15475650D01*
X12508277Y-15475650D02*
X12527324Y-15485174D01*
X12527324Y-15485174D02*
X12536848Y-15504222D01*
X12536848Y-15504222D02*
X12536848Y-15608984D01*
X12632086Y-15608984D02*
X12632086Y-15475650D01*
X12632086Y-15494698D02*
X12641610Y-15485174D01*
X12641610Y-15485174D02*
X12660658Y-15475650D01*
X12660658Y-15475650D02*
X12689229Y-15475650D01*
X12689229Y-15475650D02*
X12708277Y-15485174D01*
X12708277Y-15485174D02*
X12717801Y-15504222D01*
X12717801Y-15504222D02*
X12717801Y-15608984D01*
X12717801Y-15504222D02*
X12727324Y-15485174D01*
X12727324Y-15485174D02*
X12746372Y-15475650D01*
X12746372Y-15475650D02*
X12774943Y-15475650D01*
X12774943Y-15475650D02*
X12793991Y-15485174D01*
X12793991Y-15485174D02*
X12803515Y-15504222D01*
X12803515Y-15504222D02*
X12803515Y-15608984D01*
X13193991Y-15399460D02*
X13022563Y-15656603D01*
X13451134Y-15408984D02*
X13470182Y-15408984D01*
X13470182Y-15408984D02*
X13489229Y-15418508D01*
X13489229Y-15418508D02*
X13498753Y-15428031D01*
X13498753Y-15428031D02*
X13508277Y-15447079D01*
X13508277Y-15447079D02*
X13517801Y-15485174D01*
X13517801Y-15485174D02*
X13517801Y-15532793D01*
X13517801Y-15532793D02*
X13508277Y-15570888D01*
X13508277Y-15570888D02*
X13498753Y-15589936D01*
X13498753Y-15589936D02*
X13489229Y-15599460D01*
X13489229Y-15599460D02*
X13470182Y-15608984D01*
X13470182Y-15608984D02*
X13451134Y-15608984D01*
X13451134Y-15608984D02*
X13432086Y-15599460D01*
X13432086Y-15599460D02*
X13422563Y-15589936D01*
X13422563Y-15589936D02*
X13413039Y-15570888D01*
X13413039Y-15570888D02*
X13403515Y-15532793D01*
X13403515Y-15532793D02*
X13403515Y-15485174D01*
X13403515Y-15485174D02*
X13413039Y-15447079D01*
X13413039Y-15447079D02*
X13422563Y-15428031D01*
X13422563Y-15428031D02*
X13432086Y-15418508D01*
X13432086Y-15418508D02*
X13451134Y-15408984D01*
X13603515Y-15589936D02*
X13613039Y-15599460D01*
X13613039Y-15599460D02*
X13603515Y-15608984D01*
X13603515Y-15608984D02*
X13593991Y-15599460D01*
X13593991Y-15599460D02*
X13603515Y-15589936D01*
X13603515Y-15589936D02*
X13603515Y-15608984D01*
X13736848Y-15408984D02*
X13755896Y-15408984D01*
X13755896Y-15408984D02*
X13774944Y-15418508D01*
X13774944Y-15418508D02*
X13784467Y-15428031D01*
X13784467Y-15428031D02*
X13793991Y-15447079D01*
X13793991Y-15447079D02*
X13803515Y-15485174D01*
X13803515Y-15485174D02*
X13803515Y-15532793D01*
X13803515Y-15532793D02*
X13793991Y-15570888D01*
X13793991Y-15570888D02*
X13784467Y-15589936D01*
X13784467Y-15589936D02*
X13774944Y-15599460D01*
X13774944Y-15599460D02*
X13755896Y-15608984D01*
X13755896Y-15608984D02*
X13736848Y-15608984D01*
X13736848Y-15608984D02*
X13717801Y-15599460D01*
X13717801Y-15599460D02*
X13708277Y-15589936D01*
X13708277Y-15589936D02*
X13698753Y-15570888D01*
X13698753Y-15570888D02*
X13689229Y-15532793D01*
X13689229Y-15532793D02*
X13689229Y-15485174D01*
X13689229Y-15485174D02*
X13698753Y-15447079D01*
X13698753Y-15447079D02*
X13708277Y-15428031D01*
X13708277Y-15428031D02*
X13717801Y-15418508D01*
X13717801Y-15418508D02*
X13736848Y-15408984D01*
X13870182Y-15408984D02*
X13993991Y-15408984D01*
X13993991Y-15408984D02*
X13927325Y-15485174D01*
X13927325Y-15485174D02*
X13955896Y-15485174D01*
X13955896Y-15485174D02*
X13974944Y-15494698D01*
X13974944Y-15494698D02*
X13984467Y-15504222D01*
X13984467Y-15504222D02*
X13993991Y-15523269D01*
X13993991Y-15523269D02*
X13993991Y-15570888D01*
X13993991Y-15570888D02*
X13984467Y-15589936D01*
X13984467Y-15589936D02*
X13974944Y-15599460D01*
X13974944Y-15599460D02*
X13955896Y-15608984D01*
X13955896Y-15608984D02*
X13898753Y-15608984D01*
X13898753Y-15608984D02*
X13879706Y-15599460D01*
X13879706Y-15599460D02*
X13870182Y-15589936D01*
X14089229Y-15608984D02*
X14127325Y-15608984D01*
X14127325Y-15608984D02*
X14146372Y-15599460D01*
X14146372Y-15599460D02*
X14155896Y-15589936D01*
X14155896Y-15589936D02*
X14174944Y-15561365D01*
X14174944Y-15561365D02*
X14184467Y-15523269D01*
X14184467Y-15523269D02*
X14184467Y-15447079D01*
X14184467Y-15447079D02*
X14174944Y-15428031D01*
X14174944Y-15428031D02*
X14165420Y-15418508D01*
X14165420Y-15418508D02*
X14146372Y-15408984D01*
X14146372Y-15408984D02*
X14108277Y-15408984D01*
X14108277Y-15408984D02*
X14089229Y-15418508D01*
X14089229Y-15418508D02*
X14079706Y-15428031D01*
X14079706Y-15428031D02*
X14070182Y-15447079D01*
X14070182Y-15447079D02*
X14070182Y-15494698D01*
X14070182Y-15494698D02*
X14079706Y-15513746D01*
X14079706Y-15513746D02*
X14089229Y-15523269D01*
X14089229Y-15523269D02*
X14108277Y-15532793D01*
X14108277Y-15532793D02*
X14146372Y-15532793D01*
X14146372Y-15532793D02*
X14165420Y-15523269D01*
X14165420Y-15523269D02*
X14174944Y-15513746D01*
X14174944Y-15513746D02*
X14184467Y-15494698D01*
X14355896Y-15475650D02*
X14355896Y-15608984D01*
X14308277Y-15399460D02*
X14260658Y-15542317D01*
X14260658Y-15542317D02*
X14384467Y-15542317D01*
X14451134Y-15408984D02*
X14451134Y-15447079D01*
X14527325Y-15408984D02*
X14527325Y-15447079D01*
X14822563Y-15685174D02*
X14813039Y-15675650D01*
X14813039Y-15675650D02*
X14793991Y-15647079D01*
X14793991Y-15647079D02*
X14784468Y-15628031D01*
X14784468Y-15628031D02*
X14774944Y-15599460D01*
X14774944Y-15599460D02*
X14765420Y-15551841D01*
X14765420Y-15551841D02*
X14765420Y-15513746D01*
X14765420Y-15513746D02*
X14774944Y-15466127D01*
X14774944Y-15466127D02*
X14784468Y-15437555D01*
X14784468Y-15437555D02*
X14793991Y-15418508D01*
X14793991Y-15418508D02*
X14813039Y-15389936D01*
X14813039Y-15389936D02*
X14822563Y-15380412D01*
X14889229Y-15428031D02*
X14898753Y-15418508D01*
X14898753Y-15418508D02*
X14917801Y-15408984D01*
X14917801Y-15408984D02*
X14965420Y-15408984D01*
X14965420Y-15408984D02*
X14984468Y-15418508D01*
X14984468Y-15418508D02*
X14993991Y-15428031D01*
X14993991Y-15428031D02*
X15003515Y-15447079D01*
X15003515Y-15447079D02*
X15003515Y-15466127D01*
X15003515Y-15466127D02*
X14993991Y-15494698D01*
X14993991Y-15494698D02*
X14879706Y-15608984D01*
X14879706Y-15608984D02*
X15003515Y-15608984D01*
X15241610Y-15608984D02*
X15241610Y-15408984D01*
X15327325Y-15608984D02*
X15327325Y-15504222D01*
X15327325Y-15504222D02*
X15317801Y-15485174D01*
X15317801Y-15485174D02*
X15298753Y-15475650D01*
X15298753Y-15475650D02*
X15270182Y-15475650D01*
X15270182Y-15475650D02*
X15251134Y-15485174D01*
X15251134Y-15485174D02*
X15241610Y-15494698D01*
X15451134Y-15608984D02*
X15432087Y-15599460D01*
X15432087Y-15599460D02*
X15422563Y-15589936D01*
X15422563Y-15589936D02*
X15413039Y-15570888D01*
X15413039Y-15570888D02*
X15413039Y-15513746D01*
X15413039Y-15513746D02*
X15422563Y-15494698D01*
X15422563Y-15494698D02*
X15432087Y-15485174D01*
X15432087Y-15485174D02*
X15451134Y-15475650D01*
X15451134Y-15475650D02*
X15479706Y-15475650D01*
X15479706Y-15475650D02*
X15498753Y-15485174D01*
X15498753Y-15485174D02*
X15508277Y-15494698D01*
X15508277Y-15494698D02*
X15517801Y-15513746D01*
X15517801Y-15513746D02*
X15517801Y-15570888D01*
X15517801Y-15570888D02*
X15508277Y-15589936D01*
X15508277Y-15589936D02*
X15498753Y-15599460D01*
X15498753Y-15599460D02*
X15479706Y-15608984D01*
X15479706Y-15608984D02*
X15451134Y-15608984D01*
X15632087Y-15608984D02*
X15613039Y-15599460D01*
X15613039Y-15599460D02*
X15603515Y-15580412D01*
X15603515Y-15580412D02*
X15603515Y-15408984D01*
X15784468Y-15599460D02*
X15765420Y-15608984D01*
X15765420Y-15608984D02*
X15727325Y-15608984D01*
X15727325Y-15608984D02*
X15708277Y-15599460D01*
X15708277Y-15599460D02*
X15698753Y-15580412D01*
X15698753Y-15580412D02*
X15698753Y-15504222D01*
X15698753Y-15504222D02*
X15708277Y-15485174D01*
X15708277Y-15485174D02*
X15727325Y-15475650D01*
X15727325Y-15475650D02*
X15765420Y-15475650D01*
X15765420Y-15475650D02*
X15784468Y-15485174D01*
X15784468Y-15485174D02*
X15793991Y-15504222D01*
X15793991Y-15504222D02*
X15793991Y-15523269D01*
X15793991Y-15523269D02*
X15698753Y-15542317D01*
X15870182Y-15599460D02*
X15889230Y-15608984D01*
X15889230Y-15608984D02*
X15927325Y-15608984D01*
X15927325Y-15608984D02*
X15946372Y-15599460D01*
X15946372Y-15599460D02*
X15955896Y-15580412D01*
X15955896Y-15580412D02*
X15955896Y-15570888D01*
X15955896Y-15570888D02*
X15946372Y-15551841D01*
X15946372Y-15551841D02*
X15927325Y-15542317D01*
X15927325Y-15542317D02*
X15898753Y-15542317D01*
X15898753Y-15542317D02*
X15879706Y-15532793D01*
X15879706Y-15532793D02*
X15870182Y-15513746D01*
X15870182Y-15513746D02*
X15870182Y-15504222D01*
X15870182Y-15504222D02*
X15879706Y-15485174D01*
X15879706Y-15485174D02*
X15898753Y-15475650D01*
X15898753Y-15475650D02*
X15927325Y-15475650D01*
X15927325Y-15475650D02*
X15946372Y-15485174D01*
X16022563Y-15685174D02*
X16032087Y-15675650D01*
X16032087Y-15675650D02*
X16051134Y-15647079D01*
X16051134Y-15647079D02*
X16060658Y-15628031D01*
X16060658Y-15628031D02*
X16070182Y-15599460D01*
X16070182Y-15599460D02*
X16079706Y-15551841D01*
X16079706Y-15551841D02*
X16079706Y-15513746D01*
X16079706Y-15513746D02*
X16070182Y-15466127D01*
X16070182Y-15466127D02*
X16060658Y-15437555D01*
X16060658Y-15437555D02*
X16051134Y-15418508D01*
X16051134Y-15418508D02*
X16032087Y-15389936D01*
X16032087Y-15389936D02*
X16022563Y-15380412D01*
X16384468Y-15685174D02*
X16374944Y-15675650D01*
X16374944Y-15675650D02*
X16355896Y-15647079D01*
X16355896Y-15647079D02*
X16346372Y-15628031D01*
X16346372Y-15628031D02*
X16336849Y-15599460D01*
X16336849Y-15599460D02*
X16327325Y-15551841D01*
X16327325Y-15551841D02*
X16327325Y-15513746D01*
X16327325Y-15513746D02*
X16336849Y-15466127D01*
X16336849Y-15466127D02*
X16346372Y-15437555D01*
X16346372Y-15437555D02*
X16355896Y-15418508D01*
X16355896Y-15418508D02*
X16374944Y-15389936D01*
X16374944Y-15389936D02*
X16384468Y-15380412D01*
X16460658Y-15475650D02*
X16460658Y-15608984D01*
X16460658Y-15494698D02*
X16470182Y-15485174D01*
X16470182Y-15485174D02*
X16489230Y-15475650D01*
X16489230Y-15475650D02*
X16517801Y-15475650D01*
X16517801Y-15475650D02*
X16536849Y-15485174D01*
X16536849Y-15485174D02*
X16546372Y-15504222D01*
X16546372Y-15504222D02*
X16546372Y-15608984D01*
X16670182Y-15608984D02*
X16651134Y-15599460D01*
X16651134Y-15599460D02*
X16641611Y-15589936D01*
X16641611Y-15589936D02*
X16632087Y-15570888D01*
X16632087Y-15570888D02*
X16632087Y-15513746D01*
X16632087Y-15513746D02*
X16641611Y-15494698D01*
X16641611Y-15494698D02*
X16651134Y-15485174D01*
X16651134Y-15485174D02*
X16670182Y-15475650D01*
X16670182Y-15475650D02*
X16698753Y-15475650D01*
X16698753Y-15475650D02*
X16717801Y-15485174D01*
X16717801Y-15485174D02*
X16727325Y-15494698D01*
X16727325Y-15494698D02*
X16736849Y-15513746D01*
X16736849Y-15513746D02*
X16736849Y-15570888D01*
X16736849Y-15570888D02*
X16727325Y-15589936D01*
X16727325Y-15589936D02*
X16717801Y-15599460D01*
X16717801Y-15599460D02*
X16698753Y-15608984D01*
X16698753Y-15608984D02*
X16670182Y-15608984D01*
X16793992Y-15475650D02*
X16870182Y-15475650D01*
X16822563Y-15408984D02*
X16822563Y-15580412D01*
X16822563Y-15580412D02*
X16832087Y-15599460D01*
X16832087Y-15599460D02*
X16851134Y-15608984D01*
X16851134Y-15608984D02*
X16870182Y-15608984D01*
X17089230Y-15475650D02*
X17089230Y-15675650D01*
X17089230Y-15485174D02*
X17108277Y-15475650D01*
X17108277Y-15475650D02*
X17146373Y-15475650D01*
X17146373Y-15475650D02*
X17165420Y-15485174D01*
X17165420Y-15485174D02*
X17174944Y-15494698D01*
X17174944Y-15494698D02*
X17184468Y-15513746D01*
X17184468Y-15513746D02*
X17184468Y-15570888D01*
X17184468Y-15570888D02*
X17174944Y-15589936D01*
X17174944Y-15589936D02*
X17165420Y-15599460D01*
X17165420Y-15599460D02*
X17146373Y-15608984D01*
X17146373Y-15608984D02*
X17108277Y-15608984D01*
X17108277Y-15608984D02*
X17089230Y-15599460D01*
X17298754Y-15608984D02*
X17279706Y-15599460D01*
X17279706Y-15599460D02*
X17270182Y-15580412D01*
X17270182Y-15580412D02*
X17270182Y-15408984D01*
X17460658Y-15608984D02*
X17460658Y-15504222D01*
X17460658Y-15504222D02*
X17451135Y-15485174D01*
X17451135Y-15485174D02*
X17432087Y-15475650D01*
X17432087Y-15475650D02*
X17393992Y-15475650D01*
X17393992Y-15475650D02*
X17374944Y-15485174D01*
X17460658Y-15599460D02*
X17441611Y-15608984D01*
X17441611Y-15608984D02*
X17393992Y-15608984D01*
X17393992Y-15608984D02*
X17374944Y-15599460D01*
X17374944Y-15599460D02*
X17365420Y-15580412D01*
X17365420Y-15580412D02*
X17365420Y-15561365D01*
X17365420Y-15561365D02*
X17374944Y-15542317D01*
X17374944Y-15542317D02*
X17393992Y-15532793D01*
X17393992Y-15532793D02*
X17441611Y-15532793D01*
X17441611Y-15532793D02*
X17460658Y-15523269D01*
X17527325Y-15475650D02*
X17603515Y-15475650D01*
X17555896Y-15408984D02*
X17555896Y-15580412D01*
X17555896Y-15580412D02*
X17565420Y-15599460D01*
X17565420Y-15599460D02*
X17584468Y-15608984D01*
X17584468Y-15608984D02*
X17603515Y-15608984D01*
X17746373Y-15599460D02*
X17727325Y-15608984D01*
X17727325Y-15608984D02*
X17689230Y-15608984D01*
X17689230Y-15608984D02*
X17670182Y-15599460D01*
X17670182Y-15599460D02*
X17660658Y-15580412D01*
X17660658Y-15580412D02*
X17660658Y-15504222D01*
X17660658Y-15504222D02*
X17670182Y-15485174D01*
X17670182Y-15485174D02*
X17689230Y-15475650D01*
X17689230Y-15475650D02*
X17727325Y-15475650D01*
X17727325Y-15475650D02*
X17746373Y-15485174D01*
X17746373Y-15485174D02*
X17755896Y-15504222D01*
X17755896Y-15504222D02*
X17755896Y-15523269D01*
X17755896Y-15523269D02*
X17660658Y-15542317D01*
X17927325Y-15608984D02*
X17927325Y-15408984D01*
X17927325Y-15599460D02*
X17908277Y-15608984D01*
X17908277Y-15608984D02*
X17870182Y-15608984D01*
X17870182Y-15608984D02*
X17851135Y-15599460D01*
X17851135Y-15599460D02*
X17841611Y-15589936D01*
X17841611Y-15589936D02*
X17832087Y-15570888D01*
X17832087Y-15570888D02*
X17832087Y-15513746D01*
X17832087Y-15513746D02*
X17841611Y-15494698D01*
X17841611Y-15494698D02*
X17851135Y-15485174D01*
X17851135Y-15485174D02*
X17870182Y-15475650D01*
X17870182Y-15475650D02*
X17908277Y-15475650D01*
X17908277Y-15475650D02*
X17927325Y-15485174D01*
X18003516Y-15685174D02*
X18013039Y-15675650D01*
X18013039Y-15675650D02*
X18032087Y-15647079D01*
X18032087Y-15647079D02*
X18041611Y-15628031D01*
X18041611Y-15628031D02*
X18051135Y-15599460D01*
X18051135Y-15599460D02*
X18060658Y-15551841D01*
X18060658Y-15551841D02*
X18060658Y-15513746D01*
X18060658Y-15513746D02*
X18051135Y-15466127D01*
X18051135Y-15466127D02*
X18041611Y-15437555D01*
X18041611Y-15437555D02*
X18032087Y-15418508D01*
X18032087Y-15418508D02*
X18013039Y-15389936D01*
X18013039Y-15389936D02*
X18003516Y-15380412D01*
D13*
X11247500Y-15781500D02*
G75*
G02*
X11145500Y-15781500I-51000J0D01*
G01*
X11145500Y-15781500D02*
G75*
G02*
X11247500Y-15781500I51000J0D01*
G01*
D11*
X11613039Y-15872984D02*
X11498753Y-15872984D01*
X11555896Y-15872984D02*
X11555896Y-15672984D01*
X11555896Y-15672984D02*
X11536848Y-15701555D01*
X11536848Y-15701555D02*
X11517801Y-15720603D01*
X11517801Y-15720603D02*
X11498753Y-15730127D01*
X11698753Y-15853936D02*
X11708277Y-15863460D01*
X11708277Y-15863460D02*
X11698753Y-15872984D01*
X11698753Y-15872984D02*
X11689229Y-15863460D01*
X11689229Y-15863460D02*
X11698753Y-15853936D01*
X11698753Y-15853936D02*
X11698753Y-15872984D01*
X11832086Y-15672984D02*
X11851134Y-15672984D01*
X11851134Y-15672984D02*
X11870182Y-15682508D01*
X11870182Y-15682508D02*
X11879705Y-15692031D01*
X11879705Y-15692031D02*
X11889229Y-15711079D01*
X11889229Y-15711079D02*
X11898753Y-15749174D01*
X11898753Y-15749174D02*
X11898753Y-15796793D01*
X11898753Y-15796793D02*
X11889229Y-15834888D01*
X11889229Y-15834888D02*
X11879705Y-15853936D01*
X11879705Y-15853936D02*
X11870182Y-15863460D01*
X11870182Y-15863460D02*
X11851134Y-15872984D01*
X11851134Y-15872984D02*
X11832086Y-15872984D01*
X11832086Y-15872984D02*
X11813039Y-15863460D01*
X11813039Y-15863460D02*
X11803515Y-15853936D01*
X11803515Y-15853936D02*
X11793991Y-15834888D01*
X11793991Y-15834888D02*
X11784467Y-15796793D01*
X11784467Y-15796793D02*
X11784467Y-15749174D01*
X11784467Y-15749174D02*
X11793991Y-15711079D01*
X11793991Y-15711079D02*
X11803515Y-15692031D01*
X11803515Y-15692031D02*
X11813039Y-15682508D01*
X11813039Y-15682508D02*
X11832086Y-15672984D01*
X11974943Y-15692031D02*
X11984467Y-15682508D01*
X11984467Y-15682508D02*
X12003515Y-15672984D01*
X12003515Y-15672984D02*
X12051134Y-15672984D01*
X12051134Y-15672984D02*
X12070182Y-15682508D01*
X12070182Y-15682508D02*
X12079705Y-15692031D01*
X12079705Y-15692031D02*
X12089229Y-15711079D01*
X12089229Y-15711079D02*
X12089229Y-15730127D01*
X12089229Y-15730127D02*
X12079705Y-15758698D01*
X12079705Y-15758698D02*
X11965420Y-15872984D01*
X11965420Y-15872984D02*
X12089229Y-15872984D01*
X12213039Y-15672984D02*
X12232086Y-15672984D01*
X12232086Y-15672984D02*
X12251134Y-15682508D01*
X12251134Y-15682508D02*
X12260658Y-15692031D01*
X12260658Y-15692031D02*
X12270182Y-15711079D01*
X12270182Y-15711079D02*
X12279705Y-15749174D01*
X12279705Y-15749174D02*
X12279705Y-15796793D01*
X12279705Y-15796793D02*
X12270182Y-15834888D01*
X12270182Y-15834888D02*
X12260658Y-15853936D01*
X12260658Y-15853936D02*
X12251134Y-15863460D01*
X12251134Y-15863460D02*
X12232086Y-15872984D01*
X12232086Y-15872984D02*
X12213039Y-15872984D01*
X12213039Y-15872984D02*
X12193991Y-15863460D01*
X12193991Y-15863460D02*
X12184467Y-15853936D01*
X12184467Y-15853936D02*
X12174943Y-15834888D01*
X12174943Y-15834888D02*
X12165420Y-15796793D01*
X12165420Y-15796793D02*
X12165420Y-15749174D01*
X12165420Y-15749174D02*
X12174943Y-15711079D01*
X12174943Y-15711079D02*
X12184467Y-15692031D01*
X12184467Y-15692031D02*
X12193991Y-15682508D01*
X12193991Y-15682508D02*
X12213039Y-15672984D01*
X12365420Y-15872984D02*
X12365420Y-15739650D01*
X12365420Y-15758698D02*
X12374943Y-15749174D01*
X12374943Y-15749174D02*
X12393991Y-15739650D01*
X12393991Y-15739650D02*
X12422563Y-15739650D01*
X12422563Y-15739650D02*
X12441610Y-15749174D01*
X12441610Y-15749174D02*
X12451134Y-15768222D01*
X12451134Y-15768222D02*
X12451134Y-15872984D01*
X12451134Y-15768222D02*
X12460658Y-15749174D01*
X12460658Y-15749174D02*
X12479705Y-15739650D01*
X12479705Y-15739650D02*
X12508277Y-15739650D01*
X12508277Y-15739650D02*
X12527324Y-15749174D01*
X12527324Y-15749174D02*
X12536848Y-15768222D01*
X12536848Y-15768222D02*
X12536848Y-15872984D01*
X12632086Y-15872984D02*
X12632086Y-15739650D01*
X12632086Y-15758698D02*
X12641610Y-15749174D01*
X12641610Y-15749174D02*
X12660658Y-15739650D01*
X12660658Y-15739650D02*
X12689229Y-15739650D01*
X12689229Y-15739650D02*
X12708277Y-15749174D01*
X12708277Y-15749174D02*
X12717801Y-15768222D01*
X12717801Y-15768222D02*
X12717801Y-15872984D01*
X12717801Y-15768222D02*
X12727324Y-15749174D01*
X12727324Y-15749174D02*
X12746372Y-15739650D01*
X12746372Y-15739650D02*
X12774943Y-15739650D01*
X12774943Y-15739650D02*
X12793991Y-15749174D01*
X12793991Y-15749174D02*
X12803515Y-15768222D01*
X12803515Y-15768222D02*
X12803515Y-15872984D01*
X13193991Y-15663460D02*
X13022563Y-15920603D01*
X13451134Y-15672984D02*
X13470182Y-15672984D01*
X13470182Y-15672984D02*
X13489229Y-15682508D01*
X13489229Y-15682508D02*
X13498753Y-15692031D01*
X13498753Y-15692031D02*
X13508277Y-15711079D01*
X13508277Y-15711079D02*
X13517801Y-15749174D01*
X13517801Y-15749174D02*
X13517801Y-15796793D01*
X13517801Y-15796793D02*
X13508277Y-15834888D01*
X13508277Y-15834888D02*
X13498753Y-15853936D01*
X13498753Y-15853936D02*
X13489229Y-15863460D01*
X13489229Y-15863460D02*
X13470182Y-15872984D01*
X13470182Y-15872984D02*
X13451134Y-15872984D01*
X13451134Y-15872984D02*
X13432086Y-15863460D01*
X13432086Y-15863460D02*
X13422563Y-15853936D01*
X13422563Y-15853936D02*
X13413039Y-15834888D01*
X13413039Y-15834888D02*
X13403515Y-15796793D01*
X13403515Y-15796793D02*
X13403515Y-15749174D01*
X13403515Y-15749174D02*
X13413039Y-15711079D01*
X13413039Y-15711079D02*
X13422563Y-15692031D01*
X13422563Y-15692031D02*
X13432086Y-15682508D01*
X13432086Y-15682508D02*
X13451134Y-15672984D01*
X13603515Y-15853936D02*
X13613039Y-15863460D01*
X13613039Y-15863460D02*
X13603515Y-15872984D01*
X13603515Y-15872984D02*
X13593991Y-15863460D01*
X13593991Y-15863460D02*
X13603515Y-15853936D01*
X13603515Y-15853936D02*
X13603515Y-15872984D01*
X13736848Y-15672984D02*
X13755896Y-15672984D01*
X13755896Y-15672984D02*
X13774944Y-15682508D01*
X13774944Y-15682508D02*
X13784467Y-15692031D01*
X13784467Y-15692031D02*
X13793991Y-15711079D01*
X13793991Y-15711079D02*
X13803515Y-15749174D01*
X13803515Y-15749174D02*
X13803515Y-15796793D01*
X13803515Y-15796793D02*
X13793991Y-15834888D01*
X13793991Y-15834888D02*
X13784467Y-15853936D01*
X13784467Y-15853936D02*
X13774944Y-15863460D01*
X13774944Y-15863460D02*
X13755896Y-15872984D01*
X13755896Y-15872984D02*
X13736848Y-15872984D01*
X13736848Y-15872984D02*
X13717801Y-15863460D01*
X13717801Y-15863460D02*
X13708277Y-15853936D01*
X13708277Y-15853936D02*
X13698753Y-15834888D01*
X13698753Y-15834888D02*
X13689229Y-15796793D01*
X13689229Y-15796793D02*
X13689229Y-15749174D01*
X13689229Y-15749174D02*
X13698753Y-15711079D01*
X13698753Y-15711079D02*
X13708277Y-15692031D01*
X13708277Y-15692031D02*
X13717801Y-15682508D01*
X13717801Y-15682508D02*
X13736848Y-15672984D01*
X13974944Y-15739650D02*
X13974944Y-15872984D01*
X13927325Y-15663460D02*
X13879706Y-15806317D01*
X13879706Y-15806317D02*
X14003515Y-15806317D01*
X14117801Y-15672984D02*
X14136848Y-15672984D01*
X14136848Y-15672984D02*
X14155896Y-15682508D01*
X14155896Y-15682508D02*
X14165420Y-15692031D01*
X14165420Y-15692031D02*
X14174944Y-15711079D01*
X14174944Y-15711079D02*
X14184467Y-15749174D01*
X14184467Y-15749174D02*
X14184467Y-15796793D01*
X14184467Y-15796793D02*
X14174944Y-15834888D01*
X14174944Y-15834888D02*
X14165420Y-15853936D01*
X14165420Y-15853936D02*
X14155896Y-15863460D01*
X14155896Y-15863460D02*
X14136848Y-15872984D01*
X14136848Y-15872984D02*
X14117801Y-15872984D01*
X14117801Y-15872984D02*
X14098753Y-15863460D01*
X14098753Y-15863460D02*
X14089229Y-15853936D01*
X14089229Y-15853936D02*
X14079706Y-15834888D01*
X14079706Y-15834888D02*
X14070182Y-15796793D01*
X14070182Y-15796793D02*
X14070182Y-15749174D01*
X14070182Y-15749174D02*
X14079706Y-15711079D01*
X14079706Y-15711079D02*
X14089229Y-15692031D01*
X14089229Y-15692031D02*
X14098753Y-15682508D01*
X14098753Y-15682508D02*
X14117801Y-15672984D01*
X14260658Y-15692031D02*
X14270182Y-15682508D01*
X14270182Y-15682508D02*
X14289229Y-15672984D01*
X14289229Y-15672984D02*
X14336848Y-15672984D01*
X14336848Y-15672984D02*
X14355896Y-15682508D01*
X14355896Y-15682508D02*
X14365420Y-15692031D01*
X14365420Y-15692031D02*
X14374944Y-15711079D01*
X14374944Y-15711079D02*
X14374944Y-15730127D01*
X14374944Y-15730127D02*
X14365420Y-15758698D01*
X14365420Y-15758698D02*
X14251134Y-15872984D01*
X14251134Y-15872984D02*
X14374944Y-15872984D01*
X14451134Y-15672984D02*
X14451134Y-15711079D01*
X14527325Y-15672984D02*
X14527325Y-15711079D01*
X14822563Y-15949174D02*
X14813039Y-15939650D01*
X14813039Y-15939650D02*
X14793991Y-15911079D01*
X14793991Y-15911079D02*
X14784468Y-15892031D01*
X14784468Y-15892031D02*
X14774944Y-15863460D01*
X14774944Y-15863460D02*
X14765420Y-15815841D01*
X14765420Y-15815841D02*
X14765420Y-15777746D01*
X14765420Y-15777746D02*
X14774944Y-15730127D01*
X14774944Y-15730127D02*
X14784468Y-15701555D01*
X14784468Y-15701555D02*
X14793991Y-15682508D01*
X14793991Y-15682508D02*
X14813039Y-15653936D01*
X14813039Y-15653936D02*
X14822563Y-15644412D01*
X14889229Y-15692031D02*
X14898753Y-15682508D01*
X14898753Y-15682508D02*
X14917801Y-15672984D01*
X14917801Y-15672984D02*
X14965420Y-15672984D01*
X14965420Y-15672984D02*
X14984468Y-15682508D01*
X14984468Y-15682508D02*
X14993991Y-15692031D01*
X14993991Y-15692031D02*
X15003515Y-15711079D01*
X15003515Y-15711079D02*
X15003515Y-15730127D01*
X15003515Y-15730127D02*
X14993991Y-15758698D01*
X14993991Y-15758698D02*
X14879706Y-15872984D01*
X14879706Y-15872984D02*
X15003515Y-15872984D01*
X15241610Y-15872984D02*
X15241610Y-15672984D01*
X15327325Y-15872984D02*
X15327325Y-15768222D01*
X15327325Y-15768222D02*
X15317801Y-15749174D01*
X15317801Y-15749174D02*
X15298753Y-15739650D01*
X15298753Y-15739650D02*
X15270182Y-15739650D01*
X15270182Y-15739650D02*
X15251134Y-15749174D01*
X15251134Y-15749174D02*
X15241610Y-15758698D01*
X15451134Y-15872984D02*
X15432087Y-15863460D01*
X15432087Y-15863460D02*
X15422563Y-15853936D01*
X15422563Y-15853936D02*
X15413039Y-15834888D01*
X15413039Y-15834888D02*
X15413039Y-15777746D01*
X15413039Y-15777746D02*
X15422563Y-15758698D01*
X15422563Y-15758698D02*
X15432087Y-15749174D01*
X15432087Y-15749174D02*
X15451134Y-15739650D01*
X15451134Y-15739650D02*
X15479706Y-15739650D01*
X15479706Y-15739650D02*
X15498753Y-15749174D01*
X15498753Y-15749174D02*
X15508277Y-15758698D01*
X15508277Y-15758698D02*
X15517801Y-15777746D01*
X15517801Y-15777746D02*
X15517801Y-15834888D01*
X15517801Y-15834888D02*
X15508277Y-15853936D01*
X15508277Y-15853936D02*
X15498753Y-15863460D01*
X15498753Y-15863460D02*
X15479706Y-15872984D01*
X15479706Y-15872984D02*
X15451134Y-15872984D01*
X15632087Y-15872984D02*
X15613039Y-15863460D01*
X15613039Y-15863460D02*
X15603515Y-15844412D01*
X15603515Y-15844412D02*
X15603515Y-15672984D01*
X15784468Y-15863460D02*
X15765420Y-15872984D01*
X15765420Y-15872984D02*
X15727325Y-15872984D01*
X15727325Y-15872984D02*
X15708277Y-15863460D01*
X15708277Y-15863460D02*
X15698753Y-15844412D01*
X15698753Y-15844412D02*
X15698753Y-15768222D01*
X15698753Y-15768222D02*
X15708277Y-15749174D01*
X15708277Y-15749174D02*
X15727325Y-15739650D01*
X15727325Y-15739650D02*
X15765420Y-15739650D01*
X15765420Y-15739650D02*
X15784468Y-15749174D01*
X15784468Y-15749174D02*
X15793991Y-15768222D01*
X15793991Y-15768222D02*
X15793991Y-15787269D01*
X15793991Y-15787269D02*
X15698753Y-15806317D01*
X15870182Y-15863460D02*
X15889230Y-15872984D01*
X15889230Y-15872984D02*
X15927325Y-15872984D01*
X15927325Y-15872984D02*
X15946372Y-15863460D01*
X15946372Y-15863460D02*
X15955896Y-15844412D01*
X15955896Y-15844412D02*
X15955896Y-15834888D01*
X15955896Y-15834888D02*
X15946372Y-15815841D01*
X15946372Y-15815841D02*
X15927325Y-15806317D01*
X15927325Y-15806317D02*
X15898753Y-15806317D01*
X15898753Y-15806317D02*
X15879706Y-15796793D01*
X15879706Y-15796793D02*
X15870182Y-15777746D01*
X15870182Y-15777746D02*
X15870182Y-15768222D01*
X15870182Y-15768222D02*
X15879706Y-15749174D01*
X15879706Y-15749174D02*
X15898753Y-15739650D01*
X15898753Y-15739650D02*
X15927325Y-15739650D01*
X15927325Y-15739650D02*
X15946372Y-15749174D01*
X16022563Y-15949174D02*
X16032087Y-15939650D01*
X16032087Y-15939650D02*
X16051134Y-15911079D01*
X16051134Y-15911079D02*
X16060658Y-15892031D01*
X16060658Y-15892031D02*
X16070182Y-15863460D01*
X16070182Y-15863460D02*
X16079706Y-15815841D01*
X16079706Y-15815841D02*
X16079706Y-15777746D01*
X16079706Y-15777746D02*
X16070182Y-15730127D01*
X16070182Y-15730127D02*
X16060658Y-15701555D01*
X16060658Y-15701555D02*
X16051134Y-15682508D01*
X16051134Y-15682508D02*
X16032087Y-15653936D01*
X16032087Y-15653936D02*
X16022563Y-15644412D01*
X16384468Y-15949174D02*
X16374944Y-15939650D01*
X16374944Y-15939650D02*
X16355896Y-15911079D01*
X16355896Y-15911079D02*
X16346372Y-15892031D01*
X16346372Y-15892031D02*
X16336849Y-15863460D01*
X16336849Y-15863460D02*
X16327325Y-15815841D01*
X16327325Y-15815841D02*
X16327325Y-15777746D01*
X16327325Y-15777746D02*
X16336849Y-15730127D01*
X16336849Y-15730127D02*
X16346372Y-15701555D01*
X16346372Y-15701555D02*
X16355896Y-15682508D01*
X16355896Y-15682508D02*
X16374944Y-15653936D01*
X16374944Y-15653936D02*
X16384468Y-15644412D01*
X16460658Y-15739650D02*
X16460658Y-15872984D01*
X16460658Y-15758698D02*
X16470182Y-15749174D01*
X16470182Y-15749174D02*
X16489230Y-15739650D01*
X16489230Y-15739650D02*
X16517801Y-15739650D01*
X16517801Y-15739650D02*
X16536849Y-15749174D01*
X16536849Y-15749174D02*
X16546372Y-15768222D01*
X16546372Y-15768222D02*
X16546372Y-15872984D01*
X16670182Y-15872984D02*
X16651134Y-15863460D01*
X16651134Y-15863460D02*
X16641611Y-15853936D01*
X16641611Y-15853936D02*
X16632087Y-15834888D01*
X16632087Y-15834888D02*
X16632087Y-15777746D01*
X16632087Y-15777746D02*
X16641611Y-15758698D01*
X16641611Y-15758698D02*
X16651134Y-15749174D01*
X16651134Y-15749174D02*
X16670182Y-15739650D01*
X16670182Y-15739650D02*
X16698753Y-15739650D01*
X16698753Y-15739650D02*
X16717801Y-15749174D01*
X16717801Y-15749174D02*
X16727325Y-15758698D01*
X16727325Y-15758698D02*
X16736849Y-15777746D01*
X16736849Y-15777746D02*
X16736849Y-15834888D01*
X16736849Y-15834888D02*
X16727325Y-15853936D01*
X16727325Y-15853936D02*
X16717801Y-15863460D01*
X16717801Y-15863460D02*
X16698753Y-15872984D01*
X16698753Y-15872984D02*
X16670182Y-15872984D01*
X16793992Y-15739650D02*
X16870182Y-15739650D01*
X16822563Y-15672984D02*
X16822563Y-15844412D01*
X16822563Y-15844412D02*
X16832087Y-15863460D01*
X16832087Y-15863460D02*
X16851134Y-15872984D01*
X16851134Y-15872984D02*
X16870182Y-15872984D01*
X17089230Y-15739650D02*
X17089230Y-15939650D01*
X17089230Y-15749174D02*
X17108277Y-15739650D01*
X17108277Y-15739650D02*
X17146373Y-15739650D01*
X17146373Y-15739650D02*
X17165420Y-15749174D01*
X17165420Y-15749174D02*
X17174944Y-15758698D01*
X17174944Y-15758698D02*
X17184468Y-15777746D01*
X17184468Y-15777746D02*
X17184468Y-15834888D01*
X17184468Y-15834888D02*
X17174944Y-15853936D01*
X17174944Y-15853936D02*
X17165420Y-15863460D01*
X17165420Y-15863460D02*
X17146373Y-15872984D01*
X17146373Y-15872984D02*
X17108277Y-15872984D01*
X17108277Y-15872984D02*
X17089230Y-15863460D01*
X17298754Y-15872984D02*
X17279706Y-15863460D01*
X17279706Y-15863460D02*
X17270182Y-15844412D01*
X17270182Y-15844412D02*
X17270182Y-15672984D01*
X17460658Y-15872984D02*
X17460658Y-15768222D01*
X17460658Y-15768222D02*
X17451135Y-15749174D01*
X17451135Y-15749174D02*
X17432087Y-15739650D01*
X17432087Y-15739650D02*
X17393992Y-15739650D01*
X17393992Y-15739650D02*
X17374944Y-15749174D01*
X17460658Y-15863460D02*
X17441611Y-15872984D01*
X17441611Y-15872984D02*
X17393992Y-15872984D01*
X17393992Y-15872984D02*
X17374944Y-15863460D01*
X17374944Y-15863460D02*
X17365420Y-15844412D01*
X17365420Y-15844412D02*
X17365420Y-15825365D01*
X17365420Y-15825365D02*
X17374944Y-15806317D01*
X17374944Y-15806317D02*
X17393992Y-15796793D01*
X17393992Y-15796793D02*
X17441611Y-15796793D01*
X17441611Y-15796793D02*
X17460658Y-15787269D01*
X17527325Y-15739650D02*
X17603515Y-15739650D01*
X17555896Y-15672984D02*
X17555896Y-15844412D01*
X17555896Y-15844412D02*
X17565420Y-15863460D01*
X17565420Y-15863460D02*
X17584468Y-15872984D01*
X17584468Y-15872984D02*
X17603515Y-15872984D01*
X17746373Y-15863460D02*
X17727325Y-15872984D01*
X17727325Y-15872984D02*
X17689230Y-15872984D01*
X17689230Y-15872984D02*
X17670182Y-15863460D01*
X17670182Y-15863460D02*
X17660658Y-15844412D01*
X17660658Y-15844412D02*
X17660658Y-15768222D01*
X17660658Y-15768222D02*
X17670182Y-15749174D01*
X17670182Y-15749174D02*
X17689230Y-15739650D01*
X17689230Y-15739650D02*
X17727325Y-15739650D01*
X17727325Y-15739650D02*
X17746373Y-15749174D01*
X17746373Y-15749174D02*
X17755896Y-15768222D01*
X17755896Y-15768222D02*
X17755896Y-15787269D01*
X17755896Y-15787269D02*
X17660658Y-15806317D01*
X17927325Y-15872984D02*
X17927325Y-15672984D01*
X17927325Y-15863460D02*
X17908277Y-15872984D01*
X17908277Y-15872984D02*
X17870182Y-15872984D01*
X17870182Y-15872984D02*
X17851135Y-15863460D01*
X17851135Y-15863460D02*
X17841611Y-15853936D01*
X17841611Y-15853936D02*
X17832087Y-15834888D01*
X17832087Y-15834888D02*
X17832087Y-15777746D01*
X17832087Y-15777746D02*
X17841611Y-15758698D01*
X17841611Y-15758698D02*
X17851135Y-15749174D01*
X17851135Y-15749174D02*
X17870182Y-15739650D01*
X17870182Y-15739650D02*
X17908277Y-15739650D01*
X17908277Y-15739650D02*
X17927325Y-15749174D01*
X18003516Y-15949174D02*
X18013039Y-15939650D01*
X18013039Y-15939650D02*
X18032087Y-15911079D01*
X18032087Y-15911079D02*
X18041611Y-15892031D01*
X18041611Y-15892031D02*
X18051135Y-15863460D01*
X18051135Y-15863460D02*
X18060658Y-15815841D01*
X18060658Y-15815841D02*
X18060658Y-15777746D01*
X18060658Y-15777746D02*
X18051135Y-15730127D01*
X18051135Y-15730127D02*
X18041611Y-15701555D01*
X18041611Y-15701555D02*
X18032087Y-15682508D01*
X18032087Y-15682508D02*
X18013039Y-15653936D01*
X18013039Y-15653936D02*
X18003516Y-15644412D01*
D14*
X11184000Y-15982000D02*
X11184000Y-16109000D01*
X11120500Y-16045500D02*
X11247500Y-16045500D01*
D11*
X11613039Y-16136984D02*
X11498753Y-16136984D01*
X11555896Y-16136984D02*
X11555896Y-15936984D01*
X11555896Y-15936984D02*
X11536848Y-15965555D01*
X11536848Y-15965555D02*
X11517801Y-15984603D01*
X11517801Y-15984603D02*
X11498753Y-15994127D01*
X11698753Y-16117936D02*
X11708277Y-16127460D01*
X11708277Y-16127460D02*
X11698753Y-16136984D01*
X11698753Y-16136984D02*
X11689229Y-16127460D01*
X11689229Y-16127460D02*
X11698753Y-16117936D01*
X11698753Y-16117936D02*
X11698753Y-16136984D01*
X11784467Y-15956031D02*
X11793991Y-15946508D01*
X11793991Y-15946508D02*
X11813039Y-15936984D01*
X11813039Y-15936984D02*
X11860658Y-15936984D01*
X11860658Y-15936984D02*
X11879705Y-15946508D01*
X11879705Y-15946508D02*
X11889229Y-15956031D01*
X11889229Y-15956031D02*
X11898753Y-15975079D01*
X11898753Y-15975079D02*
X11898753Y-15994127D01*
X11898753Y-15994127D02*
X11889229Y-16022698D01*
X11889229Y-16022698D02*
X11774943Y-16136984D01*
X11774943Y-16136984D02*
X11898753Y-16136984D01*
X11965420Y-15936984D02*
X12098753Y-15936984D01*
X12098753Y-15936984D02*
X12013039Y-16136984D01*
X12213039Y-15936984D02*
X12232086Y-15936984D01*
X12232086Y-15936984D02*
X12251134Y-15946508D01*
X12251134Y-15946508D02*
X12260658Y-15956031D01*
X12260658Y-15956031D02*
X12270182Y-15975079D01*
X12270182Y-15975079D02*
X12279705Y-16013174D01*
X12279705Y-16013174D02*
X12279705Y-16060793D01*
X12279705Y-16060793D02*
X12270182Y-16098888D01*
X12270182Y-16098888D02*
X12260658Y-16117936D01*
X12260658Y-16117936D02*
X12251134Y-16127460D01*
X12251134Y-16127460D02*
X12232086Y-16136984D01*
X12232086Y-16136984D02*
X12213039Y-16136984D01*
X12213039Y-16136984D02*
X12193991Y-16127460D01*
X12193991Y-16127460D02*
X12184467Y-16117936D01*
X12184467Y-16117936D02*
X12174943Y-16098888D01*
X12174943Y-16098888D02*
X12165420Y-16060793D01*
X12165420Y-16060793D02*
X12165420Y-16013174D01*
X12165420Y-16013174D02*
X12174943Y-15975079D01*
X12174943Y-15975079D02*
X12184467Y-15956031D01*
X12184467Y-15956031D02*
X12193991Y-15946508D01*
X12193991Y-15946508D02*
X12213039Y-15936984D01*
X12365420Y-16136984D02*
X12365420Y-16003650D01*
X12365420Y-16022698D02*
X12374943Y-16013174D01*
X12374943Y-16013174D02*
X12393991Y-16003650D01*
X12393991Y-16003650D02*
X12422563Y-16003650D01*
X12422563Y-16003650D02*
X12441610Y-16013174D01*
X12441610Y-16013174D02*
X12451134Y-16032222D01*
X12451134Y-16032222D02*
X12451134Y-16136984D01*
X12451134Y-16032222D02*
X12460658Y-16013174D01*
X12460658Y-16013174D02*
X12479705Y-16003650D01*
X12479705Y-16003650D02*
X12508277Y-16003650D01*
X12508277Y-16003650D02*
X12527324Y-16013174D01*
X12527324Y-16013174D02*
X12536848Y-16032222D01*
X12536848Y-16032222D02*
X12536848Y-16136984D01*
X12632086Y-16136984D02*
X12632086Y-16003650D01*
X12632086Y-16022698D02*
X12641610Y-16013174D01*
X12641610Y-16013174D02*
X12660658Y-16003650D01*
X12660658Y-16003650D02*
X12689229Y-16003650D01*
X12689229Y-16003650D02*
X12708277Y-16013174D01*
X12708277Y-16013174D02*
X12717801Y-16032222D01*
X12717801Y-16032222D02*
X12717801Y-16136984D01*
X12717801Y-16032222D02*
X12727324Y-16013174D01*
X12727324Y-16013174D02*
X12746372Y-16003650D01*
X12746372Y-16003650D02*
X12774943Y-16003650D01*
X12774943Y-16003650D02*
X12793991Y-16013174D01*
X12793991Y-16013174D02*
X12803515Y-16032222D01*
X12803515Y-16032222D02*
X12803515Y-16136984D01*
X13193991Y-15927460D02*
X13022563Y-16184603D01*
X13451134Y-15936984D02*
X13470182Y-15936984D01*
X13470182Y-15936984D02*
X13489229Y-15946508D01*
X13489229Y-15946508D02*
X13498753Y-15956031D01*
X13498753Y-15956031D02*
X13508277Y-15975079D01*
X13508277Y-15975079D02*
X13517801Y-16013174D01*
X13517801Y-16013174D02*
X13517801Y-16060793D01*
X13517801Y-16060793D02*
X13508277Y-16098888D01*
X13508277Y-16098888D02*
X13498753Y-16117936D01*
X13498753Y-16117936D02*
X13489229Y-16127460D01*
X13489229Y-16127460D02*
X13470182Y-16136984D01*
X13470182Y-16136984D02*
X13451134Y-16136984D01*
X13451134Y-16136984D02*
X13432086Y-16127460D01*
X13432086Y-16127460D02*
X13422563Y-16117936D01*
X13422563Y-16117936D02*
X13413039Y-16098888D01*
X13413039Y-16098888D02*
X13403515Y-16060793D01*
X13403515Y-16060793D02*
X13403515Y-16013174D01*
X13403515Y-16013174D02*
X13413039Y-15975079D01*
X13413039Y-15975079D02*
X13422563Y-15956031D01*
X13422563Y-15956031D02*
X13432086Y-15946508D01*
X13432086Y-15946508D02*
X13451134Y-15936984D01*
X13603515Y-16117936D02*
X13613039Y-16127460D01*
X13613039Y-16127460D02*
X13603515Y-16136984D01*
X13603515Y-16136984D02*
X13593991Y-16127460D01*
X13593991Y-16127460D02*
X13603515Y-16117936D01*
X13603515Y-16117936D02*
X13603515Y-16136984D01*
X13736848Y-15936984D02*
X13755896Y-15936984D01*
X13755896Y-15936984D02*
X13774944Y-15946508D01*
X13774944Y-15946508D02*
X13784467Y-15956031D01*
X13784467Y-15956031D02*
X13793991Y-15975079D01*
X13793991Y-15975079D02*
X13803515Y-16013174D01*
X13803515Y-16013174D02*
X13803515Y-16060793D01*
X13803515Y-16060793D02*
X13793991Y-16098888D01*
X13793991Y-16098888D02*
X13784467Y-16117936D01*
X13784467Y-16117936D02*
X13774944Y-16127460D01*
X13774944Y-16127460D02*
X13755896Y-16136984D01*
X13755896Y-16136984D02*
X13736848Y-16136984D01*
X13736848Y-16136984D02*
X13717801Y-16127460D01*
X13717801Y-16127460D02*
X13708277Y-16117936D01*
X13708277Y-16117936D02*
X13698753Y-16098888D01*
X13698753Y-16098888D02*
X13689229Y-16060793D01*
X13689229Y-16060793D02*
X13689229Y-16013174D01*
X13689229Y-16013174D02*
X13698753Y-15975079D01*
X13698753Y-15975079D02*
X13708277Y-15956031D01*
X13708277Y-15956031D02*
X13717801Y-15946508D01*
X13717801Y-15946508D02*
X13736848Y-15936984D01*
X13984467Y-15936984D02*
X13889229Y-15936984D01*
X13889229Y-15936984D02*
X13879706Y-16032222D01*
X13879706Y-16032222D02*
X13889229Y-16022698D01*
X13889229Y-16022698D02*
X13908277Y-16013174D01*
X13908277Y-16013174D02*
X13955896Y-16013174D01*
X13955896Y-16013174D02*
X13974944Y-16022698D01*
X13974944Y-16022698D02*
X13984467Y-16032222D01*
X13984467Y-16032222D02*
X13993991Y-16051269D01*
X13993991Y-16051269D02*
X13993991Y-16098888D01*
X13993991Y-16098888D02*
X13984467Y-16117936D01*
X13984467Y-16117936D02*
X13974944Y-16127460D01*
X13974944Y-16127460D02*
X13955896Y-16136984D01*
X13955896Y-16136984D02*
X13908277Y-16136984D01*
X13908277Y-16136984D02*
X13889229Y-16127460D01*
X13889229Y-16127460D02*
X13879706Y-16117936D01*
X14117801Y-15936984D02*
X14136848Y-15936984D01*
X14136848Y-15936984D02*
X14155896Y-15946508D01*
X14155896Y-15946508D02*
X14165420Y-15956031D01*
X14165420Y-15956031D02*
X14174944Y-15975079D01*
X14174944Y-15975079D02*
X14184467Y-16013174D01*
X14184467Y-16013174D02*
X14184467Y-16060793D01*
X14184467Y-16060793D02*
X14174944Y-16098888D01*
X14174944Y-16098888D02*
X14165420Y-16117936D01*
X14165420Y-16117936D02*
X14155896Y-16127460D01*
X14155896Y-16127460D02*
X14136848Y-16136984D01*
X14136848Y-16136984D02*
X14117801Y-16136984D01*
X14117801Y-16136984D02*
X14098753Y-16127460D01*
X14098753Y-16127460D02*
X14089229Y-16117936D01*
X14089229Y-16117936D02*
X14079706Y-16098888D01*
X14079706Y-16098888D02*
X14070182Y-16060793D01*
X14070182Y-16060793D02*
X14070182Y-16013174D01*
X14070182Y-16013174D02*
X14079706Y-15975079D01*
X14079706Y-15975079D02*
X14089229Y-15956031D01*
X14089229Y-15956031D02*
X14098753Y-15946508D01*
X14098753Y-15946508D02*
X14117801Y-15936984D01*
X14308277Y-15936984D02*
X14327325Y-15936984D01*
X14327325Y-15936984D02*
X14346372Y-15946508D01*
X14346372Y-15946508D02*
X14355896Y-15956031D01*
X14355896Y-15956031D02*
X14365420Y-15975079D01*
X14365420Y-15975079D02*
X14374944Y-16013174D01*
X14374944Y-16013174D02*
X14374944Y-16060793D01*
X14374944Y-16060793D02*
X14365420Y-16098888D01*
X14365420Y-16098888D02*
X14355896Y-16117936D01*
X14355896Y-16117936D02*
X14346372Y-16127460D01*
X14346372Y-16127460D02*
X14327325Y-16136984D01*
X14327325Y-16136984D02*
X14308277Y-16136984D01*
X14308277Y-16136984D02*
X14289229Y-16127460D01*
X14289229Y-16127460D02*
X14279706Y-16117936D01*
X14279706Y-16117936D02*
X14270182Y-16098888D01*
X14270182Y-16098888D02*
X14260658Y-16060793D01*
X14260658Y-16060793D02*
X14260658Y-16013174D01*
X14260658Y-16013174D02*
X14270182Y-15975079D01*
X14270182Y-15975079D02*
X14279706Y-15956031D01*
X14279706Y-15956031D02*
X14289229Y-15946508D01*
X14289229Y-15946508D02*
X14308277Y-15936984D01*
X14451134Y-15936984D02*
X14451134Y-15975079D01*
X14527325Y-15936984D02*
X14527325Y-15975079D01*
X14822563Y-16213174D02*
X14813039Y-16203650D01*
X14813039Y-16203650D02*
X14793991Y-16175079D01*
X14793991Y-16175079D02*
X14784468Y-16156031D01*
X14784468Y-16156031D02*
X14774944Y-16127460D01*
X14774944Y-16127460D02*
X14765420Y-16079841D01*
X14765420Y-16079841D02*
X14765420Y-16041746D01*
X14765420Y-16041746D02*
X14774944Y-15994127D01*
X14774944Y-15994127D02*
X14784468Y-15965555D01*
X14784468Y-15965555D02*
X14793991Y-15946508D01*
X14793991Y-15946508D02*
X14813039Y-15917936D01*
X14813039Y-15917936D02*
X14822563Y-15908412D01*
X14879706Y-15936984D02*
X15003515Y-15936984D01*
X15003515Y-15936984D02*
X14936848Y-16013174D01*
X14936848Y-16013174D02*
X14965420Y-16013174D01*
X14965420Y-16013174D02*
X14984468Y-16022698D01*
X14984468Y-16022698D02*
X14993991Y-16032222D01*
X14993991Y-16032222D02*
X15003515Y-16051269D01*
X15003515Y-16051269D02*
X15003515Y-16098888D01*
X15003515Y-16098888D02*
X14993991Y-16117936D01*
X14993991Y-16117936D02*
X14984468Y-16127460D01*
X14984468Y-16127460D02*
X14965420Y-16136984D01*
X14965420Y-16136984D02*
X14908277Y-16136984D01*
X14908277Y-16136984D02*
X14889229Y-16127460D01*
X14889229Y-16127460D02*
X14879706Y-16117936D01*
X15079706Y-15956031D02*
X15089229Y-15946508D01*
X15089229Y-15946508D02*
X15108277Y-15936984D01*
X15108277Y-15936984D02*
X15155896Y-15936984D01*
X15155896Y-15936984D02*
X15174944Y-15946508D01*
X15174944Y-15946508D02*
X15184468Y-15956031D01*
X15184468Y-15956031D02*
X15193991Y-15975079D01*
X15193991Y-15975079D02*
X15193991Y-15994127D01*
X15193991Y-15994127D02*
X15184468Y-16022698D01*
X15184468Y-16022698D02*
X15070182Y-16136984D01*
X15070182Y-16136984D02*
X15193991Y-16136984D01*
X15432087Y-16136984D02*
X15432087Y-15936984D01*
X15517801Y-16136984D02*
X15517801Y-16032222D01*
X15517801Y-16032222D02*
X15508277Y-16013174D01*
X15508277Y-16013174D02*
X15489230Y-16003650D01*
X15489230Y-16003650D02*
X15460658Y-16003650D01*
X15460658Y-16003650D02*
X15441610Y-16013174D01*
X15441610Y-16013174D02*
X15432087Y-16022698D01*
X15641610Y-16136984D02*
X15622563Y-16127460D01*
X15622563Y-16127460D02*
X15613039Y-16117936D01*
X15613039Y-16117936D02*
X15603515Y-16098888D01*
X15603515Y-16098888D02*
X15603515Y-16041746D01*
X15603515Y-16041746D02*
X15613039Y-16022698D01*
X15613039Y-16022698D02*
X15622563Y-16013174D01*
X15622563Y-16013174D02*
X15641610Y-16003650D01*
X15641610Y-16003650D02*
X15670182Y-16003650D01*
X15670182Y-16003650D02*
X15689230Y-16013174D01*
X15689230Y-16013174D02*
X15698753Y-16022698D01*
X15698753Y-16022698D02*
X15708277Y-16041746D01*
X15708277Y-16041746D02*
X15708277Y-16098888D01*
X15708277Y-16098888D02*
X15698753Y-16117936D01*
X15698753Y-16117936D02*
X15689230Y-16127460D01*
X15689230Y-16127460D02*
X15670182Y-16136984D01*
X15670182Y-16136984D02*
X15641610Y-16136984D01*
X15822563Y-16136984D02*
X15803515Y-16127460D01*
X15803515Y-16127460D02*
X15793991Y-16108412D01*
X15793991Y-16108412D02*
X15793991Y-15936984D01*
X15974944Y-16127460D02*
X15955896Y-16136984D01*
X15955896Y-16136984D02*
X15917801Y-16136984D01*
X15917801Y-16136984D02*
X15898753Y-16127460D01*
X15898753Y-16127460D02*
X15889230Y-16108412D01*
X15889230Y-16108412D02*
X15889230Y-16032222D01*
X15889230Y-16032222D02*
X15898753Y-16013174D01*
X15898753Y-16013174D02*
X15917801Y-16003650D01*
X15917801Y-16003650D02*
X15955896Y-16003650D01*
X15955896Y-16003650D02*
X15974944Y-16013174D01*
X15974944Y-16013174D02*
X15984468Y-16032222D01*
X15984468Y-16032222D02*
X15984468Y-16051269D01*
X15984468Y-16051269D02*
X15889230Y-16070317D01*
X16060658Y-16127460D02*
X16079706Y-16136984D01*
X16079706Y-16136984D02*
X16117801Y-16136984D01*
X16117801Y-16136984D02*
X16136849Y-16127460D01*
X16136849Y-16127460D02*
X16146372Y-16108412D01*
X16146372Y-16108412D02*
X16146372Y-16098888D01*
X16146372Y-16098888D02*
X16136849Y-16079841D01*
X16136849Y-16079841D02*
X16117801Y-16070317D01*
X16117801Y-16070317D02*
X16089230Y-16070317D01*
X16089230Y-16070317D02*
X16070182Y-16060793D01*
X16070182Y-16060793D02*
X16060658Y-16041746D01*
X16060658Y-16041746D02*
X16060658Y-16032222D01*
X16060658Y-16032222D02*
X16070182Y-16013174D01*
X16070182Y-16013174D02*
X16089230Y-16003650D01*
X16089230Y-16003650D02*
X16117801Y-16003650D01*
X16117801Y-16003650D02*
X16136849Y-16013174D01*
X16213039Y-16213174D02*
X16222563Y-16203650D01*
X16222563Y-16203650D02*
X16241611Y-16175079D01*
X16241611Y-16175079D02*
X16251134Y-16156031D01*
X16251134Y-16156031D02*
X16260658Y-16127460D01*
X16260658Y-16127460D02*
X16270182Y-16079841D01*
X16270182Y-16079841D02*
X16270182Y-16041746D01*
X16270182Y-16041746D02*
X16260658Y-15994127D01*
X16260658Y-15994127D02*
X16251134Y-15965555D01*
X16251134Y-15965555D02*
X16241611Y-15946508D01*
X16241611Y-15946508D02*
X16222563Y-15917936D01*
X16222563Y-15917936D02*
X16213039Y-15908412D01*
X16574944Y-16213174D02*
X16565420Y-16203650D01*
X16565420Y-16203650D02*
X16546372Y-16175079D01*
X16546372Y-16175079D02*
X16536849Y-16156031D01*
X16536849Y-16156031D02*
X16527325Y-16127460D01*
X16527325Y-16127460D02*
X16517801Y-16079841D01*
X16517801Y-16079841D02*
X16517801Y-16041746D01*
X16517801Y-16041746D02*
X16527325Y-15994127D01*
X16527325Y-15994127D02*
X16536849Y-15965555D01*
X16536849Y-15965555D02*
X16546372Y-15946508D01*
X16546372Y-15946508D02*
X16565420Y-15917936D01*
X16565420Y-15917936D02*
X16574944Y-15908412D01*
X16651134Y-16003650D02*
X16651134Y-16136984D01*
X16651134Y-16022698D02*
X16660658Y-16013174D01*
X16660658Y-16013174D02*
X16679706Y-16003650D01*
X16679706Y-16003650D02*
X16708277Y-16003650D01*
X16708277Y-16003650D02*
X16727325Y-16013174D01*
X16727325Y-16013174D02*
X16736849Y-16032222D01*
X16736849Y-16032222D02*
X16736849Y-16136984D01*
X16860658Y-16136984D02*
X16841611Y-16127460D01*
X16841611Y-16127460D02*
X16832087Y-16117936D01*
X16832087Y-16117936D02*
X16822563Y-16098888D01*
X16822563Y-16098888D02*
X16822563Y-16041746D01*
X16822563Y-16041746D02*
X16832087Y-16022698D01*
X16832087Y-16022698D02*
X16841611Y-16013174D01*
X16841611Y-16013174D02*
X16860658Y-16003650D01*
X16860658Y-16003650D02*
X16889230Y-16003650D01*
X16889230Y-16003650D02*
X16908277Y-16013174D01*
X16908277Y-16013174D02*
X16917801Y-16022698D01*
X16917801Y-16022698D02*
X16927325Y-16041746D01*
X16927325Y-16041746D02*
X16927325Y-16098888D01*
X16927325Y-16098888D02*
X16917801Y-16117936D01*
X16917801Y-16117936D02*
X16908277Y-16127460D01*
X16908277Y-16127460D02*
X16889230Y-16136984D01*
X16889230Y-16136984D02*
X16860658Y-16136984D01*
X16984468Y-16003650D02*
X17060658Y-16003650D01*
X17013039Y-15936984D02*
X17013039Y-16108412D01*
X17013039Y-16108412D02*
X17022563Y-16127460D01*
X17022563Y-16127460D02*
X17041611Y-16136984D01*
X17041611Y-16136984D02*
X17060658Y-16136984D01*
X17279706Y-16003650D02*
X17279706Y-16203650D01*
X17279706Y-16013174D02*
X17298754Y-16003650D01*
X17298754Y-16003650D02*
X17336849Y-16003650D01*
X17336849Y-16003650D02*
X17355896Y-16013174D01*
X17355896Y-16013174D02*
X17365420Y-16022698D01*
X17365420Y-16022698D02*
X17374944Y-16041746D01*
X17374944Y-16041746D02*
X17374944Y-16098888D01*
X17374944Y-16098888D02*
X17365420Y-16117936D01*
X17365420Y-16117936D02*
X17355896Y-16127460D01*
X17355896Y-16127460D02*
X17336849Y-16136984D01*
X17336849Y-16136984D02*
X17298754Y-16136984D01*
X17298754Y-16136984D02*
X17279706Y-16127460D01*
X17489230Y-16136984D02*
X17470182Y-16127460D01*
X17470182Y-16127460D02*
X17460658Y-16108412D01*
X17460658Y-16108412D02*
X17460658Y-15936984D01*
X17651135Y-16136984D02*
X17651135Y-16032222D01*
X17651135Y-16032222D02*
X17641611Y-16013174D01*
X17641611Y-16013174D02*
X17622563Y-16003650D01*
X17622563Y-16003650D02*
X17584468Y-16003650D01*
X17584468Y-16003650D02*
X17565420Y-16013174D01*
X17651135Y-16127460D02*
X17632087Y-16136984D01*
X17632087Y-16136984D02*
X17584468Y-16136984D01*
X17584468Y-16136984D02*
X17565420Y-16127460D01*
X17565420Y-16127460D02*
X17555896Y-16108412D01*
X17555896Y-16108412D02*
X17555896Y-16089365D01*
X17555896Y-16089365D02*
X17565420Y-16070317D01*
X17565420Y-16070317D02*
X17584468Y-16060793D01*
X17584468Y-16060793D02*
X17632087Y-16060793D01*
X17632087Y-16060793D02*
X17651135Y-16051269D01*
X17717801Y-16003650D02*
X17793992Y-16003650D01*
X17746373Y-15936984D02*
X17746373Y-16108412D01*
X17746373Y-16108412D02*
X17755896Y-16127460D01*
X17755896Y-16127460D02*
X17774944Y-16136984D01*
X17774944Y-16136984D02*
X17793992Y-16136984D01*
X17936849Y-16127460D02*
X17917801Y-16136984D01*
X17917801Y-16136984D02*
X17879706Y-16136984D01*
X17879706Y-16136984D02*
X17860658Y-16127460D01*
X17860658Y-16127460D02*
X17851135Y-16108412D01*
X17851135Y-16108412D02*
X17851135Y-16032222D01*
X17851135Y-16032222D02*
X17860658Y-16013174D01*
X17860658Y-16013174D02*
X17879706Y-16003650D01*
X17879706Y-16003650D02*
X17917801Y-16003650D01*
X17917801Y-16003650D02*
X17936849Y-16013174D01*
X17936849Y-16013174D02*
X17946373Y-16032222D01*
X17946373Y-16032222D02*
X17946373Y-16051269D01*
X17946373Y-16051269D02*
X17851135Y-16070317D01*
X18117801Y-16136984D02*
X18117801Y-15936984D01*
X18117801Y-16127460D02*
X18098754Y-16136984D01*
X18098754Y-16136984D02*
X18060658Y-16136984D01*
X18060658Y-16136984D02*
X18041611Y-16127460D01*
X18041611Y-16127460D02*
X18032087Y-16117936D01*
X18032087Y-16117936D02*
X18022563Y-16098888D01*
X18022563Y-16098888D02*
X18022563Y-16041746D01*
X18022563Y-16041746D02*
X18032087Y-16022698D01*
X18032087Y-16022698D02*
X18041611Y-16013174D01*
X18041611Y-16013174D02*
X18060658Y-16003650D01*
X18060658Y-16003650D02*
X18098754Y-16003650D01*
X18098754Y-16003650D02*
X18117801Y-16013174D01*
X18193992Y-16213174D02*
X18203516Y-16203650D01*
X18203516Y-16203650D02*
X18222563Y-16175079D01*
X18222563Y-16175079D02*
X18232087Y-16156031D01*
X18232087Y-16156031D02*
X18241611Y-16127460D01*
X18241611Y-16127460D02*
X18251135Y-16079841D01*
X18251135Y-16079841D02*
X18251135Y-16041746D01*
X18251135Y-16041746D02*
X18241611Y-15994127D01*
X18241611Y-15994127D02*
X18232087Y-15965555D01*
X18232087Y-15965555D02*
X18222563Y-15946508D01*
X18222563Y-15946508D02*
X18203516Y-15917936D01*
X18203516Y-15917936D02*
X18193992Y-15908412D01*
X11218211Y-16380211D02*
X11218211Y-16238789D01*
X11076789Y-16238789D01*
X11076789Y-16380211D01*
X11218211Y-16380211D01*
X11489229Y-16200984D02*
X11613039Y-16200984D01*
X11613039Y-16200984D02*
X11546372Y-16277174D01*
X11546372Y-16277174D02*
X11574943Y-16277174D01*
X11574943Y-16277174D02*
X11593991Y-16286698D01*
X11593991Y-16286698D02*
X11603515Y-16296222D01*
X11603515Y-16296222D02*
X11613039Y-16315269D01*
X11613039Y-16315269D02*
X11613039Y-16362888D01*
X11613039Y-16362888D02*
X11603515Y-16381936D01*
X11603515Y-16381936D02*
X11593991Y-16391460D01*
X11593991Y-16391460D02*
X11574943Y-16400984D01*
X11574943Y-16400984D02*
X11517801Y-16400984D01*
X11517801Y-16400984D02*
X11498753Y-16391460D01*
X11498753Y-16391460D02*
X11489229Y-16381936D01*
X11698753Y-16381936D02*
X11708277Y-16391460D01*
X11708277Y-16391460D02*
X11698753Y-16400984D01*
X11698753Y-16400984D02*
X11689229Y-16391460D01*
X11689229Y-16391460D02*
X11698753Y-16381936D01*
X11698753Y-16381936D02*
X11698753Y-16400984D01*
X11832086Y-16200984D02*
X11851134Y-16200984D01*
X11851134Y-16200984D02*
X11870182Y-16210508D01*
X11870182Y-16210508D02*
X11879705Y-16220031D01*
X11879705Y-16220031D02*
X11889229Y-16239079D01*
X11889229Y-16239079D02*
X11898753Y-16277174D01*
X11898753Y-16277174D02*
X11898753Y-16324793D01*
X11898753Y-16324793D02*
X11889229Y-16362888D01*
X11889229Y-16362888D02*
X11879705Y-16381936D01*
X11879705Y-16381936D02*
X11870182Y-16391460D01*
X11870182Y-16391460D02*
X11851134Y-16400984D01*
X11851134Y-16400984D02*
X11832086Y-16400984D01*
X11832086Y-16400984D02*
X11813039Y-16391460D01*
X11813039Y-16391460D02*
X11803515Y-16381936D01*
X11803515Y-16381936D02*
X11793991Y-16362888D01*
X11793991Y-16362888D02*
X11784467Y-16324793D01*
X11784467Y-16324793D02*
X11784467Y-16277174D01*
X11784467Y-16277174D02*
X11793991Y-16239079D01*
X11793991Y-16239079D02*
X11803515Y-16220031D01*
X11803515Y-16220031D02*
X11813039Y-16210508D01*
X11813039Y-16210508D02*
X11832086Y-16200984D01*
X12022562Y-16200984D02*
X12041610Y-16200984D01*
X12041610Y-16200984D02*
X12060658Y-16210508D01*
X12060658Y-16210508D02*
X12070182Y-16220031D01*
X12070182Y-16220031D02*
X12079705Y-16239079D01*
X12079705Y-16239079D02*
X12089229Y-16277174D01*
X12089229Y-16277174D02*
X12089229Y-16324793D01*
X12089229Y-16324793D02*
X12079705Y-16362888D01*
X12079705Y-16362888D02*
X12070182Y-16381936D01*
X12070182Y-16381936D02*
X12060658Y-16391460D01*
X12060658Y-16391460D02*
X12041610Y-16400984D01*
X12041610Y-16400984D02*
X12022562Y-16400984D01*
X12022562Y-16400984D02*
X12003515Y-16391460D01*
X12003515Y-16391460D02*
X11993991Y-16381936D01*
X11993991Y-16381936D02*
X11984467Y-16362888D01*
X11984467Y-16362888D02*
X11974943Y-16324793D01*
X11974943Y-16324793D02*
X11974943Y-16277174D01*
X11974943Y-16277174D02*
X11984467Y-16239079D01*
X11984467Y-16239079D02*
X11993991Y-16220031D01*
X11993991Y-16220031D02*
X12003515Y-16210508D01*
X12003515Y-16210508D02*
X12022562Y-16200984D01*
X12213039Y-16200984D02*
X12232086Y-16200984D01*
X12232086Y-16200984D02*
X12251134Y-16210508D01*
X12251134Y-16210508D02*
X12260658Y-16220031D01*
X12260658Y-16220031D02*
X12270182Y-16239079D01*
X12270182Y-16239079D02*
X12279705Y-16277174D01*
X12279705Y-16277174D02*
X12279705Y-16324793D01*
X12279705Y-16324793D02*
X12270182Y-16362888D01*
X12270182Y-16362888D02*
X12260658Y-16381936D01*
X12260658Y-16381936D02*
X12251134Y-16391460D01*
X12251134Y-16391460D02*
X12232086Y-16400984D01*
X12232086Y-16400984D02*
X12213039Y-16400984D01*
X12213039Y-16400984D02*
X12193991Y-16391460D01*
X12193991Y-16391460D02*
X12184467Y-16381936D01*
X12184467Y-16381936D02*
X12174943Y-16362888D01*
X12174943Y-16362888D02*
X12165420Y-16324793D01*
X12165420Y-16324793D02*
X12165420Y-16277174D01*
X12165420Y-16277174D02*
X12174943Y-16239079D01*
X12174943Y-16239079D02*
X12184467Y-16220031D01*
X12184467Y-16220031D02*
X12193991Y-16210508D01*
X12193991Y-16210508D02*
X12213039Y-16200984D01*
X12365420Y-16400984D02*
X12365420Y-16267650D01*
X12365420Y-16286698D02*
X12374943Y-16277174D01*
X12374943Y-16277174D02*
X12393991Y-16267650D01*
X12393991Y-16267650D02*
X12422563Y-16267650D01*
X12422563Y-16267650D02*
X12441610Y-16277174D01*
X12441610Y-16277174D02*
X12451134Y-16296222D01*
X12451134Y-16296222D02*
X12451134Y-16400984D01*
X12451134Y-16296222D02*
X12460658Y-16277174D01*
X12460658Y-16277174D02*
X12479705Y-16267650D01*
X12479705Y-16267650D02*
X12508277Y-16267650D01*
X12508277Y-16267650D02*
X12527324Y-16277174D01*
X12527324Y-16277174D02*
X12536848Y-16296222D01*
X12536848Y-16296222D02*
X12536848Y-16400984D01*
X12632086Y-16400984D02*
X12632086Y-16267650D01*
X12632086Y-16286698D02*
X12641610Y-16277174D01*
X12641610Y-16277174D02*
X12660658Y-16267650D01*
X12660658Y-16267650D02*
X12689229Y-16267650D01*
X12689229Y-16267650D02*
X12708277Y-16277174D01*
X12708277Y-16277174D02*
X12717801Y-16296222D01*
X12717801Y-16296222D02*
X12717801Y-16400984D01*
X12717801Y-16296222D02*
X12727324Y-16277174D01*
X12727324Y-16277174D02*
X12746372Y-16267650D01*
X12746372Y-16267650D02*
X12774943Y-16267650D01*
X12774943Y-16267650D02*
X12793991Y-16277174D01*
X12793991Y-16277174D02*
X12803515Y-16296222D01*
X12803515Y-16296222D02*
X12803515Y-16400984D01*
X13193991Y-16191460D02*
X13022563Y-16448603D01*
X13451134Y-16200984D02*
X13470182Y-16200984D01*
X13470182Y-16200984D02*
X13489229Y-16210508D01*
X13489229Y-16210508D02*
X13498753Y-16220031D01*
X13498753Y-16220031D02*
X13508277Y-16239079D01*
X13508277Y-16239079D02*
X13517801Y-16277174D01*
X13517801Y-16277174D02*
X13517801Y-16324793D01*
X13517801Y-16324793D02*
X13508277Y-16362888D01*
X13508277Y-16362888D02*
X13498753Y-16381936D01*
X13498753Y-16381936D02*
X13489229Y-16391460D01*
X13489229Y-16391460D02*
X13470182Y-16400984D01*
X13470182Y-16400984D02*
X13451134Y-16400984D01*
X13451134Y-16400984D02*
X13432086Y-16391460D01*
X13432086Y-16391460D02*
X13422563Y-16381936D01*
X13422563Y-16381936D02*
X13413039Y-16362888D01*
X13413039Y-16362888D02*
X13403515Y-16324793D01*
X13403515Y-16324793D02*
X13403515Y-16277174D01*
X13403515Y-16277174D02*
X13413039Y-16239079D01*
X13413039Y-16239079D02*
X13422563Y-16220031D01*
X13422563Y-16220031D02*
X13432086Y-16210508D01*
X13432086Y-16210508D02*
X13451134Y-16200984D01*
X13603515Y-16381936D02*
X13613039Y-16391460D01*
X13613039Y-16391460D02*
X13603515Y-16400984D01*
X13603515Y-16400984D02*
X13593991Y-16391460D01*
X13593991Y-16391460D02*
X13603515Y-16381936D01*
X13603515Y-16381936D02*
X13603515Y-16400984D01*
X13803515Y-16400984D02*
X13689229Y-16400984D01*
X13746372Y-16400984D02*
X13746372Y-16200984D01*
X13746372Y-16200984D02*
X13727325Y-16229555D01*
X13727325Y-16229555D02*
X13708277Y-16248603D01*
X13708277Y-16248603D02*
X13689229Y-16258127D01*
X13993991Y-16400984D02*
X13879706Y-16400984D01*
X13936848Y-16400984D02*
X13936848Y-16200984D01*
X13936848Y-16200984D02*
X13917801Y-16229555D01*
X13917801Y-16229555D02*
X13898753Y-16248603D01*
X13898753Y-16248603D02*
X13879706Y-16258127D01*
X14108277Y-16286698D02*
X14089229Y-16277174D01*
X14089229Y-16277174D02*
X14079706Y-16267650D01*
X14079706Y-16267650D02*
X14070182Y-16248603D01*
X14070182Y-16248603D02*
X14070182Y-16239079D01*
X14070182Y-16239079D02*
X14079706Y-16220031D01*
X14079706Y-16220031D02*
X14089229Y-16210508D01*
X14089229Y-16210508D02*
X14108277Y-16200984D01*
X14108277Y-16200984D02*
X14146372Y-16200984D01*
X14146372Y-16200984D02*
X14165420Y-16210508D01*
X14165420Y-16210508D02*
X14174944Y-16220031D01*
X14174944Y-16220031D02*
X14184467Y-16239079D01*
X14184467Y-16239079D02*
X14184467Y-16248603D01*
X14184467Y-16248603D02*
X14174944Y-16267650D01*
X14174944Y-16267650D02*
X14165420Y-16277174D01*
X14165420Y-16277174D02*
X14146372Y-16286698D01*
X14146372Y-16286698D02*
X14108277Y-16286698D01*
X14108277Y-16286698D02*
X14089229Y-16296222D01*
X14089229Y-16296222D02*
X14079706Y-16305746D01*
X14079706Y-16305746D02*
X14070182Y-16324793D01*
X14070182Y-16324793D02*
X14070182Y-16362888D01*
X14070182Y-16362888D02*
X14079706Y-16381936D01*
X14079706Y-16381936D02*
X14089229Y-16391460D01*
X14089229Y-16391460D02*
X14108277Y-16400984D01*
X14108277Y-16400984D02*
X14146372Y-16400984D01*
X14146372Y-16400984D02*
X14165420Y-16391460D01*
X14165420Y-16391460D02*
X14174944Y-16381936D01*
X14174944Y-16381936D02*
X14184467Y-16362888D01*
X14184467Y-16362888D02*
X14184467Y-16324793D01*
X14184467Y-16324793D02*
X14174944Y-16305746D01*
X14174944Y-16305746D02*
X14165420Y-16296222D01*
X14165420Y-16296222D02*
X14146372Y-16286698D01*
X14374944Y-16400984D02*
X14260658Y-16400984D01*
X14317801Y-16400984D02*
X14317801Y-16200984D01*
X14317801Y-16200984D02*
X14298753Y-16229555D01*
X14298753Y-16229555D02*
X14279706Y-16248603D01*
X14279706Y-16248603D02*
X14260658Y-16258127D01*
X14451134Y-16200984D02*
X14451134Y-16239079D01*
X14527325Y-16200984D02*
X14527325Y-16239079D01*
X14822563Y-16477174D02*
X14813039Y-16467650D01*
X14813039Y-16467650D02*
X14793991Y-16439079D01*
X14793991Y-16439079D02*
X14784468Y-16420031D01*
X14784468Y-16420031D02*
X14774944Y-16391460D01*
X14774944Y-16391460D02*
X14765420Y-16343841D01*
X14765420Y-16343841D02*
X14765420Y-16305746D01*
X14765420Y-16305746D02*
X14774944Y-16258127D01*
X14774944Y-16258127D02*
X14784468Y-16229555D01*
X14784468Y-16229555D02*
X14793991Y-16210508D01*
X14793991Y-16210508D02*
X14813039Y-16181936D01*
X14813039Y-16181936D02*
X14822563Y-16172412D01*
X14984468Y-16267650D02*
X14984468Y-16400984D01*
X14936848Y-16191460D02*
X14889229Y-16334317D01*
X14889229Y-16334317D02*
X15013039Y-16334317D01*
X15241610Y-16400984D02*
X15241610Y-16200984D01*
X15327325Y-16400984D02*
X15327325Y-16296222D01*
X15327325Y-16296222D02*
X15317801Y-16277174D01*
X15317801Y-16277174D02*
X15298753Y-16267650D01*
X15298753Y-16267650D02*
X15270182Y-16267650D01*
X15270182Y-16267650D02*
X15251134Y-16277174D01*
X15251134Y-16277174D02*
X15241610Y-16286698D01*
X15451134Y-16400984D02*
X15432087Y-16391460D01*
X15432087Y-16391460D02*
X15422563Y-16381936D01*
X15422563Y-16381936D02*
X15413039Y-16362888D01*
X15413039Y-16362888D02*
X15413039Y-16305746D01*
X15413039Y-16305746D02*
X15422563Y-16286698D01*
X15422563Y-16286698D02*
X15432087Y-16277174D01*
X15432087Y-16277174D02*
X15451134Y-16267650D01*
X15451134Y-16267650D02*
X15479706Y-16267650D01*
X15479706Y-16267650D02*
X15498753Y-16277174D01*
X15498753Y-16277174D02*
X15508277Y-16286698D01*
X15508277Y-16286698D02*
X15517801Y-16305746D01*
X15517801Y-16305746D02*
X15517801Y-16362888D01*
X15517801Y-16362888D02*
X15508277Y-16381936D01*
X15508277Y-16381936D02*
X15498753Y-16391460D01*
X15498753Y-16391460D02*
X15479706Y-16400984D01*
X15479706Y-16400984D02*
X15451134Y-16400984D01*
X15632087Y-16400984D02*
X15613039Y-16391460D01*
X15613039Y-16391460D02*
X15603515Y-16372412D01*
X15603515Y-16372412D02*
X15603515Y-16200984D01*
X15784468Y-16391460D02*
X15765420Y-16400984D01*
X15765420Y-16400984D02*
X15727325Y-16400984D01*
X15727325Y-16400984D02*
X15708277Y-16391460D01*
X15708277Y-16391460D02*
X15698753Y-16372412D01*
X15698753Y-16372412D02*
X15698753Y-16296222D01*
X15698753Y-16296222D02*
X15708277Y-16277174D01*
X15708277Y-16277174D02*
X15727325Y-16267650D01*
X15727325Y-16267650D02*
X15765420Y-16267650D01*
X15765420Y-16267650D02*
X15784468Y-16277174D01*
X15784468Y-16277174D02*
X15793991Y-16296222D01*
X15793991Y-16296222D02*
X15793991Y-16315269D01*
X15793991Y-16315269D02*
X15698753Y-16334317D01*
X15870182Y-16391460D02*
X15889230Y-16400984D01*
X15889230Y-16400984D02*
X15927325Y-16400984D01*
X15927325Y-16400984D02*
X15946372Y-16391460D01*
X15946372Y-16391460D02*
X15955896Y-16372412D01*
X15955896Y-16372412D02*
X15955896Y-16362888D01*
X15955896Y-16362888D02*
X15946372Y-16343841D01*
X15946372Y-16343841D02*
X15927325Y-16334317D01*
X15927325Y-16334317D02*
X15898753Y-16334317D01*
X15898753Y-16334317D02*
X15879706Y-16324793D01*
X15879706Y-16324793D02*
X15870182Y-16305746D01*
X15870182Y-16305746D02*
X15870182Y-16296222D01*
X15870182Y-16296222D02*
X15879706Y-16277174D01*
X15879706Y-16277174D02*
X15898753Y-16267650D01*
X15898753Y-16267650D02*
X15927325Y-16267650D01*
X15927325Y-16267650D02*
X15946372Y-16277174D01*
X16022563Y-16477174D02*
X16032087Y-16467650D01*
X16032087Y-16467650D02*
X16051134Y-16439079D01*
X16051134Y-16439079D02*
X16060658Y-16420031D01*
X16060658Y-16420031D02*
X16070182Y-16391460D01*
X16070182Y-16391460D02*
X16079706Y-16343841D01*
X16079706Y-16343841D02*
X16079706Y-16305746D01*
X16079706Y-16305746D02*
X16070182Y-16258127D01*
X16070182Y-16258127D02*
X16060658Y-16229555D01*
X16060658Y-16229555D02*
X16051134Y-16210508D01*
X16051134Y-16210508D02*
X16032087Y-16181936D01*
X16032087Y-16181936D02*
X16022563Y-16172412D01*
X16384468Y-16477174D02*
X16374944Y-16467650D01*
X16374944Y-16467650D02*
X16355896Y-16439079D01*
X16355896Y-16439079D02*
X16346372Y-16420031D01*
X16346372Y-16420031D02*
X16336849Y-16391460D01*
X16336849Y-16391460D02*
X16327325Y-16343841D01*
X16327325Y-16343841D02*
X16327325Y-16305746D01*
X16327325Y-16305746D02*
X16336849Y-16258127D01*
X16336849Y-16258127D02*
X16346372Y-16229555D01*
X16346372Y-16229555D02*
X16355896Y-16210508D01*
X16355896Y-16210508D02*
X16374944Y-16181936D01*
X16374944Y-16181936D02*
X16384468Y-16172412D01*
X16460658Y-16267650D02*
X16460658Y-16400984D01*
X16460658Y-16286698D02*
X16470182Y-16277174D01*
X16470182Y-16277174D02*
X16489230Y-16267650D01*
X16489230Y-16267650D02*
X16517801Y-16267650D01*
X16517801Y-16267650D02*
X16536849Y-16277174D01*
X16536849Y-16277174D02*
X16546372Y-16296222D01*
X16546372Y-16296222D02*
X16546372Y-16400984D01*
X16670182Y-16400984D02*
X16651134Y-16391460D01*
X16651134Y-16391460D02*
X16641611Y-16381936D01*
X16641611Y-16381936D02*
X16632087Y-16362888D01*
X16632087Y-16362888D02*
X16632087Y-16305746D01*
X16632087Y-16305746D02*
X16641611Y-16286698D01*
X16641611Y-16286698D02*
X16651134Y-16277174D01*
X16651134Y-16277174D02*
X16670182Y-16267650D01*
X16670182Y-16267650D02*
X16698753Y-16267650D01*
X16698753Y-16267650D02*
X16717801Y-16277174D01*
X16717801Y-16277174D02*
X16727325Y-16286698D01*
X16727325Y-16286698D02*
X16736849Y-16305746D01*
X16736849Y-16305746D02*
X16736849Y-16362888D01*
X16736849Y-16362888D02*
X16727325Y-16381936D01*
X16727325Y-16381936D02*
X16717801Y-16391460D01*
X16717801Y-16391460D02*
X16698753Y-16400984D01*
X16698753Y-16400984D02*
X16670182Y-16400984D01*
X16793992Y-16267650D02*
X16870182Y-16267650D01*
X16822563Y-16200984D02*
X16822563Y-16372412D01*
X16822563Y-16372412D02*
X16832087Y-16391460D01*
X16832087Y-16391460D02*
X16851134Y-16400984D01*
X16851134Y-16400984D02*
X16870182Y-16400984D01*
X17089230Y-16267650D02*
X17089230Y-16467650D01*
X17089230Y-16277174D02*
X17108277Y-16267650D01*
X17108277Y-16267650D02*
X17146373Y-16267650D01*
X17146373Y-16267650D02*
X17165420Y-16277174D01*
X17165420Y-16277174D02*
X17174944Y-16286698D01*
X17174944Y-16286698D02*
X17184468Y-16305746D01*
X17184468Y-16305746D02*
X17184468Y-16362888D01*
X17184468Y-16362888D02*
X17174944Y-16381936D01*
X17174944Y-16381936D02*
X17165420Y-16391460D01*
X17165420Y-16391460D02*
X17146373Y-16400984D01*
X17146373Y-16400984D02*
X17108277Y-16400984D01*
X17108277Y-16400984D02*
X17089230Y-16391460D01*
X17298754Y-16400984D02*
X17279706Y-16391460D01*
X17279706Y-16391460D02*
X17270182Y-16372412D01*
X17270182Y-16372412D02*
X17270182Y-16200984D01*
X17460658Y-16400984D02*
X17460658Y-16296222D01*
X17460658Y-16296222D02*
X17451135Y-16277174D01*
X17451135Y-16277174D02*
X17432087Y-16267650D01*
X17432087Y-16267650D02*
X17393992Y-16267650D01*
X17393992Y-16267650D02*
X17374944Y-16277174D01*
X17460658Y-16391460D02*
X17441611Y-16400984D01*
X17441611Y-16400984D02*
X17393992Y-16400984D01*
X17393992Y-16400984D02*
X17374944Y-16391460D01*
X17374944Y-16391460D02*
X17365420Y-16372412D01*
X17365420Y-16372412D02*
X17365420Y-16353365D01*
X17365420Y-16353365D02*
X17374944Y-16334317D01*
X17374944Y-16334317D02*
X17393992Y-16324793D01*
X17393992Y-16324793D02*
X17441611Y-16324793D01*
X17441611Y-16324793D02*
X17460658Y-16315269D01*
X17527325Y-16267650D02*
X17603515Y-16267650D01*
X17555896Y-16200984D02*
X17555896Y-16372412D01*
X17555896Y-16372412D02*
X17565420Y-16391460D01*
X17565420Y-16391460D02*
X17584468Y-16400984D01*
X17584468Y-16400984D02*
X17603515Y-16400984D01*
X17746373Y-16391460D02*
X17727325Y-16400984D01*
X17727325Y-16400984D02*
X17689230Y-16400984D01*
X17689230Y-16400984D02*
X17670182Y-16391460D01*
X17670182Y-16391460D02*
X17660658Y-16372412D01*
X17660658Y-16372412D02*
X17660658Y-16296222D01*
X17660658Y-16296222D02*
X17670182Y-16277174D01*
X17670182Y-16277174D02*
X17689230Y-16267650D01*
X17689230Y-16267650D02*
X17727325Y-16267650D01*
X17727325Y-16267650D02*
X17746373Y-16277174D01*
X17746373Y-16277174D02*
X17755896Y-16296222D01*
X17755896Y-16296222D02*
X17755896Y-16315269D01*
X17755896Y-16315269D02*
X17660658Y-16334317D01*
X17927325Y-16400984D02*
X17927325Y-16200984D01*
X17927325Y-16391460D02*
X17908277Y-16400984D01*
X17908277Y-16400984D02*
X17870182Y-16400984D01*
X17870182Y-16400984D02*
X17851135Y-16391460D01*
X17851135Y-16391460D02*
X17841611Y-16381936D01*
X17841611Y-16381936D02*
X17832087Y-16362888D01*
X17832087Y-16362888D02*
X17832087Y-16305746D01*
X17832087Y-16305746D02*
X17841611Y-16286698D01*
X17841611Y-16286698D02*
X17851135Y-16277174D01*
X17851135Y-16277174D02*
X17870182Y-16267650D01*
X17870182Y-16267650D02*
X17908277Y-16267650D01*
X17908277Y-16267650D02*
X17927325Y-16277174D01*
X18003516Y-16477174D02*
X18013039Y-16467650D01*
X18013039Y-16467650D02*
X18032087Y-16439079D01*
X18032087Y-16439079D02*
X18041611Y-16420031D01*
X18041611Y-16420031D02*
X18051135Y-16391460D01*
X18051135Y-16391460D02*
X18060658Y-16343841D01*
X18060658Y-16343841D02*
X18060658Y-16305746D01*
X18060658Y-16305746D02*
X18051135Y-16258127D01*
X18051135Y-16258127D02*
X18041611Y-16229555D01*
X18041611Y-16229555D02*
X18032087Y-16210508D01*
X18032087Y-16210508D02*
X18013039Y-16181936D01*
X18013039Y-16181936D02*
X18003516Y-16172412D01*
M02*
