G04 #@! TF.GenerationSoftware,KiCad,Pcbnew,8.0.7*
G04 #@! TF.CreationDate,2025-01-18T17:23:32-06:00*
G04 #@! TF.ProjectId,Controls-Leader,436f6e74-726f-46c7-932d-4c6561646572,rev?*
G04 #@! TF.SameCoordinates,Original*
G04 #@! TF.FileFunction,Paste,Top*
G04 #@! TF.FilePolarity,Positive*
%FSLAX46Y46*%
G04 Gerber Fmt 4.6, Leading zero omitted, Abs format (unit mm)*
G04 Created by KiCad (PCBNEW 8.0.7) date 2025-01-18 17:23:32*
%MOMM*%
%LPD*%
G01*
G04 APERTURE LIST*
G04 Aperture macros list*
%AMRoundRect*
0 Rectangle with rounded corners*
0 $1 Rounding radius*
0 $2 $3 $4 $5 $6 $7 $8 $9 X,Y pos of 4 corners*
0 Add a 4 corners polygon primitive as box body*
4,1,4,$2,$3,$4,$5,$6,$7,$8,$9,$2,$3,0*
0 Add four circle primitives for the rounded corners*
1,1,$1+$1,$2,$3*
1,1,$1+$1,$4,$5*
1,1,$1+$1,$6,$7*
1,1,$1+$1,$8,$9*
0 Add four rect primitives between the rounded corners*
20,1,$1+$1,$2,$3,$4,$5,0*
20,1,$1+$1,$4,$5,$6,$7,0*
20,1,$1+$1,$6,$7,$8,$9,0*
20,1,$1+$1,$8,$9,$2,$3,0*%
G04 Aperture macros list end*
%ADD10RoundRect,0.243750X-0.456250X0.243750X-0.456250X-0.243750X0.456250X-0.243750X0.456250X0.243750X0*%
%ADD11RoundRect,0.250000X0.450000X-0.262500X0.450000X0.262500X-0.450000X0.262500X-0.450000X-0.262500X0*%
%ADD12RoundRect,0.250000X-0.475000X0.250000X-0.475000X-0.250000X0.475000X-0.250000X0.475000X0.250000X0*%
%ADD13RoundRect,0.150000X0.150000X-0.675000X0.150000X0.675000X-0.150000X0.675000X-0.150000X-0.675000X0*%
%ADD14RoundRect,0.250000X-0.262500X-0.450000X0.262500X-0.450000X0.262500X0.450000X-0.262500X0.450000X0*%
%ADD15RoundRect,0.250000X-0.450000X0.262500X-0.450000X-0.262500X0.450000X-0.262500X0.450000X0.262500X0*%
%ADD16RoundRect,0.250000X-0.250000X-0.475000X0.250000X-0.475000X0.250000X0.475000X-0.250000X0.475000X0*%
%ADD17RoundRect,0.150000X-0.150000X0.675000X-0.150000X-0.675000X0.150000X-0.675000X0.150000X0.675000X0*%
%ADD18RoundRect,0.150000X-0.150000X0.587500X-0.150000X-0.587500X0.150000X-0.587500X0.150000X0.587500X0*%
%ADD19RoundRect,0.218750X0.381250X-0.218750X0.381250X0.218750X-0.381250X0.218750X-0.381250X-0.218750X0*%
%ADD20RoundRect,0.250000X0.262500X0.450000X-0.262500X0.450000X-0.262500X-0.450000X0.262500X-0.450000X0*%
%ADD21RoundRect,0.250000X0.475000X-0.250000X0.475000X0.250000X-0.475000X0.250000X-0.475000X-0.250000X0*%
%ADD22R,2.750000X1.000000*%
%ADD23RoundRect,0.150000X0.587500X0.150000X-0.587500X0.150000X-0.587500X-0.150000X0.587500X-0.150000X0*%
%ADD24RoundRect,0.175000X-0.175000X-0.325000X0.175000X-0.325000X0.175000X0.325000X-0.175000X0.325000X0*%
%ADD25RoundRect,0.150000X-0.200000X-0.150000X0.200000X-0.150000X0.200000X0.150000X-0.200000X0.150000X0*%
%ADD26RoundRect,0.243750X0.456250X-0.243750X0.456250X0.243750X-0.456250X0.243750X-0.456250X-0.243750X0*%
%ADD27R,1.950000X0.600000*%
%ADD28RoundRect,0.375000X0.375000X-0.625000X0.375000X0.625000X-0.375000X0.625000X-0.375000X-0.625000X0*%
%ADD29RoundRect,0.500000X1.400000X-0.500000X1.400000X0.500000X-1.400000X0.500000X-1.400000X-0.500000X0*%
%ADD30RoundRect,0.250000X0.625000X-0.375000X0.625000X0.375000X-0.625000X0.375000X-0.625000X-0.375000X0*%
%ADD31RoundRect,0.250000X0.375000X0.625000X-0.375000X0.625000X-0.375000X-0.625000X0.375000X-0.625000X0*%
%ADD32RoundRect,0.150000X0.512500X0.150000X-0.512500X0.150000X-0.512500X-0.150000X0.512500X-0.150000X0*%
%ADD33RoundRect,0.250000X0.250000X0.475000X-0.250000X0.475000X-0.250000X-0.475000X0.250000X-0.475000X0*%
%ADD34R,1.350000X0.400000*%
%ADD35R,1.900000X1.500000*%
%ADD36R,2.400000X1.900000*%
%ADD37RoundRect,0.112500X-0.187500X-0.112500X0.187500X-0.112500X0.187500X0.112500X-0.187500X0.112500X0*%
%ADD38RoundRect,0.250000X-0.275000X-0.275000X0.275000X-0.275000X0.275000X0.275000X-0.275000X0.275000X0*%
%ADD39RoundRect,0.062500X-0.350000X-0.062500X0.350000X-0.062500X0.350000X0.062500X-0.350000X0.062500X0*%
%ADD40RoundRect,0.062500X-0.062500X-0.350000X0.062500X-0.350000X0.062500X0.350000X-0.062500X0.350000X0*%
%ADD41RoundRect,0.075000X-0.700000X-0.075000X0.700000X-0.075000X0.700000X0.075000X-0.700000X0.075000X0*%
%ADD42RoundRect,0.075000X-0.075000X-0.700000X0.075000X-0.700000X0.075000X0.700000X-0.075000X0.700000X0*%
G04 APERTURE END LIST*
D10*
G04 #@! TO.C,D18*
X137040000Y-116092500D03*
X137040000Y-117967500D03*
G04 #@! TD*
D11*
G04 #@! TO.C,R7*
X170815000Y-118982501D03*
X170815000Y-117157501D03*
G04 #@! TD*
G04 #@! TO.C,R50*
X155343444Y-125095000D03*
X155343444Y-123270000D03*
G04 #@! TD*
D12*
G04 #@! TO.C,C6*
X160300000Y-107150001D03*
X160300000Y-109049999D03*
G04 #@! TD*
D13*
G04 #@! TO.C,U10*
X182065000Y-99260000D03*
X183335000Y-99260000D03*
X183335000Y-93010000D03*
X182065000Y-93010000D03*
G04 #@! TD*
D14*
G04 #@! TO.C,R16*
X121087500Y-82637998D03*
X122912500Y-82637998D03*
G04 #@! TD*
D15*
G04 #@! TO.C,R5*
X165735000Y-136087500D03*
X165735000Y-137912500D03*
G04 #@! TD*
D16*
G04 #@! TO.C,C15*
X148650000Y-92500000D03*
X150550000Y-92500000D03*
G04 #@! TD*
D11*
G04 #@! TO.C,R39*
X153431975Y-137912500D03*
X153431975Y-136087500D03*
G04 #@! TD*
D15*
G04 #@! TO.C,R37*
X126490000Y-105785000D03*
X126490000Y-107610000D03*
G04 #@! TD*
D17*
G04 #@! TO.C,U5*
X137735000Y-127675000D03*
X136465000Y-127675000D03*
X136465000Y-133925000D03*
X137735000Y-133925000D03*
G04 #@! TD*
D13*
G04 #@! TO.C,U29*
X140215000Y-133925000D03*
X141485000Y-133925000D03*
X141485000Y-127675000D03*
X140215000Y-127675000D03*
G04 #@! TD*
D11*
G04 #@! TO.C,R31*
X131445000Y-125095000D03*
X131445000Y-123270000D03*
G04 #@! TD*
D12*
G04 #@! TO.C,C22*
X171437300Y-101290002D03*
X171437300Y-103190002D03*
G04 #@! TD*
D18*
G04 #@! TO.C,Q4*
X139380000Y-139062500D03*
X137480000Y-139062500D03*
X138430000Y-140937500D03*
G04 #@! TD*
D14*
G04 #@! TO.C,R30*
X160712500Y-120500000D03*
X162537500Y-120500000D03*
G04 #@! TD*
D11*
G04 #@! TO.C,R11*
X164645412Y-125095000D03*
X164645412Y-123270000D03*
G04 #@! TD*
D12*
G04 #@! TO.C,C9*
X162850000Y-94750000D03*
X162850000Y-96650000D03*
G04 #@! TD*
D11*
G04 #@! TO.C,R63*
X143715984Y-125095000D03*
X143715984Y-123270000D03*
G04 #@! TD*
D19*
G04 #@! TO.C,L8*
X181936000Y-63913000D03*
X181936000Y-61788000D03*
G04 #@! TD*
D14*
G04 #@! TO.C,R2*
X139582500Y-120500000D03*
X141407500Y-120500000D03*
G04 #@! TD*
D13*
G04 #@! TO.C,U23*
X154965000Y-133925000D03*
X156235000Y-133925000D03*
X156235000Y-127675000D03*
X154965000Y-127675000D03*
G04 #@! TD*
D20*
G04 #@! TO.C,R40*
X136125000Y-120500000D03*
X134300000Y-120500000D03*
G04 #@! TD*
D21*
G04 #@! TO.C,C24*
X123718000Y-65071999D03*
X123718000Y-63171999D03*
G04 #@! TD*
G04 #@! TO.C,C23*
X126258000Y-65071999D03*
X126258000Y-63171999D03*
G04 #@! TD*
G04 #@! TO.C,C11*
X160450000Y-95850000D03*
X160450000Y-93950000D03*
G04 #@! TD*
D17*
G04 #@! TO.C,U9*
X130175000Y-127685000D03*
X128905000Y-127685000D03*
X128905000Y-133935000D03*
X130175000Y-133935000D03*
G04 #@! TD*
D20*
G04 #@! TO.C,R9*
X151972500Y-120500000D03*
X150147500Y-120500000D03*
G04 #@! TD*
D21*
G04 #@! TO.C,C7*
X144662720Y-97409001D03*
X144662720Y-95509001D03*
G04 #@! TD*
D18*
G04 #@! TO.C,Q5*
X172080000Y-138562500D03*
X170180000Y-138562500D03*
X171130000Y-140437500D03*
G04 #@! TD*
D22*
G04 #@! TO.C,SW10*
X137000000Y-88899999D03*
X142750000Y-88899999D03*
X137000000Y-92899999D03*
X142750000Y-92899999D03*
G04 #@! TD*
D12*
G04 #@! TO.C,C36*
X157044000Y-65410000D03*
X157044000Y-67310000D03*
G04 #@! TD*
G04 #@! TO.C,C8*
X144590000Y-99130000D03*
X144590000Y-101030000D03*
G04 #@! TD*
D11*
G04 #@! TO.C,R1*
X133985000Y-125095000D03*
X133985000Y-123270000D03*
G04 #@! TD*
D20*
G04 #@! TO.C,R58*
X175912500Y-136500000D03*
X174087500Y-136500000D03*
G04 #@! TD*
D11*
G04 #@! TO.C,R60*
X155839650Y-137912500D03*
X155839650Y-136087500D03*
G04 #@! TD*
D21*
G04 #@! TO.C,C5*
X145700000Y-91750000D03*
X145700000Y-89850000D03*
G04 #@! TD*
D15*
G04 #@! TO.C,R10*
X163062675Y-136087500D03*
X163062675Y-137912500D03*
G04 #@! TD*
D23*
G04 #@! TO.C,D2*
X126037500Y-73975000D03*
X126037500Y-72075000D03*
X124162500Y-73025000D03*
G04 #@! TD*
D17*
G04 #@! TO.C,U25*
X178435000Y-127685000D03*
X177165000Y-127685000D03*
X177165000Y-133935000D03*
X178435000Y-133935000D03*
G04 #@! TD*
D11*
G04 #@! TO.C,R55*
X160655000Y-137912500D03*
X160655000Y-136087500D03*
G04 #@! TD*
D13*
G04 #@! TO.C,U24*
X158665000Y-133935000D03*
X159935000Y-133935000D03*
X159935000Y-127685000D03*
X158665000Y-127685000D03*
G04 #@! TD*
D12*
G04 #@! TO.C,C38*
X176348000Y-65984001D03*
X176348000Y-67884001D03*
G04 #@! TD*
D24*
G04 #@! TO.C,D15*
X120590000Y-105447500D03*
D25*
X120590000Y-107147500D03*
X122590000Y-107147500D03*
X122590000Y-105247500D03*
G04 #@! TD*
D11*
G04 #@! TO.C,R64*
X148590000Y-137912500D03*
X148590000Y-136087500D03*
G04 #@! TD*
D14*
G04 #@! TO.C,R26*
X120087500Y-95250000D03*
X121912500Y-95250000D03*
G04 #@! TD*
D26*
G04 #@! TO.C,D8*
X167640000Y-119007501D03*
X167640000Y-117132501D03*
G04 #@! TD*
D11*
G04 #@! TO.C,R29*
X170815000Y-114935000D03*
X170815000Y-113110000D03*
G04 #@! TD*
D12*
G04 #@! TO.C,C13*
X146600000Y-107070000D03*
X146600000Y-108970000D03*
G04 #@! TD*
G04 #@! TO.C,C27*
X142006000Y-63842500D03*
X142006000Y-65742500D03*
G04 #@! TD*
D19*
G04 #@! TO.C,L6*
X147594000Y-65805000D03*
X147594000Y-63680000D03*
G04 #@! TD*
D27*
G04 #@! TO.C,U14*
X129050000Y-63085000D03*
X129050000Y-64355000D03*
X129050000Y-65625000D03*
X129050000Y-66895000D03*
X129050000Y-68165000D03*
X129050000Y-69435000D03*
X129050000Y-70705000D03*
X129050000Y-71975000D03*
X129050000Y-73245000D03*
X129050000Y-74515000D03*
X138450000Y-74515000D03*
X138450000Y-73245000D03*
X138450000Y-71975000D03*
X138450000Y-70705000D03*
X138450000Y-69435000D03*
X138450000Y-68165000D03*
X138450000Y-66895000D03*
X138450000Y-65625000D03*
X138450000Y-64355000D03*
X138450000Y-63085000D03*
G04 #@! TD*
D28*
G04 #@! TO.C,U13*
X175282420Y-108361499D03*
X177582420Y-108361499D03*
D29*
X177582420Y-102061499D03*
D28*
X179882420Y-108361499D03*
G04 #@! TD*
D18*
G04 #@! TO.C,Q1*
X180655000Y-138562500D03*
X178755000Y-138562500D03*
X179705000Y-140437500D03*
G04 #@! TD*
D11*
G04 #@! TO.C,R24*
X128905000Y-125095000D03*
X128905000Y-123270000D03*
G04 #@! TD*
D30*
G04 #@! TO.C,F2*
X134650000Y-139899999D03*
X134650000Y-137100001D03*
G04 #@! TD*
D10*
G04 #@! TO.C,D7*
X140200000Y-116092500D03*
X140200000Y-117967500D03*
G04 #@! TD*
D26*
G04 #@! TO.C,D14*
X167640000Y-114960000D03*
X167640000Y-113085000D03*
G04 #@! TD*
D14*
G04 #@! TO.C,R13*
X121087500Y-80215999D03*
X122912500Y-80215999D03*
G04 #@! TD*
D12*
G04 #@! TO.C,C25*
X126258000Y-66860001D03*
X126258000Y-68760001D03*
G04 #@! TD*
D13*
G04 #@! TO.C,U2*
X147465000Y-133925000D03*
X148735000Y-133925000D03*
X148735000Y-127675000D03*
X147465000Y-127675000D03*
G04 #@! TD*
D16*
G04 #@! TO.C,C14*
X148500000Y-109600000D03*
X150400000Y-109600000D03*
G04 #@! TD*
D31*
G04 #@! TO.C,F1*
X151700000Y-60600000D03*
X148900000Y-60600000D03*
G04 #@! TD*
D13*
G04 #@! TO.C,U6*
X166065000Y-133935000D03*
X167335000Y-133935000D03*
X167335000Y-127685000D03*
X166065000Y-127685000D03*
G04 #@! TD*
D12*
G04 #@! TO.C,C39*
X179396000Y-65984001D03*
X179396000Y-67884001D03*
G04 #@! TD*
D19*
G04 #@! TO.C,L5*
X144844000Y-65805000D03*
X144844000Y-63680000D03*
G04 #@! TD*
D12*
G04 #@! TO.C,C29*
X144546000Y-67810000D03*
X144546000Y-69710000D03*
G04 #@! TD*
D19*
G04 #@! TO.C,L7*
X179186000Y-63913000D03*
X179186000Y-61788000D03*
G04 #@! TD*
D11*
G04 #@! TO.C,R32*
X179400000Y-99915000D03*
X179400000Y-98090000D03*
G04 #@! TD*
D18*
G04 #@! TO.C,Q6*
X143825000Y-139062500D03*
X141925000Y-139062500D03*
X142875000Y-140937500D03*
G04 #@! TD*
D11*
G04 #@! TO.C,R4*
X150692460Y-125095000D03*
X150692460Y-123270000D03*
G04 #@! TD*
D20*
G04 #@! TO.C,R27*
X121912500Y-90000000D03*
X120087500Y-90000000D03*
G04 #@! TD*
D32*
G04 #@! TO.C,U15*
X142127500Y-79870000D03*
X142127500Y-77970000D03*
X139852500Y-78920000D03*
G04 #@! TD*
D33*
G04 #@! TO.C,C16*
X122300000Y-75500000D03*
X120400000Y-75500000D03*
G04 #@! TD*
D21*
G04 #@! TO.C,C12*
X146800000Y-95650000D03*
X146800000Y-93750000D03*
G04 #@! TD*
D14*
G04 #@! TO.C,R15*
X120437500Y-70525000D03*
X122262500Y-70525000D03*
G04 #@! TD*
D20*
G04 #@! TO.C,R3*
X157255000Y-120500000D03*
X155430000Y-120500000D03*
G04 #@! TD*
D34*
G04 #@! TO.C,J23*
X117622500Y-101197500D03*
X117622500Y-101847500D03*
X117622500Y-102497500D03*
X117622500Y-103147500D03*
X117622500Y-103797500D03*
D35*
X114922500Y-101497500D03*
X114922500Y-103497500D03*
G04 #@! TD*
D36*
G04 #@! TO.C,Y1*
X141224000Y-100602000D03*
X141224000Y-96502000D03*
G04 #@! TD*
D37*
G04 #@! TO.C,D17*
X183825000Y-122025000D03*
X185925000Y-122025000D03*
G04 #@! TD*
D11*
G04 #@! TO.C,R25*
X136525000Y-125095000D03*
X136525000Y-123270000D03*
G04 #@! TD*
G04 #@! TO.C,R52*
X158247325Y-137912500D03*
X158247325Y-136087500D03*
G04 #@! TD*
D10*
G04 #@! TO.C,D12*
X159250000Y-116092500D03*
X159250000Y-117967500D03*
G04 #@! TD*
D27*
G04 #@! TO.C,U17*
X163900000Y-61280000D03*
X163900000Y-62550000D03*
X163900000Y-63820000D03*
X163900000Y-65090000D03*
X163900000Y-66360000D03*
X163900000Y-67630000D03*
X163900000Y-68900000D03*
X163900000Y-70170000D03*
X163900000Y-71440000D03*
X163900000Y-72710000D03*
X173300000Y-72710000D03*
X173300000Y-71440000D03*
X173300000Y-70170000D03*
X173300000Y-68900000D03*
X173300000Y-67630000D03*
X173300000Y-66360000D03*
X173300000Y-65090000D03*
X173300000Y-63820000D03*
X173300000Y-62550000D03*
X173300000Y-61280000D03*
G04 #@! TD*
D21*
G04 #@! TO.C,C21*
X171437300Y-107315001D03*
X171437300Y-105415001D03*
G04 #@! TD*
D10*
G04 #@! TO.C,D11*
X156000000Y-116092500D03*
X156000000Y-117967500D03*
G04 #@! TD*
G04 #@! TO.C,D16*
X146600000Y-116092498D03*
X146600000Y-117967500D03*
G04 #@! TD*
D17*
G04 #@! TO.C,U3*
X133985000Y-127685000D03*
X132715000Y-127685000D03*
X132715000Y-133935000D03*
X133985000Y-133935000D03*
G04 #@! TD*
D21*
G04 #@! TO.C,C42*
X131590000Y-107647500D03*
X131590000Y-105747500D03*
G04 #@! TD*
D11*
G04 #@! TO.C,R38*
X129040000Y-107610000D03*
X129040000Y-105785000D03*
G04 #@! TD*
D10*
G04 #@! TO.C,D4*
X134000000Y-116092498D03*
X134000000Y-117967500D03*
G04 #@! TD*
D21*
G04 #@! TO.C,C4*
X184150000Y-119435500D03*
X184150000Y-117535500D03*
G04 #@! TD*
D13*
G04 #@! TO.C,U27*
X151130000Y-133935000D03*
X152400000Y-133935000D03*
X152400000Y-127685000D03*
X151130000Y-127685000D03*
G04 #@! TD*
D16*
G04 #@! TO.C,C1*
X120050000Y-92558999D03*
X121950000Y-92558999D03*
G04 #@! TD*
D10*
G04 #@! TO.C,D9*
X143400000Y-116092498D03*
X143400000Y-117967500D03*
G04 #@! TD*
D11*
G04 #@! TO.C,R33*
X148366968Y-125095000D03*
X148366968Y-123270000D03*
G04 #@! TD*
D13*
G04 #@! TO.C,U28*
X143840000Y-133925000D03*
X145110000Y-133925000D03*
X145110000Y-127675000D03*
X143840000Y-127675000D03*
G04 #@! TD*
D11*
G04 #@! TO.C,R35*
X165700000Y-78012500D03*
X165700000Y-76187500D03*
G04 #@! TD*
G04 #@! TO.C,R36*
X124590000Y-107622500D03*
X124590000Y-105797500D03*
G04 #@! TD*
G04 #@! TO.C,R34*
X176300000Y-71712500D03*
X176300000Y-69887500D03*
G04 #@! TD*
D12*
G04 #@! TO.C,C35*
X160600000Y-65343999D03*
X160600000Y-67243999D03*
G04 #@! TD*
D14*
G04 #@! TO.C,R28*
X144865000Y-120500000D03*
X146690000Y-120500000D03*
G04 #@! TD*
D12*
G04 #@! TO.C,C30*
X147086000Y-67810000D03*
X147086000Y-69710000D03*
G04 #@! TD*
D20*
G04 #@! TO.C,R18*
X150876000Y-90424000D03*
X149051000Y-90424000D03*
G04 #@! TD*
D21*
G04 #@! TO.C,C41*
X120580000Y-100579998D03*
X120580000Y-98680000D03*
G04 #@! TD*
D10*
G04 #@! TO.C,D10*
X152800000Y-116092498D03*
X152800000Y-117967500D03*
G04 #@! TD*
D38*
G04 #@! TO.C,U19*
X123802500Y-100947500D03*
X123802500Y-102247500D03*
X125102500Y-100947500D03*
X125102500Y-102247500D03*
D39*
X122515000Y-100347500D03*
X122515000Y-100847500D03*
X122515000Y-101347500D03*
X122515000Y-101847500D03*
X122515000Y-102347500D03*
X122515000Y-102847500D03*
D40*
X123202500Y-103535000D03*
X123702500Y-103535000D03*
X124202500Y-103535000D03*
X124702500Y-103535000D03*
X125202500Y-103535000D03*
X125702500Y-103535000D03*
D39*
X126390000Y-102847500D03*
X126390000Y-102347500D03*
X126390000Y-101847500D03*
X126390000Y-101347500D03*
X126390000Y-100847500D03*
X126390000Y-100347500D03*
D40*
X125702500Y-99660000D03*
X125202500Y-99660000D03*
X124702500Y-99660000D03*
X124202500Y-99660000D03*
X123702500Y-99660000D03*
X123202500Y-99660000D03*
G04 #@! TD*
D12*
G04 #@! TO.C,C40*
X182444000Y-65984001D03*
X182444000Y-67884001D03*
G04 #@! TD*
D10*
G04 #@! TO.C,D13*
X149600000Y-116092498D03*
X149600000Y-117967500D03*
G04 #@! TD*
D20*
G04 #@! TO.C,R56*
X179912500Y-136500000D03*
X178087500Y-136500000D03*
G04 #@! TD*
D17*
G04 #@! TO.C,U26*
X174760000Y-127685000D03*
X173490000Y-127685000D03*
X173490000Y-133935000D03*
X174760000Y-133935000D03*
G04 #@! TD*
D11*
G04 #@! TO.C,R8*
X157668936Y-125095000D03*
X157668936Y-123270000D03*
G04 #@! TD*
D21*
G04 #@! TO.C,C10*
X157550000Y-111099998D03*
X157550000Y-109200000D03*
G04 #@! TD*
D15*
G04 #@! TO.C,R17*
X141900000Y-71687500D03*
X141900000Y-73512500D03*
G04 #@! TD*
D20*
G04 #@! TO.C,R41*
X139342500Y-137000000D03*
X137517500Y-137000000D03*
G04 #@! TD*
D11*
G04 #@! TO.C,R59*
X153017952Y-125095000D03*
X153017952Y-123270000D03*
G04 #@! TD*
D12*
G04 #@! TO.C,C28*
X142006000Y-67810000D03*
X142006000Y-69710000D03*
G04 #@! TD*
D20*
G04 #@! TO.C,R14*
X122262500Y-73024999D03*
X120437500Y-73024999D03*
G04 #@! TD*
D33*
G04 #@! TO.C,C17*
X122950000Y-85000000D03*
X121050000Y-85000000D03*
G04 #@! TD*
D15*
G04 #@! TO.C,R19*
X166970905Y-123270000D03*
X166970905Y-125095000D03*
G04 #@! TD*
D11*
G04 #@! TO.C,R62*
X151024300Y-137912500D03*
X151024300Y-136087500D03*
G04 #@! TD*
G04 #@! TO.C,R12*
X162319920Y-125095000D03*
X162319920Y-123270000D03*
G04 #@! TD*
D17*
G04 #@! TO.C,U8*
X126365000Y-127685000D03*
X125095000Y-127685000D03*
X125095000Y-133935000D03*
X126365000Y-133935000D03*
G04 #@! TD*
D20*
G04 #@! TO.C,R20*
X171912500Y-136500000D03*
X170087500Y-136500000D03*
G04 #@! TD*
D10*
G04 #@! TO.C,D1*
X162490000Y-116092498D03*
X162490000Y-117967500D03*
G04 #@! TD*
D11*
G04 #@! TO.C,R61*
X146041476Y-125095000D03*
X146041476Y-123270000D03*
G04 #@! TD*
D15*
G04 #@! TO.C,R6*
X139065000Y-123270000D03*
X139065000Y-125095000D03*
G04 #@! TD*
D12*
G04 #@! TO.C,C37*
X176348000Y-61950500D03*
X176348000Y-63850500D03*
G04 #@! TD*
D18*
G04 #@! TO.C,Q3*
X176400001Y-138562500D03*
X174500001Y-138562500D03*
X175450001Y-140437500D03*
G04 #@! TD*
D13*
G04 #@! TO.C,U1*
X162365000Y-133935000D03*
X163635000Y-133935000D03*
X163635000Y-127685000D03*
X162365000Y-127685000D03*
G04 #@! TD*
D41*
G04 #@! TO.C,U7*
X148285000Y-97285000D03*
X148285000Y-97785000D03*
X148285000Y-98285000D03*
X148285000Y-98785000D03*
X148285000Y-99285000D03*
X148285000Y-99785000D03*
X148285000Y-100285000D03*
X148285000Y-100785000D03*
X148285000Y-101285000D03*
X148285000Y-101785000D03*
X148285000Y-102285000D03*
X148285000Y-102785000D03*
X148285000Y-103285000D03*
X148285000Y-103785000D03*
X148285000Y-104285000D03*
X148285000Y-104785000D03*
D42*
X150210000Y-106710000D03*
X150710000Y-106710000D03*
X151210000Y-106710000D03*
X151710000Y-106710000D03*
X152210000Y-106710000D03*
X152710000Y-106710000D03*
X153210000Y-106710000D03*
X153710000Y-106710000D03*
X154210000Y-106710000D03*
X154710000Y-106710000D03*
X155210000Y-106710000D03*
X155710000Y-106710000D03*
X156210000Y-106710000D03*
X156710000Y-106710000D03*
X157210000Y-106710000D03*
X157710000Y-106710000D03*
D41*
X159635000Y-104785000D03*
X159635000Y-104285000D03*
X159635000Y-103785000D03*
X159635000Y-103285000D03*
X159635000Y-102785000D03*
X159635000Y-102285000D03*
X159635000Y-101785000D03*
X159635000Y-101285000D03*
X159635000Y-100785000D03*
X159635000Y-100285000D03*
X159635000Y-99785000D03*
X159635000Y-99285000D03*
X159635000Y-98785000D03*
X159635000Y-98285000D03*
X159635000Y-97785000D03*
X159635000Y-97285000D03*
D42*
X157710000Y-95360000D03*
X157210000Y-95360000D03*
X156710000Y-95360000D03*
X156210000Y-95360000D03*
X155710000Y-95360000D03*
X155210000Y-95360000D03*
X154710000Y-95360000D03*
X154210000Y-95360000D03*
X153710000Y-95360000D03*
X153210000Y-95360000D03*
X152710000Y-95360000D03*
X152210000Y-95360000D03*
X151710000Y-95360000D03*
X151210000Y-95360000D03*
X150710000Y-95360000D03*
X150210000Y-95360000D03*
G04 #@! TD*
D17*
G04 #@! TO.C,U4*
X171060000Y-127675000D03*
X169790000Y-127675000D03*
X169790000Y-133925000D03*
X171060000Y-133925000D03*
G04 #@! TD*
D23*
G04 #@! TO.C,D3*
X126937500Y-83950000D03*
X126937500Y-82050000D03*
X125062500Y-83000000D03*
G04 #@! TD*
D11*
G04 #@! TO.C,R21*
X129814000Y-80237000D03*
X129814000Y-78412000D03*
G04 #@! TD*
D21*
G04 #@! TO.C,C33*
X160600000Y-63312001D03*
X160600000Y-61412001D03*
G04 #@! TD*
D15*
G04 #@! TO.C,R22*
X141390492Y-123270000D03*
X141390492Y-125095000D03*
G04 #@! TD*
D21*
G04 #@! TO.C,C34*
X157044000Y-63312001D03*
X157044000Y-61412001D03*
G04 #@! TD*
D23*
G04 #@! TO.C,Q2*
X182775000Y-125850000D03*
X182775000Y-123950000D03*
X180900000Y-124900000D03*
G04 #@! TD*
D32*
G04 #@! TO.C,U18*
X178237500Y-75650000D03*
X178237500Y-73750000D03*
X175962500Y-74700000D03*
G04 #@! TD*
D20*
G04 #@! TO.C,R23*
X143787500Y-137000000D03*
X141962500Y-137000000D03*
G04 #@! TD*
D11*
G04 #@! TO.C,R53*
X159994428Y-125095000D03*
X159994428Y-123270000D03*
G04 #@! TD*
D12*
G04 #@! TO.C,C26*
X123718000Y-66860001D03*
X123718000Y-68760001D03*
G04 #@! TD*
M02*
