G04 #@! TF.GenerationSoftware,KiCad,Pcbnew,(5.1.6)-1*
G04 #@! TF.CreationDate,2021-02-06T11:42:46-06:00*
G04 #@! TF.ProjectId,Dashboard,44617368-626f-4617-9264-2e6b69636164,rev?*
G04 #@! TF.SameCoordinates,Original*
G04 #@! TF.FileFunction,Paste,Bot*
G04 #@! TF.FilePolarity,Positive*
%FSLAX46Y46*%
G04 Gerber Fmt 4.6, Leading zero omitted, Abs format (unit mm)*
G04 Created by KiCad (PCBNEW (5.1.6)-1) date 2021-02-06 11:42:46*
%MOMM*%
%LPD*%
G01*
G04 APERTURE LIST*
%ADD10R,2.400000X1.700000*%
G04 APERTURE END LIST*
G36*
G01*
X114112500Y-87543750D02*
X114112500Y-88456250D01*
G75*
G02*
X113868750Y-88700000I-243750J0D01*
G01*
X113381250Y-88700000D01*
G75*
G02*
X113137500Y-88456250I0J243750D01*
G01*
X113137500Y-87543750D01*
G75*
G02*
X113381250Y-87300000I243750J0D01*
G01*
X113868750Y-87300000D01*
G75*
G02*
X114112500Y-87543750I0J-243750D01*
G01*
G37*
G36*
G01*
X115987500Y-87543750D02*
X115987500Y-88456250D01*
G75*
G02*
X115743750Y-88700000I-243750J0D01*
G01*
X115256250Y-88700000D01*
G75*
G02*
X115012500Y-88456250I0J243750D01*
G01*
X115012500Y-87543750D01*
G75*
G02*
X115256250Y-87300000I243750J0D01*
G01*
X115743750Y-87300000D01*
G75*
G02*
X115987500Y-87543750I0J-243750D01*
G01*
G37*
G36*
G01*
X114112500Y-83843750D02*
X114112500Y-84756250D01*
G75*
G02*
X113868750Y-85000000I-243750J0D01*
G01*
X113381250Y-85000000D01*
G75*
G02*
X113137500Y-84756250I0J243750D01*
G01*
X113137500Y-83843750D01*
G75*
G02*
X113381250Y-83600000I243750J0D01*
G01*
X113868750Y-83600000D01*
G75*
G02*
X114112500Y-83843750I0J-243750D01*
G01*
G37*
G36*
G01*
X115987500Y-83843750D02*
X115987500Y-84756250D01*
G75*
G02*
X115743750Y-85000000I-243750J0D01*
G01*
X115256250Y-85000000D01*
G75*
G02*
X115012500Y-84756250I0J243750D01*
G01*
X115012500Y-83843750D01*
G75*
G02*
X115256250Y-83600000I243750J0D01*
G01*
X115743750Y-83600000D01*
G75*
G02*
X115987500Y-83843750I0J-243750D01*
G01*
G37*
D10*
X100900000Y-120150000D03*
X100900000Y-116450000D03*
G36*
G01*
X92075000Y-125456250D02*
X92075000Y-124543750D01*
G75*
G02*
X92318750Y-124300000I243750J0D01*
G01*
X92806250Y-124300000D01*
G75*
G02*
X93050000Y-124543750I0J-243750D01*
G01*
X93050000Y-125456250D01*
G75*
G02*
X92806250Y-125700000I-243750J0D01*
G01*
X92318750Y-125700000D01*
G75*
G02*
X92075000Y-125456250I0J243750D01*
G01*
G37*
G36*
G01*
X93950000Y-125456250D02*
X93950000Y-124543750D01*
G75*
G02*
X94193750Y-124300000I243750J0D01*
G01*
X94681250Y-124300000D01*
G75*
G02*
X94925000Y-124543750I0J-243750D01*
G01*
X94925000Y-125456250D01*
G75*
G02*
X94681250Y-125700000I-243750J0D01*
G01*
X94193750Y-125700000D01*
G75*
G02*
X93950000Y-125456250I0J243750D01*
G01*
G37*
G36*
G01*
X193543750Y-84987500D02*
X194456250Y-84987500D01*
G75*
G02*
X194700000Y-85231250I0J-243750D01*
G01*
X194700000Y-85718750D01*
G75*
G02*
X194456250Y-85962500I-243750J0D01*
G01*
X193543750Y-85962500D01*
G75*
G02*
X193300000Y-85718750I0J243750D01*
G01*
X193300000Y-85231250D01*
G75*
G02*
X193543750Y-84987500I243750J0D01*
G01*
G37*
G36*
G01*
X193543750Y-83112500D02*
X194456250Y-83112500D01*
G75*
G02*
X194700000Y-83356250I0J-243750D01*
G01*
X194700000Y-83843750D01*
G75*
G02*
X194456250Y-84087500I-243750J0D01*
G01*
X193543750Y-84087500D01*
G75*
G02*
X193300000Y-83843750I0J243750D01*
G01*
X193300000Y-83356250D01*
G75*
G02*
X193543750Y-83112500I243750J0D01*
G01*
G37*
G36*
G01*
X196843750Y-84987500D02*
X197756250Y-84987500D01*
G75*
G02*
X198000000Y-85231250I0J-243750D01*
G01*
X198000000Y-85718750D01*
G75*
G02*
X197756250Y-85962500I-243750J0D01*
G01*
X196843750Y-85962500D01*
G75*
G02*
X196600000Y-85718750I0J243750D01*
G01*
X196600000Y-85231250D01*
G75*
G02*
X196843750Y-84987500I243750J0D01*
G01*
G37*
G36*
G01*
X196843750Y-83112500D02*
X197756250Y-83112500D01*
G75*
G02*
X198000000Y-83356250I0J-243750D01*
G01*
X198000000Y-83843750D01*
G75*
G02*
X197756250Y-84087500I-243750J0D01*
G01*
X196843750Y-84087500D01*
G75*
G02*
X196600000Y-83843750I0J243750D01*
G01*
X196600000Y-83356250D01*
G75*
G02*
X196843750Y-83112500I243750J0D01*
G01*
G37*
G36*
G01*
X91343750Y-113375000D02*
X92256250Y-113375000D01*
G75*
G02*
X92500000Y-113618750I0J-243750D01*
G01*
X92500000Y-114106250D01*
G75*
G02*
X92256250Y-114350000I-243750J0D01*
G01*
X91343750Y-114350000D01*
G75*
G02*
X91100000Y-114106250I0J243750D01*
G01*
X91100000Y-113618750D01*
G75*
G02*
X91343750Y-113375000I243750J0D01*
G01*
G37*
G36*
G01*
X91343750Y-115250000D02*
X92256250Y-115250000D01*
G75*
G02*
X92500000Y-115493750I0J-243750D01*
G01*
X92500000Y-115981250D01*
G75*
G02*
X92256250Y-116225000I-243750J0D01*
G01*
X91343750Y-116225000D01*
G75*
G02*
X91100000Y-115981250I0J243750D01*
G01*
X91100000Y-115493750D01*
G75*
G02*
X91343750Y-115250000I243750J0D01*
G01*
G37*
G36*
G01*
X86037500Y-114356250D02*
X86037500Y-113443750D01*
G75*
G02*
X86281250Y-113200000I243750J0D01*
G01*
X86768750Y-113200000D01*
G75*
G02*
X87012500Y-113443750I0J-243750D01*
G01*
X87012500Y-114356250D01*
G75*
G02*
X86768750Y-114600000I-243750J0D01*
G01*
X86281250Y-114600000D01*
G75*
G02*
X86037500Y-114356250I0J243750D01*
G01*
G37*
G36*
G01*
X87912500Y-114356250D02*
X87912500Y-113443750D01*
G75*
G02*
X88156250Y-113200000I243750J0D01*
G01*
X88643750Y-113200000D01*
G75*
G02*
X88887500Y-113443750I0J-243750D01*
G01*
X88887500Y-114356250D01*
G75*
G02*
X88643750Y-114600000I-243750J0D01*
G01*
X88156250Y-114600000D01*
G75*
G02*
X87912500Y-114356250I0J243750D01*
G01*
G37*
G36*
G01*
X84956250Y-121525000D02*
X84043750Y-121525000D01*
G75*
G02*
X83800000Y-121281250I0J243750D01*
G01*
X83800000Y-120793750D01*
G75*
G02*
X84043750Y-120550000I243750J0D01*
G01*
X84956250Y-120550000D01*
G75*
G02*
X85200000Y-120793750I0J-243750D01*
G01*
X85200000Y-121281250D01*
G75*
G02*
X84956250Y-121525000I-243750J0D01*
G01*
G37*
G36*
G01*
X84956250Y-119650000D02*
X84043750Y-119650000D01*
G75*
G02*
X83800000Y-119406250I0J243750D01*
G01*
X83800000Y-118918750D01*
G75*
G02*
X84043750Y-118675000I243750J0D01*
G01*
X84956250Y-118675000D01*
G75*
G02*
X85200000Y-118918750I0J-243750D01*
G01*
X85200000Y-119406250D01*
G75*
G02*
X84956250Y-119650000I-243750J0D01*
G01*
G37*
G36*
G01*
X87356250Y-121525000D02*
X86443750Y-121525000D01*
G75*
G02*
X86200000Y-121281250I0J243750D01*
G01*
X86200000Y-120793750D01*
G75*
G02*
X86443750Y-120550000I243750J0D01*
G01*
X87356250Y-120550000D01*
G75*
G02*
X87600000Y-120793750I0J-243750D01*
G01*
X87600000Y-121281250D01*
G75*
G02*
X87356250Y-121525000I-243750J0D01*
G01*
G37*
G36*
G01*
X87356250Y-119650000D02*
X86443750Y-119650000D01*
G75*
G02*
X86200000Y-119406250I0J243750D01*
G01*
X86200000Y-118918750D01*
G75*
G02*
X86443750Y-118675000I243750J0D01*
G01*
X87356250Y-118675000D01*
G75*
G02*
X87600000Y-118918750I0J-243750D01*
G01*
X87600000Y-119406250D01*
G75*
G02*
X87356250Y-119650000I-243750J0D01*
G01*
G37*
G36*
G01*
X93743750Y-113375000D02*
X94656250Y-113375000D01*
G75*
G02*
X94900000Y-113618750I0J-243750D01*
G01*
X94900000Y-114106250D01*
G75*
G02*
X94656250Y-114350000I-243750J0D01*
G01*
X93743750Y-114350000D01*
G75*
G02*
X93500000Y-114106250I0J243750D01*
G01*
X93500000Y-113618750D01*
G75*
G02*
X93743750Y-113375000I243750J0D01*
G01*
G37*
G36*
G01*
X93743750Y-115250000D02*
X94656250Y-115250000D01*
G75*
G02*
X94900000Y-115493750I0J-243750D01*
G01*
X94900000Y-115981250D01*
G75*
G02*
X94656250Y-116225000I-243750J0D01*
G01*
X93743750Y-116225000D01*
G75*
G02*
X93500000Y-115981250I0J243750D01*
G01*
X93500000Y-115493750D01*
G75*
G02*
X93743750Y-115250000I243750J0D01*
G01*
G37*
G36*
G01*
X86137500Y-109456250D02*
X86137500Y-108543750D01*
G75*
G02*
X86381250Y-108300000I243750J0D01*
G01*
X86868750Y-108300000D01*
G75*
G02*
X87112500Y-108543750I0J-243750D01*
G01*
X87112500Y-109456250D01*
G75*
G02*
X86868750Y-109700000I-243750J0D01*
G01*
X86381250Y-109700000D01*
G75*
G02*
X86137500Y-109456250I0J243750D01*
G01*
G37*
G36*
G01*
X88012500Y-109456250D02*
X88012500Y-108543750D01*
G75*
G02*
X88256250Y-108300000I243750J0D01*
G01*
X88743750Y-108300000D01*
G75*
G02*
X88987500Y-108543750I0J-243750D01*
G01*
X88987500Y-109456250D01*
G75*
G02*
X88743750Y-109700000I-243750J0D01*
G01*
X88256250Y-109700000D01*
G75*
G02*
X88012500Y-109456250I0J243750D01*
G01*
G37*
G36*
G01*
X94425000Y-119843750D02*
X94425000Y-120756250D01*
G75*
G02*
X94181250Y-121000000I-243750J0D01*
G01*
X93693750Y-121000000D01*
G75*
G02*
X93450000Y-120756250I0J243750D01*
G01*
X93450000Y-119843750D01*
G75*
G02*
X93693750Y-119600000I243750J0D01*
G01*
X94181250Y-119600000D01*
G75*
G02*
X94425000Y-119843750I0J-243750D01*
G01*
G37*
G36*
G01*
X92550000Y-119843750D02*
X92550000Y-120756250D01*
G75*
G02*
X92306250Y-121000000I-243750J0D01*
G01*
X91818750Y-121000000D01*
G75*
G02*
X91575000Y-120756250I0J243750D01*
G01*
X91575000Y-119843750D01*
G75*
G02*
X91818750Y-119600000I243750J0D01*
G01*
X92306250Y-119600000D01*
G75*
G02*
X92550000Y-119843750I0J-243750D01*
G01*
G37*
G36*
G01*
X96143750Y-113375000D02*
X97056250Y-113375000D01*
G75*
G02*
X97300000Y-113618750I0J-243750D01*
G01*
X97300000Y-114106250D01*
G75*
G02*
X97056250Y-114350000I-243750J0D01*
G01*
X96143750Y-114350000D01*
G75*
G02*
X95900000Y-114106250I0J243750D01*
G01*
X95900000Y-113618750D01*
G75*
G02*
X96143750Y-113375000I243750J0D01*
G01*
G37*
G36*
G01*
X96143750Y-115250000D02*
X97056250Y-115250000D01*
G75*
G02*
X97300000Y-115493750I0J-243750D01*
G01*
X97300000Y-115981250D01*
G75*
G02*
X97056250Y-116225000I-243750J0D01*
G01*
X96143750Y-116225000D01*
G75*
G02*
X95900000Y-115981250I0J243750D01*
G01*
X95900000Y-115493750D01*
G75*
G02*
X96143750Y-115250000I243750J0D01*
G01*
G37*
G36*
G01*
X86450000Y-87243750D02*
X86450000Y-88156250D01*
G75*
G02*
X86206250Y-88400000I-243750J0D01*
G01*
X85718750Y-88400000D01*
G75*
G02*
X85475000Y-88156250I0J243750D01*
G01*
X85475000Y-87243750D01*
G75*
G02*
X85718750Y-87000000I243750J0D01*
G01*
X86206250Y-87000000D01*
G75*
G02*
X86450000Y-87243750I0J-243750D01*
G01*
G37*
G36*
G01*
X88325000Y-87243750D02*
X88325000Y-88156250D01*
G75*
G02*
X88081250Y-88400000I-243750J0D01*
G01*
X87593750Y-88400000D01*
G75*
G02*
X87350000Y-88156250I0J243750D01*
G01*
X87350000Y-87243750D01*
G75*
G02*
X87593750Y-87000000I243750J0D01*
G01*
X88081250Y-87000000D01*
G75*
G02*
X88325000Y-87243750I0J-243750D01*
G01*
G37*
G36*
G01*
X72950000Y-87243750D02*
X72950000Y-88156250D01*
G75*
G02*
X72706250Y-88400000I-243750J0D01*
G01*
X72218750Y-88400000D01*
G75*
G02*
X71975000Y-88156250I0J243750D01*
G01*
X71975000Y-87243750D01*
G75*
G02*
X72218750Y-87000000I243750J0D01*
G01*
X72706250Y-87000000D01*
G75*
G02*
X72950000Y-87243750I0J-243750D01*
G01*
G37*
G36*
G01*
X74825000Y-87243750D02*
X74825000Y-88156250D01*
G75*
G02*
X74581250Y-88400000I-243750J0D01*
G01*
X74093750Y-88400000D01*
G75*
G02*
X73850000Y-88156250I0J243750D01*
G01*
X73850000Y-87243750D01*
G75*
G02*
X74093750Y-87000000I243750J0D01*
G01*
X74581250Y-87000000D01*
G75*
G02*
X74825000Y-87243750I0J-243750D01*
G01*
G37*
G36*
G01*
X59450000Y-87243750D02*
X59450000Y-88156250D01*
G75*
G02*
X59206250Y-88400000I-243750J0D01*
G01*
X58718750Y-88400000D01*
G75*
G02*
X58475000Y-88156250I0J243750D01*
G01*
X58475000Y-87243750D01*
G75*
G02*
X58718750Y-87000000I243750J0D01*
G01*
X59206250Y-87000000D01*
G75*
G02*
X59450000Y-87243750I0J-243750D01*
G01*
G37*
G36*
G01*
X61325000Y-87243750D02*
X61325000Y-88156250D01*
G75*
G02*
X61081250Y-88400000I-243750J0D01*
G01*
X60593750Y-88400000D01*
G75*
G02*
X60350000Y-88156250I0J243750D01*
G01*
X60350000Y-87243750D01*
G75*
G02*
X60593750Y-87000000I243750J0D01*
G01*
X61081250Y-87000000D01*
G75*
G02*
X61325000Y-87243750I0J-243750D01*
G01*
G37*
G36*
G01*
X45950000Y-87243750D02*
X45950000Y-88156250D01*
G75*
G02*
X45706250Y-88400000I-243750J0D01*
G01*
X45218750Y-88400000D01*
G75*
G02*
X44975000Y-88156250I0J243750D01*
G01*
X44975000Y-87243750D01*
G75*
G02*
X45218750Y-87000000I243750J0D01*
G01*
X45706250Y-87000000D01*
G75*
G02*
X45950000Y-87243750I0J-243750D01*
G01*
G37*
G36*
G01*
X47825000Y-87243750D02*
X47825000Y-88156250D01*
G75*
G02*
X47581250Y-88400000I-243750J0D01*
G01*
X47093750Y-88400000D01*
G75*
G02*
X46850000Y-88156250I0J243750D01*
G01*
X46850000Y-87243750D01*
G75*
G02*
X47093750Y-87000000I243750J0D01*
G01*
X47581250Y-87000000D01*
G75*
G02*
X47825000Y-87243750I0J-243750D01*
G01*
G37*
M02*
