G04 #@! TF.GenerationSoftware,KiCad,Pcbnew,(6.0.4)*
G04 #@! TF.CreationDate,2022-04-02T14:45:44-05:00*
G04 #@! TF.ProjectId,Dashboard,44617368-626f-4617-9264-2e6b69636164,rev?*
G04 #@! TF.SameCoordinates,Original*
G04 #@! TF.FileFunction,Paste,Top*
G04 #@! TF.FilePolarity,Positive*
%FSLAX46Y46*%
G04 Gerber Fmt 4.6, Leading zero omitted, Abs format (unit mm)*
G04 Created by KiCad (PCBNEW (6.0.4)) date 2022-04-02 14:45:44*
%MOMM*%
%LPD*%
G01*
G04 APERTURE LIST*
G04 Aperture macros list*
%AMRoundRect*
0 Rectangle with rounded corners*
0 $1 Rounding radius*
0 $2 $3 $4 $5 $6 $7 $8 $9 X,Y pos of 4 corners*
0 Add a 4 corners polygon primitive as box body*
4,1,4,$2,$3,$4,$5,$6,$7,$8,$9,$2,$3,0*
0 Add four circle primitives for the rounded corners*
1,1,$1+$1,$2,$3*
1,1,$1+$1,$4,$5*
1,1,$1+$1,$6,$7*
1,1,$1+$1,$8,$9*
0 Add four rect primitives between the rounded corners*
20,1,$1+$1,$2,$3,$4,$5,0*
20,1,$1+$1,$4,$5,$6,$7,0*
20,1,$1+$1,$6,$7,$8,$9,0*
20,1,$1+$1,$8,$9,$2,$3,0*%
G04 Aperture macros list end*
%ADD10RoundRect,0.243750X0.243750X0.456250X-0.243750X0.456250X-0.243750X-0.456250X0.243750X-0.456250X0*%
%ADD11RoundRect,0.243750X-0.456250X0.243750X-0.456250X-0.243750X0.456250X-0.243750X0.456250X0.243750X0*%
%ADD12RoundRect,0.243750X0.456250X-0.243750X0.456250X0.243750X-0.456250X0.243750X-0.456250X-0.243750X0*%
%ADD13RoundRect,0.243750X0.494975X0.150260X0.150260X0.494975X-0.494975X-0.150260X-0.150260X-0.494975X0*%
%ADD14RoundRect,0.243750X-0.243750X-0.456250X0.243750X-0.456250X0.243750X0.456250X-0.243750X0.456250X0*%
%ADD15R,0.800000X0.900000*%
%ADD16R,1.200000X1.400000*%
%ADD17R,1.000000X1.400000*%
%ADD18R,1.350000X0.400000*%
%ADD19R,1.900000X1.500000*%
%ADD20RoundRect,0.243750X0.150260X-0.494975X0.494975X-0.150260X-0.150260X0.494975X-0.494975X0.150260X0*%
%ADD21R,2.750000X1.000000*%
%ADD22RoundRect,0.150000X-0.362392X-0.574524X0.574524X0.362392X0.362392X0.574524X-0.574524X-0.362392X0*%
%ADD23RoundRect,0.150000X0.150000X-0.662500X0.150000X0.662500X-0.150000X0.662500X-0.150000X-0.662500X0*%
%ADD24RoundRect,0.075000X-0.700000X-0.075000X0.700000X-0.075000X0.700000X0.075000X-0.700000X0.075000X0*%
%ADD25RoundRect,0.075000X-0.075000X-0.700000X0.075000X-0.700000X0.075000X0.700000X-0.075000X0.700000X0*%
%ADD26RoundRect,0.150000X0.662500X0.150000X-0.662500X0.150000X-0.662500X-0.150000X0.662500X-0.150000X0*%
%ADD27R,2.000000X1.500000*%
%ADD28R,2.000000X3.800000*%
%ADD29RoundRect,0.250000X-0.275000X-0.275000X0.275000X-0.275000X0.275000X0.275000X-0.275000X0.275000X0*%
%ADD30RoundRect,0.062500X-0.350000X-0.062500X0.350000X-0.062500X0.350000X0.062500X-0.350000X0.062500X0*%
%ADD31RoundRect,0.062500X-0.062500X-0.350000X0.062500X-0.350000X0.062500X0.350000X-0.062500X0.350000X0*%
%ADD32R,2.400000X1.700000*%
%ADD33R,0.450000X0.600000*%
%ADD34R,1.000000X0.700000*%
%ADD35R,1.950000X0.600000*%
%ADD36R,0.700000X1.000000*%
%ADD37R,0.600000X1.950000*%
G04 APERTURE END LIST*
D10*
X169100000Y-69300000D03*
X167225000Y-69300000D03*
X169100000Y-82350000D03*
X167225000Y-82350000D03*
X120717500Y-91600000D03*
X118842500Y-91600000D03*
D11*
X142100000Y-100812500D03*
X142100000Y-102687500D03*
D12*
X125750000Y-86837500D03*
X125750000Y-84962500D03*
D11*
X125750000Y-94812500D03*
X125750000Y-96687500D03*
D12*
X140000000Y-102687500D03*
X140000000Y-100812500D03*
D13*
X130262913Y-85962913D03*
X128937087Y-84637087D03*
D11*
X131900000Y-100812500D03*
X131900000Y-102687500D03*
D12*
X108215000Y-57232500D03*
X108215000Y-55357500D03*
X107365000Y-81032500D03*
X107365000Y-79157500D03*
D11*
X107365000Y-75457500D03*
X107365000Y-77332500D03*
D12*
X160100000Y-117737500D03*
X160100000Y-115862500D03*
D14*
X156062500Y-117700000D03*
X157937500Y-117700000D03*
D15*
X106065000Y-55295000D03*
X104165000Y-55295000D03*
X105115000Y-57295000D03*
X104315000Y-84895000D03*
X106215000Y-84895000D03*
X105265000Y-82895000D03*
X106215000Y-71595000D03*
X104315000Y-71595000D03*
X105265000Y-73595000D03*
D14*
X179425000Y-108600000D03*
X181300000Y-108600000D03*
D12*
X154700000Y-115862500D03*
X154700000Y-113987500D03*
D16*
X104260000Y-87070000D03*
D17*
X102540000Y-87070000D03*
X102540000Y-89270000D03*
X104440000Y-89270000D03*
D18*
X99302500Y-86320000D03*
X99302500Y-86970000D03*
X99302500Y-87620000D03*
X99302500Y-88270000D03*
X99302500Y-88920000D03*
D19*
X96602500Y-86620000D03*
X96602500Y-88620000D03*
D11*
X164300000Y-47162500D03*
X164300000Y-49037500D03*
X163425000Y-59662500D03*
X163425000Y-61537500D03*
X163425000Y-98662500D03*
X163425000Y-100537500D03*
X163425000Y-85662500D03*
X163425000Y-87537500D03*
D20*
X158737087Y-54762913D03*
X160062913Y-53437087D03*
X158937087Y-66762913D03*
X160262913Y-65437087D03*
X159037087Y-79462913D03*
X160362913Y-78137087D03*
X159237087Y-105462913D03*
X160562913Y-104137087D03*
D12*
X139900000Y-127637500D03*
X139900000Y-125762500D03*
X132920000Y-127395001D03*
X132920000Y-125520001D03*
D10*
X185100000Y-108575000D03*
X183225000Y-108575000D03*
D14*
X138412500Y-120300000D03*
X140287500Y-120300000D03*
D11*
X132100000Y-119862500D03*
X132100000Y-121737500D03*
D12*
X108365000Y-84932500D03*
X108365000Y-83057500D03*
D11*
X107115000Y-59157500D03*
X107115000Y-61032500D03*
D12*
X105115000Y-61032500D03*
X105115000Y-59157500D03*
D11*
X105265000Y-79157500D03*
X105265000Y-81032500D03*
D10*
X134900000Y-83900000D03*
X133025000Y-83900000D03*
D11*
X108365000Y-71557500D03*
X108365000Y-73432500D03*
D14*
X107032500Y-53190000D03*
X108907500Y-53190000D03*
X116482500Y-53190000D03*
X118357500Y-53190000D03*
D10*
X125849999Y-53810000D03*
X123974999Y-53810000D03*
D12*
X157000000Y-115887500D03*
X157000000Y-114012500D03*
D10*
X104427500Y-91670000D03*
X102552500Y-91670000D03*
D11*
X107900000Y-93762500D03*
X107900000Y-95637500D03*
D10*
X111827500Y-93820000D03*
X109952500Y-93820000D03*
D21*
X114225000Y-84750000D03*
X119975000Y-84750000D03*
X114225000Y-88750000D03*
X119975000Y-88750000D03*
D22*
X158897084Y-57504890D03*
X159795110Y-58402916D03*
X164302916Y-53895110D03*
X163404890Y-52997084D03*
X158897084Y-69604890D03*
X159795110Y-70502916D03*
X164302916Y-65995110D03*
X163404890Y-65097084D03*
X158897084Y-82604890D03*
X159795110Y-83502916D03*
X164302916Y-78995110D03*
X163404890Y-78097084D03*
X159397084Y-108204890D03*
X160295110Y-109102916D03*
X164802916Y-104595110D03*
X163904890Y-103697084D03*
D23*
X142115000Y-126637500D03*
X143385000Y-126637500D03*
X143385000Y-120262500D03*
X142115000Y-120262500D03*
X135215000Y-126737500D03*
X136485000Y-126737500D03*
X136485000Y-120362500D03*
X135215000Y-120362500D03*
D24*
X130975000Y-88600000D03*
X130975000Y-89100000D03*
X130975000Y-89600000D03*
X130975000Y-90100000D03*
X130975000Y-90600000D03*
X130975000Y-91100000D03*
X130975000Y-91600000D03*
X130975000Y-92100000D03*
X130975000Y-92600000D03*
X130975000Y-93100000D03*
X130975000Y-93600000D03*
X130975000Y-94100000D03*
X130975000Y-94600000D03*
X130975000Y-95100000D03*
X130975000Y-95600000D03*
X130975000Y-96100000D03*
D25*
X132900000Y-98025000D03*
X133400000Y-98025000D03*
X133900000Y-98025000D03*
X134400000Y-98025000D03*
X134900000Y-98025000D03*
X135400000Y-98025000D03*
X135900000Y-98025000D03*
X136400000Y-98025000D03*
X136900000Y-98025000D03*
X137400000Y-98025000D03*
X137900000Y-98025000D03*
X138400000Y-98025000D03*
X138900000Y-98025000D03*
X139400000Y-98025000D03*
X139900000Y-98025000D03*
X140400000Y-98025000D03*
D24*
X142325000Y-96100000D03*
X142325000Y-95600000D03*
X142325000Y-95100000D03*
X142325000Y-94600000D03*
X142325000Y-94100000D03*
X142325000Y-93600000D03*
X142325000Y-93100000D03*
X142325000Y-92600000D03*
X142325000Y-92100000D03*
X142325000Y-91600000D03*
X142325000Y-91100000D03*
X142325000Y-90600000D03*
X142325000Y-90100000D03*
X142325000Y-89600000D03*
X142325000Y-89100000D03*
X142325000Y-88600000D03*
D25*
X140400000Y-86675000D03*
X139900000Y-86675000D03*
X139400000Y-86675000D03*
X138900000Y-86675000D03*
X138400000Y-86675000D03*
X137900000Y-86675000D03*
X137400000Y-86675000D03*
X136900000Y-86675000D03*
X136400000Y-86675000D03*
X135900000Y-86675000D03*
X135400000Y-86675000D03*
X134900000Y-86675000D03*
X134400000Y-86675000D03*
X133900000Y-86675000D03*
X133400000Y-86675000D03*
X132900000Y-86675000D03*
D26*
X107057500Y-51275000D03*
X107057500Y-50005000D03*
X100682500Y-50005000D03*
X100682500Y-51275000D03*
X116507500Y-51275000D03*
X116507500Y-50005000D03*
X110132500Y-50005000D03*
X110132500Y-51275000D03*
X135207500Y-51275000D03*
X135207500Y-50005000D03*
X128832500Y-50005000D03*
X128832500Y-51275000D03*
X125857500Y-51275000D03*
X125857500Y-50005000D03*
X119482500Y-50005000D03*
X119482500Y-51275000D03*
D27*
X162850000Y-124700000D03*
X162850000Y-122400000D03*
D28*
X156550000Y-122400000D03*
D27*
X162850000Y-120100000D03*
D29*
X108490000Y-90770000D03*
X108490000Y-89470000D03*
X109790000Y-90770000D03*
X109790000Y-89470000D03*
D30*
X107202500Y-88870000D03*
X107202500Y-89370000D03*
X107202500Y-89870000D03*
X107202500Y-90370000D03*
X107202500Y-90870000D03*
X107202500Y-91370000D03*
D31*
X107890000Y-92057500D03*
X108390000Y-92057500D03*
X108890000Y-92057500D03*
X109390000Y-92057500D03*
X109890000Y-92057500D03*
X110390000Y-92057500D03*
D30*
X111077500Y-91370000D03*
X111077500Y-90870000D03*
X111077500Y-90370000D03*
X111077500Y-89870000D03*
X111077500Y-89370000D03*
X111077500Y-88870000D03*
D31*
X110390000Y-88182500D03*
X109890000Y-88182500D03*
X109390000Y-88182500D03*
X108890000Y-88182500D03*
X108390000Y-88182500D03*
X107890000Y-88182500D03*
D32*
X125750000Y-92700000D03*
X125750000Y-89000000D03*
D11*
X105115000Y-62857500D03*
X105115000Y-64732500D03*
X108215000Y-66657500D03*
X108215000Y-68532500D03*
D12*
X107115000Y-64732500D03*
X107115000Y-62857500D03*
D15*
X104165000Y-68595000D03*
X106065000Y-68595000D03*
X105115000Y-66595000D03*
D12*
X105265000Y-77295000D03*
X105265000Y-75420000D03*
D33*
X185820000Y-116520000D03*
X185820000Y-114420000D03*
D11*
X163425000Y-72712500D03*
X163425000Y-74587500D03*
D10*
X169100000Y-56350000D03*
X167225000Y-56350000D03*
X169100000Y-108300000D03*
X167225000Y-108300000D03*
X169112500Y-95300000D03*
X167237500Y-95300000D03*
D12*
X102450000Y-126637500D03*
X102450000Y-124762500D03*
D20*
X142987087Y-85962913D03*
X144312913Y-84637087D03*
D10*
X105627500Y-94495000D03*
X103752500Y-94495000D03*
D11*
X111400000Y-97562500D03*
X111400000Y-99437500D03*
D10*
X106777500Y-101970000D03*
X104902500Y-101970000D03*
D14*
X102902500Y-108970000D03*
X104777500Y-108970000D03*
X102902500Y-111970000D03*
X104777500Y-111970000D03*
D34*
X107040000Y-106420000D03*
X107040000Y-104520000D03*
X104640000Y-105470000D03*
D11*
X106840000Y-115032500D03*
X106840000Y-116907500D03*
D14*
X122602500Y-114670000D03*
X124477500Y-114670000D03*
X122602500Y-112670000D03*
X124477500Y-112670000D03*
X122602500Y-110670000D03*
X124477500Y-110670000D03*
D12*
X102840000Y-118907500D03*
X102840000Y-117032500D03*
D14*
X102902500Y-114970000D03*
X104777500Y-114970000D03*
X122602500Y-108670000D03*
X124477500Y-108670000D03*
D35*
X119540000Y-114685000D03*
X119540000Y-113415000D03*
X119540000Y-112145000D03*
X119540000Y-110875000D03*
X119540000Y-109605000D03*
X119540000Y-108335000D03*
X119540000Y-107065000D03*
X119540000Y-105795000D03*
X119540000Y-104525000D03*
X119540000Y-103255000D03*
X110140000Y-103255000D03*
X110140000Y-104525000D03*
X110140000Y-105795000D03*
X110140000Y-107065000D03*
X110140000Y-108335000D03*
X110140000Y-109605000D03*
X110140000Y-110875000D03*
X110140000Y-112145000D03*
X110140000Y-113415000D03*
X110140000Y-114685000D03*
D11*
X133900000Y-100812500D03*
X133900000Y-102687500D03*
X141050000Y-58612500D03*
X141050000Y-60487500D03*
D12*
X151200000Y-66637500D03*
X151200000Y-64762500D03*
D11*
X134910000Y-57642500D03*
X134910000Y-59517500D03*
X143250000Y-58612500D03*
X143250000Y-60487500D03*
X140350000Y-76612500D03*
X140350000Y-78487500D03*
X138250000Y-76612500D03*
X138250000Y-78487500D03*
D14*
X150012500Y-56460000D03*
X151887500Y-56460000D03*
D11*
X137010000Y-57642500D03*
X137010000Y-59517500D03*
D36*
X147200000Y-58050000D03*
X145300000Y-58050000D03*
X146250000Y-60450000D03*
D11*
X142550000Y-76612500D03*
X142550000Y-78487500D03*
X136050000Y-76612500D03*
X136050000Y-78487500D03*
D10*
X136947500Y-61480000D03*
X135072500Y-61480000D03*
D37*
X136535000Y-73650000D03*
X137805000Y-73650000D03*
X139075000Y-73650000D03*
X140345000Y-73650000D03*
X141615000Y-73650000D03*
X142885000Y-73650000D03*
X144155000Y-73650000D03*
X145425000Y-73650000D03*
X146695000Y-73650000D03*
X147965000Y-73650000D03*
X147965000Y-64250000D03*
X146695000Y-64250000D03*
X145425000Y-64250000D03*
X144155000Y-64250000D03*
X142885000Y-64250000D03*
X141615000Y-64250000D03*
X140345000Y-64250000D03*
X139075000Y-64250000D03*
X137805000Y-64250000D03*
X136535000Y-64250000D03*
D10*
X135207500Y-53360000D03*
X133332500Y-53360000D03*
M02*
