M48
; DRILL file {KiCad (6.0.4)} date Sat 02 Apr 2022 02:45:47 PM CDT
; FORMAT={-:-/ absolute / inch / decimal}
; #@! TF.CreationDate,2022-04-02T14:45:47-05:00
; #@! TF.GenerationSoftware,Kicad,Pcbnew,(6.0.4)
; #@! TF.FileFunction,NonPlated,1,2,NPTH
FMAT,2
INCH
; #@! TA.AperFunction,NonPlated,NPTH,ComponentDrill
T1C0.0394
; #@! TA.AperFunction,NonPlated,NPTH,ComponentDrill
T2C0.0500
; #@! TA.AperFunction,NonPlated,NPTH,ComponentDrill
T3C0.0925
; #@! TA.AperFunction,NonPlated,NPTH,ComponentDrill
T4C0.1102
; #@! TA.AperFunction,NonPlated,NPTH,ComponentDrill
T5C0.1181
%
G90
G05
T1
X3.7894Y-2.1799
X3.7894Y-2.6524
X3.7894Y-2.7311
X3.7894Y-3.2035
X4.5343Y-5.3449
X5.2429Y-5.3449
X5.3362Y-5.3449
X6.2811Y-5.3449
T2
X3.8976Y-4.4388
X3.8976Y-5.0293
X3.8996Y-3.7006
X3.8996Y-4.2911
X4.026Y-1.8717
X4.0677Y-5.2339
X4.1594Y-4.9906
X4.422Y-5.2339
X4.5138Y-4.9906
X4.6165Y-1.8717
X4.7268Y-1.8717
X5.3173Y-1.8717
X5.8941Y-4.5866
X5.8941Y-4.9409
X6.3988Y-5.2343
X6.7531Y-5.2343
X6.8776Y-5.228
X7.35Y-5.228
X7.4512Y-4.7677
X7.4512Y-5.122
X7.4551Y-4.3201
X7.4551Y-4.6744
X7.4553Y-1.7776
X7.4553Y-2.1319
X7.4553Y-2.2874
X7.4553Y-2.6417
X7.4553Y-2.8012
X7.4553Y-3.1555
X7.4553Y-3.311
X7.4553Y-3.6654
X7.4553Y-3.8228
X7.4553Y-4.1772
T3
X5.4803Y-2.0626
X6.0709Y-2.0626
T4
X5.4803Y-1.9051
X6.0709Y-1.9051
T5
X3.8386Y-1.813
X3.839Y-5.2827
X6.2992Y-1.813
X7.5177Y-5.2835
T0
M30
