M48
; DRILL file {KiCad (5.1.5)-3} date 1/10/2021 5:11:27 PM
; FORMAT={-:-/ absolute / inch / decimal}
; #@! TF.CreationDate,2021-01-10T17:11:27-06:00
; #@! TF.GenerationSoftware,Kicad,Pcbnew,(5.1.5)-3
FMAT,2
INCH
T1C0.0118
T2C0.0157
T3C0.0236
T4C0.0335
T5C0.0394
T6C0.0402
T7C0.0433
T8C0.0512
T9C0.0591
T10C0.0394
T11C0.0500
T12C0.0925
T13C0.1102
T14C0.1181
%
G90
G05
T1
X1.5236Y-5.2575
X1.565Y-5.4222
X1.565Y-5.7409
X1.6476Y-5.5079
X1.6732Y-3.9606
X1.7899Y-3.4528
X1.8209Y-4.124
X1.8253Y-6.4685
X1.8268Y-5.7362
X1.8637Y-3.4537
X1.8681Y-5.4222
X1.8701Y-5.8957
X1.8996Y-5.935
X1.9252Y-6.1024
X1.9409Y-5.3622
X1.9449Y-5.7362
X1.9803Y-6.1024
X2.0182Y-5.4222
X2.0512Y-6.4685
X2.0906Y-5.3622
X2.092Y-5.6732
X2.1262Y-5.3624
X2.1762Y-5.5157
X2.187Y-5.2874
X2.2244Y-6.0984
X2.2835Y-5.3622
X2.2849Y-5.6732
X2.3214Y-3.4528
X2.3952Y-3.4528
X2.8529Y-3.4528
X2.9267Y-3.4528
X3.1614Y-5.3976
X3.2287Y-5.9287
X3.252Y-4.4488
X3.2756Y-4.4213
X3.3031Y-5.8346
X3.3031Y-6.0236
X3.3033Y-5.988
X3.3041Y-6.1722
X3.362Y-6.096
X3.362Y-6.2461
X3.3661Y-4.8504
X3.3844Y-3.4528
X3.4065Y-4.4843
X3.4104Y-4.2913
X3.4173Y-4.878
X3.4213Y-4.6914
X3.4213Y-4.7653
X3.4486Y-6.2598
X3.4557Y-5.938
X3.4582Y-3.4528
X3.4803Y-4.4843
X3.4843Y-4.2913
X3.5197Y-4.5591
X3.5354Y-4.7677
X3.5468Y-3.4278
X3.6091Y-5.8292
X3.6091Y-6.0221
X3.6142Y-4.4828
X3.6142Y-4.5566
X3.6245Y-4.7362
X3.6442Y-4.9213
X3.6732Y-6.2913
X3.6742Y-6.1722
X3.6983Y-4.7362
X3.7087Y-4.4828
X3.7087Y-4.5566
X3.7126Y-4.3189
X3.7179Y-4.4365
X3.718Y-4.9213
X3.8465Y-4.437
X3.8484Y-4.2717
X3.8622Y-4.6937
X3.8622Y-4.7252
X3.8622Y-4.7598
X3.878Y-4.3996
X3.8819Y-4.5906
X3.9055Y-4.4252
X3.9055Y-4.5118
X3.9075Y-4.1732
X3.9931Y-4.2087
X4.0512Y-5.9882
X4.0512Y-6.0945
X4.0512Y-6.189
X4.4043Y-6.1368
X4.4055Y-3.3189
X4.4488Y-4.3012
X4.4488Y-4.3406
X4.4488Y-4.3799
X4.4488Y-4.4193
X4.5Y-3.5984
X4.5472Y-3.4646
X4.5472Y-3.563
X4.5472Y-4.0354
X4.5866Y-3.563
X4.5866Y-4.0039
X4.6299Y-3.9646
X4.6339Y-3.5984
X4.6575Y-3.2382
X4.6575Y-3.3711
X4.6575Y-3.4291
X4.6772Y-3.5984
X4.7047Y-3.3701
X4.7047Y-3.4803
X4.8425Y-4.1732
X4.9213Y-4.1654
X4.9213Y-4.3425
X4.9843Y-4.2377
X4.9843Y-4.4173
X5.3937Y-4.1142
X5.3937Y-4.2913
X5.4449Y-6.2717
X5.5315Y-2.4606
X5.8804Y-6.2717
X5.8804Y-6.4409
X6.0315Y-6.3425
X6.1063Y-6.2717
X6.7795Y-6.2717
X6.9094Y-3.5
X6.9094Y-3.5315
X7.2244Y-6.4409
X7.2269Y-6.2717
X7.378Y-6.3425
X7.4528Y-6.2717
X7.4528Y-6.3425
X7.6772Y-3.0428
X7.7028Y-3.3213
X7.7854Y-3.437
X7.7854Y-3.5157
X7.7925Y-3.6024
X7.8346Y-3.2835
X7.8602Y-3.1929
X7.8602Y-3.4387
X7.8602Y-3.5157
X7.8602Y-3.6024
T2
X4.065Y-2.4016
T4
X2.1378Y-4.039
X2.1378Y-4.139
X2.1378Y-4.239
X2.1378Y-4.339
X7.9881Y-3.2228
X7.9881Y-3.4197
T5
X1.6929Y-5.1575
X1.6929Y-5.2575
X4.8449Y-3.1102
X4.9449Y-3.1102
X5.0449Y-3.1102
X5.1449Y-3.1102
X4.4016Y-2.2854
X4.4016Y-2.4035
X4.5197Y-2.2854
X4.5197Y-2.4035
X4.6378Y-2.2854
X4.6378Y-2.4035
X4.7559Y-2.2854
X4.7559Y-2.4035
X4.874Y-2.2854
X4.874Y-2.4035
X4.9921Y-2.2854
X4.9921Y-2.4035
X3.4555Y-5.7583
X3.4555Y-5.8583
X2.2559Y-5.5157
X2.3559Y-5.5157
X7.4311Y-3.4138
X7.4311Y-3.5138
X7.4311Y-3.6138
X3.0811Y-6.4213
X3.1811Y-6.4213
X3.9862Y-5.1067
X3.9862Y-5.2008
X4.0862Y-5.1067
X4.0862Y-5.2067
X4.1862Y-5.1067
X4.1862Y-5.2067
X4.2862Y-5.1067
X4.2862Y-5.2067
X3.1614Y-4.7008
X3.1614Y-4.8008
X3.1614Y-4.9008
X3.1614Y-5.0008
X3.1614Y-5.1008
X3.1614Y-5.2008
T6
X7.2598Y-6.6929
X7.378Y-6.6929
X7.4961Y-6.6929
X6.4173Y-2.3031
X6.5354Y-2.3031
X3.3307Y-2.3031
X3.4488Y-2.3031
X5.9134Y-6.6929
X6.0315Y-6.6929
X6.1496Y-6.6929
X7.9724Y-5.0787
X7.9724Y-5.1969
X5.878Y-2.3031
X5.9961Y-2.3031
X1.4173Y-4.0354
X1.4173Y-4.1535
X1.4173Y-5.1535
X1.4173Y-5.2717
X1.4173Y-5.3898
X1.4173Y-5.5079
X3.0866Y-6.6969
X3.2047Y-6.6969
X3.3228Y-6.6969
X3.4409Y-6.6969
X6.9567Y-2.3031
X7.0748Y-2.3031
X7.9724Y-5.6181
X7.9724Y-5.7362
X2.252Y-2.3031
X2.3701Y-2.3031
X6.5866Y-6.6929
X6.7047Y-6.6929
X6.8228Y-6.6929
X1.7126Y-2.3031
X1.8307Y-2.3031
X1.4173Y-6.0157
X1.4173Y-6.1339
X1.4173Y-6.252
X1.4173Y-6.3701
X7.9724Y-4.5394
X7.9724Y-4.6575
X2.7913Y-2.3031
X2.9094Y-2.3031
X7.9724Y-4.0
X7.9724Y-4.1181
X5.2402Y-6.6929
X5.3583Y-6.6929
X5.4764Y-6.6929
X7.4961Y-2.3031
X7.6142Y-2.3031
T7
X3.2354Y-2.5598
X3.2354Y-3.2598
X3.3354Y-3.2598
X3.4354Y-3.2598
X3.5354Y-2.5598
X3.5354Y-3.2598
X1.6409Y-2.5598
X1.6409Y-3.2598
X1.7409Y-3.2598
X1.8409Y-3.2598
X1.9409Y-2.5598
X1.9409Y-3.2598
X2.1724Y-2.5598
X2.1724Y-3.2598
X2.2724Y-3.2598
X2.3724Y-3.2598
X2.4724Y-2.5598
X2.4724Y-3.2598
X2.7039Y-2.5598
X2.7039Y-3.2598
X2.8039Y-3.2598
X2.9039Y-3.2598
X3.0039Y-2.5598
X3.0039Y-3.2598
T8
X4.0189Y-6.4709
X4.0189Y-6.6102
X4.0886Y-6.5406
X4.0886Y-6.698
X4.1583Y-6.4709
X4.1583Y-6.6102
T9
X5.4803Y-4.6535
X5.4803Y-5.1063
X5.7087Y-4.2598
X5.7087Y-5.4961
X6.0984Y-4.0354
X6.1024Y-5.7205
X6.1122Y-4.6634
X6.5413Y-5.0925
X6.5512Y-5.7244
X6.5551Y-4.0354
X6.9449Y-4.2598
X6.9449Y-5.4961
X7.1693Y-4.6496
X7.1693Y-5.1063
T10
X4.2835Y-2.2484
X5.1102Y-2.2484
T11
X7.1417Y-6.6157
X7.6142Y-6.6157
X6.2992Y-2.3803
X6.6535Y-2.3803
X3.2126Y-2.3803
X3.5669Y-2.3803
X5.7953Y-6.6157
X6.2677Y-6.6157
X7.8953Y-4.9606
X7.8953Y-5.315
X5.7598Y-2.3803
X6.1142Y-2.3803
X1.3402Y-3.9173
X1.3402Y-4.2717
X1.3402Y-5.0354
X1.3402Y-5.626
X2.9685Y-6.6197
X3.5591Y-6.6197
X6.8386Y-2.3803
X7.1929Y-2.3803
X7.8953Y-5.5
X7.8953Y-5.8543
X2.1339Y-2.3803
X2.4882Y-2.3803
X6.4685Y-6.6157
X6.9409Y-6.6157
X1.5945Y-2.3803
X1.9488Y-2.3803
X1.3402Y-5.8976
X1.3402Y-6.4882
X7.8953Y-4.4213
X7.8953Y-4.7756
X2.6732Y-2.3803
X3.0276Y-2.3803
X7.8953Y-3.8819
X7.8953Y-4.2362
X5.122Y-6.6157
X5.5945Y-6.6157
X7.378Y-2.3803
X7.7323Y-2.3803
T12
X3.7933Y-6.5406
X4.3839Y-6.5406
T13
X3.7933Y-6.698
X4.3839Y-6.698
T14
X8.0512Y-2.2244
X1.3386Y-2.2244
X1.3386Y-6.7717
X8.0512Y-6.7717
T3
G00X8.0806Y-3.1835
M15
G01X8.1082Y-3.1835
M16
G05
G00X8.1082Y-3.4591
M15
G01X8.0806Y-3.4591
M16
G05
T0
M30
