G04 #@! TF.GenerationSoftware,KiCad,Pcbnew,(5.1.5)-3*
G04 #@! TF.CreationDate,2021-01-10T17:21:26-06:00*
G04 #@! TF.ProjectId,Dashboard,44617368-626f-4617-9264-2e6b69636164,rev?*
G04 #@! TF.SameCoordinates,Original*
G04 #@! TF.FileFunction,Paste,Bot*
G04 #@! TF.FilePolarity,Positive*
%FSLAX46Y46*%
G04 Gerber Fmt 4.6, Leading zero omitted, Abs format (unit mm)*
G04 Created by KiCad (PCBNEW (5.1.5)-3) date 2021-01-10 17:21:26*
%MOMM*%
%LPD*%
G04 APERTURE LIST*
%ADD10C,0.100000*%
G04 APERTURE END LIST*
D10*
G36*
X113892642Y-87301174D02*
G01*
X113916303Y-87304684D01*
X113939507Y-87310496D01*
X113962029Y-87318554D01*
X113983653Y-87328782D01*
X114004170Y-87341079D01*
X114023383Y-87355329D01*
X114041107Y-87371393D01*
X114057171Y-87389117D01*
X114071421Y-87408330D01*
X114083718Y-87428847D01*
X114093946Y-87450471D01*
X114102004Y-87472993D01*
X114107816Y-87496197D01*
X114111326Y-87519858D01*
X114112500Y-87543750D01*
X114112500Y-88456250D01*
X114111326Y-88480142D01*
X114107816Y-88503803D01*
X114102004Y-88527007D01*
X114093946Y-88549529D01*
X114083718Y-88571153D01*
X114071421Y-88591670D01*
X114057171Y-88610883D01*
X114041107Y-88628607D01*
X114023383Y-88644671D01*
X114004170Y-88658921D01*
X113983653Y-88671218D01*
X113962029Y-88681446D01*
X113939507Y-88689504D01*
X113916303Y-88695316D01*
X113892642Y-88698826D01*
X113868750Y-88700000D01*
X113381250Y-88700000D01*
X113357358Y-88698826D01*
X113333697Y-88695316D01*
X113310493Y-88689504D01*
X113287971Y-88681446D01*
X113266347Y-88671218D01*
X113245830Y-88658921D01*
X113226617Y-88644671D01*
X113208893Y-88628607D01*
X113192829Y-88610883D01*
X113178579Y-88591670D01*
X113166282Y-88571153D01*
X113156054Y-88549529D01*
X113147996Y-88527007D01*
X113142184Y-88503803D01*
X113138674Y-88480142D01*
X113137500Y-88456250D01*
X113137500Y-87543750D01*
X113138674Y-87519858D01*
X113142184Y-87496197D01*
X113147996Y-87472993D01*
X113156054Y-87450471D01*
X113166282Y-87428847D01*
X113178579Y-87408330D01*
X113192829Y-87389117D01*
X113208893Y-87371393D01*
X113226617Y-87355329D01*
X113245830Y-87341079D01*
X113266347Y-87328782D01*
X113287971Y-87318554D01*
X113310493Y-87310496D01*
X113333697Y-87304684D01*
X113357358Y-87301174D01*
X113381250Y-87300000D01*
X113868750Y-87300000D01*
X113892642Y-87301174D01*
G37*
G36*
X115767642Y-87301174D02*
G01*
X115791303Y-87304684D01*
X115814507Y-87310496D01*
X115837029Y-87318554D01*
X115858653Y-87328782D01*
X115879170Y-87341079D01*
X115898383Y-87355329D01*
X115916107Y-87371393D01*
X115932171Y-87389117D01*
X115946421Y-87408330D01*
X115958718Y-87428847D01*
X115968946Y-87450471D01*
X115977004Y-87472993D01*
X115982816Y-87496197D01*
X115986326Y-87519858D01*
X115987500Y-87543750D01*
X115987500Y-88456250D01*
X115986326Y-88480142D01*
X115982816Y-88503803D01*
X115977004Y-88527007D01*
X115968946Y-88549529D01*
X115958718Y-88571153D01*
X115946421Y-88591670D01*
X115932171Y-88610883D01*
X115916107Y-88628607D01*
X115898383Y-88644671D01*
X115879170Y-88658921D01*
X115858653Y-88671218D01*
X115837029Y-88681446D01*
X115814507Y-88689504D01*
X115791303Y-88695316D01*
X115767642Y-88698826D01*
X115743750Y-88700000D01*
X115256250Y-88700000D01*
X115232358Y-88698826D01*
X115208697Y-88695316D01*
X115185493Y-88689504D01*
X115162971Y-88681446D01*
X115141347Y-88671218D01*
X115120830Y-88658921D01*
X115101617Y-88644671D01*
X115083893Y-88628607D01*
X115067829Y-88610883D01*
X115053579Y-88591670D01*
X115041282Y-88571153D01*
X115031054Y-88549529D01*
X115022996Y-88527007D01*
X115017184Y-88503803D01*
X115013674Y-88480142D01*
X115012500Y-88456250D01*
X115012500Y-87543750D01*
X115013674Y-87519858D01*
X115017184Y-87496197D01*
X115022996Y-87472993D01*
X115031054Y-87450471D01*
X115041282Y-87428847D01*
X115053579Y-87408330D01*
X115067829Y-87389117D01*
X115083893Y-87371393D01*
X115101617Y-87355329D01*
X115120830Y-87341079D01*
X115141347Y-87328782D01*
X115162971Y-87318554D01*
X115185493Y-87310496D01*
X115208697Y-87304684D01*
X115232358Y-87301174D01*
X115256250Y-87300000D01*
X115743750Y-87300000D01*
X115767642Y-87301174D01*
G37*
G36*
X113892642Y-83601174D02*
G01*
X113916303Y-83604684D01*
X113939507Y-83610496D01*
X113962029Y-83618554D01*
X113983653Y-83628782D01*
X114004170Y-83641079D01*
X114023383Y-83655329D01*
X114041107Y-83671393D01*
X114057171Y-83689117D01*
X114071421Y-83708330D01*
X114083718Y-83728847D01*
X114093946Y-83750471D01*
X114102004Y-83772993D01*
X114107816Y-83796197D01*
X114111326Y-83819858D01*
X114112500Y-83843750D01*
X114112500Y-84756250D01*
X114111326Y-84780142D01*
X114107816Y-84803803D01*
X114102004Y-84827007D01*
X114093946Y-84849529D01*
X114083718Y-84871153D01*
X114071421Y-84891670D01*
X114057171Y-84910883D01*
X114041107Y-84928607D01*
X114023383Y-84944671D01*
X114004170Y-84958921D01*
X113983653Y-84971218D01*
X113962029Y-84981446D01*
X113939507Y-84989504D01*
X113916303Y-84995316D01*
X113892642Y-84998826D01*
X113868750Y-85000000D01*
X113381250Y-85000000D01*
X113357358Y-84998826D01*
X113333697Y-84995316D01*
X113310493Y-84989504D01*
X113287971Y-84981446D01*
X113266347Y-84971218D01*
X113245830Y-84958921D01*
X113226617Y-84944671D01*
X113208893Y-84928607D01*
X113192829Y-84910883D01*
X113178579Y-84891670D01*
X113166282Y-84871153D01*
X113156054Y-84849529D01*
X113147996Y-84827007D01*
X113142184Y-84803803D01*
X113138674Y-84780142D01*
X113137500Y-84756250D01*
X113137500Y-83843750D01*
X113138674Y-83819858D01*
X113142184Y-83796197D01*
X113147996Y-83772993D01*
X113156054Y-83750471D01*
X113166282Y-83728847D01*
X113178579Y-83708330D01*
X113192829Y-83689117D01*
X113208893Y-83671393D01*
X113226617Y-83655329D01*
X113245830Y-83641079D01*
X113266347Y-83628782D01*
X113287971Y-83618554D01*
X113310493Y-83610496D01*
X113333697Y-83604684D01*
X113357358Y-83601174D01*
X113381250Y-83600000D01*
X113868750Y-83600000D01*
X113892642Y-83601174D01*
G37*
G36*
X115767642Y-83601174D02*
G01*
X115791303Y-83604684D01*
X115814507Y-83610496D01*
X115837029Y-83618554D01*
X115858653Y-83628782D01*
X115879170Y-83641079D01*
X115898383Y-83655329D01*
X115916107Y-83671393D01*
X115932171Y-83689117D01*
X115946421Y-83708330D01*
X115958718Y-83728847D01*
X115968946Y-83750471D01*
X115977004Y-83772993D01*
X115982816Y-83796197D01*
X115986326Y-83819858D01*
X115987500Y-83843750D01*
X115987500Y-84756250D01*
X115986326Y-84780142D01*
X115982816Y-84803803D01*
X115977004Y-84827007D01*
X115968946Y-84849529D01*
X115958718Y-84871153D01*
X115946421Y-84891670D01*
X115932171Y-84910883D01*
X115916107Y-84928607D01*
X115898383Y-84944671D01*
X115879170Y-84958921D01*
X115858653Y-84971218D01*
X115837029Y-84981446D01*
X115814507Y-84989504D01*
X115791303Y-84995316D01*
X115767642Y-84998826D01*
X115743750Y-85000000D01*
X115256250Y-85000000D01*
X115232358Y-84998826D01*
X115208697Y-84995316D01*
X115185493Y-84989504D01*
X115162971Y-84981446D01*
X115141347Y-84971218D01*
X115120830Y-84958921D01*
X115101617Y-84944671D01*
X115083893Y-84928607D01*
X115067829Y-84910883D01*
X115053579Y-84891670D01*
X115041282Y-84871153D01*
X115031054Y-84849529D01*
X115022996Y-84827007D01*
X115017184Y-84803803D01*
X115013674Y-84780142D01*
X115012500Y-84756250D01*
X115012500Y-83843750D01*
X115013674Y-83819858D01*
X115017184Y-83796197D01*
X115022996Y-83772993D01*
X115031054Y-83750471D01*
X115041282Y-83728847D01*
X115053579Y-83708330D01*
X115067829Y-83689117D01*
X115083893Y-83671393D01*
X115101617Y-83655329D01*
X115120830Y-83641079D01*
X115141347Y-83628782D01*
X115162971Y-83618554D01*
X115185493Y-83610496D01*
X115208697Y-83604684D01*
X115232358Y-83601174D01*
X115256250Y-83600000D01*
X115743750Y-83600000D01*
X115767642Y-83601174D01*
G37*
G36*
X92830142Y-124301174D02*
G01*
X92853803Y-124304684D01*
X92877007Y-124310496D01*
X92899529Y-124318554D01*
X92921153Y-124328782D01*
X92941670Y-124341079D01*
X92960883Y-124355329D01*
X92978607Y-124371393D01*
X92994671Y-124389117D01*
X93008921Y-124408330D01*
X93021218Y-124428847D01*
X93031446Y-124450471D01*
X93039504Y-124472993D01*
X93045316Y-124496197D01*
X93048826Y-124519858D01*
X93050000Y-124543750D01*
X93050000Y-125456250D01*
X93048826Y-125480142D01*
X93045316Y-125503803D01*
X93039504Y-125527007D01*
X93031446Y-125549529D01*
X93021218Y-125571153D01*
X93008921Y-125591670D01*
X92994671Y-125610883D01*
X92978607Y-125628607D01*
X92960883Y-125644671D01*
X92941670Y-125658921D01*
X92921153Y-125671218D01*
X92899529Y-125681446D01*
X92877007Y-125689504D01*
X92853803Y-125695316D01*
X92830142Y-125698826D01*
X92806250Y-125700000D01*
X92318750Y-125700000D01*
X92294858Y-125698826D01*
X92271197Y-125695316D01*
X92247993Y-125689504D01*
X92225471Y-125681446D01*
X92203847Y-125671218D01*
X92183330Y-125658921D01*
X92164117Y-125644671D01*
X92146393Y-125628607D01*
X92130329Y-125610883D01*
X92116079Y-125591670D01*
X92103782Y-125571153D01*
X92093554Y-125549529D01*
X92085496Y-125527007D01*
X92079684Y-125503803D01*
X92076174Y-125480142D01*
X92075000Y-125456250D01*
X92075000Y-124543750D01*
X92076174Y-124519858D01*
X92079684Y-124496197D01*
X92085496Y-124472993D01*
X92093554Y-124450471D01*
X92103782Y-124428847D01*
X92116079Y-124408330D01*
X92130329Y-124389117D01*
X92146393Y-124371393D01*
X92164117Y-124355329D01*
X92183330Y-124341079D01*
X92203847Y-124328782D01*
X92225471Y-124318554D01*
X92247993Y-124310496D01*
X92271197Y-124304684D01*
X92294858Y-124301174D01*
X92318750Y-124300000D01*
X92806250Y-124300000D01*
X92830142Y-124301174D01*
G37*
G36*
X94705142Y-124301174D02*
G01*
X94728803Y-124304684D01*
X94752007Y-124310496D01*
X94774529Y-124318554D01*
X94796153Y-124328782D01*
X94816670Y-124341079D01*
X94835883Y-124355329D01*
X94853607Y-124371393D01*
X94869671Y-124389117D01*
X94883921Y-124408330D01*
X94896218Y-124428847D01*
X94906446Y-124450471D01*
X94914504Y-124472993D01*
X94920316Y-124496197D01*
X94923826Y-124519858D01*
X94925000Y-124543750D01*
X94925000Y-125456250D01*
X94923826Y-125480142D01*
X94920316Y-125503803D01*
X94914504Y-125527007D01*
X94906446Y-125549529D01*
X94896218Y-125571153D01*
X94883921Y-125591670D01*
X94869671Y-125610883D01*
X94853607Y-125628607D01*
X94835883Y-125644671D01*
X94816670Y-125658921D01*
X94796153Y-125671218D01*
X94774529Y-125681446D01*
X94752007Y-125689504D01*
X94728803Y-125695316D01*
X94705142Y-125698826D01*
X94681250Y-125700000D01*
X94193750Y-125700000D01*
X94169858Y-125698826D01*
X94146197Y-125695316D01*
X94122993Y-125689504D01*
X94100471Y-125681446D01*
X94078847Y-125671218D01*
X94058330Y-125658921D01*
X94039117Y-125644671D01*
X94021393Y-125628607D01*
X94005329Y-125610883D01*
X93991079Y-125591670D01*
X93978782Y-125571153D01*
X93968554Y-125549529D01*
X93960496Y-125527007D01*
X93954684Y-125503803D01*
X93951174Y-125480142D01*
X93950000Y-125456250D01*
X93950000Y-124543750D01*
X93951174Y-124519858D01*
X93954684Y-124496197D01*
X93960496Y-124472993D01*
X93968554Y-124450471D01*
X93978782Y-124428847D01*
X93991079Y-124408330D01*
X94005329Y-124389117D01*
X94021393Y-124371393D01*
X94039117Y-124355329D01*
X94058330Y-124341079D01*
X94078847Y-124328782D01*
X94100471Y-124318554D01*
X94122993Y-124310496D01*
X94146197Y-124304684D01*
X94169858Y-124301174D01*
X94193750Y-124300000D01*
X94681250Y-124300000D01*
X94705142Y-124301174D01*
G37*
G36*
X194480142Y-84988674D02*
G01*
X194503803Y-84992184D01*
X194527007Y-84997996D01*
X194549529Y-85006054D01*
X194571153Y-85016282D01*
X194591670Y-85028579D01*
X194610883Y-85042829D01*
X194628607Y-85058893D01*
X194644671Y-85076617D01*
X194658921Y-85095830D01*
X194671218Y-85116347D01*
X194681446Y-85137971D01*
X194689504Y-85160493D01*
X194695316Y-85183697D01*
X194698826Y-85207358D01*
X194700000Y-85231250D01*
X194700000Y-85718750D01*
X194698826Y-85742642D01*
X194695316Y-85766303D01*
X194689504Y-85789507D01*
X194681446Y-85812029D01*
X194671218Y-85833653D01*
X194658921Y-85854170D01*
X194644671Y-85873383D01*
X194628607Y-85891107D01*
X194610883Y-85907171D01*
X194591670Y-85921421D01*
X194571153Y-85933718D01*
X194549529Y-85943946D01*
X194527007Y-85952004D01*
X194503803Y-85957816D01*
X194480142Y-85961326D01*
X194456250Y-85962500D01*
X193543750Y-85962500D01*
X193519858Y-85961326D01*
X193496197Y-85957816D01*
X193472993Y-85952004D01*
X193450471Y-85943946D01*
X193428847Y-85933718D01*
X193408330Y-85921421D01*
X193389117Y-85907171D01*
X193371393Y-85891107D01*
X193355329Y-85873383D01*
X193341079Y-85854170D01*
X193328782Y-85833653D01*
X193318554Y-85812029D01*
X193310496Y-85789507D01*
X193304684Y-85766303D01*
X193301174Y-85742642D01*
X193300000Y-85718750D01*
X193300000Y-85231250D01*
X193301174Y-85207358D01*
X193304684Y-85183697D01*
X193310496Y-85160493D01*
X193318554Y-85137971D01*
X193328782Y-85116347D01*
X193341079Y-85095830D01*
X193355329Y-85076617D01*
X193371393Y-85058893D01*
X193389117Y-85042829D01*
X193408330Y-85028579D01*
X193428847Y-85016282D01*
X193450471Y-85006054D01*
X193472993Y-84997996D01*
X193496197Y-84992184D01*
X193519858Y-84988674D01*
X193543750Y-84987500D01*
X194456250Y-84987500D01*
X194480142Y-84988674D01*
G37*
G36*
X194480142Y-83113674D02*
G01*
X194503803Y-83117184D01*
X194527007Y-83122996D01*
X194549529Y-83131054D01*
X194571153Y-83141282D01*
X194591670Y-83153579D01*
X194610883Y-83167829D01*
X194628607Y-83183893D01*
X194644671Y-83201617D01*
X194658921Y-83220830D01*
X194671218Y-83241347D01*
X194681446Y-83262971D01*
X194689504Y-83285493D01*
X194695316Y-83308697D01*
X194698826Y-83332358D01*
X194700000Y-83356250D01*
X194700000Y-83843750D01*
X194698826Y-83867642D01*
X194695316Y-83891303D01*
X194689504Y-83914507D01*
X194681446Y-83937029D01*
X194671218Y-83958653D01*
X194658921Y-83979170D01*
X194644671Y-83998383D01*
X194628607Y-84016107D01*
X194610883Y-84032171D01*
X194591670Y-84046421D01*
X194571153Y-84058718D01*
X194549529Y-84068946D01*
X194527007Y-84077004D01*
X194503803Y-84082816D01*
X194480142Y-84086326D01*
X194456250Y-84087500D01*
X193543750Y-84087500D01*
X193519858Y-84086326D01*
X193496197Y-84082816D01*
X193472993Y-84077004D01*
X193450471Y-84068946D01*
X193428847Y-84058718D01*
X193408330Y-84046421D01*
X193389117Y-84032171D01*
X193371393Y-84016107D01*
X193355329Y-83998383D01*
X193341079Y-83979170D01*
X193328782Y-83958653D01*
X193318554Y-83937029D01*
X193310496Y-83914507D01*
X193304684Y-83891303D01*
X193301174Y-83867642D01*
X193300000Y-83843750D01*
X193300000Y-83356250D01*
X193301174Y-83332358D01*
X193304684Y-83308697D01*
X193310496Y-83285493D01*
X193318554Y-83262971D01*
X193328782Y-83241347D01*
X193341079Y-83220830D01*
X193355329Y-83201617D01*
X193371393Y-83183893D01*
X193389117Y-83167829D01*
X193408330Y-83153579D01*
X193428847Y-83141282D01*
X193450471Y-83131054D01*
X193472993Y-83122996D01*
X193496197Y-83117184D01*
X193519858Y-83113674D01*
X193543750Y-83112500D01*
X194456250Y-83112500D01*
X194480142Y-83113674D01*
G37*
G36*
X197780142Y-84988674D02*
G01*
X197803803Y-84992184D01*
X197827007Y-84997996D01*
X197849529Y-85006054D01*
X197871153Y-85016282D01*
X197891670Y-85028579D01*
X197910883Y-85042829D01*
X197928607Y-85058893D01*
X197944671Y-85076617D01*
X197958921Y-85095830D01*
X197971218Y-85116347D01*
X197981446Y-85137971D01*
X197989504Y-85160493D01*
X197995316Y-85183697D01*
X197998826Y-85207358D01*
X198000000Y-85231250D01*
X198000000Y-85718750D01*
X197998826Y-85742642D01*
X197995316Y-85766303D01*
X197989504Y-85789507D01*
X197981446Y-85812029D01*
X197971218Y-85833653D01*
X197958921Y-85854170D01*
X197944671Y-85873383D01*
X197928607Y-85891107D01*
X197910883Y-85907171D01*
X197891670Y-85921421D01*
X197871153Y-85933718D01*
X197849529Y-85943946D01*
X197827007Y-85952004D01*
X197803803Y-85957816D01*
X197780142Y-85961326D01*
X197756250Y-85962500D01*
X196843750Y-85962500D01*
X196819858Y-85961326D01*
X196796197Y-85957816D01*
X196772993Y-85952004D01*
X196750471Y-85943946D01*
X196728847Y-85933718D01*
X196708330Y-85921421D01*
X196689117Y-85907171D01*
X196671393Y-85891107D01*
X196655329Y-85873383D01*
X196641079Y-85854170D01*
X196628782Y-85833653D01*
X196618554Y-85812029D01*
X196610496Y-85789507D01*
X196604684Y-85766303D01*
X196601174Y-85742642D01*
X196600000Y-85718750D01*
X196600000Y-85231250D01*
X196601174Y-85207358D01*
X196604684Y-85183697D01*
X196610496Y-85160493D01*
X196618554Y-85137971D01*
X196628782Y-85116347D01*
X196641079Y-85095830D01*
X196655329Y-85076617D01*
X196671393Y-85058893D01*
X196689117Y-85042829D01*
X196708330Y-85028579D01*
X196728847Y-85016282D01*
X196750471Y-85006054D01*
X196772993Y-84997996D01*
X196796197Y-84992184D01*
X196819858Y-84988674D01*
X196843750Y-84987500D01*
X197756250Y-84987500D01*
X197780142Y-84988674D01*
G37*
G36*
X197780142Y-83113674D02*
G01*
X197803803Y-83117184D01*
X197827007Y-83122996D01*
X197849529Y-83131054D01*
X197871153Y-83141282D01*
X197891670Y-83153579D01*
X197910883Y-83167829D01*
X197928607Y-83183893D01*
X197944671Y-83201617D01*
X197958921Y-83220830D01*
X197971218Y-83241347D01*
X197981446Y-83262971D01*
X197989504Y-83285493D01*
X197995316Y-83308697D01*
X197998826Y-83332358D01*
X198000000Y-83356250D01*
X198000000Y-83843750D01*
X197998826Y-83867642D01*
X197995316Y-83891303D01*
X197989504Y-83914507D01*
X197981446Y-83937029D01*
X197971218Y-83958653D01*
X197958921Y-83979170D01*
X197944671Y-83998383D01*
X197928607Y-84016107D01*
X197910883Y-84032171D01*
X197891670Y-84046421D01*
X197871153Y-84058718D01*
X197849529Y-84068946D01*
X197827007Y-84077004D01*
X197803803Y-84082816D01*
X197780142Y-84086326D01*
X197756250Y-84087500D01*
X196843750Y-84087500D01*
X196819858Y-84086326D01*
X196796197Y-84082816D01*
X196772993Y-84077004D01*
X196750471Y-84068946D01*
X196728847Y-84058718D01*
X196708330Y-84046421D01*
X196689117Y-84032171D01*
X196671393Y-84016107D01*
X196655329Y-83998383D01*
X196641079Y-83979170D01*
X196628782Y-83958653D01*
X196618554Y-83937029D01*
X196610496Y-83914507D01*
X196604684Y-83891303D01*
X196601174Y-83867642D01*
X196600000Y-83843750D01*
X196600000Y-83356250D01*
X196601174Y-83332358D01*
X196604684Y-83308697D01*
X196610496Y-83285493D01*
X196618554Y-83262971D01*
X196628782Y-83241347D01*
X196641079Y-83220830D01*
X196655329Y-83201617D01*
X196671393Y-83183893D01*
X196689117Y-83167829D01*
X196708330Y-83153579D01*
X196728847Y-83141282D01*
X196750471Y-83131054D01*
X196772993Y-83122996D01*
X196796197Y-83117184D01*
X196819858Y-83113674D01*
X196843750Y-83112500D01*
X197756250Y-83112500D01*
X197780142Y-83113674D01*
G37*
G36*
X92280142Y-113376174D02*
G01*
X92303803Y-113379684D01*
X92327007Y-113385496D01*
X92349529Y-113393554D01*
X92371153Y-113403782D01*
X92391670Y-113416079D01*
X92410883Y-113430329D01*
X92428607Y-113446393D01*
X92444671Y-113464117D01*
X92458921Y-113483330D01*
X92471218Y-113503847D01*
X92481446Y-113525471D01*
X92489504Y-113547993D01*
X92495316Y-113571197D01*
X92498826Y-113594858D01*
X92500000Y-113618750D01*
X92500000Y-114106250D01*
X92498826Y-114130142D01*
X92495316Y-114153803D01*
X92489504Y-114177007D01*
X92481446Y-114199529D01*
X92471218Y-114221153D01*
X92458921Y-114241670D01*
X92444671Y-114260883D01*
X92428607Y-114278607D01*
X92410883Y-114294671D01*
X92391670Y-114308921D01*
X92371153Y-114321218D01*
X92349529Y-114331446D01*
X92327007Y-114339504D01*
X92303803Y-114345316D01*
X92280142Y-114348826D01*
X92256250Y-114350000D01*
X91343750Y-114350000D01*
X91319858Y-114348826D01*
X91296197Y-114345316D01*
X91272993Y-114339504D01*
X91250471Y-114331446D01*
X91228847Y-114321218D01*
X91208330Y-114308921D01*
X91189117Y-114294671D01*
X91171393Y-114278607D01*
X91155329Y-114260883D01*
X91141079Y-114241670D01*
X91128782Y-114221153D01*
X91118554Y-114199529D01*
X91110496Y-114177007D01*
X91104684Y-114153803D01*
X91101174Y-114130142D01*
X91100000Y-114106250D01*
X91100000Y-113618750D01*
X91101174Y-113594858D01*
X91104684Y-113571197D01*
X91110496Y-113547993D01*
X91118554Y-113525471D01*
X91128782Y-113503847D01*
X91141079Y-113483330D01*
X91155329Y-113464117D01*
X91171393Y-113446393D01*
X91189117Y-113430329D01*
X91208330Y-113416079D01*
X91228847Y-113403782D01*
X91250471Y-113393554D01*
X91272993Y-113385496D01*
X91296197Y-113379684D01*
X91319858Y-113376174D01*
X91343750Y-113375000D01*
X92256250Y-113375000D01*
X92280142Y-113376174D01*
G37*
G36*
X92280142Y-115251174D02*
G01*
X92303803Y-115254684D01*
X92327007Y-115260496D01*
X92349529Y-115268554D01*
X92371153Y-115278782D01*
X92391670Y-115291079D01*
X92410883Y-115305329D01*
X92428607Y-115321393D01*
X92444671Y-115339117D01*
X92458921Y-115358330D01*
X92471218Y-115378847D01*
X92481446Y-115400471D01*
X92489504Y-115422993D01*
X92495316Y-115446197D01*
X92498826Y-115469858D01*
X92500000Y-115493750D01*
X92500000Y-115981250D01*
X92498826Y-116005142D01*
X92495316Y-116028803D01*
X92489504Y-116052007D01*
X92481446Y-116074529D01*
X92471218Y-116096153D01*
X92458921Y-116116670D01*
X92444671Y-116135883D01*
X92428607Y-116153607D01*
X92410883Y-116169671D01*
X92391670Y-116183921D01*
X92371153Y-116196218D01*
X92349529Y-116206446D01*
X92327007Y-116214504D01*
X92303803Y-116220316D01*
X92280142Y-116223826D01*
X92256250Y-116225000D01*
X91343750Y-116225000D01*
X91319858Y-116223826D01*
X91296197Y-116220316D01*
X91272993Y-116214504D01*
X91250471Y-116206446D01*
X91228847Y-116196218D01*
X91208330Y-116183921D01*
X91189117Y-116169671D01*
X91171393Y-116153607D01*
X91155329Y-116135883D01*
X91141079Y-116116670D01*
X91128782Y-116096153D01*
X91118554Y-116074529D01*
X91110496Y-116052007D01*
X91104684Y-116028803D01*
X91101174Y-116005142D01*
X91100000Y-115981250D01*
X91100000Y-115493750D01*
X91101174Y-115469858D01*
X91104684Y-115446197D01*
X91110496Y-115422993D01*
X91118554Y-115400471D01*
X91128782Y-115378847D01*
X91141079Y-115358330D01*
X91155329Y-115339117D01*
X91171393Y-115321393D01*
X91189117Y-115305329D01*
X91208330Y-115291079D01*
X91228847Y-115278782D01*
X91250471Y-115268554D01*
X91272993Y-115260496D01*
X91296197Y-115254684D01*
X91319858Y-115251174D01*
X91343750Y-115250000D01*
X92256250Y-115250000D01*
X92280142Y-115251174D01*
G37*
G36*
X86792642Y-113201174D02*
G01*
X86816303Y-113204684D01*
X86839507Y-113210496D01*
X86862029Y-113218554D01*
X86883653Y-113228782D01*
X86904170Y-113241079D01*
X86923383Y-113255329D01*
X86941107Y-113271393D01*
X86957171Y-113289117D01*
X86971421Y-113308330D01*
X86983718Y-113328847D01*
X86993946Y-113350471D01*
X87002004Y-113372993D01*
X87007816Y-113396197D01*
X87011326Y-113419858D01*
X87012500Y-113443750D01*
X87012500Y-114356250D01*
X87011326Y-114380142D01*
X87007816Y-114403803D01*
X87002004Y-114427007D01*
X86993946Y-114449529D01*
X86983718Y-114471153D01*
X86971421Y-114491670D01*
X86957171Y-114510883D01*
X86941107Y-114528607D01*
X86923383Y-114544671D01*
X86904170Y-114558921D01*
X86883653Y-114571218D01*
X86862029Y-114581446D01*
X86839507Y-114589504D01*
X86816303Y-114595316D01*
X86792642Y-114598826D01*
X86768750Y-114600000D01*
X86281250Y-114600000D01*
X86257358Y-114598826D01*
X86233697Y-114595316D01*
X86210493Y-114589504D01*
X86187971Y-114581446D01*
X86166347Y-114571218D01*
X86145830Y-114558921D01*
X86126617Y-114544671D01*
X86108893Y-114528607D01*
X86092829Y-114510883D01*
X86078579Y-114491670D01*
X86066282Y-114471153D01*
X86056054Y-114449529D01*
X86047996Y-114427007D01*
X86042184Y-114403803D01*
X86038674Y-114380142D01*
X86037500Y-114356250D01*
X86037500Y-113443750D01*
X86038674Y-113419858D01*
X86042184Y-113396197D01*
X86047996Y-113372993D01*
X86056054Y-113350471D01*
X86066282Y-113328847D01*
X86078579Y-113308330D01*
X86092829Y-113289117D01*
X86108893Y-113271393D01*
X86126617Y-113255329D01*
X86145830Y-113241079D01*
X86166347Y-113228782D01*
X86187971Y-113218554D01*
X86210493Y-113210496D01*
X86233697Y-113204684D01*
X86257358Y-113201174D01*
X86281250Y-113200000D01*
X86768750Y-113200000D01*
X86792642Y-113201174D01*
G37*
G36*
X88667642Y-113201174D02*
G01*
X88691303Y-113204684D01*
X88714507Y-113210496D01*
X88737029Y-113218554D01*
X88758653Y-113228782D01*
X88779170Y-113241079D01*
X88798383Y-113255329D01*
X88816107Y-113271393D01*
X88832171Y-113289117D01*
X88846421Y-113308330D01*
X88858718Y-113328847D01*
X88868946Y-113350471D01*
X88877004Y-113372993D01*
X88882816Y-113396197D01*
X88886326Y-113419858D01*
X88887500Y-113443750D01*
X88887500Y-114356250D01*
X88886326Y-114380142D01*
X88882816Y-114403803D01*
X88877004Y-114427007D01*
X88868946Y-114449529D01*
X88858718Y-114471153D01*
X88846421Y-114491670D01*
X88832171Y-114510883D01*
X88816107Y-114528607D01*
X88798383Y-114544671D01*
X88779170Y-114558921D01*
X88758653Y-114571218D01*
X88737029Y-114581446D01*
X88714507Y-114589504D01*
X88691303Y-114595316D01*
X88667642Y-114598826D01*
X88643750Y-114600000D01*
X88156250Y-114600000D01*
X88132358Y-114598826D01*
X88108697Y-114595316D01*
X88085493Y-114589504D01*
X88062971Y-114581446D01*
X88041347Y-114571218D01*
X88020830Y-114558921D01*
X88001617Y-114544671D01*
X87983893Y-114528607D01*
X87967829Y-114510883D01*
X87953579Y-114491670D01*
X87941282Y-114471153D01*
X87931054Y-114449529D01*
X87922996Y-114427007D01*
X87917184Y-114403803D01*
X87913674Y-114380142D01*
X87912500Y-114356250D01*
X87912500Y-113443750D01*
X87913674Y-113419858D01*
X87917184Y-113396197D01*
X87922996Y-113372993D01*
X87931054Y-113350471D01*
X87941282Y-113328847D01*
X87953579Y-113308330D01*
X87967829Y-113289117D01*
X87983893Y-113271393D01*
X88001617Y-113255329D01*
X88020830Y-113241079D01*
X88041347Y-113228782D01*
X88062971Y-113218554D01*
X88085493Y-113210496D01*
X88108697Y-113204684D01*
X88132358Y-113201174D01*
X88156250Y-113200000D01*
X88643750Y-113200000D01*
X88667642Y-113201174D01*
G37*
G36*
X84980142Y-120551174D02*
G01*
X85003803Y-120554684D01*
X85027007Y-120560496D01*
X85049529Y-120568554D01*
X85071153Y-120578782D01*
X85091670Y-120591079D01*
X85110883Y-120605329D01*
X85128607Y-120621393D01*
X85144671Y-120639117D01*
X85158921Y-120658330D01*
X85171218Y-120678847D01*
X85181446Y-120700471D01*
X85189504Y-120722993D01*
X85195316Y-120746197D01*
X85198826Y-120769858D01*
X85200000Y-120793750D01*
X85200000Y-121281250D01*
X85198826Y-121305142D01*
X85195316Y-121328803D01*
X85189504Y-121352007D01*
X85181446Y-121374529D01*
X85171218Y-121396153D01*
X85158921Y-121416670D01*
X85144671Y-121435883D01*
X85128607Y-121453607D01*
X85110883Y-121469671D01*
X85091670Y-121483921D01*
X85071153Y-121496218D01*
X85049529Y-121506446D01*
X85027007Y-121514504D01*
X85003803Y-121520316D01*
X84980142Y-121523826D01*
X84956250Y-121525000D01*
X84043750Y-121525000D01*
X84019858Y-121523826D01*
X83996197Y-121520316D01*
X83972993Y-121514504D01*
X83950471Y-121506446D01*
X83928847Y-121496218D01*
X83908330Y-121483921D01*
X83889117Y-121469671D01*
X83871393Y-121453607D01*
X83855329Y-121435883D01*
X83841079Y-121416670D01*
X83828782Y-121396153D01*
X83818554Y-121374529D01*
X83810496Y-121352007D01*
X83804684Y-121328803D01*
X83801174Y-121305142D01*
X83800000Y-121281250D01*
X83800000Y-120793750D01*
X83801174Y-120769858D01*
X83804684Y-120746197D01*
X83810496Y-120722993D01*
X83818554Y-120700471D01*
X83828782Y-120678847D01*
X83841079Y-120658330D01*
X83855329Y-120639117D01*
X83871393Y-120621393D01*
X83889117Y-120605329D01*
X83908330Y-120591079D01*
X83928847Y-120578782D01*
X83950471Y-120568554D01*
X83972993Y-120560496D01*
X83996197Y-120554684D01*
X84019858Y-120551174D01*
X84043750Y-120550000D01*
X84956250Y-120550000D01*
X84980142Y-120551174D01*
G37*
G36*
X84980142Y-118676174D02*
G01*
X85003803Y-118679684D01*
X85027007Y-118685496D01*
X85049529Y-118693554D01*
X85071153Y-118703782D01*
X85091670Y-118716079D01*
X85110883Y-118730329D01*
X85128607Y-118746393D01*
X85144671Y-118764117D01*
X85158921Y-118783330D01*
X85171218Y-118803847D01*
X85181446Y-118825471D01*
X85189504Y-118847993D01*
X85195316Y-118871197D01*
X85198826Y-118894858D01*
X85200000Y-118918750D01*
X85200000Y-119406250D01*
X85198826Y-119430142D01*
X85195316Y-119453803D01*
X85189504Y-119477007D01*
X85181446Y-119499529D01*
X85171218Y-119521153D01*
X85158921Y-119541670D01*
X85144671Y-119560883D01*
X85128607Y-119578607D01*
X85110883Y-119594671D01*
X85091670Y-119608921D01*
X85071153Y-119621218D01*
X85049529Y-119631446D01*
X85027007Y-119639504D01*
X85003803Y-119645316D01*
X84980142Y-119648826D01*
X84956250Y-119650000D01*
X84043750Y-119650000D01*
X84019858Y-119648826D01*
X83996197Y-119645316D01*
X83972993Y-119639504D01*
X83950471Y-119631446D01*
X83928847Y-119621218D01*
X83908330Y-119608921D01*
X83889117Y-119594671D01*
X83871393Y-119578607D01*
X83855329Y-119560883D01*
X83841079Y-119541670D01*
X83828782Y-119521153D01*
X83818554Y-119499529D01*
X83810496Y-119477007D01*
X83804684Y-119453803D01*
X83801174Y-119430142D01*
X83800000Y-119406250D01*
X83800000Y-118918750D01*
X83801174Y-118894858D01*
X83804684Y-118871197D01*
X83810496Y-118847993D01*
X83818554Y-118825471D01*
X83828782Y-118803847D01*
X83841079Y-118783330D01*
X83855329Y-118764117D01*
X83871393Y-118746393D01*
X83889117Y-118730329D01*
X83908330Y-118716079D01*
X83928847Y-118703782D01*
X83950471Y-118693554D01*
X83972993Y-118685496D01*
X83996197Y-118679684D01*
X84019858Y-118676174D01*
X84043750Y-118675000D01*
X84956250Y-118675000D01*
X84980142Y-118676174D01*
G37*
G36*
X87380142Y-120551174D02*
G01*
X87403803Y-120554684D01*
X87427007Y-120560496D01*
X87449529Y-120568554D01*
X87471153Y-120578782D01*
X87491670Y-120591079D01*
X87510883Y-120605329D01*
X87528607Y-120621393D01*
X87544671Y-120639117D01*
X87558921Y-120658330D01*
X87571218Y-120678847D01*
X87581446Y-120700471D01*
X87589504Y-120722993D01*
X87595316Y-120746197D01*
X87598826Y-120769858D01*
X87600000Y-120793750D01*
X87600000Y-121281250D01*
X87598826Y-121305142D01*
X87595316Y-121328803D01*
X87589504Y-121352007D01*
X87581446Y-121374529D01*
X87571218Y-121396153D01*
X87558921Y-121416670D01*
X87544671Y-121435883D01*
X87528607Y-121453607D01*
X87510883Y-121469671D01*
X87491670Y-121483921D01*
X87471153Y-121496218D01*
X87449529Y-121506446D01*
X87427007Y-121514504D01*
X87403803Y-121520316D01*
X87380142Y-121523826D01*
X87356250Y-121525000D01*
X86443750Y-121525000D01*
X86419858Y-121523826D01*
X86396197Y-121520316D01*
X86372993Y-121514504D01*
X86350471Y-121506446D01*
X86328847Y-121496218D01*
X86308330Y-121483921D01*
X86289117Y-121469671D01*
X86271393Y-121453607D01*
X86255329Y-121435883D01*
X86241079Y-121416670D01*
X86228782Y-121396153D01*
X86218554Y-121374529D01*
X86210496Y-121352007D01*
X86204684Y-121328803D01*
X86201174Y-121305142D01*
X86200000Y-121281250D01*
X86200000Y-120793750D01*
X86201174Y-120769858D01*
X86204684Y-120746197D01*
X86210496Y-120722993D01*
X86218554Y-120700471D01*
X86228782Y-120678847D01*
X86241079Y-120658330D01*
X86255329Y-120639117D01*
X86271393Y-120621393D01*
X86289117Y-120605329D01*
X86308330Y-120591079D01*
X86328847Y-120578782D01*
X86350471Y-120568554D01*
X86372993Y-120560496D01*
X86396197Y-120554684D01*
X86419858Y-120551174D01*
X86443750Y-120550000D01*
X87356250Y-120550000D01*
X87380142Y-120551174D01*
G37*
G36*
X87380142Y-118676174D02*
G01*
X87403803Y-118679684D01*
X87427007Y-118685496D01*
X87449529Y-118693554D01*
X87471153Y-118703782D01*
X87491670Y-118716079D01*
X87510883Y-118730329D01*
X87528607Y-118746393D01*
X87544671Y-118764117D01*
X87558921Y-118783330D01*
X87571218Y-118803847D01*
X87581446Y-118825471D01*
X87589504Y-118847993D01*
X87595316Y-118871197D01*
X87598826Y-118894858D01*
X87600000Y-118918750D01*
X87600000Y-119406250D01*
X87598826Y-119430142D01*
X87595316Y-119453803D01*
X87589504Y-119477007D01*
X87581446Y-119499529D01*
X87571218Y-119521153D01*
X87558921Y-119541670D01*
X87544671Y-119560883D01*
X87528607Y-119578607D01*
X87510883Y-119594671D01*
X87491670Y-119608921D01*
X87471153Y-119621218D01*
X87449529Y-119631446D01*
X87427007Y-119639504D01*
X87403803Y-119645316D01*
X87380142Y-119648826D01*
X87356250Y-119650000D01*
X86443750Y-119650000D01*
X86419858Y-119648826D01*
X86396197Y-119645316D01*
X86372993Y-119639504D01*
X86350471Y-119631446D01*
X86328847Y-119621218D01*
X86308330Y-119608921D01*
X86289117Y-119594671D01*
X86271393Y-119578607D01*
X86255329Y-119560883D01*
X86241079Y-119541670D01*
X86228782Y-119521153D01*
X86218554Y-119499529D01*
X86210496Y-119477007D01*
X86204684Y-119453803D01*
X86201174Y-119430142D01*
X86200000Y-119406250D01*
X86200000Y-118918750D01*
X86201174Y-118894858D01*
X86204684Y-118871197D01*
X86210496Y-118847993D01*
X86218554Y-118825471D01*
X86228782Y-118803847D01*
X86241079Y-118783330D01*
X86255329Y-118764117D01*
X86271393Y-118746393D01*
X86289117Y-118730329D01*
X86308330Y-118716079D01*
X86328847Y-118703782D01*
X86350471Y-118693554D01*
X86372993Y-118685496D01*
X86396197Y-118679684D01*
X86419858Y-118676174D01*
X86443750Y-118675000D01*
X87356250Y-118675000D01*
X87380142Y-118676174D01*
G37*
G36*
X94680142Y-113376174D02*
G01*
X94703803Y-113379684D01*
X94727007Y-113385496D01*
X94749529Y-113393554D01*
X94771153Y-113403782D01*
X94791670Y-113416079D01*
X94810883Y-113430329D01*
X94828607Y-113446393D01*
X94844671Y-113464117D01*
X94858921Y-113483330D01*
X94871218Y-113503847D01*
X94881446Y-113525471D01*
X94889504Y-113547993D01*
X94895316Y-113571197D01*
X94898826Y-113594858D01*
X94900000Y-113618750D01*
X94900000Y-114106250D01*
X94898826Y-114130142D01*
X94895316Y-114153803D01*
X94889504Y-114177007D01*
X94881446Y-114199529D01*
X94871218Y-114221153D01*
X94858921Y-114241670D01*
X94844671Y-114260883D01*
X94828607Y-114278607D01*
X94810883Y-114294671D01*
X94791670Y-114308921D01*
X94771153Y-114321218D01*
X94749529Y-114331446D01*
X94727007Y-114339504D01*
X94703803Y-114345316D01*
X94680142Y-114348826D01*
X94656250Y-114350000D01*
X93743750Y-114350000D01*
X93719858Y-114348826D01*
X93696197Y-114345316D01*
X93672993Y-114339504D01*
X93650471Y-114331446D01*
X93628847Y-114321218D01*
X93608330Y-114308921D01*
X93589117Y-114294671D01*
X93571393Y-114278607D01*
X93555329Y-114260883D01*
X93541079Y-114241670D01*
X93528782Y-114221153D01*
X93518554Y-114199529D01*
X93510496Y-114177007D01*
X93504684Y-114153803D01*
X93501174Y-114130142D01*
X93500000Y-114106250D01*
X93500000Y-113618750D01*
X93501174Y-113594858D01*
X93504684Y-113571197D01*
X93510496Y-113547993D01*
X93518554Y-113525471D01*
X93528782Y-113503847D01*
X93541079Y-113483330D01*
X93555329Y-113464117D01*
X93571393Y-113446393D01*
X93589117Y-113430329D01*
X93608330Y-113416079D01*
X93628847Y-113403782D01*
X93650471Y-113393554D01*
X93672993Y-113385496D01*
X93696197Y-113379684D01*
X93719858Y-113376174D01*
X93743750Y-113375000D01*
X94656250Y-113375000D01*
X94680142Y-113376174D01*
G37*
G36*
X94680142Y-115251174D02*
G01*
X94703803Y-115254684D01*
X94727007Y-115260496D01*
X94749529Y-115268554D01*
X94771153Y-115278782D01*
X94791670Y-115291079D01*
X94810883Y-115305329D01*
X94828607Y-115321393D01*
X94844671Y-115339117D01*
X94858921Y-115358330D01*
X94871218Y-115378847D01*
X94881446Y-115400471D01*
X94889504Y-115422993D01*
X94895316Y-115446197D01*
X94898826Y-115469858D01*
X94900000Y-115493750D01*
X94900000Y-115981250D01*
X94898826Y-116005142D01*
X94895316Y-116028803D01*
X94889504Y-116052007D01*
X94881446Y-116074529D01*
X94871218Y-116096153D01*
X94858921Y-116116670D01*
X94844671Y-116135883D01*
X94828607Y-116153607D01*
X94810883Y-116169671D01*
X94791670Y-116183921D01*
X94771153Y-116196218D01*
X94749529Y-116206446D01*
X94727007Y-116214504D01*
X94703803Y-116220316D01*
X94680142Y-116223826D01*
X94656250Y-116225000D01*
X93743750Y-116225000D01*
X93719858Y-116223826D01*
X93696197Y-116220316D01*
X93672993Y-116214504D01*
X93650471Y-116206446D01*
X93628847Y-116196218D01*
X93608330Y-116183921D01*
X93589117Y-116169671D01*
X93571393Y-116153607D01*
X93555329Y-116135883D01*
X93541079Y-116116670D01*
X93528782Y-116096153D01*
X93518554Y-116074529D01*
X93510496Y-116052007D01*
X93504684Y-116028803D01*
X93501174Y-116005142D01*
X93500000Y-115981250D01*
X93500000Y-115493750D01*
X93501174Y-115469858D01*
X93504684Y-115446197D01*
X93510496Y-115422993D01*
X93518554Y-115400471D01*
X93528782Y-115378847D01*
X93541079Y-115358330D01*
X93555329Y-115339117D01*
X93571393Y-115321393D01*
X93589117Y-115305329D01*
X93608330Y-115291079D01*
X93628847Y-115278782D01*
X93650471Y-115268554D01*
X93672993Y-115260496D01*
X93696197Y-115254684D01*
X93719858Y-115251174D01*
X93743750Y-115250000D01*
X94656250Y-115250000D01*
X94680142Y-115251174D01*
G37*
G36*
X86892642Y-108301174D02*
G01*
X86916303Y-108304684D01*
X86939507Y-108310496D01*
X86962029Y-108318554D01*
X86983653Y-108328782D01*
X87004170Y-108341079D01*
X87023383Y-108355329D01*
X87041107Y-108371393D01*
X87057171Y-108389117D01*
X87071421Y-108408330D01*
X87083718Y-108428847D01*
X87093946Y-108450471D01*
X87102004Y-108472993D01*
X87107816Y-108496197D01*
X87111326Y-108519858D01*
X87112500Y-108543750D01*
X87112500Y-109456250D01*
X87111326Y-109480142D01*
X87107816Y-109503803D01*
X87102004Y-109527007D01*
X87093946Y-109549529D01*
X87083718Y-109571153D01*
X87071421Y-109591670D01*
X87057171Y-109610883D01*
X87041107Y-109628607D01*
X87023383Y-109644671D01*
X87004170Y-109658921D01*
X86983653Y-109671218D01*
X86962029Y-109681446D01*
X86939507Y-109689504D01*
X86916303Y-109695316D01*
X86892642Y-109698826D01*
X86868750Y-109700000D01*
X86381250Y-109700000D01*
X86357358Y-109698826D01*
X86333697Y-109695316D01*
X86310493Y-109689504D01*
X86287971Y-109681446D01*
X86266347Y-109671218D01*
X86245830Y-109658921D01*
X86226617Y-109644671D01*
X86208893Y-109628607D01*
X86192829Y-109610883D01*
X86178579Y-109591670D01*
X86166282Y-109571153D01*
X86156054Y-109549529D01*
X86147996Y-109527007D01*
X86142184Y-109503803D01*
X86138674Y-109480142D01*
X86137500Y-109456250D01*
X86137500Y-108543750D01*
X86138674Y-108519858D01*
X86142184Y-108496197D01*
X86147996Y-108472993D01*
X86156054Y-108450471D01*
X86166282Y-108428847D01*
X86178579Y-108408330D01*
X86192829Y-108389117D01*
X86208893Y-108371393D01*
X86226617Y-108355329D01*
X86245830Y-108341079D01*
X86266347Y-108328782D01*
X86287971Y-108318554D01*
X86310493Y-108310496D01*
X86333697Y-108304684D01*
X86357358Y-108301174D01*
X86381250Y-108300000D01*
X86868750Y-108300000D01*
X86892642Y-108301174D01*
G37*
G36*
X88767642Y-108301174D02*
G01*
X88791303Y-108304684D01*
X88814507Y-108310496D01*
X88837029Y-108318554D01*
X88858653Y-108328782D01*
X88879170Y-108341079D01*
X88898383Y-108355329D01*
X88916107Y-108371393D01*
X88932171Y-108389117D01*
X88946421Y-108408330D01*
X88958718Y-108428847D01*
X88968946Y-108450471D01*
X88977004Y-108472993D01*
X88982816Y-108496197D01*
X88986326Y-108519858D01*
X88987500Y-108543750D01*
X88987500Y-109456250D01*
X88986326Y-109480142D01*
X88982816Y-109503803D01*
X88977004Y-109527007D01*
X88968946Y-109549529D01*
X88958718Y-109571153D01*
X88946421Y-109591670D01*
X88932171Y-109610883D01*
X88916107Y-109628607D01*
X88898383Y-109644671D01*
X88879170Y-109658921D01*
X88858653Y-109671218D01*
X88837029Y-109681446D01*
X88814507Y-109689504D01*
X88791303Y-109695316D01*
X88767642Y-109698826D01*
X88743750Y-109700000D01*
X88256250Y-109700000D01*
X88232358Y-109698826D01*
X88208697Y-109695316D01*
X88185493Y-109689504D01*
X88162971Y-109681446D01*
X88141347Y-109671218D01*
X88120830Y-109658921D01*
X88101617Y-109644671D01*
X88083893Y-109628607D01*
X88067829Y-109610883D01*
X88053579Y-109591670D01*
X88041282Y-109571153D01*
X88031054Y-109549529D01*
X88022996Y-109527007D01*
X88017184Y-109503803D01*
X88013674Y-109480142D01*
X88012500Y-109456250D01*
X88012500Y-108543750D01*
X88013674Y-108519858D01*
X88017184Y-108496197D01*
X88022996Y-108472993D01*
X88031054Y-108450471D01*
X88041282Y-108428847D01*
X88053579Y-108408330D01*
X88067829Y-108389117D01*
X88083893Y-108371393D01*
X88101617Y-108355329D01*
X88120830Y-108341079D01*
X88141347Y-108328782D01*
X88162971Y-108318554D01*
X88185493Y-108310496D01*
X88208697Y-108304684D01*
X88232358Y-108301174D01*
X88256250Y-108300000D01*
X88743750Y-108300000D01*
X88767642Y-108301174D01*
G37*
G36*
X94205142Y-119601174D02*
G01*
X94228803Y-119604684D01*
X94252007Y-119610496D01*
X94274529Y-119618554D01*
X94296153Y-119628782D01*
X94316670Y-119641079D01*
X94335883Y-119655329D01*
X94353607Y-119671393D01*
X94369671Y-119689117D01*
X94383921Y-119708330D01*
X94396218Y-119728847D01*
X94406446Y-119750471D01*
X94414504Y-119772993D01*
X94420316Y-119796197D01*
X94423826Y-119819858D01*
X94425000Y-119843750D01*
X94425000Y-120756250D01*
X94423826Y-120780142D01*
X94420316Y-120803803D01*
X94414504Y-120827007D01*
X94406446Y-120849529D01*
X94396218Y-120871153D01*
X94383921Y-120891670D01*
X94369671Y-120910883D01*
X94353607Y-120928607D01*
X94335883Y-120944671D01*
X94316670Y-120958921D01*
X94296153Y-120971218D01*
X94274529Y-120981446D01*
X94252007Y-120989504D01*
X94228803Y-120995316D01*
X94205142Y-120998826D01*
X94181250Y-121000000D01*
X93693750Y-121000000D01*
X93669858Y-120998826D01*
X93646197Y-120995316D01*
X93622993Y-120989504D01*
X93600471Y-120981446D01*
X93578847Y-120971218D01*
X93558330Y-120958921D01*
X93539117Y-120944671D01*
X93521393Y-120928607D01*
X93505329Y-120910883D01*
X93491079Y-120891670D01*
X93478782Y-120871153D01*
X93468554Y-120849529D01*
X93460496Y-120827007D01*
X93454684Y-120803803D01*
X93451174Y-120780142D01*
X93450000Y-120756250D01*
X93450000Y-119843750D01*
X93451174Y-119819858D01*
X93454684Y-119796197D01*
X93460496Y-119772993D01*
X93468554Y-119750471D01*
X93478782Y-119728847D01*
X93491079Y-119708330D01*
X93505329Y-119689117D01*
X93521393Y-119671393D01*
X93539117Y-119655329D01*
X93558330Y-119641079D01*
X93578847Y-119628782D01*
X93600471Y-119618554D01*
X93622993Y-119610496D01*
X93646197Y-119604684D01*
X93669858Y-119601174D01*
X93693750Y-119600000D01*
X94181250Y-119600000D01*
X94205142Y-119601174D01*
G37*
G36*
X92330142Y-119601174D02*
G01*
X92353803Y-119604684D01*
X92377007Y-119610496D01*
X92399529Y-119618554D01*
X92421153Y-119628782D01*
X92441670Y-119641079D01*
X92460883Y-119655329D01*
X92478607Y-119671393D01*
X92494671Y-119689117D01*
X92508921Y-119708330D01*
X92521218Y-119728847D01*
X92531446Y-119750471D01*
X92539504Y-119772993D01*
X92545316Y-119796197D01*
X92548826Y-119819858D01*
X92550000Y-119843750D01*
X92550000Y-120756250D01*
X92548826Y-120780142D01*
X92545316Y-120803803D01*
X92539504Y-120827007D01*
X92531446Y-120849529D01*
X92521218Y-120871153D01*
X92508921Y-120891670D01*
X92494671Y-120910883D01*
X92478607Y-120928607D01*
X92460883Y-120944671D01*
X92441670Y-120958921D01*
X92421153Y-120971218D01*
X92399529Y-120981446D01*
X92377007Y-120989504D01*
X92353803Y-120995316D01*
X92330142Y-120998826D01*
X92306250Y-121000000D01*
X91818750Y-121000000D01*
X91794858Y-120998826D01*
X91771197Y-120995316D01*
X91747993Y-120989504D01*
X91725471Y-120981446D01*
X91703847Y-120971218D01*
X91683330Y-120958921D01*
X91664117Y-120944671D01*
X91646393Y-120928607D01*
X91630329Y-120910883D01*
X91616079Y-120891670D01*
X91603782Y-120871153D01*
X91593554Y-120849529D01*
X91585496Y-120827007D01*
X91579684Y-120803803D01*
X91576174Y-120780142D01*
X91575000Y-120756250D01*
X91575000Y-119843750D01*
X91576174Y-119819858D01*
X91579684Y-119796197D01*
X91585496Y-119772993D01*
X91593554Y-119750471D01*
X91603782Y-119728847D01*
X91616079Y-119708330D01*
X91630329Y-119689117D01*
X91646393Y-119671393D01*
X91664117Y-119655329D01*
X91683330Y-119641079D01*
X91703847Y-119628782D01*
X91725471Y-119618554D01*
X91747993Y-119610496D01*
X91771197Y-119604684D01*
X91794858Y-119601174D01*
X91818750Y-119600000D01*
X92306250Y-119600000D01*
X92330142Y-119601174D01*
G37*
G36*
X97080142Y-113376174D02*
G01*
X97103803Y-113379684D01*
X97127007Y-113385496D01*
X97149529Y-113393554D01*
X97171153Y-113403782D01*
X97191670Y-113416079D01*
X97210883Y-113430329D01*
X97228607Y-113446393D01*
X97244671Y-113464117D01*
X97258921Y-113483330D01*
X97271218Y-113503847D01*
X97281446Y-113525471D01*
X97289504Y-113547993D01*
X97295316Y-113571197D01*
X97298826Y-113594858D01*
X97300000Y-113618750D01*
X97300000Y-114106250D01*
X97298826Y-114130142D01*
X97295316Y-114153803D01*
X97289504Y-114177007D01*
X97281446Y-114199529D01*
X97271218Y-114221153D01*
X97258921Y-114241670D01*
X97244671Y-114260883D01*
X97228607Y-114278607D01*
X97210883Y-114294671D01*
X97191670Y-114308921D01*
X97171153Y-114321218D01*
X97149529Y-114331446D01*
X97127007Y-114339504D01*
X97103803Y-114345316D01*
X97080142Y-114348826D01*
X97056250Y-114350000D01*
X96143750Y-114350000D01*
X96119858Y-114348826D01*
X96096197Y-114345316D01*
X96072993Y-114339504D01*
X96050471Y-114331446D01*
X96028847Y-114321218D01*
X96008330Y-114308921D01*
X95989117Y-114294671D01*
X95971393Y-114278607D01*
X95955329Y-114260883D01*
X95941079Y-114241670D01*
X95928782Y-114221153D01*
X95918554Y-114199529D01*
X95910496Y-114177007D01*
X95904684Y-114153803D01*
X95901174Y-114130142D01*
X95900000Y-114106250D01*
X95900000Y-113618750D01*
X95901174Y-113594858D01*
X95904684Y-113571197D01*
X95910496Y-113547993D01*
X95918554Y-113525471D01*
X95928782Y-113503847D01*
X95941079Y-113483330D01*
X95955329Y-113464117D01*
X95971393Y-113446393D01*
X95989117Y-113430329D01*
X96008330Y-113416079D01*
X96028847Y-113403782D01*
X96050471Y-113393554D01*
X96072993Y-113385496D01*
X96096197Y-113379684D01*
X96119858Y-113376174D01*
X96143750Y-113375000D01*
X97056250Y-113375000D01*
X97080142Y-113376174D01*
G37*
G36*
X97080142Y-115251174D02*
G01*
X97103803Y-115254684D01*
X97127007Y-115260496D01*
X97149529Y-115268554D01*
X97171153Y-115278782D01*
X97191670Y-115291079D01*
X97210883Y-115305329D01*
X97228607Y-115321393D01*
X97244671Y-115339117D01*
X97258921Y-115358330D01*
X97271218Y-115378847D01*
X97281446Y-115400471D01*
X97289504Y-115422993D01*
X97295316Y-115446197D01*
X97298826Y-115469858D01*
X97300000Y-115493750D01*
X97300000Y-115981250D01*
X97298826Y-116005142D01*
X97295316Y-116028803D01*
X97289504Y-116052007D01*
X97281446Y-116074529D01*
X97271218Y-116096153D01*
X97258921Y-116116670D01*
X97244671Y-116135883D01*
X97228607Y-116153607D01*
X97210883Y-116169671D01*
X97191670Y-116183921D01*
X97171153Y-116196218D01*
X97149529Y-116206446D01*
X97127007Y-116214504D01*
X97103803Y-116220316D01*
X97080142Y-116223826D01*
X97056250Y-116225000D01*
X96143750Y-116225000D01*
X96119858Y-116223826D01*
X96096197Y-116220316D01*
X96072993Y-116214504D01*
X96050471Y-116206446D01*
X96028847Y-116196218D01*
X96008330Y-116183921D01*
X95989117Y-116169671D01*
X95971393Y-116153607D01*
X95955329Y-116135883D01*
X95941079Y-116116670D01*
X95928782Y-116096153D01*
X95918554Y-116074529D01*
X95910496Y-116052007D01*
X95904684Y-116028803D01*
X95901174Y-116005142D01*
X95900000Y-115981250D01*
X95900000Y-115493750D01*
X95901174Y-115469858D01*
X95904684Y-115446197D01*
X95910496Y-115422993D01*
X95918554Y-115400471D01*
X95928782Y-115378847D01*
X95941079Y-115358330D01*
X95955329Y-115339117D01*
X95971393Y-115321393D01*
X95989117Y-115305329D01*
X96008330Y-115291079D01*
X96028847Y-115278782D01*
X96050471Y-115268554D01*
X96072993Y-115260496D01*
X96096197Y-115254684D01*
X96119858Y-115251174D01*
X96143750Y-115250000D01*
X97056250Y-115250000D01*
X97080142Y-115251174D01*
G37*
G36*
X86230142Y-87001174D02*
G01*
X86253803Y-87004684D01*
X86277007Y-87010496D01*
X86299529Y-87018554D01*
X86321153Y-87028782D01*
X86341670Y-87041079D01*
X86360883Y-87055329D01*
X86378607Y-87071393D01*
X86394671Y-87089117D01*
X86408921Y-87108330D01*
X86421218Y-87128847D01*
X86431446Y-87150471D01*
X86439504Y-87172993D01*
X86445316Y-87196197D01*
X86448826Y-87219858D01*
X86450000Y-87243750D01*
X86450000Y-88156250D01*
X86448826Y-88180142D01*
X86445316Y-88203803D01*
X86439504Y-88227007D01*
X86431446Y-88249529D01*
X86421218Y-88271153D01*
X86408921Y-88291670D01*
X86394671Y-88310883D01*
X86378607Y-88328607D01*
X86360883Y-88344671D01*
X86341670Y-88358921D01*
X86321153Y-88371218D01*
X86299529Y-88381446D01*
X86277007Y-88389504D01*
X86253803Y-88395316D01*
X86230142Y-88398826D01*
X86206250Y-88400000D01*
X85718750Y-88400000D01*
X85694858Y-88398826D01*
X85671197Y-88395316D01*
X85647993Y-88389504D01*
X85625471Y-88381446D01*
X85603847Y-88371218D01*
X85583330Y-88358921D01*
X85564117Y-88344671D01*
X85546393Y-88328607D01*
X85530329Y-88310883D01*
X85516079Y-88291670D01*
X85503782Y-88271153D01*
X85493554Y-88249529D01*
X85485496Y-88227007D01*
X85479684Y-88203803D01*
X85476174Y-88180142D01*
X85475000Y-88156250D01*
X85475000Y-87243750D01*
X85476174Y-87219858D01*
X85479684Y-87196197D01*
X85485496Y-87172993D01*
X85493554Y-87150471D01*
X85503782Y-87128847D01*
X85516079Y-87108330D01*
X85530329Y-87089117D01*
X85546393Y-87071393D01*
X85564117Y-87055329D01*
X85583330Y-87041079D01*
X85603847Y-87028782D01*
X85625471Y-87018554D01*
X85647993Y-87010496D01*
X85671197Y-87004684D01*
X85694858Y-87001174D01*
X85718750Y-87000000D01*
X86206250Y-87000000D01*
X86230142Y-87001174D01*
G37*
G36*
X88105142Y-87001174D02*
G01*
X88128803Y-87004684D01*
X88152007Y-87010496D01*
X88174529Y-87018554D01*
X88196153Y-87028782D01*
X88216670Y-87041079D01*
X88235883Y-87055329D01*
X88253607Y-87071393D01*
X88269671Y-87089117D01*
X88283921Y-87108330D01*
X88296218Y-87128847D01*
X88306446Y-87150471D01*
X88314504Y-87172993D01*
X88320316Y-87196197D01*
X88323826Y-87219858D01*
X88325000Y-87243750D01*
X88325000Y-88156250D01*
X88323826Y-88180142D01*
X88320316Y-88203803D01*
X88314504Y-88227007D01*
X88306446Y-88249529D01*
X88296218Y-88271153D01*
X88283921Y-88291670D01*
X88269671Y-88310883D01*
X88253607Y-88328607D01*
X88235883Y-88344671D01*
X88216670Y-88358921D01*
X88196153Y-88371218D01*
X88174529Y-88381446D01*
X88152007Y-88389504D01*
X88128803Y-88395316D01*
X88105142Y-88398826D01*
X88081250Y-88400000D01*
X87593750Y-88400000D01*
X87569858Y-88398826D01*
X87546197Y-88395316D01*
X87522993Y-88389504D01*
X87500471Y-88381446D01*
X87478847Y-88371218D01*
X87458330Y-88358921D01*
X87439117Y-88344671D01*
X87421393Y-88328607D01*
X87405329Y-88310883D01*
X87391079Y-88291670D01*
X87378782Y-88271153D01*
X87368554Y-88249529D01*
X87360496Y-88227007D01*
X87354684Y-88203803D01*
X87351174Y-88180142D01*
X87350000Y-88156250D01*
X87350000Y-87243750D01*
X87351174Y-87219858D01*
X87354684Y-87196197D01*
X87360496Y-87172993D01*
X87368554Y-87150471D01*
X87378782Y-87128847D01*
X87391079Y-87108330D01*
X87405329Y-87089117D01*
X87421393Y-87071393D01*
X87439117Y-87055329D01*
X87458330Y-87041079D01*
X87478847Y-87028782D01*
X87500471Y-87018554D01*
X87522993Y-87010496D01*
X87546197Y-87004684D01*
X87569858Y-87001174D01*
X87593750Y-87000000D01*
X88081250Y-87000000D01*
X88105142Y-87001174D01*
G37*
G36*
X72730142Y-87001174D02*
G01*
X72753803Y-87004684D01*
X72777007Y-87010496D01*
X72799529Y-87018554D01*
X72821153Y-87028782D01*
X72841670Y-87041079D01*
X72860883Y-87055329D01*
X72878607Y-87071393D01*
X72894671Y-87089117D01*
X72908921Y-87108330D01*
X72921218Y-87128847D01*
X72931446Y-87150471D01*
X72939504Y-87172993D01*
X72945316Y-87196197D01*
X72948826Y-87219858D01*
X72950000Y-87243750D01*
X72950000Y-88156250D01*
X72948826Y-88180142D01*
X72945316Y-88203803D01*
X72939504Y-88227007D01*
X72931446Y-88249529D01*
X72921218Y-88271153D01*
X72908921Y-88291670D01*
X72894671Y-88310883D01*
X72878607Y-88328607D01*
X72860883Y-88344671D01*
X72841670Y-88358921D01*
X72821153Y-88371218D01*
X72799529Y-88381446D01*
X72777007Y-88389504D01*
X72753803Y-88395316D01*
X72730142Y-88398826D01*
X72706250Y-88400000D01*
X72218750Y-88400000D01*
X72194858Y-88398826D01*
X72171197Y-88395316D01*
X72147993Y-88389504D01*
X72125471Y-88381446D01*
X72103847Y-88371218D01*
X72083330Y-88358921D01*
X72064117Y-88344671D01*
X72046393Y-88328607D01*
X72030329Y-88310883D01*
X72016079Y-88291670D01*
X72003782Y-88271153D01*
X71993554Y-88249529D01*
X71985496Y-88227007D01*
X71979684Y-88203803D01*
X71976174Y-88180142D01*
X71975000Y-88156250D01*
X71975000Y-87243750D01*
X71976174Y-87219858D01*
X71979684Y-87196197D01*
X71985496Y-87172993D01*
X71993554Y-87150471D01*
X72003782Y-87128847D01*
X72016079Y-87108330D01*
X72030329Y-87089117D01*
X72046393Y-87071393D01*
X72064117Y-87055329D01*
X72083330Y-87041079D01*
X72103847Y-87028782D01*
X72125471Y-87018554D01*
X72147993Y-87010496D01*
X72171197Y-87004684D01*
X72194858Y-87001174D01*
X72218750Y-87000000D01*
X72706250Y-87000000D01*
X72730142Y-87001174D01*
G37*
G36*
X74605142Y-87001174D02*
G01*
X74628803Y-87004684D01*
X74652007Y-87010496D01*
X74674529Y-87018554D01*
X74696153Y-87028782D01*
X74716670Y-87041079D01*
X74735883Y-87055329D01*
X74753607Y-87071393D01*
X74769671Y-87089117D01*
X74783921Y-87108330D01*
X74796218Y-87128847D01*
X74806446Y-87150471D01*
X74814504Y-87172993D01*
X74820316Y-87196197D01*
X74823826Y-87219858D01*
X74825000Y-87243750D01*
X74825000Y-88156250D01*
X74823826Y-88180142D01*
X74820316Y-88203803D01*
X74814504Y-88227007D01*
X74806446Y-88249529D01*
X74796218Y-88271153D01*
X74783921Y-88291670D01*
X74769671Y-88310883D01*
X74753607Y-88328607D01*
X74735883Y-88344671D01*
X74716670Y-88358921D01*
X74696153Y-88371218D01*
X74674529Y-88381446D01*
X74652007Y-88389504D01*
X74628803Y-88395316D01*
X74605142Y-88398826D01*
X74581250Y-88400000D01*
X74093750Y-88400000D01*
X74069858Y-88398826D01*
X74046197Y-88395316D01*
X74022993Y-88389504D01*
X74000471Y-88381446D01*
X73978847Y-88371218D01*
X73958330Y-88358921D01*
X73939117Y-88344671D01*
X73921393Y-88328607D01*
X73905329Y-88310883D01*
X73891079Y-88291670D01*
X73878782Y-88271153D01*
X73868554Y-88249529D01*
X73860496Y-88227007D01*
X73854684Y-88203803D01*
X73851174Y-88180142D01*
X73850000Y-88156250D01*
X73850000Y-87243750D01*
X73851174Y-87219858D01*
X73854684Y-87196197D01*
X73860496Y-87172993D01*
X73868554Y-87150471D01*
X73878782Y-87128847D01*
X73891079Y-87108330D01*
X73905329Y-87089117D01*
X73921393Y-87071393D01*
X73939117Y-87055329D01*
X73958330Y-87041079D01*
X73978847Y-87028782D01*
X74000471Y-87018554D01*
X74022993Y-87010496D01*
X74046197Y-87004684D01*
X74069858Y-87001174D01*
X74093750Y-87000000D01*
X74581250Y-87000000D01*
X74605142Y-87001174D01*
G37*
G36*
X59230142Y-87001174D02*
G01*
X59253803Y-87004684D01*
X59277007Y-87010496D01*
X59299529Y-87018554D01*
X59321153Y-87028782D01*
X59341670Y-87041079D01*
X59360883Y-87055329D01*
X59378607Y-87071393D01*
X59394671Y-87089117D01*
X59408921Y-87108330D01*
X59421218Y-87128847D01*
X59431446Y-87150471D01*
X59439504Y-87172993D01*
X59445316Y-87196197D01*
X59448826Y-87219858D01*
X59450000Y-87243750D01*
X59450000Y-88156250D01*
X59448826Y-88180142D01*
X59445316Y-88203803D01*
X59439504Y-88227007D01*
X59431446Y-88249529D01*
X59421218Y-88271153D01*
X59408921Y-88291670D01*
X59394671Y-88310883D01*
X59378607Y-88328607D01*
X59360883Y-88344671D01*
X59341670Y-88358921D01*
X59321153Y-88371218D01*
X59299529Y-88381446D01*
X59277007Y-88389504D01*
X59253803Y-88395316D01*
X59230142Y-88398826D01*
X59206250Y-88400000D01*
X58718750Y-88400000D01*
X58694858Y-88398826D01*
X58671197Y-88395316D01*
X58647993Y-88389504D01*
X58625471Y-88381446D01*
X58603847Y-88371218D01*
X58583330Y-88358921D01*
X58564117Y-88344671D01*
X58546393Y-88328607D01*
X58530329Y-88310883D01*
X58516079Y-88291670D01*
X58503782Y-88271153D01*
X58493554Y-88249529D01*
X58485496Y-88227007D01*
X58479684Y-88203803D01*
X58476174Y-88180142D01*
X58475000Y-88156250D01*
X58475000Y-87243750D01*
X58476174Y-87219858D01*
X58479684Y-87196197D01*
X58485496Y-87172993D01*
X58493554Y-87150471D01*
X58503782Y-87128847D01*
X58516079Y-87108330D01*
X58530329Y-87089117D01*
X58546393Y-87071393D01*
X58564117Y-87055329D01*
X58583330Y-87041079D01*
X58603847Y-87028782D01*
X58625471Y-87018554D01*
X58647993Y-87010496D01*
X58671197Y-87004684D01*
X58694858Y-87001174D01*
X58718750Y-87000000D01*
X59206250Y-87000000D01*
X59230142Y-87001174D01*
G37*
G36*
X61105142Y-87001174D02*
G01*
X61128803Y-87004684D01*
X61152007Y-87010496D01*
X61174529Y-87018554D01*
X61196153Y-87028782D01*
X61216670Y-87041079D01*
X61235883Y-87055329D01*
X61253607Y-87071393D01*
X61269671Y-87089117D01*
X61283921Y-87108330D01*
X61296218Y-87128847D01*
X61306446Y-87150471D01*
X61314504Y-87172993D01*
X61320316Y-87196197D01*
X61323826Y-87219858D01*
X61325000Y-87243750D01*
X61325000Y-88156250D01*
X61323826Y-88180142D01*
X61320316Y-88203803D01*
X61314504Y-88227007D01*
X61306446Y-88249529D01*
X61296218Y-88271153D01*
X61283921Y-88291670D01*
X61269671Y-88310883D01*
X61253607Y-88328607D01*
X61235883Y-88344671D01*
X61216670Y-88358921D01*
X61196153Y-88371218D01*
X61174529Y-88381446D01*
X61152007Y-88389504D01*
X61128803Y-88395316D01*
X61105142Y-88398826D01*
X61081250Y-88400000D01*
X60593750Y-88400000D01*
X60569858Y-88398826D01*
X60546197Y-88395316D01*
X60522993Y-88389504D01*
X60500471Y-88381446D01*
X60478847Y-88371218D01*
X60458330Y-88358921D01*
X60439117Y-88344671D01*
X60421393Y-88328607D01*
X60405329Y-88310883D01*
X60391079Y-88291670D01*
X60378782Y-88271153D01*
X60368554Y-88249529D01*
X60360496Y-88227007D01*
X60354684Y-88203803D01*
X60351174Y-88180142D01*
X60350000Y-88156250D01*
X60350000Y-87243750D01*
X60351174Y-87219858D01*
X60354684Y-87196197D01*
X60360496Y-87172993D01*
X60368554Y-87150471D01*
X60378782Y-87128847D01*
X60391079Y-87108330D01*
X60405329Y-87089117D01*
X60421393Y-87071393D01*
X60439117Y-87055329D01*
X60458330Y-87041079D01*
X60478847Y-87028782D01*
X60500471Y-87018554D01*
X60522993Y-87010496D01*
X60546197Y-87004684D01*
X60569858Y-87001174D01*
X60593750Y-87000000D01*
X61081250Y-87000000D01*
X61105142Y-87001174D01*
G37*
G36*
X45730142Y-87001174D02*
G01*
X45753803Y-87004684D01*
X45777007Y-87010496D01*
X45799529Y-87018554D01*
X45821153Y-87028782D01*
X45841670Y-87041079D01*
X45860883Y-87055329D01*
X45878607Y-87071393D01*
X45894671Y-87089117D01*
X45908921Y-87108330D01*
X45921218Y-87128847D01*
X45931446Y-87150471D01*
X45939504Y-87172993D01*
X45945316Y-87196197D01*
X45948826Y-87219858D01*
X45950000Y-87243750D01*
X45950000Y-88156250D01*
X45948826Y-88180142D01*
X45945316Y-88203803D01*
X45939504Y-88227007D01*
X45931446Y-88249529D01*
X45921218Y-88271153D01*
X45908921Y-88291670D01*
X45894671Y-88310883D01*
X45878607Y-88328607D01*
X45860883Y-88344671D01*
X45841670Y-88358921D01*
X45821153Y-88371218D01*
X45799529Y-88381446D01*
X45777007Y-88389504D01*
X45753803Y-88395316D01*
X45730142Y-88398826D01*
X45706250Y-88400000D01*
X45218750Y-88400000D01*
X45194858Y-88398826D01*
X45171197Y-88395316D01*
X45147993Y-88389504D01*
X45125471Y-88381446D01*
X45103847Y-88371218D01*
X45083330Y-88358921D01*
X45064117Y-88344671D01*
X45046393Y-88328607D01*
X45030329Y-88310883D01*
X45016079Y-88291670D01*
X45003782Y-88271153D01*
X44993554Y-88249529D01*
X44985496Y-88227007D01*
X44979684Y-88203803D01*
X44976174Y-88180142D01*
X44975000Y-88156250D01*
X44975000Y-87243750D01*
X44976174Y-87219858D01*
X44979684Y-87196197D01*
X44985496Y-87172993D01*
X44993554Y-87150471D01*
X45003782Y-87128847D01*
X45016079Y-87108330D01*
X45030329Y-87089117D01*
X45046393Y-87071393D01*
X45064117Y-87055329D01*
X45083330Y-87041079D01*
X45103847Y-87028782D01*
X45125471Y-87018554D01*
X45147993Y-87010496D01*
X45171197Y-87004684D01*
X45194858Y-87001174D01*
X45218750Y-87000000D01*
X45706250Y-87000000D01*
X45730142Y-87001174D01*
G37*
G36*
X47605142Y-87001174D02*
G01*
X47628803Y-87004684D01*
X47652007Y-87010496D01*
X47674529Y-87018554D01*
X47696153Y-87028782D01*
X47716670Y-87041079D01*
X47735883Y-87055329D01*
X47753607Y-87071393D01*
X47769671Y-87089117D01*
X47783921Y-87108330D01*
X47796218Y-87128847D01*
X47806446Y-87150471D01*
X47814504Y-87172993D01*
X47820316Y-87196197D01*
X47823826Y-87219858D01*
X47825000Y-87243750D01*
X47825000Y-88156250D01*
X47823826Y-88180142D01*
X47820316Y-88203803D01*
X47814504Y-88227007D01*
X47806446Y-88249529D01*
X47796218Y-88271153D01*
X47783921Y-88291670D01*
X47769671Y-88310883D01*
X47753607Y-88328607D01*
X47735883Y-88344671D01*
X47716670Y-88358921D01*
X47696153Y-88371218D01*
X47674529Y-88381446D01*
X47652007Y-88389504D01*
X47628803Y-88395316D01*
X47605142Y-88398826D01*
X47581250Y-88400000D01*
X47093750Y-88400000D01*
X47069858Y-88398826D01*
X47046197Y-88395316D01*
X47022993Y-88389504D01*
X47000471Y-88381446D01*
X46978847Y-88371218D01*
X46958330Y-88358921D01*
X46939117Y-88344671D01*
X46921393Y-88328607D01*
X46905329Y-88310883D01*
X46891079Y-88291670D01*
X46878782Y-88271153D01*
X46868554Y-88249529D01*
X46860496Y-88227007D01*
X46854684Y-88203803D01*
X46851174Y-88180142D01*
X46850000Y-88156250D01*
X46850000Y-87243750D01*
X46851174Y-87219858D01*
X46854684Y-87196197D01*
X46860496Y-87172993D01*
X46868554Y-87150471D01*
X46878782Y-87128847D01*
X46891079Y-87108330D01*
X46905329Y-87089117D01*
X46921393Y-87071393D01*
X46939117Y-87055329D01*
X46958330Y-87041079D01*
X46978847Y-87028782D01*
X47000471Y-87018554D01*
X47022993Y-87010496D01*
X47046197Y-87004684D01*
X47069858Y-87001174D01*
X47093750Y-87000000D01*
X47581250Y-87000000D01*
X47605142Y-87001174D01*
G37*
M02*
