G04 #@! TF.GenerationSoftware,KiCad,Pcbnew,(5.1.5)-3*
G04 #@! TF.CreationDate,2021-11-23T22:27:58-06:00*
G04 #@! TF.ProjectId,Dashboard,44617368-626f-4617-9264-2e6b69636164,rev?*
G04 #@! TF.SameCoordinates,Original*
G04 #@! TF.FileFunction,Copper,L2,Bot*
G04 #@! TF.FilePolarity,Positive*
%FSLAX46Y46*%
G04 Gerber Fmt 4.6, Leading zero omitted, Abs format (unit mm)*
G04 Created by KiCad (PCBNEW (5.1.5)-3) date 2021-11-23 22:27:58*
%MOMM*%
%LPD*%
G04 APERTURE LIST*
%ADD10C,1.700000*%
%ADD11O,1.000000X1.800000*%
%ADD12C,2.032000*%
%ADD13C,2.000000*%
%ADD14C,1.500000*%
%ADD15C,0.100000*%
%ADD16R,0.558800X5.410200*%
%ADD17O,1.700000X1.700000*%
%ADD18R,1.700000X1.700000*%
%ADD19C,2.006600*%
%ADD20C,1.950000*%
%ADD21O,1.900000X1.200000*%
%ADD22C,1.450000*%
%ADD23C,0.600000*%
%ADD24C,0.250000*%
%ADD25C,0.500000*%
%ADD26C,1.000000*%
%ADD27C,5.000000*%
%ADD28C,0.254000*%
G04 APERTURE END LIST*
D10*
X202500000Y-159400000D03*
X202500000Y-156400000D03*
X34900000Y-133800000D03*
X34900000Y-136800000D03*
X34900000Y-139800000D03*
X34900000Y-130800000D03*
X176991000Y-58500000D03*
X173991000Y-58500000D03*
X170991000Y-58500000D03*
X179991000Y-58500000D03*
D11*
X124190000Y-66700000D03*
X126730000Y-66700000D03*
X129270000Y-66700000D03*
X131810000Y-66700000D03*
D12*
X164298000Y-143600000D03*
X159599000Y-143600000D03*
X154900000Y-143600000D03*
D13*
X95680000Y-82800000D03*
X98220000Y-82800000D03*
X100760000Y-82800000D03*
X103300000Y-82800000D03*
X103300000Y-65020000D03*
X95680000Y-65020000D03*
D14*
X35000000Y-102700000D03*
X35000000Y-105700000D03*
X35000000Y-108700000D03*
X35000000Y-111700000D03*
X35000000Y-114700000D03*
X38000000Y-102700000D03*
X38000000Y-105700000D03*
X38000000Y-108700000D03*
X38000000Y-111700000D03*
G04 #@! TA.AperFunction,ComponentPad*
D15*
G36*
X38524504Y-113951204D02*
G01*
X38548773Y-113954804D01*
X38572571Y-113960765D01*
X38595671Y-113969030D01*
X38617849Y-113979520D01*
X38638893Y-113992133D01*
X38658598Y-114006747D01*
X38676777Y-114023223D01*
X38693253Y-114041402D01*
X38707867Y-114061107D01*
X38720480Y-114082151D01*
X38730970Y-114104329D01*
X38739235Y-114127429D01*
X38745196Y-114151227D01*
X38748796Y-114175496D01*
X38750000Y-114200000D01*
X38750000Y-115200000D01*
X38748796Y-115224504D01*
X38745196Y-115248773D01*
X38739235Y-115272571D01*
X38730970Y-115295671D01*
X38720480Y-115317849D01*
X38707867Y-115338893D01*
X38693253Y-115358598D01*
X38676777Y-115376777D01*
X38658598Y-115393253D01*
X38638893Y-115407867D01*
X38617849Y-115420480D01*
X38595671Y-115430970D01*
X38572571Y-115439235D01*
X38548773Y-115445196D01*
X38524504Y-115448796D01*
X38500000Y-115450000D01*
X37500000Y-115450000D01*
X37475496Y-115448796D01*
X37451227Y-115445196D01*
X37427429Y-115439235D01*
X37404329Y-115430970D01*
X37382151Y-115420480D01*
X37361107Y-115407867D01*
X37341402Y-115393253D01*
X37323223Y-115376777D01*
X37306747Y-115358598D01*
X37292133Y-115338893D01*
X37279520Y-115317849D01*
X37269030Y-115295671D01*
X37260765Y-115272571D01*
X37254804Y-115248773D01*
X37251204Y-115224504D01*
X37250000Y-115200000D01*
X37250000Y-114200000D01*
X37251204Y-114175496D01*
X37254804Y-114151227D01*
X37260765Y-114127429D01*
X37269030Y-114104329D01*
X37279520Y-114082151D01*
X37292133Y-114061107D01*
X37306747Y-114041402D01*
X37323223Y-114023223D01*
X37341402Y-114006747D01*
X37361107Y-113992133D01*
X37382151Y-113979520D01*
X37404329Y-113969030D01*
X37427429Y-113960765D01*
X37451227Y-113954804D01*
X37475496Y-113951204D01*
X37500000Y-113950000D01*
X38500000Y-113950000D01*
X38524504Y-113951204D01*
G37*
G04 #@! TD.AperFunction*
D10*
X100990000Y-58500000D03*
X97990000Y-58500000D03*
D16*
X133650000Y-85600000D03*
X127401600Y-85600000D03*
X133650000Y-71700000D03*
X127401600Y-71700000D03*
D17*
X59840000Y-140100000D03*
D18*
X57300000Y-140100000D03*
D17*
X80300000Y-127020000D03*
X80300000Y-124480000D03*
X80300000Y-121940000D03*
D18*
X80300000Y-119400000D03*
X113550000Y-134500000D03*
D17*
X113550000Y-136890000D03*
X111010000Y-134350000D03*
X111010000Y-136890000D03*
X108470000Y-134350000D03*
X108470000Y-136890000D03*
X105930000Y-134350000D03*
X105930000Y-136890000D03*
D19*
X156970400Y-121285000D03*
X162288414Y-126857158D03*
X167407161Y-131975905D03*
X162431256Y-134848744D03*
X156685577Y-134848744D03*
X151709672Y-131975905D03*
X148836833Y-126999999D03*
X148836833Y-121254321D03*
X151709672Y-116278416D03*
X156685577Y-113405577D03*
X162431256Y-113405577D03*
X167407161Y-116278416D03*
X170280000Y-121254321D03*
X170280000Y-126999999D03*
D10*
X202500000Y-118300000D03*
X202500000Y-115300000D03*
X87490000Y-58500000D03*
X84490000Y-58500000D03*
D20*
X154541000Y-63359000D03*
X154541000Y-59359000D03*
X156311000Y-61589000D03*
X156311000Y-65129000D03*
X152771000Y-61589000D03*
X152771000Y-65129000D03*
D17*
X72350000Y-100870000D03*
X72350000Y-103410000D03*
X72350000Y-105950000D03*
D18*
X72350000Y-108490000D03*
D11*
X124190000Y-80600000D03*
X126730000Y-80600000D03*
X129270000Y-80600000D03*
X131810000Y-80600000D03*
G04 #@! TA.AperFunction,SMDPad,CuDef*
D15*
G36*
X92830142Y-124301174D02*
G01*
X92853803Y-124304684D01*
X92877007Y-124310496D01*
X92899529Y-124318554D01*
X92921153Y-124328782D01*
X92941670Y-124341079D01*
X92960883Y-124355329D01*
X92978607Y-124371393D01*
X92994671Y-124389117D01*
X93008921Y-124408330D01*
X93021218Y-124428847D01*
X93031446Y-124450471D01*
X93039504Y-124472993D01*
X93045316Y-124496197D01*
X93048826Y-124519858D01*
X93050000Y-124543750D01*
X93050000Y-125456250D01*
X93048826Y-125480142D01*
X93045316Y-125503803D01*
X93039504Y-125527007D01*
X93031446Y-125549529D01*
X93021218Y-125571153D01*
X93008921Y-125591670D01*
X92994671Y-125610883D01*
X92978607Y-125628607D01*
X92960883Y-125644671D01*
X92941670Y-125658921D01*
X92921153Y-125671218D01*
X92899529Y-125681446D01*
X92877007Y-125689504D01*
X92853803Y-125695316D01*
X92830142Y-125698826D01*
X92806250Y-125700000D01*
X92318750Y-125700000D01*
X92294858Y-125698826D01*
X92271197Y-125695316D01*
X92247993Y-125689504D01*
X92225471Y-125681446D01*
X92203847Y-125671218D01*
X92183330Y-125658921D01*
X92164117Y-125644671D01*
X92146393Y-125628607D01*
X92130329Y-125610883D01*
X92116079Y-125591670D01*
X92103782Y-125571153D01*
X92093554Y-125549529D01*
X92085496Y-125527007D01*
X92079684Y-125503803D01*
X92076174Y-125480142D01*
X92075000Y-125456250D01*
X92075000Y-124543750D01*
X92076174Y-124519858D01*
X92079684Y-124496197D01*
X92085496Y-124472993D01*
X92093554Y-124450471D01*
X92103782Y-124428847D01*
X92116079Y-124408330D01*
X92130329Y-124389117D01*
X92146393Y-124371393D01*
X92164117Y-124355329D01*
X92183330Y-124341079D01*
X92203847Y-124328782D01*
X92225471Y-124318554D01*
X92247993Y-124310496D01*
X92271197Y-124304684D01*
X92294858Y-124301174D01*
X92318750Y-124300000D01*
X92806250Y-124300000D01*
X92830142Y-124301174D01*
G37*
G04 #@! TD.AperFunction*
G04 #@! TA.AperFunction,SMDPad,CuDef*
G36*
X94705142Y-124301174D02*
G01*
X94728803Y-124304684D01*
X94752007Y-124310496D01*
X94774529Y-124318554D01*
X94796153Y-124328782D01*
X94816670Y-124341079D01*
X94835883Y-124355329D01*
X94853607Y-124371393D01*
X94869671Y-124389117D01*
X94883921Y-124408330D01*
X94896218Y-124428847D01*
X94906446Y-124450471D01*
X94914504Y-124472993D01*
X94920316Y-124496197D01*
X94923826Y-124519858D01*
X94925000Y-124543750D01*
X94925000Y-125456250D01*
X94923826Y-125480142D01*
X94920316Y-125503803D01*
X94914504Y-125527007D01*
X94906446Y-125549529D01*
X94896218Y-125571153D01*
X94883921Y-125591670D01*
X94869671Y-125610883D01*
X94853607Y-125628607D01*
X94835883Y-125644671D01*
X94816670Y-125658921D01*
X94796153Y-125671218D01*
X94774529Y-125681446D01*
X94752007Y-125689504D01*
X94728803Y-125695316D01*
X94705142Y-125698826D01*
X94681250Y-125700000D01*
X94193750Y-125700000D01*
X94169858Y-125698826D01*
X94146197Y-125695316D01*
X94122993Y-125689504D01*
X94100471Y-125681446D01*
X94078847Y-125671218D01*
X94058330Y-125658921D01*
X94039117Y-125644671D01*
X94021393Y-125628607D01*
X94005329Y-125610883D01*
X93991079Y-125591670D01*
X93978782Y-125571153D01*
X93968554Y-125549529D01*
X93960496Y-125527007D01*
X93954684Y-125503803D01*
X93951174Y-125480142D01*
X93950000Y-125456250D01*
X93950000Y-124543750D01*
X93951174Y-124519858D01*
X93954684Y-124496197D01*
X93960496Y-124472993D01*
X93968554Y-124450471D01*
X93978782Y-124428847D01*
X93991079Y-124408330D01*
X94005329Y-124389117D01*
X94021393Y-124371393D01*
X94039117Y-124355329D01*
X94058330Y-124341079D01*
X94078847Y-124328782D01*
X94100471Y-124318554D01*
X94122993Y-124310496D01*
X94146197Y-124304684D01*
X94169858Y-124301174D01*
X94193750Y-124300000D01*
X94681250Y-124300000D01*
X94705142Y-124301174D01*
G37*
G04 #@! TD.AperFunction*
D13*
X82180000Y-82800000D03*
X84720000Y-82800000D03*
X87260000Y-82800000D03*
X89800000Y-82800000D03*
X89800000Y-65020000D03*
X82180000Y-65020000D03*
X68680000Y-82800000D03*
X71220000Y-82800000D03*
X73760000Y-82800000D03*
X76300000Y-82800000D03*
X76300000Y-65020000D03*
X68680000Y-65020000D03*
X55180000Y-82800000D03*
X57720000Y-82800000D03*
X60260000Y-82800000D03*
X62800000Y-82800000D03*
X62800000Y-65020000D03*
X55180000Y-65020000D03*
X41680000Y-82800000D03*
X44220000Y-82800000D03*
X46760000Y-82800000D03*
X49300000Y-82800000D03*
X49300000Y-65020000D03*
X41680000Y-65020000D03*
D17*
X170621000Y-83229000D03*
D18*
X170621000Y-80689000D03*
D17*
X180131000Y-66389000D03*
D18*
X177591000Y-66389000D03*
D17*
X43000000Y-131000000D03*
D18*
X43000000Y-133540000D03*
D21*
X205597500Y-80860000D03*
X205597500Y-87860000D03*
D22*
X202897500Y-81860000D03*
X202897500Y-86860000D03*
D10*
X34900000Y-154500000D03*
X34900000Y-157500000D03*
X34900000Y-160500000D03*
X34900000Y-151500000D03*
X132000000Y-58500000D03*
X129000000Y-58500000D03*
X66783000Y-170043000D03*
X69783000Y-170043000D03*
X80483000Y-170043000D03*
X83483000Y-170043000D03*
X94183000Y-170043000D03*
X97183000Y-170043000D03*
X107883000Y-170043000D03*
X110883000Y-170043000D03*
X184400000Y-170000000D03*
X187400000Y-170000000D03*
X190400000Y-170000000D03*
X167300000Y-170000000D03*
X170300000Y-170000000D03*
X173300000Y-170000000D03*
X150200000Y-170000000D03*
X153200000Y-170000000D03*
X156200000Y-170000000D03*
X133100000Y-170000000D03*
X136100000Y-170000000D03*
X139100000Y-170000000D03*
X73990000Y-58500000D03*
X70990000Y-58500000D03*
X60490000Y-58500000D03*
X57490000Y-58500000D03*
X46990000Y-58500000D03*
X43990000Y-58500000D03*
X202500000Y-142700000D03*
X202500000Y-145700000D03*
G04 #@! TA.AperFunction,SMDPad,CuDef*
D15*
G36*
X194480142Y-84988674D02*
G01*
X194503803Y-84992184D01*
X194527007Y-84997996D01*
X194549529Y-85006054D01*
X194571153Y-85016282D01*
X194591670Y-85028579D01*
X194610883Y-85042829D01*
X194628607Y-85058893D01*
X194644671Y-85076617D01*
X194658921Y-85095830D01*
X194671218Y-85116347D01*
X194681446Y-85137971D01*
X194689504Y-85160493D01*
X194695316Y-85183697D01*
X194698826Y-85207358D01*
X194700000Y-85231250D01*
X194700000Y-85718750D01*
X194698826Y-85742642D01*
X194695316Y-85766303D01*
X194689504Y-85789507D01*
X194681446Y-85812029D01*
X194671218Y-85833653D01*
X194658921Y-85854170D01*
X194644671Y-85873383D01*
X194628607Y-85891107D01*
X194610883Y-85907171D01*
X194591670Y-85921421D01*
X194571153Y-85933718D01*
X194549529Y-85943946D01*
X194527007Y-85952004D01*
X194503803Y-85957816D01*
X194480142Y-85961326D01*
X194456250Y-85962500D01*
X193543750Y-85962500D01*
X193519858Y-85961326D01*
X193496197Y-85957816D01*
X193472993Y-85952004D01*
X193450471Y-85943946D01*
X193428847Y-85933718D01*
X193408330Y-85921421D01*
X193389117Y-85907171D01*
X193371393Y-85891107D01*
X193355329Y-85873383D01*
X193341079Y-85854170D01*
X193328782Y-85833653D01*
X193318554Y-85812029D01*
X193310496Y-85789507D01*
X193304684Y-85766303D01*
X193301174Y-85742642D01*
X193300000Y-85718750D01*
X193300000Y-85231250D01*
X193301174Y-85207358D01*
X193304684Y-85183697D01*
X193310496Y-85160493D01*
X193318554Y-85137971D01*
X193328782Y-85116347D01*
X193341079Y-85095830D01*
X193355329Y-85076617D01*
X193371393Y-85058893D01*
X193389117Y-85042829D01*
X193408330Y-85028579D01*
X193428847Y-85016282D01*
X193450471Y-85006054D01*
X193472993Y-84997996D01*
X193496197Y-84992184D01*
X193519858Y-84988674D01*
X193543750Y-84987500D01*
X194456250Y-84987500D01*
X194480142Y-84988674D01*
G37*
G04 #@! TD.AperFunction*
G04 #@! TA.AperFunction,SMDPad,CuDef*
G36*
X194480142Y-83113674D02*
G01*
X194503803Y-83117184D01*
X194527007Y-83122996D01*
X194549529Y-83131054D01*
X194571153Y-83141282D01*
X194591670Y-83153579D01*
X194610883Y-83167829D01*
X194628607Y-83183893D01*
X194644671Y-83201617D01*
X194658921Y-83220830D01*
X194671218Y-83241347D01*
X194681446Y-83262971D01*
X194689504Y-83285493D01*
X194695316Y-83308697D01*
X194698826Y-83332358D01*
X194700000Y-83356250D01*
X194700000Y-83843750D01*
X194698826Y-83867642D01*
X194695316Y-83891303D01*
X194689504Y-83914507D01*
X194681446Y-83937029D01*
X194671218Y-83958653D01*
X194658921Y-83979170D01*
X194644671Y-83998383D01*
X194628607Y-84016107D01*
X194610883Y-84032171D01*
X194591670Y-84046421D01*
X194571153Y-84058718D01*
X194549529Y-84068946D01*
X194527007Y-84077004D01*
X194503803Y-84082816D01*
X194480142Y-84086326D01*
X194456250Y-84087500D01*
X193543750Y-84087500D01*
X193519858Y-84086326D01*
X193496197Y-84082816D01*
X193472993Y-84077004D01*
X193450471Y-84068946D01*
X193428847Y-84058718D01*
X193408330Y-84046421D01*
X193389117Y-84032171D01*
X193371393Y-84016107D01*
X193355329Y-83998383D01*
X193341079Y-83979170D01*
X193328782Y-83958653D01*
X193318554Y-83937029D01*
X193310496Y-83914507D01*
X193304684Y-83891303D01*
X193301174Y-83867642D01*
X193300000Y-83843750D01*
X193300000Y-83356250D01*
X193301174Y-83332358D01*
X193304684Y-83308697D01*
X193310496Y-83285493D01*
X193318554Y-83262971D01*
X193328782Y-83241347D01*
X193341079Y-83220830D01*
X193355329Y-83201617D01*
X193371393Y-83183893D01*
X193389117Y-83167829D01*
X193408330Y-83153579D01*
X193428847Y-83141282D01*
X193450471Y-83131054D01*
X193472993Y-83122996D01*
X193496197Y-83117184D01*
X193519858Y-83113674D01*
X193543750Y-83112500D01*
X194456250Y-83112500D01*
X194480142Y-83113674D01*
G37*
G04 #@! TD.AperFunction*
G04 #@! TA.AperFunction,SMDPad,CuDef*
G36*
X197780142Y-84988674D02*
G01*
X197803803Y-84992184D01*
X197827007Y-84997996D01*
X197849529Y-85006054D01*
X197871153Y-85016282D01*
X197891670Y-85028579D01*
X197910883Y-85042829D01*
X197928607Y-85058893D01*
X197944671Y-85076617D01*
X197958921Y-85095830D01*
X197971218Y-85116347D01*
X197981446Y-85137971D01*
X197989504Y-85160493D01*
X197995316Y-85183697D01*
X197998826Y-85207358D01*
X198000000Y-85231250D01*
X198000000Y-85718750D01*
X197998826Y-85742642D01*
X197995316Y-85766303D01*
X197989504Y-85789507D01*
X197981446Y-85812029D01*
X197971218Y-85833653D01*
X197958921Y-85854170D01*
X197944671Y-85873383D01*
X197928607Y-85891107D01*
X197910883Y-85907171D01*
X197891670Y-85921421D01*
X197871153Y-85933718D01*
X197849529Y-85943946D01*
X197827007Y-85952004D01*
X197803803Y-85957816D01*
X197780142Y-85961326D01*
X197756250Y-85962500D01*
X196843750Y-85962500D01*
X196819858Y-85961326D01*
X196796197Y-85957816D01*
X196772993Y-85952004D01*
X196750471Y-85943946D01*
X196728847Y-85933718D01*
X196708330Y-85921421D01*
X196689117Y-85907171D01*
X196671393Y-85891107D01*
X196655329Y-85873383D01*
X196641079Y-85854170D01*
X196628782Y-85833653D01*
X196618554Y-85812029D01*
X196610496Y-85789507D01*
X196604684Y-85766303D01*
X196601174Y-85742642D01*
X196600000Y-85718750D01*
X196600000Y-85231250D01*
X196601174Y-85207358D01*
X196604684Y-85183697D01*
X196610496Y-85160493D01*
X196618554Y-85137971D01*
X196628782Y-85116347D01*
X196641079Y-85095830D01*
X196655329Y-85076617D01*
X196671393Y-85058893D01*
X196689117Y-85042829D01*
X196708330Y-85028579D01*
X196728847Y-85016282D01*
X196750471Y-85006054D01*
X196772993Y-84997996D01*
X196796197Y-84992184D01*
X196819858Y-84988674D01*
X196843750Y-84987500D01*
X197756250Y-84987500D01*
X197780142Y-84988674D01*
G37*
G04 #@! TD.AperFunction*
G04 #@! TA.AperFunction,SMDPad,CuDef*
G36*
X197780142Y-83113674D02*
G01*
X197803803Y-83117184D01*
X197827007Y-83122996D01*
X197849529Y-83131054D01*
X197871153Y-83141282D01*
X197891670Y-83153579D01*
X197910883Y-83167829D01*
X197928607Y-83183893D01*
X197944671Y-83201617D01*
X197958921Y-83220830D01*
X197971218Y-83241347D01*
X197981446Y-83262971D01*
X197989504Y-83285493D01*
X197995316Y-83308697D01*
X197998826Y-83332358D01*
X198000000Y-83356250D01*
X198000000Y-83843750D01*
X197998826Y-83867642D01*
X197995316Y-83891303D01*
X197989504Y-83914507D01*
X197981446Y-83937029D01*
X197971218Y-83958653D01*
X197958921Y-83979170D01*
X197944671Y-83998383D01*
X197928607Y-84016107D01*
X197910883Y-84032171D01*
X197891670Y-84046421D01*
X197871153Y-84058718D01*
X197849529Y-84068946D01*
X197827007Y-84077004D01*
X197803803Y-84082816D01*
X197780142Y-84086326D01*
X197756250Y-84087500D01*
X196843750Y-84087500D01*
X196819858Y-84086326D01*
X196796197Y-84082816D01*
X196772993Y-84077004D01*
X196750471Y-84068946D01*
X196728847Y-84058718D01*
X196708330Y-84046421D01*
X196689117Y-84032171D01*
X196671393Y-84016107D01*
X196655329Y-83998383D01*
X196641079Y-83979170D01*
X196628782Y-83958653D01*
X196618554Y-83937029D01*
X196610496Y-83914507D01*
X196604684Y-83891303D01*
X196601174Y-83867642D01*
X196600000Y-83843750D01*
X196600000Y-83356250D01*
X196601174Y-83332358D01*
X196604684Y-83308697D01*
X196610496Y-83285493D01*
X196618554Y-83262971D01*
X196628782Y-83241347D01*
X196641079Y-83220830D01*
X196655329Y-83201617D01*
X196671393Y-83183893D01*
X196689117Y-83167829D01*
X196708330Y-83153579D01*
X196728847Y-83141282D01*
X196750471Y-83131054D01*
X196772993Y-83122996D01*
X196796197Y-83117184D01*
X196819858Y-83113674D01*
X196843750Y-83112500D01*
X197756250Y-83112500D01*
X197780142Y-83113674D01*
G37*
G04 #@! TD.AperFunction*
G04 #@! TA.AperFunction,SMDPad,CuDef*
G36*
X113805142Y-84001174D02*
G01*
X113828803Y-84004684D01*
X113852007Y-84010496D01*
X113874529Y-84018554D01*
X113896153Y-84028782D01*
X113916670Y-84041079D01*
X113935883Y-84055329D01*
X113953607Y-84071393D01*
X113969671Y-84089117D01*
X113983921Y-84108330D01*
X113996218Y-84128847D01*
X114006446Y-84150471D01*
X114014504Y-84172993D01*
X114020316Y-84196197D01*
X114023826Y-84219858D01*
X114025000Y-84243750D01*
X114025000Y-85156250D01*
X114023826Y-85180142D01*
X114020316Y-85203803D01*
X114014504Y-85227007D01*
X114006446Y-85249529D01*
X113996218Y-85271153D01*
X113983921Y-85291670D01*
X113969671Y-85310883D01*
X113953607Y-85328607D01*
X113935883Y-85344671D01*
X113916670Y-85358921D01*
X113896153Y-85371218D01*
X113874529Y-85381446D01*
X113852007Y-85389504D01*
X113828803Y-85395316D01*
X113805142Y-85398826D01*
X113781250Y-85400000D01*
X113293750Y-85400000D01*
X113269858Y-85398826D01*
X113246197Y-85395316D01*
X113222993Y-85389504D01*
X113200471Y-85381446D01*
X113178847Y-85371218D01*
X113158330Y-85358921D01*
X113139117Y-85344671D01*
X113121393Y-85328607D01*
X113105329Y-85310883D01*
X113091079Y-85291670D01*
X113078782Y-85271153D01*
X113068554Y-85249529D01*
X113060496Y-85227007D01*
X113054684Y-85203803D01*
X113051174Y-85180142D01*
X113050000Y-85156250D01*
X113050000Y-84243750D01*
X113051174Y-84219858D01*
X113054684Y-84196197D01*
X113060496Y-84172993D01*
X113068554Y-84150471D01*
X113078782Y-84128847D01*
X113091079Y-84108330D01*
X113105329Y-84089117D01*
X113121393Y-84071393D01*
X113139117Y-84055329D01*
X113158330Y-84041079D01*
X113178847Y-84028782D01*
X113200471Y-84018554D01*
X113222993Y-84010496D01*
X113246197Y-84004684D01*
X113269858Y-84001174D01*
X113293750Y-84000000D01*
X113781250Y-84000000D01*
X113805142Y-84001174D01*
G37*
G04 #@! TD.AperFunction*
G04 #@! TA.AperFunction,SMDPad,CuDef*
G36*
X111930142Y-84001174D02*
G01*
X111953803Y-84004684D01*
X111977007Y-84010496D01*
X111999529Y-84018554D01*
X112021153Y-84028782D01*
X112041670Y-84041079D01*
X112060883Y-84055329D01*
X112078607Y-84071393D01*
X112094671Y-84089117D01*
X112108921Y-84108330D01*
X112121218Y-84128847D01*
X112131446Y-84150471D01*
X112139504Y-84172993D01*
X112145316Y-84196197D01*
X112148826Y-84219858D01*
X112150000Y-84243750D01*
X112150000Y-85156250D01*
X112148826Y-85180142D01*
X112145316Y-85203803D01*
X112139504Y-85227007D01*
X112131446Y-85249529D01*
X112121218Y-85271153D01*
X112108921Y-85291670D01*
X112094671Y-85310883D01*
X112078607Y-85328607D01*
X112060883Y-85344671D01*
X112041670Y-85358921D01*
X112021153Y-85371218D01*
X111999529Y-85381446D01*
X111977007Y-85389504D01*
X111953803Y-85395316D01*
X111930142Y-85398826D01*
X111906250Y-85400000D01*
X111418750Y-85400000D01*
X111394858Y-85398826D01*
X111371197Y-85395316D01*
X111347993Y-85389504D01*
X111325471Y-85381446D01*
X111303847Y-85371218D01*
X111283330Y-85358921D01*
X111264117Y-85344671D01*
X111246393Y-85328607D01*
X111230329Y-85310883D01*
X111216079Y-85291670D01*
X111203782Y-85271153D01*
X111193554Y-85249529D01*
X111185496Y-85227007D01*
X111179684Y-85203803D01*
X111176174Y-85180142D01*
X111175000Y-85156250D01*
X111175000Y-84243750D01*
X111176174Y-84219858D01*
X111179684Y-84196197D01*
X111185496Y-84172993D01*
X111193554Y-84150471D01*
X111203782Y-84128847D01*
X111216079Y-84108330D01*
X111230329Y-84089117D01*
X111246393Y-84071393D01*
X111264117Y-84055329D01*
X111283330Y-84041079D01*
X111303847Y-84028782D01*
X111325471Y-84018554D01*
X111347993Y-84010496D01*
X111371197Y-84004684D01*
X111394858Y-84001174D01*
X111418750Y-84000000D01*
X111906250Y-84000000D01*
X111930142Y-84001174D01*
G37*
G04 #@! TD.AperFunction*
G04 #@! TA.AperFunction,SMDPad,CuDef*
G36*
X113080142Y-80651174D02*
G01*
X113103803Y-80654684D01*
X113127007Y-80660496D01*
X113149529Y-80668554D01*
X113171153Y-80678782D01*
X113191670Y-80691079D01*
X113210883Y-80705329D01*
X113228607Y-80721393D01*
X113244671Y-80739117D01*
X113258921Y-80758330D01*
X113271218Y-80778847D01*
X113281446Y-80800471D01*
X113289504Y-80822993D01*
X113295316Y-80846197D01*
X113298826Y-80869858D01*
X113300000Y-80893750D01*
X113300000Y-81381250D01*
X113298826Y-81405142D01*
X113295316Y-81428803D01*
X113289504Y-81452007D01*
X113281446Y-81474529D01*
X113271218Y-81496153D01*
X113258921Y-81516670D01*
X113244671Y-81535883D01*
X113228607Y-81553607D01*
X113210883Y-81569671D01*
X113191670Y-81583921D01*
X113171153Y-81596218D01*
X113149529Y-81606446D01*
X113127007Y-81614504D01*
X113103803Y-81620316D01*
X113080142Y-81623826D01*
X113056250Y-81625000D01*
X112143750Y-81625000D01*
X112119858Y-81623826D01*
X112096197Y-81620316D01*
X112072993Y-81614504D01*
X112050471Y-81606446D01*
X112028847Y-81596218D01*
X112008330Y-81583921D01*
X111989117Y-81569671D01*
X111971393Y-81553607D01*
X111955329Y-81535883D01*
X111941079Y-81516670D01*
X111928782Y-81496153D01*
X111918554Y-81474529D01*
X111910496Y-81452007D01*
X111904684Y-81428803D01*
X111901174Y-81405142D01*
X111900000Y-81381250D01*
X111900000Y-80893750D01*
X111901174Y-80869858D01*
X111904684Y-80846197D01*
X111910496Y-80822993D01*
X111918554Y-80800471D01*
X111928782Y-80778847D01*
X111941079Y-80758330D01*
X111955329Y-80739117D01*
X111971393Y-80721393D01*
X111989117Y-80705329D01*
X112008330Y-80691079D01*
X112028847Y-80678782D01*
X112050471Y-80668554D01*
X112072993Y-80660496D01*
X112096197Y-80654684D01*
X112119858Y-80651174D01*
X112143750Y-80650000D01*
X113056250Y-80650000D01*
X113080142Y-80651174D01*
G37*
G04 #@! TD.AperFunction*
G04 #@! TA.AperFunction,SMDPad,CuDef*
G36*
X113080142Y-78776174D02*
G01*
X113103803Y-78779684D01*
X113127007Y-78785496D01*
X113149529Y-78793554D01*
X113171153Y-78803782D01*
X113191670Y-78816079D01*
X113210883Y-78830329D01*
X113228607Y-78846393D01*
X113244671Y-78864117D01*
X113258921Y-78883330D01*
X113271218Y-78903847D01*
X113281446Y-78925471D01*
X113289504Y-78947993D01*
X113295316Y-78971197D01*
X113298826Y-78994858D01*
X113300000Y-79018750D01*
X113300000Y-79506250D01*
X113298826Y-79530142D01*
X113295316Y-79553803D01*
X113289504Y-79577007D01*
X113281446Y-79599529D01*
X113271218Y-79621153D01*
X113258921Y-79641670D01*
X113244671Y-79660883D01*
X113228607Y-79678607D01*
X113210883Y-79694671D01*
X113191670Y-79708921D01*
X113171153Y-79721218D01*
X113149529Y-79731446D01*
X113127007Y-79739504D01*
X113103803Y-79745316D01*
X113080142Y-79748826D01*
X113056250Y-79750000D01*
X112143750Y-79750000D01*
X112119858Y-79748826D01*
X112096197Y-79745316D01*
X112072993Y-79739504D01*
X112050471Y-79731446D01*
X112028847Y-79721218D01*
X112008330Y-79708921D01*
X111989117Y-79694671D01*
X111971393Y-79678607D01*
X111955329Y-79660883D01*
X111941079Y-79641670D01*
X111928782Y-79621153D01*
X111918554Y-79599529D01*
X111910496Y-79577007D01*
X111904684Y-79553803D01*
X111901174Y-79530142D01*
X111900000Y-79506250D01*
X111900000Y-79018750D01*
X111901174Y-78994858D01*
X111904684Y-78971197D01*
X111910496Y-78947993D01*
X111918554Y-78925471D01*
X111928782Y-78903847D01*
X111941079Y-78883330D01*
X111955329Y-78864117D01*
X111971393Y-78846393D01*
X111989117Y-78830329D01*
X112008330Y-78816079D01*
X112028847Y-78803782D01*
X112050471Y-78793554D01*
X112072993Y-78785496D01*
X112096197Y-78779684D01*
X112119858Y-78776174D01*
X112143750Y-78775000D01*
X113056250Y-78775000D01*
X113080142Y-78776174D01*
G37*
G04 #@! TD.AperFunction*
G04 #@! TA.AperFunction,SMDPad,CuDef*
G36*
X92280142Y-113376174D02*
G01*
X92303803Y-113379684D01*
X92327007Y-113385496D01*
X92349529Y-113393554D01*
X92371153Y-113403782D01*
X92391670Y-113416079D01*
X92410883Y-113430329D01*
X92428607Y-113446393D01*
X92444671Y-113464117D01*
X92458921Y-113483330D01*
X92471218Y-113503847D01*
X92481446Y-113525471D01*
X92489504Y-113547993D01*
X92495316Y-113571197D01*
X92498826Y-113594858D01*
X92500000Y-113618750D01*
X92500000Y-114106250D01*
X92498826Y-114130142D01*
X92495316Y-114153803D01*
X92489504Y-114177007D01*
X92481446Y-114199529D01*
X92471218Y-114221153D01*
X92458921Y-114241670D01*
X92444671Y-114260883D01*
X92428607Y-114278607D01*
X92410883Y-114294671D01*
X92391670Y-114308921D01*
X92371153Y-114321218D01*
X92349529Y-114331446D01*
X92327007Y-114339504D01*
X92303803Y-114345316D01*
X92280142Y-114348826D01*
X92256250Y-114350000D01*
X91343750Y-114350000D01*
X91319858Y-114348826D01*
X91296197Y-114345316D01*
X91272993Y-114339504D01*
X91250471Y-114331446D01*
X91228847Y-114321218D01*
X91208330Y-114308921D01*
X91189117Y-114294671D01*
X91171393Y-114278607D01*
X91155329Y-114260883D01*
X91141079Y-114241670D01*
X91128782Y-114221153D01*
X91118554Y-114199529D01*
X91110496Y-114177007D01*
X91104684Y-114153803D01*
X91101174Y-114130142D01*
X91100000Y-114106250D01*
X91100000Y-113618750D01*
X91101174Y-113594858D01*
X91104684Y-113571197D01*
X91110496Y-113547993D01*
X91118554Y-113525471D01*
X91128782Y-113503847D01*
X91141079Y-113483330D01*
X91155329Y-113464117D01*
X91171393Y-113446393D01*
X91189117Y-113430329D01*
X91208330Y-113416079D01*
X91228847Y-113403782D01*
X91250471Y-113393554D01*
X91272993Y-113385496D01*
X91296197Y-113379684D01*
X91319858Y-113376174D01*
X91343750Y-113375000D01*
X92256250Y-113375000D01*
X92280142Y-113376174D01*
G37*
G04 #@! TD.AperFunction*
G04 #@! TA.AperFunction,SMDPad,CuDef*
G36*
X92280142Y-115251174D02*
G01*
X92303803Y-115254684D01*
X92327007Y-115260496D01*
X92349529Y-115268554D01*
X92371153Y-115278782D01*
X92391670Y-115291079D01*
X92410883Y-115305329D01*
X92428607Y-115321393D01*
X92444671Y-115339117D01*
X92458921Y-115358330D01*
X92471218Y-115378847D01*
X92481446Y-115400471D01*
X92489504Y-115422993D01*
X92495316Y-115446197D01*
X92498826Y-115469858D01*
X92500000Y-115493750D01*
X92500000Y-115981250D01*
X92498826Y-116005142D01*
X92495316Y-116028803D01*
X92489504Y-116052007D01*
X92481446Y-116074529D01*
X92471218Y-116096153D01*
X92458921Y-116116670D01*
X92444671Y-116135883D01*
X92428607Y-116153607D01*
X92410883Y-116169671D01*
X92391670Y-116183921D01*
X92371153Y-116196218D01*
X92349529Y-116206446D01*
X92327007Y-116214504D01*
X92303803Y-116220316D01*
X92280142Y-116223826D01*
X92256250Y-116225000D01*
X91343750Y-116225000D01*
X91319858Y-116223826D01*
X91296197Y-116220316D01*
X91272993Y-116214504D01*
X91250471Y-116206446D01*
X91228847Y-116196218D01*
X91208330Y-116183921D01*
X91189117Y-116169671D01*
X91171393Y-116153607D01*
X91155329Y-116135883D01*
X91141079Y-116116670D01*
X91128782Y-116096153D01*
X91118554Y-116074529D01*
X91110496Y-116052007D01*
X91104684Y-116028803D01*
X91101174Y-116005142D01*
X91100000Y-115981250D01*
X91100000Y-115493750D01*
X91101174Y-115469858D01*
X91104684Y-115446197D01*
X91110496Y-115422993D01*
X91118554Y-115400471D01*
X91128782Y-115378847D01*
X91141079Y-115358330D01*
X91155329Y-115339117D01*
X91171393Y-115321393D01*
X91189117Y-115305329D01*
X91208330Y-115291079D01*
X91228847Y-115278782D01*
X91250471Y-115268554D01*
X91272993Y-115260496D01*
X91296197Y-115254684D01*
X91319858Y-115251174D01*
X91343750Y-115250000D01*
X92256250Y-115250000D01*
X92280142Y-115251174D01*
G37*
G04 #@! TD.AperFunction*
G04 #@! TA.AperFunction,SMDPad,CuDef*
G36*
X86792642Y-113201174D02*
G01*
X86816303Y-113204684D01*
X86839507Y-113210496D01*
X86862029Y-113218554D01*
X86883653Y-113228782D01*
X86904170Y-113241079D01*
X86923383Y-113255329D01*
X86941107Y-113271393D01*
X86957171Y-113289117D01*
X86971421Y-113308330D01*
X86983718Y-113328847D01*
X86993946Y-113350471D01*
X87002004Y-113372993D01*
X87007816Y-113396197D01*
X87011326Y-113419858D01*
X87012500Y-113443750D01*
X87012500Y-114356250D01*
X87011326Y-114380142D01*
X87007816Y-114403803D01*
X87002004Y-114427007D01*
X86993946Y-114449529D01*
X86983718Y-114471153D01*
X86971421Y-114491670D01*
X86957171Y-114510883D01*
X86941107Y-114528607D01*
X86923383Y-114544671D01*
X86904170Y-114558921D01*
X86883653Y-114571218D01*
X86862029Y-114581446D01*
X86839507Y-114589504D01*
X86816303Y-114595316D01*
X86792642Y-114598826D01*
X86768750Y-114600000D01*
X86281250Y-114600000D01*
X86257358Y-114598826D01*
X86233697Y-114595316D01*
X86210493Y-114589504D01*
X86187971Y-114581446D01*
X86166347Y-114571218D01*
X86145830Y-114558921D01*
X86126617Y-114544671D01*
X86108893Y-114528607D01*
X86092829Y-114510883D01*
X86078579Y-114491670D01*
X86066282Y-114471153D01*
X86056054Y-114449529D01*
X86047996Y-114427007D01*
X86042184Y-114403803D01*
X86038674Y-114380142D01*
X86037500Y-114356250D01*
X86037500Y-113443750D01*
X86038674Y-113419858D01*
X86042184Y-113396197D01*
X86047996Y-113372993D01*
X86056054Y-113350471D01*
X86066282Y-113328847D01*
X86078579Y-113308330D01*
X86092829Y-113289117D01*
X86108893Y-113271393D01*
X86126617Y-113255329D01*
X86145830Y-113241079D01*
X86166347Y-113228782D01*
X86187971Y-113218554D01*
X86210493Y-113210496D01*
X86233697Y-113204684D01*
X86257358Y-113201174D01*
X86281250Y-113200000D01*
X86768750Y-113200000D01*
X86792642Y-113201174D01*
G37*
G04 #@! TD.AperFunction*
G04 #@! TA.AperFunction,SMDPad,CuDef*
G36*
X88667642Y-113201174D02*
G01*
X88691303Y-113204684D01*
X88714507Y-113210496D01*
X88737029Y-113218554D01*
X88758653Y-113228782D01*
X88779170Y-113241079D01*
X88798383Y-113255329D01*
X88816107Y-113271393D01*
X88832171Y-113289117D01*
X88846421Y-113308330D01*
X88858718Y-113328847D01*
X88868946Y-113350471D01*
X88877004Y-113372993D01*
X88882816Y-113396197D01*
X88886326Y-113419858D01*
X88887500Y-113443750D01*
X88887500Y-114356250D01*
X88886326Y-114380142D01*
X88882816Y-114403803D01*
X88877004Y-114427007D01*
X88868946Y-114449529D01*
X88858718Y-114471153D01*
X88846421Y-114491670D01*
X88832171Y-114510883D01*
X88816107Y-114528607D01*
X88798383Y-114544671D01*
X88779170Y-114558921D01*
X88758653Y-114571218D01*
X88737029Y-114581446D01*
X88714507Y-114589504D01*
X88691303Y-114595316D01*
X88667642Y-114598826D01*
X88643750Y-114600000D01*
X88156250Y-114600000D01*
X88132358Y-114598826D01*
X88108697Y-114595316D01*
X88085493Y-114589504D01*
X88062971Y-114581446D01*
X88041347Y-114571218D01*
X88020830Y-114558921D01*
X88001617Y-114544671D01*
X87983893Y-114528607D01*
X87967829Y-114510883D01*
X87953579Y-114491670D01*
X87941282Y-114471153D01*
X87931054Y-114449529D01*
X87922996Y-114427007D01*
X87917184Y-114403803D01*
X87913674Y-114380142D01*
X87912500Y-114356250D01*
X87912500Y-113443750D01*
X87913674Y-113419858D01*
X87917184Y-113396197D01*
X87922996Y-113372993D01*
X87931054Y-113350471D01*
X87941282Y-113328847D01*
X87953579Y-113308330D01*
X87967829Y-113289117D01*
X87983893Y-113271393D01*
X88001617Y-113255329D01*
X88020830Y-113241079D01*
X88041347Y-113228782D01*
X88062971Y-113218554D01*
X88085493Y-113210496D01*
X88108697Y-113204684D01*
X88132358Y-113201174D01*
X88156250Y-113200000D01*
X88643750Y-113200000D01*
X88667642Y-113201174D01*
G37*
G04 #@! TD.AperFunction*
G04 #@! TA.AperFunction,SMDPad,CuDef*
G36*
X84980142Y-120551174D02*
G01*
X85003803Y-120554684D01*
X85027007Y-120560496D01*
X85049529Y-120568554D01*
X85071153Y-120578782D01*
X85091670Y-120591079D01*
X85110883Y-120605329D01*
X85128607Y-120621393D01*
X85144671Y-120639117D01*
X85158921Y-120658330D01*
X85171218Y-120678847D01*
X85181446Y-120700471D01*
X85189504Y-120722993D01*
X85195316Y-120746197D01*
X85198826Y-120769858D01*
X85200000Y-120793750D01*
X85200000Y-121281250D01*
X85198826Y-121305142D01*
X85195316Y-121328803D01*
X85189504Y-121352007D01*
X85181446Y-121374529D01*
X85171218Y-121396153D01*
X85158921Y-121416670D01*
X85144671Y-121435883D01*
X85128607Y-121453607D01*
X85110883Y-121469671D01*
X85091670Y-121483921D01*
X85071153Y-121496218D01*
X85049529Y-121506446D01*
X85027007Y-121514504D01*
X85003803Y-121520316D01*
X84980142Y-121523826D01*
X84956250Y-121525000D01*
X84043750Y-121525000D01*
X84019858Y-121523826D01*
X83996197Y-121520316D01*
X83972993Y-121514504D01*
X83950471Y-121506446D01*
X83928847Y-121496218D01*
X83908330Y-121483921D01*
X83889117Y-121469671D01*
X83871393Y-121453607D01*
X83855329Y-121435883D01*
X83841079Y-121416670D01*
X83828782Y-121396153D01*
X83818554Y-121374529D01*
X83810496Y-121352007D01*
X83804684Y-121328803D01*
X83801174Y-121305142D01*
X83800000Y-121281250D01*
X83800000Y-120793750D01*
X83801174Y-120769858D01*
X83804684Y-120746197D01*
X83810496Y-120722993D01*
X83818554Y-120700471D01*
X83828782Y-120678847D01*
X83841079Y-120658330D01*
X83855329Y-120639117D01*
X83871393Y-120621393D01*
X83889117Y-120605329D01*
X83908330Y-120591079D01*
X83928847Y-120578782D01*
X83950471Y-120568554D01*
X83972993Y-120560496D01*
X83996197Y-120554684D01*
X84019858Y-120551174D01*
X84043750Y-120550000D01*
X84956250Y-120550000D01*
X84980142Y-120551174D01*
G37*
G04 #@! TD.AperFunction*
G04 #@! TA.AperFunction,SMDPad,CuDef*
G36*
X84980142Y-118676174D02*
G01*
X85003803Y-118679684D01*
X85027007Y-118685496D01*
X85049529Y-118693554D01*
X85071153Y-118703782D01*
X85091670Y-118716079D01*
X85110883Y-118730329D01*
X85128607Y-118746393D01*
X85144671Y-118764117D01*
X85158921Y-118783330D01*
X85171218Y-118803847D01*
X85181446Y-118825471D01*
X85189504Y-118847993D01*
X85195316Y-118871197D01*
X85198826Y-118894858D01*
X85200000Y-118918750D01*
X85200000Y-119406250D01*
X85198826Y-119430142D01*
X85195316Y-119453803D01*
X85189504Y-119477007D01*
X85181446Y-119499529D01*
X85171218Y-119521153D01*
X85158921Y-119541670D01*
X85144671Y-119560883D01*
X85128607Y-119578607D01*
X85110883Y-119594671D01*
X85091670Y-119608921D01*
X85071153Y-119621218D01*
X85049529Y-119631446D01*
X85027007Y-119639504D01*
X85003803Y-119645316D01*
X84980142Y-119648826D01*
X84956250Y-119650000D01*
X84043750Y-119650000D01*
X84019858Y-119648826D01*
X83996197Y-119645316D01*
X83972993Y-119639504D01*
X83950471Y-119631446D01*
X83928847Y-119621218D01*
X83908330Y-119608921D01*
X83889117Y-119594671D01*
X83871393Y-119578607D01*
X83855329Y-119560883D01*
X83841079Y-119541670D01*
X83828782Y-119521153D01*
X83818554Y-119499529D01*
X83810496Y-119477007D01*
X83804684Y-119453803D01*
X83801174Y-119430142D01*
X83800000Y-119406250D01*
X83800000Y-118918750D01*
X83801174Y-118894858D01*
X83804684Y-118871197D01*
X83810496Y-118847993D01*
X83818554Y-118825471D01*
X83828782Y-118803847D01*
X83841079Y-118783330D01*
X83855329Y-118764117D01*
X83871393Y-118746393D01*
X83889117Y-118730329D01*
X83908330Y-118716079D01*
X83928847Y-118703782D01*
X83950471Y-118693554D01*
X83972993Y-118685496D01*
X83996197Y-118679684D01*
X84019858Y-118676174D01*
X84043750Y-118675000D01*
X84956250Y-118675000D01*
X84980142Y-118676174D01*
G37*
G04 #@! TD.AperFunction*
G04 #@! TA.AperFunction,SMDPad,CuDef*
G36*
X87380142Y-120551174D02*
G01*
X87403803Y-120554684D01*
X87427007Y-120560496D01*
X87449529Y-120568554D01*
X87471153Y-120578782D01*
X87491670Y-120591079D01*
X87510883Y-120605329D01*
X87528607Y-120621393D01*
X87544671Y-120639117D01*
X87558921Y-120658330D01*
X87571218Y-120678847D01*
X87581446Y-120700471D01*
X87589504Y-120722993D01*
X87595316Y-120746197D01*
X87598826Y-120769858D01*
X87600000Y-120793750D01*
X87600000Y-121281250D01*
X87598826Y-121305142D01*
X87595316Y-121328803D01*
X87589504Y-121352007D01*
X87581446Y-121374529D01*
X87571218Y-121396153D01*
X87558921Y-121416670D01*
X87544671Y-121435883D01*
X87528607Y-121453607D01*
X87510883Y-121469671D01*
X87491670Y-121483921D01*
X87471153Y-121496218D01*
X87449529Y-121506446D01*
X87427007Y-121514504D01*
X87403803Y-121520316D01*
X87380142Y-121523826D01*
X87356250Y-121525000D01*
X86443750Y-121525000D01*
X86419858Y-121523826D01*
X86396197Y-121520316D01*
X86372993Y-121514504D01*
X86350471Y-121506446D01*
X86328847Y-121496218D01*
X86308330Y-121483921D01*
X86289117Y-121469671D01*
X86271393Y-121453607D01*
X86255329Y-121435883D01*
X86241079Y-121416670D01*
X86228782Y-121396153D01*
X86218554Y-121374529D01*
X86210496Y-121352007D01*
X86204684Y-121328803D01*
X86201174Y-121305142D01*
X86200000Y-121281250D01*
X86200000Y-120793750D01*
X86201174Y-120769858D01*
X86204684Y-120746197D01*
X86210496Y-120722993D01*
X86218554Y-120700471D01*
X86228782Y-120678847D01*
X86241079Y-120658330D01*
X86255329Y-120639117D01*
X86271393Y-120621393D01*
X86289117Y-120605329D01*
X86308330Y-120591079D01*
X86328847Y-120578782D01*
X86350471Y-120568554D01*
X86372993Y-120560496D01*
X86396197Y-120554684D01*
X86419858Y-120551174D01*
X86443750Y-120550000D01*
X87356250Y-120550000D01*
X87380142Y-120551174D01*
G37*
G04 #@! TD.AperFunction*
G04 #@! TA.AperFunction,SMDPad,CuDef*
G36*
X87380142Y-118676174D02*
G01*
X87403803Y-118679684D01*
X87427007Y-118685496D01*
X87449529Y-118693554D01*
X87471153Y-118703782D01*
X87491670Y-118716079D01*
X87510883Y-118730329D01*
X87528607Y-118746393D01*
X87544671Y-118764117D01*
X87558921Y-118783330D01*
X87571218Y-118803847D01*
X87581446Y-118825471D01*
X87589504Y-118847993D01*
X87595316Y-118871197D01*
X87598826Y-118894858D01*
X87600000Y-118918750D01*
X87600000Y-119406250D01*
X87598826Y-119430142D01*
X87595316Y-119453803D01*
X87589504Y-119477007D01*
X87581446Y-119499529D01*
X87571218Y-119521153D01*
X87558921Y-119541670D01*
X87544671Y-119560883D01*
X87528607Y-119578607D01*
X87510883Y-119594671D01*
X87491670Y-119608921D01*
X87471153Y-119621218D01*
X87449529Y-119631446D01*
X87427007Y-119639504D01*
X87403803Y-119645316D01*
X87380142Y-119648826D01*
X87356250Y-119650000D01*
X86443750Y-119650000D01*
X86419858Y-119648826D01*
X86396197Y-119645316D01*
X86372993Y-119639504D01*
X86350471Y-119631446D01*
X86328847Y-119621218D01*
X86308330Y-119608921D01*
X86289117Y-119594671D01*
X86271393Y-119578607D01*
X86255329Y-119560883D01*
X86241079Y-119541670D01*
X86228782Y-119521153D01*
X86218554Y-119499529D01*
X86210496Y-119477007D01*
X86204684Y-119453803D01*
X86201174Y-119430142D01*
X86200000Y-119406250D01*
X86200000Y-118918750D01*
X86201174Y-118894858D01*
X86204684Y-118871197D01*
X86210496Y-118847993D01*
X86218554Y-118825471D01*
X86228782Y-118803847D01*
X86241079Y-118783330D01*
X86255329Y-118764117D01*
X86271393Y-118746393D01*
X86289117Y-118730329D01*
X86308330Y-118716079D01*
X86328847Y-118703782D01*
X86350471Y-118693554D01*
X86372993Y-118685496D01*
X86396197Y-118679684D01*
X86419858Y-118676174D01*
X86443750Y-118675000D01*
X87356250Y-118675000D01*
X87380142Y-118676174D01*
G37*
G04 #@! TD.AperFunction*
G04 #@! TA.AperFunction,SMDPad,CuDef*
G36*
X94680142Y-113376174D02*
G01*
X94703803Y-113379684D01*
X94727007Y-113385496D01*
X94749529Y-113393554D01*
X94771153Y-113403782D01*
X94791670Y-113416079D01*
X94810883Y-113430329D01*
X94828607Y-113446393D01*
X94844671Y-113464117D01*
X94858921Y-113483330D01*
X94871218Y-113503847D01*
X94881446Y-113525471D01*
X94889504Y-113547993D01*
X94895316Y-113571197D01*
X94898826Y-113594858D01*
X94900000Y-113618750D01*
X94900000Y-114106250D01*
X94898826Y-114130142D01*
X94895316Y-114153803D01*
X94889504Y-114177007D01*
X94881446Y-114199529D01*
X94871218Y-114221153D01*
X94858921Y-114241670D01*
X94844671Y-114260883D01*
X94828607Y-114278607D01*
X94810883Y-114294671D01*
X94791670Y-114308921D01*
X94771153Y-114321218D01*
X94749529Y-114331446D01*
X94727007Y-114339504D01*
X94703803Y-114345316D01*
X94680142Y-114348826D01*
X94656250Y-114350000D01*
X93743750Y-114350000D01*
X93719858Y-114348826D01*
X93696197Y-114345316D01*
X93672993Y-114339504D01*
X93650471Y-114331446D01*
X93628847Y-114321218D01*
X93608330Y-114308921D01*
X93589117Y-114294671D01*
X93571393Y-114278607D01*
X93555329Y-114260883D01*
X93541079Y-114241670D01*
X93528782Y-114221153D01*
X93518554Y-114199529D01*
X93510496Y-114177007D01*
X93504684Y-114153803D01*
X93501174Y-114130142D01*
X93500000Y-114106250D01*
X93500000Y-113618750D01*
X93501174Y-113594858D01*
X93504684Y-113571197D01*
X93510496Y-113547993D01*
X93518554Y-113525471D01*
X93528782Y-113503847D01*
X93541079Y-113483330D01*
X93555329Y-113464117D01*
X93571393Y-113446393D01*
X93589117Y-113430329D01*
X93608330Y-113416079D01*
X93628847Y-113403782D01*
X93650471Y-113393554D01*
X93672993Y-113385496D01*
X93696197Y-113379684D01*
X93719858Y-113376174D01*
X93743750Y-113375000D01*
X94656250Y-113375000D01*
X94680142Y-113376174D01*
G37*
G04 #@! TD.AperFunction*
G04 #@! TA.AperFunction,SMDPad,CuDef*
G36*
X94680142Y-115251174D02*
G01*
X94703803Y-115254684D01*
X94727007Y-115260496D01*
X94749529Y-115268554D01*
X94771153Y-115278782D01*
X94791670Y-115291079D01*
X94810883Y-115305329D01*
X94828607Y-115321393D01*
X94844671Y-115339117D01*
X94858921Y-115358330D01*
X94871218Y-115378847D01*
X94881446Y-115400471D01*
X94889504Y-115422993D01*
X94895316Y-115446197D01*
X94898826Y-115469858D01*
X94900000Y-115493750D01*
X94900000Y-115981250D01*
X94898826Y-116005142D01*
X94895316Y-116028803D01*
X94889504Y-116052007D01*
X94881446Y-116074529D01*
X94871218Y-116096153D01*
X94858921Y-116116670D01*
X94844671Y-116135883D01*
X94828607Y-116153607D01*
X94810883Y-116169671D01*
X94791670Y-116183921D01*
X94771153Y-116196218D01*
X94749529Y-116206446D01*
X94727007Y-116214504D01*
X94703803Y-116220316D01*
X94680142Y-116223826D01*
X94656250Y-116225000D01*
X93743750Y-116225000D01*
X93719858Y-116223826D01*
X93696197Y-116220316D01*
X93672993Y-116214504D01*
X93650471Y-116206446D01*
X93628847Y-116196218D01*
X93608330Y-116183921D01*
X93589117Y-116169671D01*
X93571393Y-116153607D01*
X93555329Y-116135883D01*
X93541079Y-116116670D01*
X93528782Y-116096153D01*
X93518554Y-116074529D01*
X93510496Y-116052007D01*
X93504684Y-116028803D01*
X93501174Y-116005142D01*
X93500000Y-115981250D01*
X93500000Y-115493750D01*
X93501174Y-115469858D01*
X93504684Y-115446197D01*
X93510496Y-115422993D01*
X93518554Y-115400471D01*
X93528782Y-115378847D01*
X93541079Y-115358330D01*
X93555329Y-115339117D01*
X93571393Y-115321393D01*
X93589117Y-115305329D01*
X93608330Y-115291079D01*
X93628847Y-115278782D01*
X93650471Y-115268554D01*
X93672993Y-115260496D01*
X93696197Y-115254684D01*
X93719858Y-115251174D01*
X93743750Y-115250000D01*
X94656250Y-115250000D01*
X94680142Y-115251174D01*
G37*
G04 #@! TD.AperFunction*
G04 #@! TA.AperFunction,SMDPad,CuDef*
G36*
X86892642Y-108301174D02*
G01*
X86916303Y-108304684D01*
X86939507Y-108310496D01*
X86962029Y-108318554D01*
X86983653Y-108328782D01*
X87004170Y-108341079D01*
X87023383Y-108355329D01*
X87041107Y-108371393D01*
X87057171Y-108389117D01*
X87071421Y-108408330D01*
X87083718Y-108428847D01*
X87093946Y-108450471D01*
X87102004Y-108472993D01*
X87107816Y-108496197D01*
X87111326Y-108519858D01*
X87112500Y-108543750D01*
X87112500Y-109456250D01*
X87111326Y-109480142D01*
X87107816Y-109503803D01*
X87102004Y-109527007D01*
X87093946Y-109549529D01*
X87083718Y-109571153D01*
X87071421Y-109591670D01*
X87057171Y-109610883D01*
X87041107Y-109628607D01*
X87023383Y-109644671D01*
X87004170Y-109658921D01*
X86983653Y-109671218D01*
X86962029Y-109681446D01*
X86939507Y-109689504D01*
X86916303Y-109695316D01*
X86892642Y-109698826D01*
X86868750Y-109700000D01*
X86381250Y-109700000D01*
X86357358Y-109698826D01*
X86333697Y-109695316D01*
X86310493Y-109689504D01*
X86287971Y-109681446D01*
X86266347Y-109671218D01*
X86245830Y-109658921D01*
X86226617Y-109644671D01*
X86208893Y-109628607D01*
X86192829Y-109610883D01*
X86178579Y-109591670D01*
X86166282Y-109571153D01*
X86156054Y-109549529D01*
X86147996Y-109527007D01*
X86142184Y-109503803D01*
X86138674Y-109480142D01*
X86137500Y-109456250D01*
X86137500Y-108543750D01*
X86138674Y-108519858D01*
X86142184Y-108496197D01*
X86147996Y-108472993D01*
X86156054Y-108450471D01*
X86166282Y-108428847D01*
X86178579Y-108408330D01*
X86192829Y-108389117D01*
X86208893Y-108371393D01*
X86226617Y-108355329D01*
X86245830Y-108341079D01*
X86266347Y-108328782D01*
X86287971Y-108318554D01*
X86310493Y-108310496D01*
X86333697Y-108304684D01*
X86357358Y-108301174D01*
X86381250Y-108300000D01*
X86868750Y-108300000D01*
X86892642Y-108301174D01*
G37*
G04 #@! TD.AperFunction*
G04 #@! TA.AperFunction,SMDPad,CuDef*
G36*
X88767642Y-108301174D02*
G01*
X88791303Y-108304684D01*
X88814507Y-108310496D01*
X88837029Y-108318554D01*
X88858653Y-108328782D01*
X88879170Y-108341079D01*
X88898383Y-108355329D01*
X88916107Y-108371393D01*
X88932171Y-108389117D01*
X88946421Y-108408330D01*
X88958718Y-108428847D01*
X88968946Y-108450471D01*
X88977004Y-108472993D01*
X88982816Y-108496197D01*
X88986326Y-108519858D01*
X88987500Y-108543750D01*
X88987500Y-109456250D01*
X88986326Y-109480142D01*
X88982816Y-109503803D01*
X88977004Y-109527007D01*
X88968946Y-109549529D01*
X88958718Y-109571153D01*
X88946421Y-109591670D01*
X88932171Y-109610883D01*
X88916107Y-109628607D01*
X88898383Y-109644671D01*
X88879170Y-109658921D01*
X88858653Y-109671218D01*
X88837029Y-109681446D01*
X88814507Y-109689504D01*
X88791303Y-109695316D01*
X88767642Y-109698826D01*
X88743750Y-109700000D01*
X88256250Y-109700000D01*
X88232358Y-109698826D01*
X88208697Y-109695316D01*
X88185493Y-109689504D01*
X88162971Y-109681446D01*
X88141347Y-109671218D01*
X88120830Y-109658921D01*
X88101617Y-109644671D01*
X88083893Y-109628607D01*
X88067829Y-109610883D01*
X88053579Y-109591670D01*
X88041282Y-109571153D01*
X88031054Y-109549529D01*
X88022996Y-109527007D01*
X88017184Y-109503803D01*
X88013674Y-109480142D01*
X88012500Y-109456250D01*
X88012500Y-108543750D01*
X88013674Y-108519858D01*
X88017184Y-108496197D01*
X88022996Y-108472993D01*
X88031054Y-108450471D01*
X88041282Y-108428847D01*
X88053579Y-108408330D01*
X88067829Y-108389117D01*
X88083893Y-108371393D01*
X88101617Y-108355329D01*
X88120830Y-108341079D01*
X88141347Y-108328782D01*
X88162971Y-108318554D01*
X88185493Y-108310496D01*
X88208697Y-108304684D01*
X88232358Y-108301174D01*
X88256250Y-108300000D01*
X88743750Y-108300000D01*
X88767642Y-108301174D01*
G37*
G04 #@! TD.AperFunction*
G04 #@! TA.AperFunction,SMDPad,CuDef*
G36*
X94205142Y-119601174D02*
G01*
X94228803Y-119604684D01*
X94252007Y-119610496D01*
X94274529Y-119618554D01*
X94296153Y-119628782D01*
X94316670Y-119641079D01*
X94335883Y-119655329D01*
X94353607Y-119671393D01*
X94369671Y-119689117D01*
X94383921Y-119708330D01*
X94396218Y-119728847D01*
X94406446Y-119750471D01*
X94414504Y-119772993D01*
X94420316Y-119796197D01*
X94423826Y-119819858D01*
X94425000Y-119843750D01*
X94425000Y-120756250D01*
X94423826Y-120780142D01*
X94420316Y-120803803D01*
X94414504Y-120827007D01*
X94406446Y-120849529D01*
X94396218Y-120871153D01*
X94383921Y-120891670D01*
X94369671Y-120910883D01*
X94353607Y-120928607D01*
X94335883Y-120944671D01*
X94316670Y-120958921D01*
X94296153Y-120971218D01*
X94274529Y-120981446D01*
X94252007Y-120989504D01*
X94228803Y-120995316D01*
X94205142Y-120998826D01*
X94181250Y-121000000D01*
X93693750Y-121000000D01*
X93669858Y-120998826D01*
X93646197Y-120995316D01*
X93622993Y-120989504D01*
X93600471Y-120981446D01*
X93578847Y-120971218D01*
X93558330Y-120958921D01*
X93539117Y-120944671D01*
X93521393Y-120928607D01*
X93505329Y-120910883D01*
X93491079Y-120891670D01*
X93478782Y-120871153D01*
X93468554Y-120849529D01*
X93460496Y-120827007D01*
X93454684Y-120803803D01*
X93451174Y-120780142D01*
X93450000Y-120756250D01*
X93450000Y-119843750D01*
X93451174Y-119819858D01*
X93454684Y-119796197D01*
X93460496Y-119772993D01*
X93468554Y-119750471D01*
X93478782Y-119728847D01*
X93491079Y-119708330D01*
X93505329Y-119689117D01*
X93521393Y-119671393D01*
X93539117Y-119655329D01*
X93558330Y-119641079D01*
X93578847Y-119628782D01*
X93600471Y-119618554D01*
X93622993Y-119610496D01*
X93646197Y-119604684D01*
X93669858Y-119601174D01*
X93693750Y-119600000D01*
X94181250Y-119600000D01*
X94205142Y-119601174D01*
G37*
G04 #@! TD.AperFunction*
G04 #@! TA.AperFunction,SMDPad,CuDef*
G36*
X92330142Y-119601174D02*
G01*
X92353803Y-119604684D01*
X92377007Y-119610496D01*
X92399529Y-119618554D01*
X92421153Y-119628782D01*
X92441670Y-119641079D01*
X92460883Y-119655329D01*
X92478607Y-119671393D01*
X92494671Y-119689117D01*
X92508921Y-119708330D01*
X92521218Y-119728847D01*
X92531446Y-119750471D01*
X92539504Y-119772993D01*
X92545316Y-119796197D01*
X92548826Y-119819858D01*
X92550000Y-119843750D01*
X92550000Y-120756250D01*
X92548826Y-120780142D01*
X92545316Y-120803803D01*
X92539504Y-120827007D01*
X92531446Y-120849529D01*
X92521218Y-120871153D01*
X92508921Y-120891670D01*
X92494671Y-120910883D01*
X92478607Y-120928607D01*
X92460883Y-120944671D01*
X92441670Y-120958921D01*
X92421153Y-120971218D01*
X92399529Y-120981446D01*
X92377007Y-120989504D01*
X92353803Y-120995316D01*
X92330142Y-120998826D01*
X92306250Y-121000000D01*
X91818750Y-121000000D01*
X91794858Y-120998826D01*
X91771197Y-120995316D01*
X91747993Y-120989504D01*
X91725471Y-120981446D01*
X91703847Y-120971218D01*
X91683330Y-120958921D01*
X91664117Y-120944671D01*
X91646393Y-120928607D01*
X91630329Y-120910883D01*
X91616079Y-120891670D01*
X91603782Y-120871153D01*
X91593554Y-120849529D01*
X91585496Y-120827007D01*
X91579684Y-120803803D01*
X91576174Y-120780142D01*
X91575000Y-120756250D01*
X91575000Y-119843750D01*
X91576174Y-119819858D01*
X91579684Y-119796197D01*
X91585496Y-119772993D01*
X91593554Y-119750471D01*
X91603782Y-119728847D01*
X91616079Y-119708330D01*
X91630329Y-119689117D01*
X91646393Y-119671393D01*
X91664117Y-119655329D01*
X91683330Y-119641079D01*
X91703847Y-119628782D01*
X91725471Y-119618554D01*
X91747993Y-119610496D01*
X91771197Y-119604684D01*
X91794858Y-119601174D01*
X91818750Y-119600000D01*
X92306250Y-119600000D01*
X92330142Y-119601174D01*
G37*
G04 #@! TD.AperFunction*
G04 #@! TA.AperFunction,SMDPad,CuDef*
G36*
X97080142Y-113376174D02*
G01*
X97103803Y-113379684D01*
X97127007Y-113385496D01*
X97149529Y-113393554D01*
X97171153Y-113403782D01*
X97191670Y-113416079D01*
X97210883Y-113430329D01*
X97228607Y-113446393D01*
X97244671Y-113464117D01*
X97258921Y-113483330D01*
X97271218Y-113503847D01*
X97281446Y-113525471D01*
X97289504Y-113547993D01*
X97295316Y-113571197D01*
X97298826Y-113594858D01*
X97300000Y-113618750D01*
X97300000Y-114106250D01*
X97298826Y-114130142D01*
X97295316Y-114153803D01*
X97289504Y-114177007D01*
X97281446Y-114199529D01*
X97271218Y-114221153D01*
X97258921Y-114241670D01*
X97244671Y-114260883D01*
X97228607Y-114278607D01*
X97210883Y-114294671D01*
X97191670Y-114308921D01*
X97171153Y-114321218D01*
X97149529Y-114331446D01*
X97127007Y-114339504D01*
X97103803Y-114345316D01*
X97080142Y-114348826D01*
X97056250Y-114350000D01*
X96143750Y-114350000D01*
X96119858Y-114348826D01*
X96096197Y-114345316D01*
X96072993Y-114339504D01*
X96050471Y-114331446D01*
X96028847Y-114321218D01*
X96008330Y-114308921D01*
X95989117Y-114294671D01*
X95971393Y-114278607D01*
X95955329Y-114260883D01*
X95941079Y-114241670D01*
X95928782Y-114221153D01*
X95918554Y-114199529D01*
X95910496Y-114177007D01*
X95904684Y-114153803D01*
X95901174Y-114130142D01*
X95900000Y-114106250D01*
X95900000Y-113618750D01*
X95901174Y-113594858D01*
X95904684Y-113571197D01*
X95910496Y-113547993D01*
X95918554Y-113525471D01*
X95928782Y-113503847D01*
X95941079Y-113483330D01*
X95955329Y-113464117D01*
X95971393Y-113446393D01*
X95989117Y-113430329D01*
X96008330Y-113416079D01*
X96028847Y-113403782D01*
X96050471Y-113393554D01*
X96072993Y-113385496D01*
X96096197Y-113379684D01*
X96119858Y-113376174D01*
X96143750Y-113375000D01*
X97056250Y-113375000D01*
X97080142Y-113376174D01*
G37*
G04 #@! TD.AperFunction*
G04 #@! TA.AperFunction,SMDPad,CuDef*
G36*
X97080142Y-115251174D02*
G01*
X97103803Y-115254684D01*
X97127007Y-115260496D01*
X97149529Y-115268554D01*
X97171153Y-115278782D01*
X97191670Y-115291079D01*
X97210883Y-115305329D01*
X97228607Y-115321393D01*
X97244671Y-115339117D01*
X97258921Y-115358330D01*
X97271218Y-115378847D01*
X97281446Y-115400471D01*
X97289504Y-115422993D01*
X97295316Y-115446197D01*
X97298826Y-115469858D01*
X97300000Y-115493750D01*
X97300000Y-115981250D01*
X97298826Y-116005142D01*
X97295316Y-116028803D01*
X97289504Y-116052007D01*
X97281446Y-116074529D01*
X97271218Y-116096153D01*
X97258921Y-116116670D01*
X97244671Y-116135883D01*
X97228607Y-116153607D01*
X97210883Y-116169671D01*
X97191670Y-116183921D01*
X97171153Y-116196218D01*
X97149529Y-116206446D01*
X97127007Y-116214504D01*
X97103803Y-116220316D01*
X97080142Y-116223826D01*
X97056250Y-116225000D01*
X96143750Y-116225000D01*
X96119858Y-116223826D01*
X96096197Y-116220316D01*
X96072993Y-116214504D01*
X96050471Y-116206446D01*
X96028847Y-116196218D01*
X96008330Y-116183921D01*
X95989117Y-116169671D01*
X95971393Y-116153607D01*
X95955329Y-116135883D01*
X95941079Y-116116670D01*
X95928782Y-116096153D01*
X95918554Y-116074529D01*
X95910496Y-116052007D01*
X95904684Y-116028803D01*
X95901174Y-116005142D01*
X95900000Y-115981250D01*
X95900000Y-115493750D01*
X95901174Y-115469858D01*
X95904684Y-115446197D01*
X95910496Y-115422993D01*
X95918554Y-115400471D01*
X95928782Y-115378847D01*
X95941079Y-115358330D01*
X95955329Y-115339117D01*
X95971393Y-115321393D01*
X95989117Y-115305329D01*
X96008330Y-115291079D01*
X96028847Y-115278782D01*
X96050471Y-115268554D01*
X96072993Y-115260496D01*
X96096197Y-115254684D01*
X96119858Y-115251174D01*
X96143750Y-115250000D01*
X97056250Y-115250000D01*
X97080142Y-115251174D01*
G37*
G04 #@! TD.AperFunction*
G04 #@! TA.AperFunction,SMDPad,CuDef*
G36*
X86230142Y-87001174D02*
G01*
X86253803Y-87004684D01*
X86277007Y-87010496D01*
X86299529Y-87018554D01*
X86321153Y-87028782D01*
X86341670Y-87041079D01*
X86360883Y-87055329D01*
X86378607Y-87071393D01*
X86394671Y-87089117D01*
X86408921Y-87108330D01*
X86421218Y-87128847D01*
X86431446Y-87150471D01*
X86439504Y-87172993D01*
X86445316Y-87196197D01*
X86448826Y-87219858D01*
X86450000Y-87243750D01*
X86450000Y-88156250D01*
X86448826Y-88180142D01*
X86445316Y-88203803D01*
X86439504Y-88227007D01*
X86431446Y-88249529D01*
X86421218Y-88271153D01*
X86408921Y-88291670D01*
X86394671Y-88310883D01*
X86378607Y-88328607D01*
X86360883Y-88344671D01*
X86341670Y-88358921D01*
X86321153Y-88371218D01*
X86299529Y-88381446D01*
X86277007Y-88389504D01*
X86253803Y-88395316D01*
X86230142Y-88398826D01*
X86206250Y-88400000D01*
X85718750Y-88400000D01*
X85694858Y-88398826D01*
X85671197Y-88395316D01*
X85647993Y-88389504D01*
X85625471Y-88381446D01*
X85603847Y-88371218D01*
X85583330Y-88358921D01*
X85564117Y-88344671D01*
X85546393Y-88328607D01*
X85530329Y-88310883D01*
X85516079Y-88291670D01*
X85503782Y-88271153D01*
X85493554Y-88249529D01*
X85485496Y-88227007D01*
X85479684Y-88203803D01*
X85476174Y-88180142D01*
X85475000Y-88156250D01*
X85475000Y-87243750D01*
X85476174Y-87219858D01*
X85479684Y-87196197D01*
X85485496Y-87172993D01*
X85493554Y-87150471D01*
X85503782Y-87128847D01*
X85516079Y-87108330D01*
X85530329Y-87089117D01*
X85546393Y-87071393D01*
X85564117Y-87055329D01*
X85583330Y-87041079D01*
X85603847Y-87028782D01*
X85625471Y-87018554D01*
X85647993Y-87010496D01*
X85671197Y-87004684D01*
X85694858Y-87001174D01*
X85718750Y-87000000D01*
X86206250Y-87000000D01*
X86230142Y-87001174D01*
G37*
G04 #@! TD.AperFunction*
G04 #@! TA.AperFunction,SMDPad,CuDef*
G36*
X88105142Y-87001174D02*
G01*
X88128803Y-87004684D01*
X88152007Y-87010496D01*
X88174529Y-87018554D01*
X88196153Y-87028782D01*
X88216670Y-87041079D01*
X88235883Y-87055329D01*
X88253607Y-87071393D01*
X88269671Y-87089117D01*
X88283921Y-87108330D01*
X88296218Y-87128847D01*
X88306446Y-87150471D01*
X88314504Y-87172993D01*
X88320316Y-87196197D01*
X88323826Y-87219858D01*
X88325000Y-87243750D01*
X88325000Y-88156250D01*
X88323826Y-88180142D01*
X88320316Y-88203803D01*
X88314504Y-88227007D01*
X88306446Y-88249529D01*
X88296218Y-88271153D01*
X88283921Y-88291670D01*
X88269671Y-88310883D01*
X88253607Y-88328607D01*
X88235883Y-88344671D01*
X88216670Y-88358921D01*
X88196153Y-88371218D01*
X88174529Y-88381446D01*
X88152007Y-88389504D01*
X88128803Y-88395316D01*
X88105142Y-88398826D01*
X88081250Y-88400000D01*
X87593750Y-88400000D01*
X87569858Y-88398826D01*
X87546197Y-88395316D01*
X87522993Y-88389504D01*
X87500471Y-88381446D01*
X87478847Y-88371218D01*
X87458330Y-88358921D01*
X87439117Y-88344671D01*
X87421393Y-88328607D01*
X87405329Y-88310883D01*
X87391079Y-88291670D01*
X87378782Y-88271153D01*
X87368554Y-88249529D01*
X87360496Y-88227007D01*
X87354684Y-88203803D01*
X87351174Y-88180142D01*
X87350000Y-88156250D01*
X87350000Y-87243750D01*
X87351174Y-87219858D01*
X87354684Y-87196197D01*
X87360496Y-87172993D01*
X87368554Y-87150471D01*
X87378782Y-87128847D01*
X87391079Y-87108330D01*
X87405329Y-87089117D01*
X87421393Y-87071393D01*
X87439117Y-87055329D01*
X87458330Y-87041079D01*
X87478847Y-87028782D01*
X87500471Y-87018554D01*
X87522993Y-87010496D01*
X87546197Y-87004684D01*
X87569858Y-87001174D01*
X87593750Y-87000000D01*
X88081250Y-87000000D01*
X88105142Y-87001174D01*
G37*
G04 #@! TD.AperFunction*
G04 #@! TA.AperFunction,SMDPad,CuDef*
G36*
X72730142Y-87001174D02*
G01*
X72753803Y-87004684D01*
X72777007Y-87010496D01*
X72799529Y-87018554D01*
X72821153Y-87028782D01*
X72841670Y-87041079D01*
X72860883Y-87055329D01*
X72878607Y-87071393D01*
X72894671Y-87089117D01*
X72908921Y-87108330D01*
X72921218Y-87128847D01*
X72931446Y-87150471D01*
X72939504Y-87172993D01*
X72945316Y-87196197D01*
X72948826Y-87219858D01*
X72950000Y-87243750D01*
X72950000Y-88156250D01*
X72948826Y-88180142D01*
X72945316Y-88203803D01*
X72939504Y-88227007D01*
X72931446Y-88249529D01*
X72921218Y-88271153D01*
X72908921Y-88291670D01*
X72894671Y-88310883D01*
X72878607Y-88328607D01*
X72860883Y-88344671D01*
X72841670Y-88358921D01*
X72821153Y-88371218D01*
X72799529Y-88381446D01*
X72777007Y-88389504D01*
X72753803Y-88395316D01*
X72730142Y-88398826D01*
X72706250Y-88400000D01*
X72218750Y-88400000D01*
X72194858Y-88398826D01*
X72171197Y-88395316D01*
X72147993Y-88389504D01*
X72125471Y-88381446D01*
X72103847Y-88371218D01*
X72083330Y-88358921D01*
X72064117Y-88344671D01*
X72046393Y-88328607D01*
X72030329Y-88310883D01*
X72016079Y-88291670D01*
X72003782Y-88271153D01*
X71993554Y-88249529D01*
X71985496Y-88227007D01*
X71979684Y-88203803D01*
X71976174Y-88180142D01*
X71975000Y-88156250D01*
X71975000Y-87243750D01*
X71976174Y-87219858D01*
X71979684Y-87196197D01*
X71985496Y-87172993D01*
X71993554Y-87150471D01*
X72003782Y-87128847D01*
X72016079Y-87108330D01*
X72030329Y-87089117D01*
X72046393Y-87071393D01*
X72064117Y-87055329D01*
X72083330Y-87041079D01*
X72103847Y-87028782D01*
X72125471Y-87018554D01*
X72147993Y-87010496D01*
X72171197Y-87004684D01*
X72194858Y-87001174D01*
X72218750Y-87000000D01*
X72706250Y-87000000D01*
X72730142Y-87001174D01*
G37*
G04 #@! TD.AperFunction*
G04 #@! TA.AperFunction,SMDPad,CuDef*
G36*
X74605142Y-87001174D02*
G01*
X74628803Y-87004684D01*
X74652007Y-87010496D01*
X74674529Y-87018554D01*
X74696153Y-87028782D01*
X74716670Y-87041079D01*
X74735883Y-87055329D01*
X74753607Y-87071393D01*
X74769671Y-87089117D01*
X74783921Y-87108330D01*
X74796218Y-87128847D01*
X74806446Y-87150471D01*
X74814504Y-87172993D01*
X74820316Y-87196197D01*
X74823826Y-87219858D01*
X74825000Y-87243750D01*
X74825000Y-88156250D01*
X74823826Y-88180142D01*
X74820316Y-88203803D01*
X74814504Y-88227007D01*
X74806446Y-88249529D01*
X74796218Y-88271153D01*
X74783921Y-88291670D01*
X74769671Y-88310883D01*
X74753607Y-88328607D01*
X74735883Y-88344671D01*
X74716670Y-88358921D01*
X74696153Y-88371218D01*
X74674529Y-88381446D01*
X74652007Y-88389504D01*
X74628803Y-88395316D01*
X74605142Y-88398826D01*
X74581250Y-88400000D01*
X74093750Y-88400000D01*
X74069858Y-88398826D01*
X74046197Y-88395316D01*
X74022993Y-88389504D01*
X74000471Y-88381446D01*
X73978847Y-88371218D01*
X73958330Y-88358921D01*
X73939117Y-88344671D01*
X73921393Y-88328607D01*
X73905329Y-88310883D01*
X73891079Y-88291670D01*
X73878782Y-88271153D01*
X73868554Y-88249529D01*
X73860496Y-88227007D01*
X73854684Y-88203803D01*
X73851174Y-88180142D01*
X73850000Y-88156250D01*
X73850000Y-87243750D01*
X73851174Y-87219858D01*
X73854684Y-87196197D01*
X73860496Y-87172993D01*
X73868554Y-87150471D01*
X73878782Y-87128847D01*
X73891079Y-87108330D01*
X73905329Y-87089117D01*
X73921393Y-87071393D01*
X73939117Y-87055329D01*
X73958330Y-87041079D01*
X73978847Y-87028782D01*
X74000471Y-87018554D01*
X74022993Y-87010496D01*
X74046197Y-87004684D01*
X74069858Y-87001174D01*
X74093750Y-87000000D01*
X74581250Y-87000000D01*
X74605142Y-87001174D01*
G37*
G04 #@! TD.AperFunction*
G04 #@! TA.AperFunction,SMDPad,CuDef*
G36*
X59230142Y-87001174D02*
G01*
X59253803Y-87004684D01*
X59277007Y-87010496D01*
X59299529Y-87018554D01*
X59321153Y-87028782D01*
X59341670Y-87041079D01*
X59360883Y-87055329D01*
X59378607Y-87071393D01*
X59394671Y-87089117D01*
X59408921Y-87108330D01*
X59421218Y-87128847D01*
X59431446Y-87150471D01*
X59439504Y-87172993D01*
X59445316Y-87196197D01*
X59448826Y-87219858D01*
X59450000Y-87243750D01*
X59450000Y-88156250D01*
X59448826Y-88180142D01*
X59445316Y-88203803D01*
X59439504Y-88227007D01*
X59431446Y-88249529D01*
X59421218Y-88271153D01*
X59408921Y-88291670D01*
X59394671Y-88310883D01*
X59378607Y-88328607D01*
X59360883Y-88344671D01*
X59341670Y-88358921D01*
X59321153Y-88371218D01*
X59299529Y-88381446D01*
X59277007Y-88389504D01*
X59253803Y-88395316D01*
X59230142Y-88398826D01*
X59206250Y-88400000D01*
X58718750Y-88400000D01*
X58694858Y-88398826D01*
X58671197Y-88395316D01*
X58647993Y-88389504D01*
X58625471Y-88381446D01*
X58603847Y-88371218D01*
X58583330Y-88358921D01*
X58564117Y-88344671D01*
X58546393Y-88328607D01*
X58530329Y-88310883D01*
X58516079Y-88291670D01*
X58503782Y-88271153D01*
X58493554Y-88249529D01*
X58485496Y-88227007D01*
X58479684Y-88203803D01*
X58476174Y-88180142D01*
X58475000Y-88156250D01*
X58475000Y-87243750D01*
X58476174Y-87219858D01*
X58479684Y-87196197D01*
X58485496Y-87172993D01*
X58493554Y-87150471D01*
X58503782Y-87128847D01*
X58516079Y-87108330D01*
X58530329Y-87089117D01*
X58546393Y-87071393D01*
X58564117Y-87055329D01*
X58583330Y-87041079D01*
X58603847Y-87028782D01*
X58625471Y-87018554D01*
X58647993Y-87010496D01*
X58671197Y-87004684D01*
X58694858Y-87001174D01*
X58718750Y-87000000D01*
X59206250Y-87000000D01*
X59230142Y-87001174D01*
G37*
G04 #@! TD.AperFunction*
G04 #@! TA.AperFunction,SMDPad,CuDef*
G36*
X61105142Y-87001174D02*
G01*
X61128803Y-87004684D01*
X61152007Y-87010496D01*
X61174529Y-87018554D01*
X61196153Y-87028782D01*
X61216670Y-87041079D01*
X61235883Y-87055329D01*
X61253607Y-87071393D01*
X61269671Y-87089117D01*
X61283921Y-87108330D01*
X61296218Y-87128847D01*
X61306446Y-87150471D01*
X61314504Y-87172993D01*
X61320316Y-87196197D01*
X61323826Y-87219858D01*
X61325000Y-87243750D01*
X61325000Y-88156250D01*
X61323826Y-88180142D01*
X61320316Y-88203803D01*
X61314504Y-88227007D01*
X61306446Y-88249529D01*
X61296218Y-88271153D01*
X61283921Y-88291670D01*
X61269671Y-88310883D01*
X61253607Y-88328607D01*
X61235883Y-88344671D01*
X61216670Y-88358921D01*
X61196153Y-88371218D01*
X61174529Y-88381446D01*
X61152007Y-88389504D01*
X61128803Y-88395316D01*
X61105142Y-88398826D01*
X61081250Y-88400000D01*
X60593750Y-88400000D01*
X60569858Y-88398826D01*
X60546197Y-88395316D01*
X60522993Y-88389504D01*
X60500471Y-88381446D01*
X60478847Y-88371218D01*
X60458330Y-88358921D01*
X60439117Y-88344671D01*
X60421393Y-88328607D01*
X60405329Y-88310883D01*
X60391079Y-88291670D01*
X60378782Y-88271153D01*
X60368554Y-88249529D01*
X60360496Y-88227007D01*
X60354684Y-88203803D01*
X60351174Y-88180142D01*
X60350000Y-88156250D01*
X60350000Y-87243750D01*
X60351174Y-87219858D01*
X60354684Y-87196197D01*
X60360496Y-87172993D01*
X60368554Y-87150471D01*
X60378782Y-87128847D01*
X60391079Y-87108330D01*
X60405329Y-87089117D01*
X60421393Y-87071393D01*
X60439117Y-87055329D01*
X60458330Y-87041079D01*
X60478847Y-87028782D01*
X60500471Y-87018554D01*
X60522993Y-87010496D01*
X60546197Y-87004684D01*
X60569858Y-87001174D01*
X60593750Y-87000000D01*
X61081250Y-87000000D01*
X61105142Y-87001174D01*
G37*
G04 #@! TD.AperFunction*
G04 #@! TA.AperFunction,SMDPad,CuDef*
G36*
X45730142Y-87001174D02*
G01*
X45753803Y-87004684D01*
X45777007Y-87010496D01*
X45799529Y-87018554D01*
X45821153Y-87028782D01*
X45841670Y-87041079D01*
X45860883Y-87055329D01*
X45878607Y-87071393D01*
X45894671Y-87089117D01*
X45908921Y-87108330D01*
X45921218Y-87128847D01*
X45931446Y-87150471D01*
X45939504Y-87172993D01*
X45945316Y-87196197D01*
X45948826Y-87219858D01*
X45950000Y-87243750D01*
X45950000Y-88156250D01*
X45948826Y-88180142D01*
X45945316Y-88203803D01*
X45939504Y-88227007D01*
X45931446Y-88249529D01*
X45921218Y-88271153D01*
X45908921Y-88291670D01*
X45894671Y-88310883D01*
X45878607Y-88328607D01*
X45860883Y-88344671D01*
X45841670Y-88358921D01*
X45821153Y-88371218D01*
X45799529Y-88381446D01*
X45777007Y-88389504D01*
X45753803Y-88395316D01*
X45730142Y-88398826D01*
X45706250Y-88400000D01*
X45218750Y-88400000D01*
X45194858Y-88398826D01*
X45171197Y-88395316D01*
X45147993Y-88389504D01*
X45125471Y-88381446D01*
X45103847Y-88371218D01*
X45083330Y-88358921D01*
X45064117Y-88344671D01*
X45046393Y-88328607D01*
X45030329Y-88310883D01*
X45016079Y-88291670D01*
X45003782Y-88271153D01*
X44993554Y-88249529D01*
X44985496Y-88227007D01*
X44979684Y-88203803D01*
X44976174Y-88180142D01*
X44975000Y-88156250D01*
X44975000Y-87243750D01*
X44976174Y-87219858D01*
X44979684Y-87196197D01*
X44985496Y-87172993D01*
X44993554Y-87150471D01*
X45003782Y-87128847D01*
X45016079Y-87108330D01*
X45030329Y-87089117D01*
X45046393Y-87071393D01*
X45064117Y-87055329D01*
X45083330Y-87041079D01*
X45103847Y-87028782D01*
X45125471Y-87018554D01*
X45147993Y-87010496D01*
X45171197Y-87004684D01*
X45194858Y-87001174D01*
X45218750Y-87000000D01*
X45706250Y-87000000D01*
X45730142Y-87001174D01*
G37*
G04 #@! TD.AperFunction*
G04 #@! TA.AperFunction,SMDPad,CuDef*
G36*
X47605142Y-87001174D02*
G01*
X47628803Y-87004684D01*
X47652007Y-87010496D01*
X47674529Y-87018554D01*
X47696153Y-87028782D01*
X47716670Y-87041079D01*
X47735883Y-87055329D01*
X47753607Y-87071393D01*
X47769671Y-87089117D01*
X47783921Y-87108330D01*
X47796218Y-87128847D01*
X47806446Y-87150471D01*
X47814504Y-87172993D01*
X47820316Y-87196197D01*
X47823826Y-87219858D01*
X47825000Y-87243750D01*
X47825000Y-88156250D01*
X47823826Y-88180142D01*
X47820316Y-88203803D01*
X47814504Y-88227007D01*
X47806446Y-88249529D01*
X47796218Y-88271153D01*
X47783921Y-88291670D01*
X47769671Y-88310883D01*
X47753607Y-88328607D01*
X47735883Y-88344671D01*
X47716670Y-88358921D01*
X47696153Y-88371218D01*
X47674529Y-88381446D01*
X47652007Y-88389504D01*
X47628803Y-88395316D01*
X47605142Y-88398826D01*
X47581250Y-88400000D01*
X47093750Y-88400000D01*
X47069858Y-88398826D01*
X47046197Y-88395316D01*
X47022993Y-88389504D01*
X47000471Y-88381446D01*
X46978847Y-88371218D01*
X46958330Y-88358921D01*
X46939117Y-88344671D01*
X46921393Y-88328607D01*
X46905329Y-88310883D01*
X46891079Y-88291670D01*
X46878782Y-88271153D01*
X46868554Y-88249529D01*
X46860496Y-88227007D01*
X46854684Y-88203803D01*
X46851174Y-88180142D01*
X46850000Y-88156250D01*
X46850000Y-87243750D01*
X46851174Y-87219858D01*
X46854684Y-87196197D01*
X46860496Y-87172993D01*
X46868554Y-87150471D01*
X46878782Y-87128847D01*
X46891079Y-87108330D01*
X46905329Y-87089117D01*
X46921393Y-87071393D01*
X46939117Y-87055329D01*
X46958330Y-87041079D01*
X46978847Y-87028782D01*
X47000471Y-87018554D01*
X47022993Y-87010496D01*
X47046197Y-87004684D01*
X47069858Y-87001174D01*
X47093750Y-87000000D01*
X47581250Y-87000000D01*
X47605142Y-87001174D01*
G37*
G04 #@! TD.AperFunction*
D18*
X188750000Y-91790000D03*
D17*
X188750000Y-89250000D03*
X188750000Y-86710000D03*
D10*
X202500000Y-129000000D03*
X202500000Y-132000000D03*
X202500000Y-101600000D03*
X202500000Y-104600000D03*
D23*
X72462500Y-87700000D03*
X58962500Y-87700000D03*
X45462500Y-87700000D03*
X85962500Y-87700000D03*
X99700000Y-86800000D03*
D14*
X135600000Y-98500000D03*
X138400000Y-98500000D03*
X138400000Y-130400000D03*
D23*
X47337500Y-87725000D03*
X60837500Y-87700000D03*
X137000000Y-109000000D03*
X137000000Y-104500000D03*
X87837500Y-87700000D03*
X74337500Y-87700000D03*
X133300000Y-76500000D03*
X125200000Y-76500000D03*
D14*
X193300000Y-120100000D03*
D23*
X197930000Y-91500000D03*
X153200000Y-161100000D03*
X187400000Y-161100000D03*
X183500000Y-163600000D03*
X149362500Y-163600000D03*
X94200000Y-115737500D03*
X86900000Y-119162500D03*
X92062500Y-120300000D03*
X91800000Y-115737500D03*
X88400000Y-113900000D03*
X86625000Y-109000000D03*
X94437500Y-125000000D03*
X94299091Y-109699091D03*
X101425000Y-106900000D03*
X89400000Y-115800000D03*
X195650000Y-84360000D03*
X78925000Y-113750000D03*
X113600000Y-82600000D03*
X143500000Y-70700000D03*
X143500000Y-72550000D03*
X195000000Y-77287500D03*
X94200000Y-113862500D03*
X86900000Y-121037500D03*
X91800000Y-113862500D03*
X86525000Y-113900000D03*
X56500000Y-154900000D03*
X50300000Y-155000000D03*
X199000000Y-83400000D03*
X93937500Y-120300000D03*
X126600000Y-112200000D03*
X126600000Y-107637500D03*
X97750000Y-108500000D03*
X99250000Y-106000000D03*
X123000000Y-106000000D03*
X149362500Y-159300000D03*
X155100000Y-159300000D03*
X138300000Y-159300000D03*
X172200000Y-159300000D03*
X183562500Y-159300000D03*
X189300000Y-159300000D03*
X189300000Y-161100000D03*
X146521000Y-73614000D03*
X146450000Y-88150000D03*
X109800000Y-84700000D03*
X126600000Y-101600000D03*
X88500000Y-109000000D03*
X98600000Y-116600000D03*
X117599991Y-149900000D03*
X99200000Y-114600000D03*
X118399994Y-149900000D03*
X99200000Y-112400000D03*
X119199997Y-149900000D03*
X98500000Y-111750000D03*
X120000000Y-149900000D03*
X112600000Y-78000000D03*
X49300000Y-136200000D03*
X53100000Y-136200000D03*
X53137500Y-144100000D03*
X58037500Y-144100000D03*
X47450000Y-137725000D03*
X51262500Y-137725000D03*
X197750000Y-89300000D03*
X197750000Y-87300000D03*
X199650000Y-89300000D03*
X199650000Y-87341942D03*
X199650000Y-91500000D03*
X199650000Y-81100000D03*
X79250000Y-100700000D03*
X83800000Y-122400000D03*
X94435000Y-112687730D03*
X125000000Y-105800000D03*
X125000000Y-110300000D03*
X97700000Y-112700000D03*
X92562500Y-125000000D03*
X82800000Y-107500000D03*
X79250000Y-107500000D03*
X165066000Y-72714000D03*
X165091000Y-69689000D03*
X166721000Y-76526500D03*
X166721000Y-81426500D03*
X174466000Y-72714000D03*
X174491000Y-76489000D03*
X172996000Y-70839000D03*
X172996000Y-74651500D03*
X170796000Y-70489000D03*
X46400000Y-145700000D03*
X49400000Y-145700000D03*
X174491000Y-81289000D03*
X174486000Y-77394000D03*
X170616000Y-78664000D03*
X176381000Y-78899000D03*
X160200000Y-77000000D03*
X160200000Y-73000000D03*
X82800000Y-106699997D03*
X79250000Y-106700000D03*
X145050000Y-90400000D03*
X145000000Y-77450000D03*
X86600000Y-129000000D03*
X90200000Y-129000000D03*
X79250000Y-99899997D03*
X126600000Y-99900000D03*
X175500000Y-89700000D03*
X175500000Y-88900000D03*
X194715000Y-89168884D03*
X58000000Y-136200000D03*
X54005000Y-136205000D03*
X55550000Y-134300000D03*
X55275000Y-140100000D03*
X98100000Y-119219990D03*
X98100000Y-120019993D03*
X98100000Y-120900000D03*
X82800000Y-103499985D03*
X82800000Y-105099991D03*
X82800000Y-105899994D03*
X82800000Y-104299988D03*
X91839077Y-127864899D03*
X92397819Y-127292352D03*
X93000243Y-126725000D03*
X93500000Y-126100000D03*
X121600000Y-72600000D03*
X150200000Y-66800000D03*
D24*
X85476973Y-88185527D02*
X85464473Y-88185527D01*
D25*
X85962500Y-87700000D02*
X85476973Y-88185527D01*
X85464473Y-88185527D02*
X84600000Y-89050000D01*
X73812500Y-89050000D02*
X72462500Y-87700000D01*
X84600000Y-89050000D02*
X73812500Y-89050000D01*
D24*
X72462500Y-87700000D02*
X72462500Y-87700000D01*
X71976973Y-88185527D02*
X71964473Y-88185527D01*
D25*
X72462500Y-87700000D02*
X71976973Y-88185527D01*
X71964473Y-88185527D02*
X71150000Y-89000000D01*
X60262500Y-89000000D02*
X58962500Y-87700000D01*
X71150000Y-89000000D02*
X60262500Y-89000000D01*
D24*
X58962500Y-87700000D02*
X58962500Y-87700000D01*
X58476973Y-88185527D02*
X58464473Y-88185527D01*
D25*
X58962500Y-87700000D02*
X58476973Y-88185527D01*
X58464473Y-88185527D02*
X57650000Y-89000000D01*
X46762500Y-89000000D02*
X45462500Y-87700000D01*
X57650000Y-89000000D02*
X46762500Y-89000000D01*
D24*
X45462500Y-87700000D02*
X45462500Y-87700000D01*
D25*
X85962500Y-87700000D02*
X87312500Y-89050000D01*
X87312500Y-89050000D02*
X97450000Y-89050000D01*
X97450000Y-89050000D02*
X99700000Y-86800000D01*
D26*
X129270000Y-70611000D02*
X128181000Y-71700000D01*
X129270000Y-66700000D02*
X129270000Y-70611000D01*
X129270000Y-84511000D02*
X128181000Y-85600000D01*
X128181000Y-85600000D02*
X127401600Y-85600000D01*
X129270000Y-80600000D02*
X129270000Y-84511000D01*
X129270000Y-79200000D02*
X129270000Y-80600000D01*
X128181000Y-71700000D02*
X129270000Y-72789000D01*
X129270000Y-72789000D02*
X129270000Y-79200000D01*
X127401600Y-71700000D02*
X128181000Y-71700000D01*
X128181000Y-85600000D02*
X128200000Y-85600000D01*
X128200000Y-85600000D02*
X129300000Y-86700000D01*
X129300000Y-86700000D02*
X129300000Y-94500000D01*
X129300000Y-94500000D02*
X133300000Y-98500000D01*
X133300000Y-98500000D02*
X135600000Y-98500000D01*
X138400000Y-98500000D02*
X138400000Y-98924264D01*
X138400000Y-98500000D02*
X138400000Y-130400000D01*
D25*
X126201600Y-86800000D02*
X127401600Y-85600000D01*
X99700000Y-86800000D02*
X126201600Y-86800000D01*
X89900000Y-82800000D02*
X92700000Y-80000000D01*
X92700000Y-80000000D02*
X100600000Y-80000000D01*
X100600000Y-80000000D02*
X103400000Y-82800000D01*
D24*
X137000000Y-109000000D02*
X137000000Y-104500000D01*
X137000000Y-104500000D02*
X137000000Y-95000000D01*
D25*
X49300000Y-82800000D02*
X52100000Y-80000000D01*
X60000000Y-80000000D02*
X62800000Y-82800000D01*
X52100000Y-80000000D02*
X60000000Y-80000000D01*
X62800000Y-82800000D02*
X65600000Y-80000000D01*
X73500000Y-80000000D02*
X76300000Y-82800000D01*
X65600000Y-80000000D02*
X73500000Y-80000000D01*
X76300000Y-82800000D02*
X79100000Y-80000000D01*
X87000000Y-80000000D02*
X89800000Y-82800000D01*
X79100000Y-80000000D02*
X87000000Y-80000000D01*
D27*
X190700000Y-106300000D02*
X197100000Y-106300000D01*
X190700000Y-106300000D02*
X190700000Y-117500000D01*
X190700000Y-117500000D02*
X193300000Y-120100000D01*
X193300000Y-120100000D02*
X197000000Y-120100000D01*
D24*
X137000000Y-95000000D02*
X137000000Y-94990000D01*
D25*
X131810000Y-70639400D02*
X132870600Y-71700000D01*
X131810000Y-66700000D02*
X131810000Y-70639400D01*
X132870600Y-85600000D02*
X133650000Y-85600000D01*
X131810000Y-84539400D02*
X132870600Y-85600000D01*
X131810000Y-80600000D02*
X131810000Y-84539400D01*
X131810000Y-79200000D02*
X131810000Y-80600000D01*
X131810000Y-72760600D02*
X131810000Y-79200000D01*
X132870600Y-71700000D02*
X131810000Y-72760600D01*
X133650000Y-71700000D02*
X132870600Y-71700000D01*
D27*
X179400000Y-95000000D02*
X145059200Y-95000000D01*
X190700000Y-106300000D02*
X179400000Y-95000000D01*
X145059200Y-95000000D02*
X136800000Y-95000000D01*
X135344900Y-95000000D02*
X133300000Y-92955100D01*
X136800000Y-95000000D02*
X135344900Y-95000000D01*
X133300000Y-92955100D02*
X133300000Y-76500000D01*
X133300000Y-76500000D02*
X133300000Y-66200000D01*
D25*
X109600000Y-76500000D02*
X103300000Y-82800000D01*
X125200000Y-76500000D02*
X109600000Y-76500000D01*
D26*
X193300000Y-156300000D02*
X193300000Y-120100000D01*
X202500000Y-159400000D02*
X196400000Y-159400000D01*
X196400000Y-159400000D02*
X193300000Y-156300000D01*
D24*
X197300000Y-85475000D02*
X194900000Y-85475000D01*
X151800000Y-161100000D02*
X149300000Y-163600000D01*
X153200000Y-161100000D02*
X151800000Y-161100000D01*
X186000000Y-161100000D02*
X183500000Y-163600000D01*
X187400000Y-161100000D02*
X186000000Y-161100000D01*
X96600000Y-115737500D02*
X94200000Y-115737500D01*
X86900000Y-119162500D02*
X84500000Y-119162500D01*
X94299091Y-109699091D02*
X97098182Y-106900000D01*
X97098182Y-106900000D02*
X101425000Y-106900000D01*
X90237500Y-115737500D02*
X88400000Y-113900000D01*
X91800000Y-115737500D02*
X90237500Y-115737500D01*
X90237500Y-115737500D02*
X89462500Y-115737500D01*
X89462500Y-115737500D02*
X89400000Y-115800000D01*
X194900000Y-85475000D02*
X194000000Y-85475000D01*
X194000000Y-85475000D02*
X194535000Y-85475000D01*
X194535000Y-85475000D02*
X195650000Y-84360000D01*
X194000000Y-85475000D02*
X194000000Y-87570000D01*
X194000000Y-87570000D02*
X195915000Y-89485000D01*
X195700000Y-89270000D02*
X195915000Y-89485000D01*
X195915000Y-89485000D02*
X197930000Y-91500000D01*
X89400000Y-115800000D02*
X80975000Y-115800000D01*
X80975000Y-115800000D02*
X78925000Y-113750000D01*
X113600000Y-82600000D02*
X112900000Y-82600000D01*
X112600000Y-82300000D02*
X112600000Y-80737500D01*
X112900000Y-82600000D02*
X112600000Y-82300000D01*
X113600000Y-84637500D02*
X113537500Y-84700000D01*
X113600000Y-82600000D02*
X113600000Y-84637500D01*
X143500000Y-70700000D02*
X143500000Y-72550000D01*
X91800000Y-120037500D02*
X92062500Y-120300000D01*
X91800000Y-115737500D02*
X91800000Y-120037500D01*
X197300000Y-83600000D02*
X194900000Y-83600000D01*
X96600000Y-113862500D02*
X94200000Y-113862500D01*
X86900000Y-121037500D02*
X84500000Y-121037500D01*
X94200000Y-113862500D02*
X91800000Y-113862500D01*
X56500000Y-154900000D02*
X50400000Y-154900000D01*
X50400000Y-154900000D02*
X50300000Y-155000000D01*
X126600000Y-107150000D02*
X126600000Y-107637500D01*
X195700000Y-77987500D02*
X195000000Y-77287500D01*
X194900000Y-83600000D02*
X194000000Y-83600000D01*
X198800000Y-83600000D02*
X198400000Y-83600000D01*
X199000000Y-83400000D02*
X198800000Y-83600000D01*
X198400000Y-83600000D02*
X197300000Y-83600000D01*
X197300000Y-79587500D02*
X195000000Y-77287500D01*
X197300000Y-83600000D02*
X197300000Y-79587500D01*
X126600000Y-112200000D02*
X126600000Y-107637500D01*
X96600000Y-113862500D02*
X96600000Y-109650000D01*
X96600000Y-109650000D02*
X97750000Y-108500000D01*
X138300000Y-159300000D02*
X149300000Y-159300000D01*
X149362500Y-159300000D02*
X155100000Y-159300000D01*
X155100000Y-159300000D02*
X155524264Y-159300000D01*
X155524264Y-159300000D02*
X172200000Y-159300000D01*
X172200000Y-159300000D02*
X183500000Y-159300000D01*
X183562500Y-159300000D02*
X189300000Y-159300000D01*
X99250000Y-106000000D02*
X113600000Y-106000000D01*
X113600000Y-106000000D02*
X123000000Y-106000000D01*
X81937500Y-121037500D02*
X80300000Y-119400000D01*
X84500000Y-121037500D02*
X81937500Y-121037500D01*
X60900000Y-159300000D02*
X56500000Y-154900000D01*
X138300000Y-159300000D02*
X60900000Y-159300000D01*
X194000000Y-83600000D02*
X188800000Y-83600000D01*
X188800000Y-83600000D02*
X184250000Y-88150000D01*
X184250000Y-88150000D02*
X182950000Y-88150000D01*
X182950000Y-88150000D02*
X146450000Y-88150000D01*
X146450000Y-73685000D02*
X146521000Y-73614000D01*
X146450000Y-88150000D02*
X146450000Y-73685000D01*
X109800000Y-84700000D02*
X111662500Y-84700000D01*
X126600000Y-102024264D02*
X126600000Y-107637500D01*
X126600000Y-101600000D02*
X126600000Y-102024264D01*
X100200000Y-114600000D02*
X98600000Y-116200000D01*
X100200000Y-113200000D02*
X100200000Y-114600000D01*
X98600000Y-116200000D02*
X98600000Y-116600000D01*
X101150000Y-112250000D02*
X100200000Y-113200000D01*
X117599991Y-149475736D02*
X117600000Y-149475727D01*
X117599991Y-149900000D02*
X117599991Y-149475736D01*
X117600000Y-149475727D02*
X117600000Y-113800000D01*
X117600000Y-113800000D02*
X116050000Y-112250000D01*
X116050000Y-112250000D02*
X101150000Y-112250000D01*
X99200000Y-113400000D02*
X99200000Y-114600000D01*
X101350000Y-111250000D02*
X99200000Y-113400000D01*
X118399994Y-149900000D02*
X118399994Y-149475736D01*
X116550000Y-111250000D02*
X101350000Y-111250000D01*
X118400000Y-149475730D02*
X118400000Y-113100000D01*
X118399994Y-149475736D02*
X118400000Y-149475730D01*
X118400000Y-113100000D02*
X116550000Y-111250000D01*
X101350000Y-110250000D02*
X99200000Y-112400000D01*
X116850000Y-110250000D02*
X101350000Y-110250000D01*
X119199997Y-149900000D02*
X119199997Y-112599997D01*
X119199997Y-112599997D02*
X116850000Y-110250000D01*
X117450000Y-109250000D02*
X101000000Y-109250000D01*
X101000000Y-109250000D02*
X98500000Y-111750000D01*
X120000000Y-149900000D02*
X120000000Y-111800000D01*
X120000000Y-111800000D02*
X117450000Y-109250000D01*
X112600000Y-78000000D02*
X112600000Y-79262500D01*
X38750000Y-114700000D02*
X40000000Y-113450000D01*
X38000000Y-114700000D02*
X38750000Y-114700000D01*
X112600000Y-79262500D02*
X110337500Y-79262500D01*
X110337500Y-79262500D02*
X104500000Y-85100000D01*
X104500000Y-85100000D02*
X41850000Y-85100000D01*
X40000000Y-86950000D02*
X40000000Y-113450000D01*
X41850000Y-85100000D02*
X40000000Y-86950000D01*
X49300000Y-136200000D02*
X53100000Y-136200000D01*
X53187500Y-144050000D02*
X53137500Y-144100000D01*
X57550000Y-144100000D02*
X53137500Y-144100000D01*
X58037500Y-144100000D02*
X57550000Y-144100000D01*
X35500000Y-136200000D02*
X34900000Y-136800000D01*
X49300000Y-136200000D02*
X35500000Y-136200000D01*
X47450000Y-137725000D02*
X51262500Y-137725000D01*
X36975000Y-137725000D02*
X34900000Y-139800000D01*
X47450000Y-137725000D02*
X36975000Y-137725000D01*
X36102081Y-139800000D02*
X38100000Y-141797919D01*
X38100000Y-141797919D02*
X38100000Y-157300000D01*
X34900000Y-139800000D02*
X36102081Y-139800000D01*
X38100000Y-158300000D02*
X38100000Y-158500000D01*
X38100000Y-157300000D02*
X38100000Y-158300000D01*
X38100000Y-158500000D02*
X36100000Y-160500000D01*
X36100000Y-160500000D02*
X34900000Y-160500000D01*
X197750000Y-89300000D02*
X197750000Y-87250000D01*
X197750000Y-87250000D02*
X197700000Y-87200000D01*
X199741942Y-89208058D02*
X199650000Y-89300000D01*
X199650000Y-87341942D02*
X199650000Y-89300000D01*
X200275001Y-81675001D02*
X199700000Y-81100000D01*
X199650000Y-91500000D02*
X200275001Y-90874999D01*
X200275001Y-90874999D02*
X200275001Y-81675001D01*
X43990000Y-59710000D02*
X43990000Y-58500000D01*
X49300000Y-65020000D02*
X43990000Y-59710000D01*
X57490000Y-59710000D02*
X57490000Y-58500000D01*
X62800000Y-65020000D02*
X57490000Y-59710000D01*
X70990000Y-59710000D02*
X70990000Y-58500000D01*
X76300000Y-65020000D02*
X70990000Y-59710000D01*
X84490000Y-59710000D02*
X84490000Y-58500000D01*
X89800000Y-65020000D02*
X84490000Y-59710000D01*
X120825002Y-100700000D02*
X117600000Y-100700000D01*
X136875905Y-131975905D02*
X151709672Y-131975905D01*
X132500000Y-127600000D02*
X136875905Y-131975905D01*
X132500000Y-104500000D02*
X132500000Y-127600000D01*
X117600000Y-100700000D02*
X128700000Y-100700000D01*
X128700000Y-100700000D02*
X132500000Y-104500000D01*
X117600000Y-100700000D02*
X79250000Y-100700000D01*
X80760000Y-122400000D02*
X80300000Y-121940000D01*
X83800000Y-122400000D02*
X80760000Y-122400000D01*
X94435000Y-112687730D02*
X94435000Y-110565000D01*
X94435000Y-110565000D02*
X97300000Y-107700000D01*
X123100000Y-107700000D02*
X125000000Y-105800000D01*
X97300000Y-107700000D02*
X123100000Y-107700000D01*
X97700000Y-112700000D02*
X97700000Y-109600000D01*
X125000000Y-110300000D02*
X123100000Y-108400000D01*
X123100000Y-108400000D02*
X98900000Y-108400000D01*
X97700000Y-109600000D02*
X98800000Y-108500000D01*
X98900000Y-108400000D02*
X98800000Y-108500000D01*
X82800000Y-107500000D02*
X79250000Y-107500000D01*
X165066000Y-72714000D02*
X165066000Y-69714000D01*
X165066000Y-69714000D02*
X165091000Y-69689000D01*
X166721000Y-76526500D02*
X166721000Y-81426500D01*
X174466000Y-72714000D02*
X174466000Y-76464000D01*
X174466000Y-76464000D02*
X174491000Y-76489000D01*
X152771000Y-65129000D02*
X150641000Y-62999000D01*
X154541000Y-59359000D02*
X152271000Y-59359000D01*
X150641000Y-60989000D02*
X150641000Y-62999000D01*
X152271000Y-59359000D02*
X150641000Y-60989000D01*
X174466000Y-58975000D02*
X173991000Y-58500000D01*
X174466000Y-72714000D02*
X174466000Y-58975000D01*
X172996000Y-70839000D02*
X172996000Y-74651500D01*
X170796000Y-58695000D02*
X170991000Y-58500000D01*
X170796000Y-70489000D02*
X170796000Y-58695000D01*
X46400000Y-145700000D02*
X49400000Y-145700000D01*
X177591000Y-67543800D02*
X177591000Y-66389000D01*
X177591000Y-74289000D02*
X174486000Y-77394000D01*
X177591000Y-67543800D02*
X177591000Y-74289000D01*
X174486000Y-81284000D02*
X174491000Y-81289000D01*
X174486000Y-77394000D02*
X174486000Y-81284000D01*
X177591000Y-59100000D02*
X176991000Y-58500000D01*
X177591000Y-66389000D02*
X177591000Y-59100000D01*
X170621000Y-78669000D02*
X170616000Y-78664000D01*
X170621000Y-80689000D02*
X170621000Y-78669000D01*
X180131000Y-75149000D02*
X180131000Y-66389000D01*
X176381000Y-78899000D02*
X180131000Y-75149000D01*
X180131000Y-58640000D02*
X179991000Y-58500000D01*
X180131000Y-66389000D02*
X180131000Y-58640000D01*
X160200000Y-77000000D02*
X160200000Y-73000000D01*
X82800000Y-106699997D02*
X79250003Y-106699997D01*
X79250003Y-106699997D02*
X79250000Y-106700000D01*
X145050000Y-90400000D02*
X145050000Y-77500000D01*
X145050000Y-77500000D02*
X145000000Y-77450000D01*
X86600000Y-129000000D02*
X90200000Y-129000000D01*
X79250000Y-99899997D02*
X82799997Y-99899997D01*
X82799997Y-99899997D02*
X82800000Y-99900000D01*
X82799997Y-99899997D02*
X126599997Y-99899997D01*
X126599997Y-99899997D02*
X126600000Y-99900000D01*
X188300000Y-89700000D02*
X188750000Y-89250000D01*
X175500000Y-89700000D02*
X188300000Y-89700000D01*
X186560000Y-88900000D02*
X188750000Y-86710000D01*
X175500000Y-88900000D02*
X186560000Y-88900000D01*
X188750000Y-86710000D02*
X190840000Y-88800000D01*
X190840000Y-88800000D02*
X194346116Y-88800000D01*
X194346116Y-88800000D02*
X194715000Y-89168884D01*
X58000000Y-136200000D02*
X54100000Y-136200000D01*
X51500000Y-133600000D02*
X54100000Y-136200000D01*
X43300000Y-133600000D02*
X51500000Y-133600000D01*
X35160000Y-133540000D02*
X34900000Y-133800000D01*
X43000000Y-133540000D02*
X35160000Y-133540000D01*
X33000000Y-152600000D02*
X34900000Y-154500000D01*
X34900000Y-133800000D02*
X33000000Y-135700000D01*
X33000000Y-135700000D02*
X33000000Y-152600000D01*
X43300000Y-131060000D02*
X52310000Y-131060000D01*
X52310000Y-131060000D02*
X55550000Y-134300000D01*
X55275000Y-140100000D02*
X57300000Y-140100000D01*
X35100000Y-131000000D02*
X34900000Y-130800000D01*
X43000000Y-131000000D02*
X35100000Y-131000000D01*
X97675736Y-119219990D02*
X96800000Y-120095726D01*
X98100000Y-119219990D02*
X97675736Y-119219990D01*
X96800000Y-120095726D02*
X96800000Y-124100000D01*
X96800000Y-124100000D02*
X100200000Y-127500000D01*
X100200000Y-127500000D02*
X105600000Y-127500000D01*
X105930000Y-127830000D02*
X105930000Y-134350000D01*
X105600000Y-127500000D02*
X105930000Y-127830000D01*
X108470000Y-127270000D02*
X108470000Y-134350000D01*
X108000000Y-126800000D02*
X108470000Y-127270000D01*
X97675736Y-120019993D02*
X97474999Y-120220730D01*
X98100000Y-120019993D02*
X97675736Y-120019993D01*
X97474999Y-120220730D02*
X97474999Y-123774999D01*
X100500000Y-126800000D02*
X108000000Y-126800000D01*
X97474999Y-123774999D02*
X100500000Y-126800000D01*
X111010000Y-126810000D02*
X111010000Y-134350000D01*
X100800000Y-126100000D02*
X110300000Y-126100000D01*
X98100000Y-120900000D02*
X98100000Y-123400000D01*
X110300000Y-126100000D02*
X111010000Y-126810000D01*
X98100000Y-123400000D02*
X100800000Y-126100000D01*
X74979985Y-103499985D02*
X72350000Y-100870000D01*
X82800000Y-103499985D02*
X74979985Y-103499985D01*
X73200009Y-105099991D02*
X72350000Y-105950000D01*
X82800000Y-105099991D02*
X73200009Y-105099991D01*
X74940006Y-105899994D02*
X72350000Y-108490000D01*
X82800000Y-105899994D02*
X74940006Y-105899994D01*
X73239988Y-104299988D02*
X72350000Y-103410000D01*
X82800000Y-104299988D02*
X73239988Y-104299988D01*
X95000000Y-141300000D02*
X112100000Y-141300000D01*
X113550000Y-139850000D02*
X113550000Y-136890000D01*
X112100000Y-141300000D02*
X113550000Y-139850000D01*
X93100000Y-139400000D02*
X95000000Y-141300000D01*
X93100000Y-129125822D02*
X91839077Y-127864899D01*
X93100000Y-139400000D02*
X93100000Y-129125822D01*
X109900000Y-140400000D02*
X111010000Y-139290000D01*
X95300000Y-140400000D02*
X109900000Y-140400000D01*
X111010000Y-139290000D02*
X111010000Y-136890000D01*
X92397819Y-127292352D02*
X92697818Y-127592351D01*
X92697818Y-127597818D02*
X93900000Y-128800000D01*
X92697818Y-127592351D02*
X92697818Y-127597818D01*
X93900000Y-128800000D02*
X93900000Y-139000000D01*
X93900000Y-139000000D02*
X95300000Y-140400000D01*
X93000243Y-126725000D02*
X94700000Y-128424757D01*
X94700000Y-128424757D02*
X94700000Y-138600000D01*
X94700000Y-138600000D02*
X95700000Y-139600000D01*
X95700000Y-139600000D02*
X107700000Y-139600000D01*
X108470000Y-138830000D02*
X108470000Y-136890000D01*
X107700000Y-139600000D02*
X108470000Y-138830000D01*
X93500000Y-126100000D02*
X95500000Y-128100000D01*
X95500000Y-128100000D02*
X95500000Y-138200000D01*
X95500000Y-138200000D02*
X96100000Y-138800000D01*
X96100000Y-138800000D02*
X105600000Y-138800000D01*
X105930000Y-138470000D02*
X105930000Y-136890000D01*
X105600000Y-138800000D02*
X105930000Y-138470000D01*
X125980000Y-66700000D02*
X125500000Y-67180000D01*
X126730000Y-66700000D02*
X125980000Y-66700000D01*
X125500000Y-67180000D02*
X125500000Y-71900000D01*
X125500000Y-71900000D02*
X124800000Y-72600000D01*
X124800000Y-72600000D02*
X121600000Y-72600000D01*
D25*
X150200000Y-66800000D02*
X157500000Y-66800000D01*
X157500000Y-66800000D02*
X158400000Y-65900000D01*
X158400000Y-63678000D02*
X156311000Y-61589000D01*
X158400000Y-65900000D02*
X158400000Y-63678000D01*
D24*
X97990000Y-59710000D02*
X97990000Y-58500000D01*
X103300000Y-65020000D02*
X97990000Y-59710000D01*
D28*
G36*
X206840000Y-109173000D02*
G01*
X196027000Y-109173000D01*
X196027000Y-107474916D01*
X199270000Y-107474916D01*
X199270000Y-107725084D01*
X199318805Y-107970445D01*
X199414541Y-108201571D01*
X199553527Y-108409578D01*
X199730422Y-108586473D01*
X199938429Y-108725459D01*
X200169555Y-108821195D01*
X200414916Y-108870000D01*
X200665084Y-108870000D01*
X200910445Y-108821195D01*
X201141571Y-108725459D01*
X201349578Y-108586473D01*
X201526473Y-108409578D01*
X201665459Y-108201571D01*
X201761195Y-107970445D01*
X201810000Y-107725084D01*
X201810000Y-107474916D01*
X201761195Y-107229555D01*
X201665459Y-106998429D01*
X201526473Y-106790422D01*
X201349578Y-106613527D01*
X201141571Y-106474541D01*
X200910445Y-106378805D01*
X200665084Y-106330000D01*
X200414916Y-106330000D01*
X200169555Y-106378805D01*
X199938429Y-106474541D01*
X199730422Y-106613527D01*
X199553527Y-106790422D01*
X199414541Y-106998429D01*
X199318805Y-107229555D01*
X199270000Y-107474916D01*
X196027000Y-107474916D01*
X196027000Y-103427000D01*
X206840000Y-103427000D01*
X206840000Y-109173000D01*
G37*
X206840000Y-109173000D02*
X196027000Y-109173000D01*
X196027000Y-107474916D01*
X199270000Y-107474916D01*
X199270000Y-107725084D01*
X199318805Y-107970445D01*
X199414541Y-108201571D01*
X199553527Y-108409578D01*
X199730422Y-108586473D01*
X199938429Y-108725459D01*
X200169555Y-108821195D01*
X200414916Y-108870000D01*
X200665084Y-108870000D01*
X200910445Y-108821195D01*
X201141571Y-108725459D01*
X201349578Y-108586473D01*
X201526473Y-108409578D01*
X201665459Y-108201571D01*
X201761195Y-107970445D01*
X201810000Y-107725084D01*
X201810000Y-107474916D01*
X201761195Y-107229555D01*
X201665459Y-106998429D01*
X201526473Y-106790422D01*
X201349578Y-106613527D01*
X201141571Y-106474541D01*
X200910445Y-106378805D01*
X200665084Y-106330000D01*
X200414916Y-106330000D01*
X200169555Y-106378805D01*
X199938429Y-106474541D01*
X199730422Y-106613527D01*
X199553527Y-106790422D01*
X199414541Y-106998429D01*
X199318805Y-107229555D01*
X199270000Y-107474916D01*
X196027000Y-107474916D01*
X196027000Y-103427000D01*
X206840000Y-103427000D01*
X206840000Y-109173000D01*
G36*
X206840001Y-122973000D02*
G01*
X196027000Y-122973000D01*
X196027000Y-121174916D01*
X199270000Y-121174916D01*
X199270000Y-121425084D01*
X199318805Y-121670445D01*
X199414541Y-121901571D01*
X199553527Y-122109578D01*
X199730422Y-122286473D01*
X199938429Y-122425459D01*
X200169555Y-122521195D01*
X200414916Y-122570000D01*
X200665084Y-122570000D01*
X200910445Y-122521195D01*
X201141571Y-122425459D01*
X201349578Y-122286473D01*
X201526473Y-122109578D01*
X201665459Y-121901571D01*
X201761195Y-121670445D01*
X201810000Y-121425084D01*
X201810000Y-121174916D01*
X201761195Y-120929555D01*
X201665459Y-120698429D01*
X201526473Y-120490422D01*
X201349578Y-120313527D01*
X201141571Y-120174541D01*
X200910445Y-120078805D01*
X200665084Y-120030000D01*
X200414916Y-120030000D01*
X200169555Y-120078805D01*
X199938429Y-120174541D01*
X199730422Y-120313527D01*
X199553527Y-120490422D01*
X199414541Y-120698429D01*
X199318805Y-120929555D01*
X199270000Y-121174916D01*
X196027000Y-121174916D01*
X196027000Y-117227000D01*
X206840001Y-117227000D01*
X206840001Y-122973000D01*
G37*
X206840001Y-122973000D02*
X196027000Y-122973000D01*
X196027000Y-121174916D01*
X199270000Y-121174916D01*
X199270000Y-121425084D01*
X199318805Y-121670445D01*
X199414541Y-121901571D01*
X199553527Y-122109578D01*
X199730422Y-122286473D01*
X199938429Y-122425459D01*
X200169555Y-122521195D01*
X200414916Y-122570000D01*
X200665084Y-122570000D01*
X200910445Y-122521195D01*
X201141571Y-122425459D01*
X201349578Y-122286473D01*
X201526473Y-122109578D01*
X201665459Y-121901571D01*
X201761195Y-121670445D01*
X201810000Y-121425084D01*
X201810000Y-121174916D01*
X201761195Y-120929555D01*
X201665459Y-120698429D01*
X201526473Y-120490422D01*
X201349578Y-120313527D01*
X201141571Y-120174541D01*
X200910445Y-120078805D01*
X200665084Y-120030000D01*
X200414916Y-120030000D01*
X200169555Y-120078805D01*
X199938429Y-120174541D01*
X199730422Y-120313527D01*
X199553527Y-120490422D01*
X199414541Y-120698429D01*
X199318805Y-120929555D01*
X199270000Y-121174916D01*
X196027000Y-121174916D01*
X196027000Y-117227000D01*
X206840001Y-117227000D01*
X206840001Y-122973000D01*
M02*
