M48
; DRILL file {KiCad (5.1.5)-3} date 11/23/2021 10:27:57 PM
; FORMAT={-:-/ absolute / inch / decimal}
; #@! TF.CreationDate,2021-11-23T22:27:57-06:00
; #@! TF.GenerationSoftware,Kicad,Pcbnew,(5.1.5)-3
FMAT,2
INCH
T1C0.0118
T2C0.0236
T3C0.0295
T4C0.0335
T5C0.0394
T6C0.0402
T7C0.0433
T8C0.0512
T9C0.0590
T10C0.0600
T11C0.0394
T12C0.0500
T13C0.0925
T14C0.1102
T15C0.1181
%
G90
G05
T1
X1.7899Y-3.4528
X1.8268Y-5.7362
X1.8637Y-3.4537
X1.8681Y-5.4222
X1.9409Y-5.3622
X1.9449Y-5.7362
X1.9803Y-6.1024
X2.0182Y-5.4222
X2.0906Y-5.3622
X2.092Y-5.6732
X2.1262Y-5.3624
X2.1762Y-5.5157
X2.187Y-5.2874
X2.2244Y-6.0984
X2.2835Y-5.3622
X2.2849Y-5.6732
X2.3214Y-3.4528
X2.3952Y-3.4528
X2.8529Y-3.4528
X2.9267Y-3.4528
X3.1073Y-4.4783
X3.1201Y-3.9331
X3.1201Y-3.9646
X3.1201Y-4.2008
X3.1201Y-4.2323
X3.2598Y-4.0748
X3.2598Y-4.1063
X3.2598Y-4.1378
X3.2598Y-4.1693
X3.2598Y-4.2008
X3.2598Y-4.2323
X3.2992Y-4.8189
X3.3844Y-3.4528
X3.4065Y-4.4843
X3.4094Y-5.0787
X3.4104Y-4.2913
X3.4213Y-4.6914
X3.4213Y-4.7653
X3.4582Y-3.4528
X3.4803Y-4.4843
X3.4843Y-4.2913
X3.5197Y-4.5591
X3.5512Y-5.0787
X3.6142Y-4.4828
X3.6142Y-4.5566
X3.6157Y-5.0341
X3.6245Y-4.7362
X3.6377Y-5.0115
X3.6442Y-4.9213
X3.6614Y-4.9892
X3.6811Y-4.9646
X3.6983Y-4.7362
X3.7087Y-4.4828
X3.7087Y-4.5566
X3.7126Y-4.3189
X3.7179Y-4.4365
X3.718Y-4.9213
X3.8465Y-4.437
X3.8484Y-4.2717
X3.8622Y-4.6937
X3.8622Y-4.7252
X3.8622Y-4.7598
X3.878Y-4.3996
X3.8819Y-4.5906
X3.9055Y-4.4252
X3.9055Y-4.5118
X3.9075Y-4.1732
X3.9252Y-3.4173
X3.9931Y-4.2087
X4.3228Y-3.3346
X4.4331Y-3.0709
X4.4724Y-3.252
X4.6299Y-5.9016
X4.6614Y-5.9016
X4.6929Y-5.9016
X4.7244Y-5.9016
X4.7874Y-2.8583
X4.8425Y-4.1732
X4.9213Y-4.1654
X4.9213Y-4.3425
X4.9291Y-3.0118
X4.9843Y-3.9331
X4.9843Y-4.0
X4.9843Y-4.2377
X4.9843Y-4.4173
X5.248Y-3.0118
X5.3937Y-4.1142
X5.3937Y-4.2913
X5.4449Y-6.2717
X5.6496Y-2.7835
X5.6496Y-2.8563
X5.7087Y-3.0492
X5.7106Y-3.5591
X5.7657Y-3.4705
X5.7685Y-2.8982
X5.8804Y-6.2717
X5.8804Y-6.4409
X5.9134Y-2.6299
X6.0315Y-6.3425
X6.1063Y-6.2717
X6.3071Y-2.874
X6.3071Y-3.0315
X6.4987Y-2.8628
X6.4996Y-2.7437
X6.5638Y-3.0129
X6.5638Y-3.2058
X6.7172Y-3.097
X6.7243Y-2.7752
X6.7795Y-6.2717
X6.8109Y-2.7889
X6.8109Y-2.939
X6.8687Y-2.8628
X6.8695Y-3.047
X6.8697Y-3.0114
X6.8697Y-3.2004
X6.9094Y-3.5
X6.9094Y-3.5315
X6.9441Y-3.1063
X7.2244Y-6.4409
X7.2269Y-6.2717
X7.378Y-6.3425
X7.4528Y-6.2717
X7.4528Y-6.3425
X7.6659Y-3.5106
X7.6772Y-3.0428
X7.7028Y-3.3213
X7.7854Y-3.437
X7.7854Y-3.5157
X7.7925Y-3.6024
X7.8346Y-3.2835
X7.8602Y-3.1929
X7.8602Y-3.4387
X7.8602Y-3.5157
X7.8602Y-3.6024
T3
X5.3386Y-3.878
X5.4488Y-3.878
X5.4488Y-5.1339
X7.6102Y-4.7283
T4
X4.8894Y-3.1732
X4.9894Y-3.1732
X5.0894Y-3.1732
X5.1894Y-3.1732
X4.8894Y-2.626
X4.9894Y-2.626
X5.0894Y-2.626
X5.1894Y-2.626
X7.9881Y-3.2228
X7.9881Y-3.4197
T5
X1.6929Y-5.1575
X1.6929Y-5.2575
X2.2559Y-5.5157
X2.3559Y-5.5157
X3.1614Y-4.7008
X3.1614Y-4.8008
X3.1614Y-4.9008
X3.1614Y-5.0008
X4.1705Y-5.2894
X4.1705Y-5.3894
X4.2705Y-5.2894
X4.2705Y-5.3894
X4.3705Y-5.2894
X4.3705Y-5.3894
X4.4705Y-5.2953
X4.4705Y-5.3894
X1.378Y-4.0433
X1.378Y-4.1614
X1.378Y-4.2795
X1.378Y-4.3976
X1.378Y-4.5157
X1.4961Y-4.0433
X1.4961Y-4.1614
X1.4961Y-4.2795
X1.4961Y-4.3976
X1.4961Y-4.5157
X2.8484Y-3.9713
X2.8484Y-4.0713
X2.8484Y-4.1713
X2.8484Y-4.2713
X6.7174Y-3.1767
X6.7174Y-3.2767
X7.4311Y-3.4138
X7.4311Y-3.5138
X7.4311Y-3.6138
X6.9918Y-2.6137
X7.0918Y-2.6137
T6
X5.2402Y-6.6929
X5.3583Y-6.6929
X5.4764Y-6.6929
X7.9724Y-4.0
X7.9724Y-4.1181
X1.374Y-5.1496
X1.374Y-5.2677
X1.374Y-5.3858
X1.374Y-5.5039
X5.9134Y-6.6929
X6.0315Y-6.6929
X6.1496Y-6.6929
X3.3264Y-2.3031
X3.4445Y-2.3031
X7.9724Y-5.0787
X7.9724Y-5.1969
X6.5866Y-6.6929
X6.7047Y-6.6929
X6.8228Y-6.6929
X1.374Y-5.9646
X1.374Y-6.0827
X1.374Y-6.2008
X1.374Y-6.3189
X7.2598Y-6.6929
X7.378Y-6.6929
X7.4961Y-6.6929
X3.708Y-6.6946
X3.8261Y-6.6946
X4.2474Y-6.6946
X4.3655Y-6.6946
X3.8579Y-2.3031
X3.976Y-2.3031
X1.7319Y-2.3031
X1.85Y-2.3031
X2.6293Y-6.6946
X2.7474Y-6.6946
X3.1686Y-6.6946
X3.2867Y-6.6946
X7.9724Y-6.1575
X7.9724Y-6.2756
X7.9724Y-5.6181
X7.9724Y-5.7362
X7.9724Y-4.5394
X7.9724Y-4.6575
X2.2634Y-2.3031
X2.3815Y-2.3031
X5.0787Y-2.3031
X5.1969Y-2.3031
X6.7319Y-2.3031
X6.85Y-2.3031
X6.9681Y-2.3031
X7.0863Y-2.3031
X2.7949Y-2.3031
X2.913Y-2.3031
T7
X2.7039Y-2.5598
X2.7039Y-3.2598
X2.8039Y-3.2598
X2.9039Y-3.2598
X3.0039Y-2.5598
X3.0039Y-3.2598
X1.6409Y-2.5598
X1.6409Y-3.2598
X1.7409Y-3.2598
X1.8409Y-3.2598
X1.9409Y-2.5598
X1.9409Y-3.2598
X3.7669Y-2.5598
X3.7669Y-3.2598
X3.8669Y-3.2598
X3.9669Y-3.2598
X4.0669Y-2.5598
X4.0669Y-3.2598
X3.2354Y-2.5598
X3.2354Y-3.2598
X3.3354Y-3.2598
X3.4354Y-3.2598
X3.5354Y-2.5598
X3.5354Y-3.2598
X2.1724Y-2.5598
X2.1724Y-3.2598
X2.2724Y-3.2598
X2.3724Y-3.2598
X2.4724Y-2.5598
X2.4724Y-3.2598
T8
X6.0146Y-2.4248
X6.0146Y-2.5641
X6.0843Y-2.337
X6.0843Y-2.4944
X6.154Y-2.4248
X6.154Y-2.5641
T9
X5.8597Y-4.7738
X5.8597Y-5.0
X5.9728Y-4.5779
X5.9728Y-5.1959
X6.1687Y-4.4648
X6.1687Y-5.309
X6.1799Y-4.775
X6.3893Y-4.9944
X6.3949Y-4.4648
X6.3949Y-5.309
X6.5908Y-4.5779
X6.5908Y-5.1959
X6.7039Y-4.7738
X6.7039Y-5.0
T10
X6.0984Y-5.6535
X6.2834Y-5.6535
X6.4684Y-5.6535
T11
X1.3409Y-3.9252
X1.3409Y-4.6339
T12
X7.8953Y-6.0394
X7.8953Y-6.3937
X7.8953Y-5.5
X7.8953Y-5.8543
X7.8953Y-4.4213
X7.8953Y-4.7756
X2.1453Y-2.3803
X2.4996Y-2.3803
X4.9606Y-2.3803
X5.315Y-2.3803
X6.6138Y-2.3803
X7.2044Y-2.3803
X2.6768Y-2.3803
X3.0311Y-2.3803
X5.122Y-6.6157
X5.5945Y-6.6157
X7.8953Y-3.8819
X7.8953Y-4.2362
X1.4512Y-5.0315
X1.4512Y-5.622
X5.7953Y-6.6157
X6.2677Y-6.6157
X3.2083Y-2.3803
X3.5626Y-2.3803
X7.8953Y-4.9606
X7.8953Y-5.315
X6.4685Y-6.6157
X6.9409Y-6.6157
X1.4512Y-5.8465
X1.4512Y-6.437
X7.1417Y-6.6157
X7.6142Y-6.6157
X3.5899Y-6.6174
X3.9442Y-6.6174
X4.1293Y-6.6174
X4.4836Y-6.6174
X3.7398Y-2.3803
X4.0941Y-2.3803
X1.6138Y-2.3803
X1.9681Y-2.3803
X2.5111Y-6.6174
X2.8655Y-6.6174
X3.0505Y-6.6174
X3.4048Y-6.6174
T13
X5.789Y-2.4944
X6.3796Y-2.4944
T14
X5.789Y-2.337
X6.3796Y-2.337
T15
X1.3386Y-2.2244
X8.0512Y-2.2244
X8.0512Y-6.7717
X1.3386Y-6.7717
T2
G00X8.0806Y-3.1835
M15
G01X8.1082Y-3.1835
M16
G05
G00X8.1082Y-3.4591
M15
G01X8.0806Y-3.4591
M16
G05
T0
M30
