M48
; DRILL file {KiCad (6.0.4)} date Sat 02 Apr 2022 02:45:47 PM CDT
; FORMAT={-:-/ absolute / inch / decimal}
; #@! TF.CreationDate,2022-04-02T14:45:47-05:00
; #@! TF.GenerationSoftware,Kicad,Pcbnew,(6.0.4)
; #@! TF.FileFunction,Plated,1,2,PTH
FMAT,2
INCH
; #@! TA.AperFunction,Plated,PTH,ViaDrill
T1C0.0118
; #@! TA.AperFunction,Plated,PTH,ViaDrill
T2C0.0157
; #@! TA.AperFunction,Plated,PTH,ViaDrill
T3C0.0197
; #@! TA.AperFunction,Plated,PTH,ComponentDrill
T4C0.0236
; #@! TA.AperFunction,Plated,PTH,ComponentDrill
T5C0.0335
; #@! TA.AperFunction,Plated,PTH,ComponentDrill
T6C0.0394
; #@! TA.AperFunction,Plated,PTH,ComponentDrill
T7C0.0402
; #@! TA.AperFunction,Plated,PTH,ComponentDrill
T8C0.0433
; #@! TA.AperFunction,Plated,PTH,ComponentDrill
T9C0.0512
%
G90
G05
T1
X3.7874Y-3.689
X3.8307Y-4.3583
X3.8346Y-1.9665
X3.8839Y-2.7126
X3.9016Y-2.1339
X3.9055Y-3.2126
X3.9055Y-4.6102
X3.9134Y-2.6358
X3.9311Y-3.813
X3.9331Y-4.0748
X3.9803Y-3.2185
X4.0197Y-3.9469
X4.037Y-3.428
X4.037Y-3.5146
X4.0374Y-2.0906
X4.0375Y-3.6091
X4.0531Y-4.0748
X4.0551Y-4.7854
X4.0591Y-2.9134
X4.061Y-3.2933
X4.0748Y-2.5315
X4.0748Y-3.9429
X4.1472Y-3.5579
X4.1575Y-4.7874
X4.1713Y-4.2362
X4.1984Y-3.6307
X4.2972Y-4.7874
X4.4075Y-4.6654
X4.439Y-4.7913
X4.4764Y-3.7638
X4.4843Y-3.9941
X4.5118Y-4.498
X4.5315Y-4.2126
X4.5315Y-4.7913
X4.5433Y-4.3071
X4.5551Y-3.2323
X4.5551Y-3.3937
X4.6083Y-4.6476
X4.6319Y-2.2224
X4.689Y-3.5551
X4.7047Y-3.6575
X4.7835Y-2.378
X4.8425Y-3.4409
X4.8425Y-3.5827
X4.8425Y-3.7087
X4.9409Y-3.2569
X5.0197Y-3.9646
X5.0571Y-2.6417
X5.0748Y-3.752
X5.0945Y-2.1713
X5.0984Y-3.2362
X5.1063Y-3.752
X5.1378Y-3.9646
X5.1417Y-3.2362
X5.1594Y-4.1909
X5.1752Y-2.2953
X5.185Y-3.2362
X5.2008Y-4.1004
X5.2008Y-4.1476
X5.2126Y-3.6457
X5.2247Y-2.9134
X5.2323Y-3.2362
X5.2323Y-3.9232
X5.2657Y-3.6732
X5.2717Y-3.5669
X5.2874Y-4.1417
X5.2874Y-4.1772
X5.2953Y-3.0197
X5.2992Y-3.063
X5.3031Y-3.6732
X5.3169Y-3.7441
X5.3248Y-5.0846
X5.3543Y-3.7756
X5.3642Y-3.626
X5.3642Y-3.7205
X5.3678Y-3.1322
X5.3957Y-1.7815
X5.4016Y-5.0965
X5.4055Y-3.1299
X5.4331Y-3.9685
X5.435Y-5.0433
X5.4449Y-3.1339
X5.4488Y-3.5689
X5.4587Y-3.7303
X5.4606Y-3.9409
X5.4882Y-4.1417
X5.4882Y-4.1772
X5.5118Y-4.0906
X5.5354Y-3.5276
X5.5413Y-1.7717
X5.5551Y-4.0906
X5.563Y-4.2382
X5.5669Y-3.1378
X5.5709Y-3.2244
X5.5709Y-3.4449
X5.5945Y-4.0906
X5.6142Y-5.0768
X5.6161Y-1.9114
X5.6294Y-3.3844
X5.6417Y-4.2362
X5.6457Y-3.2598
X5.6929Y-3.2087
X5.7126Y-3.4843
X5.7126Y-3.5276
X5.7736Y-4.9961
X5.7756Y-4.9213
X5.7756Y-5.0748
X5.7835Y-1.7598
X5.8091Y-4.1732
X5.811Y-3.9843
X5.8484Y-5.0217
X5.874Y-3.7854
X5.8898Y-4.1142
X5.8898Y-4.8445
X5.9744Y-4.0886
X5.9764Y-3.8917
X5.9783Y-3.752
X5.9783Y-4.2677
X6.0118Y-3.0118
X6.0118Y-4.0315
X6.0807Y-5.1102
X6.122Y-2.5
X6.1555Y-1.7717
X6.1732Y-5.1043
X6.1949Y-2.8228
X6.2047Y-2.0748
X6.248Y-3.0118
X6.2559Y-2.5
X6.2559Y-4.0315
X6.2618Y-5.124
X6.2618Y-5.1929
X6.3484Y-5.3661
X6.4055Y-5.3661
X6.4705Y-5.2244
X6.5866Y-5.2303
X6.7441Y-5.3189
X6.7623Y-4.1609
X6.7638Y-2.1988
X6.7638Y-2.5236
X6.7638Y-2.7972
X6.7638Y-3.0315
X6.7638Y-3.3445
X6.7638Y-3.5689
X6.7646Y-3.8772
X6.7697Y-1.874
X6.8504Y-5.315
X7.0748Y-3.9508
X7.0827Y-3.5354
X7.0846Y-1.872
X7.0846Y-2.5138
X7.0846Y-4.1811
X7.0886Y-3.0551
X7.0886Y-3.2972
X7.0965Y-2.2028
X7.0965Y-2.7736
X7.2319Y-5.2327
X7.3425Y-5.122
X7.3465Y-5.3287
T2
X4.0473Y-4.6814
X4.0513Y-4.2902
X4.0843Y-3.7193
X4.1251Y-4.2902
X4.1591Y-3.7193
X4.1669Y-4.113
X4.1969Y-3.4291
X4.2008Y-2.878
X4.2638Y-1.937
X4.2663Y-2.8172
X4.3228Y-3.3425
X4.3346Y-2.4409
X4.3346Y-2.5394
X4.4027Y-3.6937
X4.4094Y-2.7087
X4.4094Y-2.8583
X4.4094Y-3.0709
X4.4094Y-3.1772
X4.4961Y-3.4921
X4.7234Y-3.4941
X4.8269Y-4.3571
X4.9409Y-2.7559
X4.9764Y-4.3268
X4.9764Y-4.3819
X5.0315Y-4.3268
X5.2795Y-2.7559
X5.2913Y-4.6142
X5.311Y-2.8937
X5.3425Y-2.7756
X5.3583Y-4.6142
X5.3949Y-2.1465
X5.3949Y-2.2205
X5.4094Y-2.0945
X5.4409Y-2.7756
X5.4449Y-2.6535
X5.4488Y-4.5394
X5.5276Y-4.4606
X5.563Y-2.7756
X5.5669Y-2.0433
X5.5748Y-2.4429
X5.5945Y-1.9882
X5.5945Y-3.969
X5.5945Y-4.4567
X5.5945Y-4.5984
X5.6122Y-3.0162
X5.6398Y-2.3076
X5.6422Y-2.3814
X5.6496Y-2.7756
X5.6811Y-3.3346
X5.687Y-2.4213
X5.7126Y-4.4567
X5.7165Y-2.6063
X5.7205Y-2.3327
X5.7598Y-2.2795
X5.7717Y-3.0472
X5.7717Y-3.2087
X5.815Y-4.4567
X5.874Y-2.8701
X5.878Y-3.0472
X5.878Y-3.2087
X5.9201Y-2.0291
X5.9882Y-4.7283
X5.9921Y-4.1732
X6.0276Y-2.5512
X6.0512Y-4.8819
X6.2087Y-3.3346
X6.2087Y-3.4252
X6.2087Y-3.8898
X6.2126Y-3.5276
X6.2165Y-3.689
X6.2205Y-4.3386
X6.2559Y-4.748
X6.2756Y-2.4094
X6.2795Y-4.4331
X6.2835Y-3.5669
X6.2835Y-3.7244
X6.2835Y-3.8543
X6.2874Y-2.3504
X6.2874Y-2.8504
X6.2874Y-3.3661
X6.2953Y-4.9291
X6.3386Y-4.3661
X6.3524Y-1.9173
X6.4961Y-5.0472
X6.6693Y-4.7913
X6.7165Y-5.0472
X6.7244Y-4.8819
X6.7598Y-4.7874
X6.9016Y-5.0472
T3
X5.1339Y-4.315
X5.4016Y-2.9724
X5.4931Y-4.315
X5.7123Y-4.315
X5.7362Y-3.8465
X5.9134Y-4.315
X6.1693Y-2.9724
X6.4291Y-2.0079
X6.4291Y-2.4921
X6.4291Y-2.9921
X6.4291Y-3.5079
X6.4291Y-4.0157
T5
X3.9095Y-3.3512
X3.9095Y-3.548
X6.5443Y-4.4957
X6.5443Y-4.5957
X6.5443Y-4.6957
X6.5443Y-4.7957
T6
X3.8264Y-2.298
X3.8264Y-2.4161
X3.8264Y-2.5343
X3.8264Y-2.8492
X3.8264Y-2.9673
X3.8264Y-3.0854
X3.9445Y-2.298
X3.9445Y-2.4161
X3.9445Y-2.5343
X3.9445Y-2.8492
X3.9445Y-2.9673
X3.9445Y-3.0854
X4.126Y-3.8768
X4.226Y-3.8768
X4.5Y-3.8768
X4.6Y-3.8768
X4.6524Y-5.1898
X4.6524Y-5.3079
X4.7705Y-5.1898
X4.7705Y-5.3079
X4.7843Y-4.9528
X4.8843Y-4.9528
X4.8886Y-5.1898
X4.8886Y-5.3079
X4.9176Y-4.0672
X4.939Y-2.8701
X4.939Y-2.9701
X4.939Y-3.0701
X4.939Y-3.1701
X4.9843Y-4.9528
X4.9883Y-4.138
X5.0067Y-5.1898
X5.0067Y-5.3079
X5.039Y-2.8701
X5.039Y-2.9701
X5.039Y-3.0701
X5.039Y-3.1701
X5.0591Y-4.2087
X5.0843Y-4.9528
X5.1248Y-5.1898
X5.1248Y-5.3079
X5.4543Y-5.1898
X5.4543Y-5.3079
X5.5724Y-5.1898
X5.5724Y-5.3079
X5.6906Y-5.1898
X5.6906Y-5.3079
X5.8087Y-5.1898
X5.8087Y-5.3079
X5.878Y-3.3854
X5.878Y-3.4854
X5.878Y-3.5854
X5.878Y-3.6854
X5.9268Y-5.1898
X5.9268Y-5.3079
X5.9429Y-2.34
X5.9429Y-2.44
X6.0449Y-5.1898
X6.0449Y-5.3079
X6.1024Y-2.2805
X6.1024Y-2.3805
X6.163Y-5.1898
X6.163Y-5.3079
T7
X3.8205Y-4.5569
X3.8205Y-4.675
X3.8205Y-4.7931
X3.8205Y-4.9112
X3.8224Y-3.8187
X3.8224Y-3.9368
X3.8224Y-4.0549
X3.8224Y-4.173
X4.1441Y-1.7945
X4.1858Y-5.311
X4.2622Y-1.7945
X4.2776Y-4.9134
X4.3039Y-5.311
X4.3803Y-1.7945
X4.3957Y-4.9134
X4.4984Y-1.7945
X4.8449Y-1.7945
X4.963Y-1.7945
X5.0811Y-1.7945
X5.1992Y-1.7945
X5.8169Y-4.7047
X5.8169Y-4.8228
X6.5169Y-5.3114
X6.635Y-5.3114
X6.9957Y-5.3051
X7.1138Y-5.3051
X7.2319Y-5.3051
X7.5283Y-4.8858
X7.5283Y-5.0039
X7.5323Y-4.4382
X7.5323Y-4.5563
X7.5325Y-1.8957
X7.5325Y-2.0138
X7.5325Y-2.4055
X7.5325Y-2.5236
X7.5325Y-2.9193
X7.5325Y-3.0374
X7.5325Y-3.4291
X7.5325Y-3.5472
X7.5325Y-3.9409
X7.5325Y-4.0591
T8
X6.5837Y-1.8083
X6.5837Y-1.9083
X6.5837Y-2.0083
X6.5837Y-2.1083
X6.5837Y-2.3181
X6.5837Y-2.4181
X6.5837Y-2.5181
X6.5837Y-2.6181
X6.5837Y-2.8319
X6.5837Y-2.9319
X6.5837Y-3.0319
X6.5837Y-3.1319
X6.5837Y-3.3417
X6.5837Y-3.4417
X6.5837Y-3.5417
X6.5837Y-3.6417
X6.5837Y-3.8535
X6.5837Y-3.9535
X6.5837Y-4.0535
X6.5837Y-4.1535
X7.2837Y-1.8083
X7.2837Y-2.1083
X7.2837Y-2.3181
X7.2837Y-2.6181
X7.2837Y-2.8319
X7.2837Y-3.1319
X7.2837Y-3.3417
X7.2837Y-3.6417
X7.2837Y-3.8535
X7.2837Y-4.1535
T9
X5.7059Y-1.9929
X5.7059Y-2.1323
X5.7756Y-1.9051
X5.7756Y-2.0626
X5.8453Y-1.9929
X5.8453Y-2.1323
T4
G00X3.7895Y-3.3118
M15
G01X3.817Y-3.3118
M16
G05
G00X3.817Y-3.5874
M15
G01X3.7895Y-3.5874
M16
G05
T0
M30
