G04 #@! TF.GenerationSoftware,KiCad,Pcbnew,(5.1.6)-1*
G04 #@! TF.CreationDate,2021-02-06T11:42:46-06:00*
G04 #@! TF.ProjectId,Dashboard,44617368-626f-4617-9264-2e6b69636164,rev?*
G04 #@! TF.SameCoordinates,Original*
G04 #@! TF.FileFunction,Paste,Top*
G04 #@! TF.FilePolarity,Positive*
%FSLAX46Y46*%
G04 Gerber Fmt 4.6, Leading zero omitted, Abs format (unit mm)*
G04 Created by KiCad (PCBNEW (5.1.6)-1) date 2021-02-06 11:42:46*
%MOMM*%
%LPD*%
G01*
G04 APERTURE LIST*
%ADD10R,0.760000X2.200000*%
%ADD11R,1.000000X1.400000*%
%ADD12R,1.200000X1.400000*%
%ADD13R,0.600000X1.950000*%
%ADD14R,0.700000X1.000000*%
%ADD15R,1.000000X0.700000*%
%ADD16R,1.950000X0.600000*%
%ADD17R,2.000000X1.500000*%
%ADD18R,2.000000X3.800000*%
%ADD19R,2.750000X1.000000*%
%ADD20R,1.900000X1.500000*%
%ADD21R,1.350000X0.400000*%
%ADD22R,0.800000X0.900000*%
%ADD23R,5.410200X0.558800*%
G04 APERTURE END LIST*
G36*
G01*
X197243750Y-137850000D02*
X198156250Y-137850000D01*
G75*
G02*
X198400000Y-138093750I0J-243750D01*
G01*
X198400000Y-138581250D01*
G75*
G02*
X198156250Y-138825000I-243750J0D01*
G01*
X197243750Y-138825000D01*
G75*
G02*
X197000000Y-138581250I0J243750D01*
G01*
X197000000Y-138093750D01*
G75*
G02*
X197243750Y-137850000I243750J0D01*
G01*
G37*
G36*
G01*
X197243750Y-135975000D02*
X198156250Y-135975000D01*
G75*
G02*
X198400000Y-136218750I0J-243750D01*
G01*
X198400000Y-136706250D01*
G75*
G02*
X198156250Y-136950000I-243750J0D01*
G01*
X197243750Y-136950000D01*
G75*
G02*
X197000000Y-136706250I0J243750D01*
G01*
X197000000Y-136218750D01*
G75*
G02*
X197243750Y-135975000I243750J0D01*
G01*
G37*
D10*
X115025000Y-74427500D03*
X117565000Y-66172500D03*
X113755000Y-74427500D03*
X116295000Y-74427500D03*
X117565000Y-74427500D03*
X116295000Y-66172500D03*
X118835000Y-66172500D03*
X120105000Y-66172500D03*
X120105000Y-74427500D03*
X122645000Y-66172500D03*
X118835000Y-74427500D03*
X121375000Y-74427500D03*
X121375000Y-66172500D03*
X122645000Y-74427500D03*
X115025000Y-66172500D03*
X113755000Y-66172500D03*
G36*
G01*
X112025000Y-82575000D02*
X111875000Y-82575000D01*
G75*
G02*
X111800000Y-82500000I0J75000D01*
G01*
X111800000Y-81200000D01*
G75*
G02*
X111875000Y-81125000I75000J0D01*
G01*
X112025000Y-81125000D01*
G75*
G02*
X112100000Y-81200000I0J-75000D01*
G01*
X112100000Y-82500000D01*
G75*
G02*
X112025000Y-82575000I-75000J0D01*
G01*
G37*
G36*
G01*
X112525000Y-82575000D02*
X112375000Y-82575000D01*
G75*
G02*
X112300000Y-82500000I0J75000D01*
G01*
X112300000Y-81200000D01*
G75*
G02*
X112375000Y-81125000I75000J0D01*
G01*
X112525000Y-81125000D01*
G75*
G02*
X112600000Y-81200000I0J-75000D01*
G01*
X112600000Y-82500000D01*
G75*
G02*
X112525000Y-82575000I-75000J0D01*
G01*
G37*
G36*
G01*
X113025000Y-82575000D02*
X112875000Y-82575000D01*
G75*
G02*
X112800000Y-82500000I0J75000D01*
G01*
X112800000Y-81200000D01*
G75*
G02*
X112875000Y-81125000I75000J0D01*
G01*
X113025000Y-81125000D01*
G75*
G02*
X113100000Y-81200000I0J-75000D01*
G01*
X113100000Y-82500000D01*
G75*
G02*
X113025000Y-82575000I-75000J0D01*
G01*
G37*
G36*
G01*
X113525000Y-82575000D02*
X113375000Y-82575000D01*
G75*
G02*
X113300000Y-82500000I0J75000D01*
G01*
X113300000Y-81200000D01*
G75*
G02*
X113375000Y-81125000I75000J0D01*
G01*
X113525000Y-81125000D01*
G75*
G02*
X113600000Y-81200000I0J-75000D01*
G01*
X113600000Y-82500000D01*
G75*
G02*
X113525000Y-82575000I-75000J0D01*
G01*
G37*
G36*
G01*
X114025000Y-82575000D02*
X113875000Y-82575000D01*
G75*
G02*
X113800000Y-82500000I0J75000D01*
G01*
X113800000Y-81200000D01*
G75*
G02*
X113875000Y-81125000I75000J0D01*
G01*
X114025000Y-81125000D01*
G75*
G02*
X114100000Y-81200000I0J-75000D01*
G01*
X114100000Y-82500000D01*
G75*
G02*
X114025000Y-82575000I-75000J0D01*
G01*
G37*
G36*
G01*
X114525000Y-82575000D02*
X114375000Y-82575000D01*
G75*
G02*
X114300000Y-82500000I0J75000D01*
G01*
X114300000Y-81200000D01*
G75*
G02*
X114375000Y-81125000I75000J0D01*
G01*
X114525000Y-81125000D01*
G75*
G02*
X114600000Y-81200000I0J-75000D01*
G01*
X114600000Y-82500000D01*
G75*
G02*
X114525000Y-82575000I-75000J0D01*
G01*
G37*
G36*
G01*
X115025000Y-82575000D02*
X114875000Y-82575000D01*
G75*
G02*
X114800000Y-82500000I0J75000D01*
G01*
X114800000Y-81200000D01*
G75*
G02*
X114875000Y-81125000I75000J0D01*
G01*
X115025000Y-81125000D01*
G75*
G02*
X115100000Y-81200000I0J-75000D01*
G01*
X115100000Y-82500000D01*
G75*
G02*
X115025000Y-82575000I-75000J0D01*
G01*
G37*
G36*
G01*
X115525000Y-82575000D02*
X115375000Y-82575000D01*
G75*
G02*
X115300000Y-82500000I0J75000D01*
G01*
X115300000Y-81200000D01*
G75*
G02*
X115375000Y-81125000I75000J0D01*
G01*
X115525000Y-81125000D01*
G75*
G02*
X115600000Y-81200000I0J-75000D01*
G01*
X115600000Y-82500000D01*
G75*
G02*
X115525000Y-82575000I-75000J0D01*
G01*
G37*
G36*
G01*
X115525000Y-86875000D02*
X115375000Y-86875000D01*
G75*
G02*
X115300000Y-86800000I0J75000D01*
G01*
X115300000Y-85500000D01*
G75*
G02*
X115375000Y-85425000I75000J0D01*
G01*
X115525000Y-85425000D01*
G75*
G02*
X115600000Y-85500000I0J-75000D01*
G01*
X115600000Y-86800000D01*
G75*
G02*
X115525000Y-86875000I-75000J0D01*
G01*
G37*
G36*
G01*
X115025000Y-86875000D02*
X114875000Y-86875000D01*
G75*
G02*
X114800000Y-86800000I0J75000D01*
G01*
X114800000Y-85500000D01*
G75*
G02*
X114875000Y-85425000I75000J0D01*
G01*
X115025000Y-85425000D01*
G75*
G02*
X115100000Y-85500000I0J-75000D01*
G01*
X115100000Y-86800000D01*
G75*
G02*
X115025000Y-86875000I-75000J0D01*
G01*
G37*
G36*
G01*
X114525000Y-86875000D02*
X114375000Y-86875000D01*
G75*
G02*
X114300000Y-86800000I0J75000D01*
G01*
X114300000Y-85500000D01*
G75*
G02*
X114375000Y-85425000I75000J0D01*
G01*
X114525000Y-85425000D01*
G75*
G02*
X114600000Y-85500000I0J-75000D01*
G01*
X114600000Y-86800000D01*
G75*
G02*
X114525000Y-86875000I-75000J0D01*
G01*
G37*
G36*
G01*
X114025000Y-86875000D02*
X113875000Y-86875000D01*
G75*
G02*
X113800000Y-86800000I0J75000D01*
G01*
X113800000Y-85500000D01*
G75*
G02*
X113875000Y-85425000I75000J0D01*
G01*
X114025000Y-85425000D01*
G75*
G02*
X114100000Y-85500000I0J-75000D01*
G01*
X114100000Y-86800000D01*
G75*
G02*
X114025000Y-86875000I-75000J0D01*
G01*
G37*
G36*
G01*
X113525000Y-86875000D02*
X113375000Y-86875000D01*
G75*
G02*
X113300000Y-86800000I0J75000D01*
G01*
X113300000Y-85500000D01*
G75*
G02*
X113375000Y-85425000I75000J0D01*
G01*
X113525000Y-85425000D01*
G75*
G02*
X113600000Y-85500000I0J-75000D01*
G01*
X113600000Y-86800000D01*
G75*
G02*
X113525000Y-86875000I-75000J0D01*
G01*
G37*
G36*
G01*
X113025000Y-86875000D02*
X112875000Y-86875000D01*
G75*
G02*
X112800000Y-86800000I0J75000D01*
G01*
X112800000Y-85500000D01*
G75*
G02*
X112875000Y-85425000I75000J0D01*
G01*
X113025000Y-85425000D01*
G75*
G02*
X113100000Y-85500000I0J-75000D01*
G01*
X113100000Y-86800000D01*
G75*
G02*
X113025000Y-86875000I-75000J0D01*
G01*
G37*
G36*
G01*
X112525000Y-86875000D02*
X112375000Y-86875000D01*
G75*
G02*
X112300000Y-86800000I0J75000D01*
G01*
X112300000Y-85500000D01*
G75*
G02*
X112375000Y-85425000I75000J0D01*
G01*
X112525000Y-85425000D01*
G75*
G02*
X112600000Y-85500000I0J-75000D01*
G01*
X112600000Y-86800000D01*
G75*
G02*
X112525000Y-86875000I-75000J0D01*
G01*
G37*
G36*
G01*
X112025000Y-86875000D02*
X111875000Y-86875000D01*
G75*
G02*
X111800000Y-86800000I0J75000D01*
G01*
X111800000Y-85500000D01*
G75*
G02*
X111875000Y-85425000I75000J0D01*
G01*
X112025000Y-85425000D01*
G75*
G02*
X112100000Y-85500000I0J-75000D01*
G01*
X112100000Y-86800000D01*
G75*
G02*
X112025000Y-86875000I-75000J0D01*
G01*
G37*
G36*
G01*
X116987500Y-79456250D02*
X116987500Y-78543750D01*
G75*
G02*
X117231250Y-78300000I243750J0D01*
G01*
X117718750Y-78300000D01*
G75*
G02*
X117962500Y-78543750I0J-243750D01*
G01*
X117962500Y-79456250D01*
G75*
G02*
X117718750Y-79700000I-243750J0D01*
G01*
X117231250Y-79700000D01*
G75*
G02*
X116987500Y-79456250I0J243750D01*
G01*
G37*
G36*
G01*
X115112500Y-79456250D02*
X115112500Y-78543750D01*
G75*
G02*
X115356250Y-78300000I243750J0D01*
G01*
X115843750Y-78300000D01*
G75*
G02*
X116087500Y-78543750I0J-243750D01*
G01*
X116087500Y-79456250D01*
G75*
G02*
X115843750Y-79700000I-243750J0D01*
G01*
X115356250Y-79700000D01*
G75*
G02*
X115112500Y-79456250I0J243750D01*
G01*
G37*
G36*
G01*
X112012500Y-78543750D02*
X112012500Y-79456250D01*
G75*
G02*
X111768750Y-79700000I-243750J0D01*
G01*
X111281250Y-79700000D01*
G75*
G02*
X111037500Y-79456250I0J243750D01*
G01*
X111037500Y-78543750D01*
G75*
G02*
X111281250Y-78300000I243750J0D01*
G01*
X111768750Y-78300000D01*
G75*
G02*
X112012500Y-78543750I0J-243750D01*
G01*
G37*
G36*
G01*
X113887500Y-78543750D02*
X113887500Y-79456250D01*
G75*
G02*
X113643750Y-79700000I-243750J0D01*
G01*
X113156250Y-79700000D01*
G75*
G02*
X112912500Y-79456250I0J243750D01*
G01*
X112912500Y-78543750D01*
G75*
G02*
X113156250Y-78300000I243750J0D01*
G01*
X113643750Y-78300000D01*
G75*
G02*
X113887500Y-78543750I0J-243750D01*
G01*
G37*
G36*
G01*
X108843750Y-80950000D02*
X109756250Y-80950000D01*
G75*
G02*
X110000000Y-81193750I0J-243750D01*
G01*
X110000000Y-81681250D01*
G75*
G02*
X109756250Y-81925000I-243750J0D01*
G01*
X108843750Y-81925000D01*
G75*
G02*
X108600000Y-81681250I0J243750D01*
G01*
X108600000Y-81193750D01*
G75*
G02*
X108843750Y-80950000I243750J0D01*
G01*
G37*
G36*
G01*
X108843750Y-79075000D02*
X109756250Y-79075000D01*
G75*
G02*
X110000000Y-79318750I0J-243750D01*
G01*
X110000000Y-79806250D01*
G75*
G02*
X109756250Y-80050000I-243750J0D01*
G01*
X108843750Y-80050000D01*
G75*
G02*
X108600000Y-79806250I0J243750D01*
G01*
X108600000Y-79318750D01*
G75*
G02*
X108843750Y-79075000I243750J0D01*
G01*
G37*
D11*
X197750000Y-89300000D03*
X199650000Y-89300000D03*
X199650000Y-91500000D03*
D12*
X197930000Y-91500000D03*
D13*
X46385000Y-147730000D03*
X47655000Y-147730000D03*
X48925000Y-147730000D03*
X50195000Y-147730000D03*
X51465000Y-147730000D03*
X52735000Y-147730000D03*
X54005000Y-147730000D03*
X55275000Y-147730000D03*
X56545000Y-147730000D03*
X57815000Y-147730000D03*
X57815000Y-157130000D03*
X56545000Y-157130000D03*
X55275000Y-157130000D03*
X54005000Y-157130000D03*
X52735000Y-157130000D03*
X51465000Y-157130000D03*
X50195000Y-157130000D03*
X48925000Y-157130000D03*
X47655000Y-157130000D03*
X46385000Y-157130000D03*
G36*
G01*
X197025000Y-85947500D02*
X197025000Y-86647500D01*
G75*
G02*
X196962500Y-86710000I-62500J0D01*
G01*
X196837500Y-86710000D01*
G75*
G02*
X196775000Y-86647500I0J62500D01*
G01*
X196775000Y-85947500D01*
G75*
G02*
X196837500Y-85885000I62500J0D01*
G01*
X196962500Y-85885000D01*
G75*
G02*
X197025000Y-85947500I0J-62500D01*
G01*
G37*
G36*
G01*
X196525000Y-85947500D02*
X196525000Y-86647500D01*
G75*
G02*
X196462500Y-86710000I-62500J0D01*
G01*
X196337500Y-86710000D01*
G75*
G02*
X196275000Y-86647500I0J62500D01*
G01*
X196275000Y-85947500D01*
G75*
G02*
X196337500Y-85885000I62500J0D01*
G01*
X196462500Y-85885000D01*
G75*
G02*
X196525000Y-85947500I0J-62500D01*
G01*
G37*
G36*
G01*
X196025000Y-85947500D02*
X196025000Y-86647500D01*
G75*
G02*
X195962500Y-86710000I-62500J0D01*
G01*
X195837500Y-86710000D01*
G75*
G02*
X195775000Y-86647500I0J62500D01*
G01*
X195775000Y-85947500D01*
G75*
G02*
X195837500Y-85885000I62500J0D01*
G01*
X195962500Y-85885000D01*
G75*
G02*
X196025000Y-85947500I0J-62500D01*
G01*
G37*
G36*
G01*
X195525000Y-85947500D02*
X195525000Y-86647500D01*
G75*
G02*
X195462500Y-86710000I-62500J0D01*
G01*
X195337500Y-86710000D01*
G75*
G02*
X195275000Y-86647500I0J62500D01*
G01*
X195275000Y-85947500D01*
G75*
G02*
X195337500Y-85885000I62500J0D01*
G01*
X195462500Y-85885000D01*
G75*
G02*
X195525000Y-85947500I0J-62500D01*
G01*
G37*
G36*
G01*
X195025000Y-85947500D02*
X195025000Y-86647500D01*
G75*
G02*
X194962500Y-86710000I-62500J0D01*
G01*
X194837500Y-86710000D01*
G75*
G02*
X194775000Y-86647500I0J62500D01*
G01*
X194775000Y-85947500D01*
G75*
G02*
X194837500Y-85885000I62500J0D01*
G01*
X194962500Y-85885000D01*
G75*
G02*
X195025000Y-85947500I0J-62500D01*
G01*
G37*
G36*
G01*
X194525000Y-85947500D02*
X194525000Y-86647500D01*
G75*
G02*
X194462500Y-86710000I-62500J0D01*
G01*
X194337500Y-86710000D01*
G75*
G02*
X194275000Y-86647500I0J62500D01*
G01*
X194275000Y-85947500D01*
G75*
G02*
X194337500Y-85885000I62500J0D01*
G01*
X194462500Y-85885000D01*
G75*
G02*
X194525000Y-85947500I0J-62500D01*
G01*
G37*
G36*
G01*
X194125000Y-85547500D02*
X194125000Y-85672500D01*
G75*
G02*
X194062500Y-85735000I-62500J0D01*
G01*
X193362500Y-85735000D01*
G75*
G02*
X193300000Y-85672500I0J62500D01*
G01*
X193300000Y-85547500D01*
G75*
G02*
X193362500Y-85485000I62500J0D01*
G01*
X194062500Y-85485000D01*
G75*
G02*
X194125000Y-85547500I0J-62500D01*
G01*
G37*
G36*
G01*
X194125000Y-85047500D02*
X194125000Y-85172500D01*
G75*
G02*
X194062500Y-85235000I-62500J0D01*
G01*
X193362500Y-85235000D01*
G75*
G02*
X193300000Y-85172500I0J62500D01*
G01*
X193300000Y-85047500D01*
G75*
G02*
X193362500Y-84985000I62500J0D01*
G01*
X194062500Y-84985000D01*
G75*
G02*
X194125000Y-85047500I0J-62500D01*
G01*
G37*
G36*
G01*
X194125000Y-84547500D02*
X194125000Y-84672500D01*
G75*
G02*
X194062500Y-84735000I-62500J0D01*
G01*
X193362500Y-84735000D01*
G75*
G02*
X193300000Y-84672500I0J62500D01*
G01*
X193300000Y-84547500D01*
G75*
G02*
X193362500Y-84485000I62500J0D01*
G01*
X194062500Y-84485000D01*
G75*
G02*
X194125000Y-84547500I0J-62500D01*
G01*
G37*
G36*
G01*
X194125000Y-84047500D02*
X194125000Y-84172500D01*
G75*
G02*
X194062500Y-84235000I-62500J0D01*
G01*
X193362500Y-84235000D01*
G75*
G02*
X193300000Y-84172500I0J62500D01*
G01*
X193300000Y-84047500D01*
G75*
G02*
X193362500Y-83985000I62500J0D01*
G01*
X194062500Y-83985000D01*
G75*
G02*
X194125000Y-84047500I0J-62500D01*
G01*
G37*
G36*
G01*
X194125000Y-83547500D02*
X194125000Y-83672500D01*
G75*
G02*
X194062500Y-83735000I-62500J0D01*
G01*
X193362500Y-83735000D01*
G75*
G02*
X193300000Y-83672500I0J62500D01*
G01*
X193300000Y-83547500D01*
G75*
G02*
X193362500Y-83485000I62500J0D01*
G01*
X194062500Y-83485000D01*
G75*
G02*
X194125000Y-83547500I0J-62500D01*
G01*
G37*
G36*
G01*
X194125000Y-83047500D02*
X194125000Y-83172500D01*
G75*
G02*
X194062500Y-83235000I-62500J0D01*
G01*
X193362500Y-83235000D01*
G75*
G02*
X193300000Y-83172500I0J62500D01*
G01*
X193300000Y-83047500D01*
G75*
G02*
X193362500Y-82985000I62500J0D01*
G01*
X194062500Y-82985000D01*
G75*
G02*
X194125000Y-83047500I0J-62500D01*
G01*
G37*
G36*
G01*
X194525000Y-82072500D02*
X194525000Y-82772500D01*
G75*
G02*
X194462500Y-82835000I-62500J0D01*
G01*
X194337500Y-82835000D01*
G75*
G02*
X194275000Y-82772500I0J62500D01*
G01*
X194275000Y-82072500D01*
G75*
G02*
X194337500Y-82010000I62500J0D01*
G01*
X194462500Y-82010000D01*
G75*
G02*
X194525000Y-82072500I0J-62500D01*
G01*
G37*
G36*
G01*
X195025000Y-82072500D02*
X195025000Y-82772500D01*
G75*
G02*
X194962500Y-82835000I-62500J0D01*
G01*
X194837500Y-82835000D01*
G75*
G02*
X194775000Y-82772500I0J62500D01*
G01*
X194775000Y-82072500D01*
G75*
G02*
X194837500Y-82010000I62500J0D01*
G01*
X194962500Y-82010000D01*
G75*
G02*
X195025000Y-82072500I0J-62500D01*
G01*
G37*
G36*
G01*
X195525000Y-82072500D02*
X195525000Y-82772500D01*
G75*
G02*
X195462500Y-82835000I-62500J0D01*
G01*
X195337500Y-82835000D01*
G75*
G02*
X195275000Y-82772500I0J62500D01*
G01*
X195275000Y-82072500D01*
G75*
G02*
X195337500Y-82010000I62500J0D01*
G01*
X195462500Y-82010000D01*
G75*
G02*
X195525000Y-82072500I0J-62500D01*
G01*
G37*
G36*
G01*
X196025000Y-82072500D02*
X196025000Y-82772500D01*
G75*
G02*
X195962500Y-82835000I-62500J0D01*
G01*
X195837500Y-82835000D01*
G75*
G02*
X195775000Y-82772500I0J62500D01*
G01*
X195775000Y-82072500D01*
G75*
G02*
X195837500Y-82010000I62500J0D01*
G01*
X195962500Y-82010000D01*
G75*
G02*
X196025000Y-82072500I0J-62500D01*
G01*
G37*
G36*
G01*
X196525000Y-82072500D02*
X196525000Y-82772500D01*
G75*
G02*
X196462500Y-82835000I-62500J0D01*
G01*
X196337500Y-82835000D01*
G75*
G02*
X196275000Y-82772500I0J62500D01*
G01*
X196275000Y-82072500D01*
G75*
G02*
X196337500Y-82010000I62500J0D01*
G01*
X196462500Y-82010000D01*
G75*
G02*
X196525000Y-82072500I0J-62500D01*
G01*
G37*
G36*
G01*
X197025000Y-82072500D02*
X197025000Y-82772500D01*
G75*
G02*
X196962500Y-82835000I-62500J0D01*
G01*
X196837500Y-82835000D01*
G75*
G02*
X196775000Y-82772500I0J62500D01*
G01*
X196775000Y-82072500D01*
G75*
G02*
X196837500Y-82010000I62500J0D01*
G01*
X196962500Y-82010000D01*
G75*
G02*
X197025000Y-82072500I0J-62500D01*
G01*
G37*
G36*
G01*
X198000000Y-83047500D02*
X198000000Y-83172500D01*
G75*
G02*
X197937500Y-83235000I-62500J0D01*
G01*
X197237500Y-83235000D01*
G75*
G02*
X197175000Y-83172500I0J62500D01*
G01*
X197175000Y-83047500D01*
G75*
G02*
X197237500Y-82985000I62500J0D01*
G01*
X197937500Y-82985000D01*
G75*
G02*
X198000000Y-83047500I0J-62500D01*
G01*
G37*
G36*
G01*
X198000000Y-83547500D02*
X198000000Y-83672500D01*
G75*
G02*
X197937500Y-83735000I-62500J0D01*
G01*
X197237500Y-83735000D01*
G75*
G02*
X197175000Y-83672500I0J62500D01*
G01*
X197175000Y-83547500D01*
G75*
G02*
X197237500Y-83485000I62500J0D01*
G01*
X197937500Y-83485000D01*
G75*
G02*
X198000000Y-83547500I0J-62500D01*
G01*
G37*
G36*
G01*
X198000000Y-84047500D02*
X198000000Y-84172500D01*
G75*
G02*
X197937500Y-84235000I-62500J0D01*
G01*
X197237500Y-84235000D01*
G75*
G02*
X197175000Y-84172500I0J62500D01*
G01*
X197175000Y-84047500D01*
G75*
G02*
X197237500Y-83985000I62500J0D01*
G01*
X197937500Y-83985000D01*
G75*
G02*
X198000000Y-84047500I0J-62500D01*
G01*
G37*
G36*
G01*
X198000000Y-84547500D02*
X198000000Y-84672500D01*
G75*
G02*
X197937500Y-84735000I-62500J0D01*
G01*
X197237500Y-84735000D01*
G75*
G02*
X197175000Y-84672500I0J62500D01*
G01*
X197175000Y-84547500D01*
G75*
G02*
X197237500Y-84485000I62500J0D01*
G01*
X197937500Y-84485000D01*
G75*
G02*
X198000000Y-84547500I0J-62500D01*
G01*
G37*
G36*
G01*
X198000000Y-85047500D02*
X198000000Y-85172500D01*
G75*
G02*
X197937500Y-85235000I-62500J0D01*
G01*
X197237500Y-85235000D01*
G75*
G02*
X197175000Y-85172500I0J62500D01*
G01*
X197175000Y-85047500D01*
G75*
G02*
X197237500Y-84985000I62500J0D01*
G01*
X197937500Y-84985000D01*
G75*
G02*
X198000000Y-85047500I0J-62500D01*
G01*
G37*
G36*
G01*
X198000000Y-85547500D02*
X198000000Y-85672500D01*
G75*
G02*
X197937500Y-85735000I-62500J0D01*
G01*
X197237500Y-85735000D01*
G75*
G02*
X197175000Y-85672500I0J62500D01*
G01*
X197175000Y-85547500D01*
G75*
G02*
X197237500Y-85485000I62500J0D01*
G01*
X197937500Y-85485000D01*
G75*
G02*
X198000000Y-85547500I0J-62500D01*
G01*
G37*
G36*
G01*
X195525000Y-83434999D02*
X195525000Y-83985001D01*
G75*
G02*
X195275001Y-84235000I-249999J0D01*
G01*
X194724999Y-84235000D01*
G75*
G02*
X194475000Y-83985001I0J249999D01*
G01*
X194475000Y-83434999D01*
G75*
G02*
X194724999Y-83185000I249999J0D01*
G01*
X195275001Y-83185000D01*
G75*
G02*
X195525000Y-83434999I0J-249999D01*
G01*
G37*
G36*
G01*
X195525000Y-84734999D02*
X195525000Y-85285001D01*
G75*
G02*
X195275001Y-85535000I-249999J0D01*
G01*
X194724999Y-85535000D01*
G75*
G02*
X194475000Y-85285001I0J249999D01*
G01*
X194475000Y-84734999D01*
G75*
G02*
X194724999Y-84485000I249999J0D01*
G01*
X195275001Y-84485000D01*
G75*
G02*
X195525000Y-84734999I0J-249999D01*
G01*
G37*
G36*
G01*
X196825000Y-83434999D02*
X196825000Y-83985001D01*
G75*
G02*
X196575001Y-84235000I-249999J0D01*
G01*
X196024999Y-84235000D01*
G75*
G02*
X195775000Y-83985001I0J249999D01*
G01*
X195775000Y-83434999D01*
G75*
G02*
X196024999Y-83185000I249999J0D01*
G01*
X196575001Y-83185000D01*
G75*
G02*
X196825000Y-83434999I0J-249999D01*
G01*
G37*
G36*
G01*
X196825000Y-84734999D02*
X196825000Y-85285001D01*
G75*
G02*
X196575001Y-85535000I-249999J0D01*
G01*
X196024999Y-85535000D01*
G75*
G02*
X195775000Y-85285001I0J249999D01*
G01*
X195775000Y-84734999D01*
G75*
G02*
X196024999Y-84485000I249999J0D01*
G01*
X196575001Y-84485000D01*
G75*
G02*
X196825000Y-84734999I0J-249999D01*
G01*
G37*
D14*
X54600000Y-131900000D03*
X55550000Y-134300000D03*
X53650000Y-134300000D03*
D15*
X79570000Y-151500000D03*
X81970000Y-150550000D03*
X81970000Y-152450000D03*
D16*
X95300000Y-159715000D03*
X95300000Y-158445000D03*
X95300000Y-157175000D03*
X95300000Y-155905000D03*
X95300000Y-154635000D03*
X95300000Y-153365000D03*
X95300000Y-152095000D03*
X95300000Y-150825000D03*
X95300000Y-149555000D03*
X95300000Y-148285000D03*
X104700000Y-148285000D03*
X104700000Y-149555000D03*
X104700000Y-150825000D03*
X104700000Y-152095000D03*
X104700000Y-153365000D03*
X104700000Y-154635000D03*
X104700000Y-155905000D03*
X104700000Y-157175000D03*
X104700000Y-158445000D03*
X104700000Y-159715000D03*
D17*
X45050000Y-115200000D03*
X45050000Y-110600000D03*
X45050000Y-112900000D03*
D18*
X38750000Y-112900000D03*
G36*
G01*
X191315000Y-65925000D02*
X191015000Y-65925000D01*
G75*
G02*
X190865000Y-65775000I0J150000D01*
G01*
X190865000Y-64450000D01*
G75*
G02*
X191015000Y-64300000I150000J0D01*
G01*
X191315000Y-64300000D01*
G75*
G02*
X191465000Y-64450000I0J-150000D01*
G01*
X191465000Y-65775000D01*
G75*
G02*
X191315000Y-65925000I-150000J0D01*
G01*
G37*
G36*
G01*
X192585000Y-65925000D02*
X192285000Y-65925000D01*
G75*
G02*
X192135000Y-65775000I0J150000D01*
G01*
X192135000Y-64450000D01*
G75*
G02*
X192285000Y-64300000I150000J0D01*
G01*
X192585000Y-64300000D01*
G75*
G02*
X192735000Y-64450000I0J-150000D01*
G01*
X192735000Y-65775000D01*
G75*
G02*
X192585000Y-65925000I-150000J0D01*
G01*
G37*
G36*
G01*
X192585000Y-72300000D02*
X192285000Y-72300000D01*
G75*
G02*
X192135000Y-72150000I0J150000D01*
G01*
X192135000Y-70825000D01*
G75*
G02*
X192285000Y-70675000I150000J0D01*
G01*
X192585000Y-70675000D01*
G75*
G02*
X192735000Y-70825000I0J-150000D01*
G01*
X192735000Y-72150000D01*
G75*
G02*
X192585000Y-72300000I-150000J0D01*
G01*
G37*
G36*
G01*
X191315000Y-72300000D02*
X191015000Y-72300000D01*
G75*
G02*
X190865000Y-72150000I0J150000D01*
G01*
X190865000Y-70825000D01*
G75*
G02*
X191015000Y-70675000I150000J0D01*
G01*
X191315000Y-70675000D01*
G75*
G02*
X191465000Y-70825000I0J-150000D01*
G01*
X191465000Y-72150000D01*
G75*
G02*
X191315000Y-72300000I-150000J0D01*
G01*
G37*
G36*
G01*
X177615000Y-65925000D02*
X177315000Y-65925000D01*
G75*
G02*
X177165000Y-65775000I0J150000D01*
G01*
X177165000Y-64450000D01*
G75*
G02*
X177315000Y-64300000I150000J0D01*
G01*
X177615000Y-64300000D01*
G75*
G02*
X177765000Y-64450000I0J-150000D01*
G01*
X177765000Y-65775000D01*
G75*
G02*
X177615000Y-65925000I-150000J0D01*
G01*
G37*
G36*
G01*
X178885000Y-65925000D02*
X178585000Y-65925000D01*
G75*
G02*
X178435000Y-65775000I0J150000D01*
G01*
X178435000Y-64450000D01*
G75*
G02*
X178585000Y-64300000I150000J0D01*
G01*
X178885000Y-64300000D01*
G75*
G02*
X179035000Y-64450000I0J-150000D01*
G01*
X179035000Y-65775000D01*
G75*
G02*
X178885000Y-65925000I-150000J0D01*
G01*
G37*
G36*
G01*
X178885000Y-72300000D02*
X178585000Y-72300000D01*
G75*
G02*
X178435000Y-72150000I0J150000D01*
G01*
X178435000Y-70825000D01*
G75*
G02*
X178585000Y-70675000I150000J0D01*
G01*
X178885000Y-70675000D01*
G75*
G02*
X179035000Y-70825000I0J-150000D01*
G01*
X179035000Y-72150000D01*
G75*
G02*
X178885000Y-72300000I-150000J0D01*
G01*
G37*
G36*
G01*
X177615000Y-72300000D02*
X177315000Y-72300000D01*
G75*
G02*
X177165000Y-72150000I0J150000D01*
G01*
X177165000Y-70825000D01*
G75*
G02*
X177315000Y-70675000I150000J0D01*
G01*
X177615000Y-70675000D01*
G75*
G02*
X177765000Y-70825000I0J-150000D01*
G01*
X177765000Y-72150000D01*
G75*
G02*
X177615000Y-72300000I-150000J0D01*
G01*
G37*
G36*
G01*
X163915000Y-65925000D02*
X163615000Y-65925000D01*
G75*
G02*
X163465000Y-65775000I0J150000D01*
G01*
X163465000Y-64450000D01*
G75*
G02*
X163615000Y-64300000I150000J0D01*
G01*
X163915000Y-64300000D01*
G75*
G02*
X164065000Y-64450000I0J-150000D01*
G01*
X164065000Y-65775000D01*
G75*
G02*
X163915000Y-65925000I-150000J0D01*
G01*
G37*
G36*
G01*
X165185000Y-65925000D02*
X164885000Y-65925000D01*
G75*
G02*
X164735000Y-65775000I0J150000D01*
G01*
X164735000Y-64450000D01*
G75*
G02*
X164885000Y-64300000I150000J0D01*
G01*
X165185000Y-64300000D01*
G75*
G02*
X165335000Y-64450000I0J-150000D01*
G01*
X165335000Y-65775000D01*
G75*
G02*
X165185000Y-65925000I-150000J0D01*
G01*
G37*
G36*
G01*
X165185000Y-72300000D02*
X164885000Y-72300000D01*
G75*
G02*
X164735000Y-72150000I0J150000D01*
G01*
X164735000Y-70825000D01*
G75*
G02*
X164885000Y-70675000I150000J0D01*
G01*
X165185000Y-70675000D01*
G75*
G02*
X165335000Y-70825000I0J-150000D01*
G01*
X165335000Y-72150000D01*
G75*
G02*
X165185000Y-72300000I-150000J0D01*
G01*
G37*
G36*
G01*
X163915000Y-72300000D02*
X163615000Y-72300000D01*
G75*
G02*
X163465000Y-72150000I0J150000D01*
G01*
X163465000Y-70825000D01*
G75*
G02*
X163615000Y-70675000I150000J0D01*
G01*
X163915000Y-70675000D01*
G75*
G02*
X164065000Y-70825000I0J-150000D01*
G01*
X164065000Y-72150000D01*
G75*
G02*
X163915000Y-72300000I-150000J0D01*
G01*
G37*
G36*
G01*
X150215000Y-65925000D02*
X149915000Y-65925000D01*
G75*
G02*
X149765000Y-65775000I0J150000D01*
G01*
X149765000Y-64450000D01*
G75*
G02*
X149915000Y-64300000I150000J0D01*
G01*
X150215000Y-64300000D01*
G75*
G02*
X150365000Y-64450000I0J-150000D01*
G01*
X150365000Y-65775000D01*
G75*
G02*
X150215000Y-65925000I-150000J0D01*
G01*
G37*
G36*
G01*
X151485000Y-65925000D02*
X151185000Y-65925000D01*
G75*
G02*
X151035000Y-65775000I0J150000D01*
G01*
X151035000Y-64450000D01*
G75*
G02*
X151185000Y-64300000I150000J0D01*
G01*
X151485000Y-64300000D01*
G75*
G02*
X151635000Y-64450000I0J-150000D01*
G01*
X151635000Y-65775000D01*
G75*
G02*
X151485000Y-65925000I-150000J0D01*
G01*
G37*
G36*
G01*
X151485000Y-72300000D02*
X151185000Y-72300000D01*
G75*
G02*
X151035000Y-72150000I0J150000D01*
G01*
X151035000Y-70825000D01*
G75*
G02*
X151185000Y-70675000I150000J0D01*
G01*
X151485000Y-70675000D01*
G75*
G02*
X151635000Y-70825000I0J-150000D01*
G01*
X151635000Y-72150000D01*
G75*
G02*
X151485000Y-72300000I-150000J0D01*
G01*
G37*
G36*
G01*
X150215000Y-72300000D02*
X149915000Y-72300000D01*
G75*
G02*
X149765000Y-72150000I0J150000D01*
G01*
X149765000Y-70825000D01*
G75*
G02*
X149915000Y-70675000I150000J0D01*
G01*
X150215000Y-70675000D01*
G75*
G02*
X150365000Y-70825000I0J-150000D01*
G01*
X150365000Y-72150000D01*
G75*
G02*
X150215000Y-72300000I-150000J0D01*
G01*
G37*
G36*
G01*
X97010000Y-120495000D02*
X97010000Y-120645000D01*
G75*
G02*
X96935000Y-120720000I-75000J0D01*
G01*
X95535000Y-120720000D01*
G75*
G02*
X95460000Y-120645000I0J75000D01*
G01*
X95460000Y-120495000D01*
G75*
G02*
X95535000Y-120420000I75000J0D01*
G01*
X96935000Y-120420000D01*
G75*
G02*
X97010000Y-120495000I0J-75000D01*
G01*
G37*
G36*
G01*
X97010000Y-119995000D02*
X97010000Y-120145000D01*
G75*
G02*
X96935000Y-120220000I-75000J0D01*
G01*
X95535000Y-120220000D01*
G75*
G02*
X95460000Y-120145000I0J75000D01*
G01*
X95460000Y-119995000D01*
G75*
G02*
X95535000Y-119920000I75000J0D01*
G01*
X96935000Y-119920000D01*
G75*
G02*
X97010000Y-119995000I0J-75000D01*
G01*
G37*
G36*
G01*
X97010000Y-119495000D02*
X97010000Y-119645000D01*
G75*
G02*
X96935000Y-119720000I-75000J0D01*
G01*
X95535000Y-119720000D01*
G75*
G02*
X95460000Y-119645000I0J75000D01*
G01*
X95460000Y-119495000D01*
G75*
G02*
X95535000Y-119420000I75000J0D01*
G01*
X96935000Y-119420000D01*
G75*
G02*
X97010000Y-119495000I0J-75000D01*
G01*
G37*
G36*
G01*
X97010000Y-118995000D02*
X97010000Y-119145000D01*
G75*
G02*
X96935000Y-119220000I-75000J0D01*
G01*
X95535000Y-119220000D01*
G75*
G02*
X95460000Y-119145000I0J75000D01*
G01*
X95460000Y-118995000D01*
G75*
G02*
X95535000Y-118920000I75000J0D01*
G01*
X96935000Y-118920000D01*
G75*
G02*
X97010000Y-118995000I0J-75000D01*
G01*
G37*
G36*
G01*
X97010000Y-118495000D02*
X97010000Y-118645000D01*
G75*
G02*
X96935000Y-118720000I-75000J0D01*
G01*
X95535000Y-118720000D01*
G75*
G02*
X95460000Y-118645000I0J75000D01*
G01*
X95460000Y-118495000D01*
G75*
G02*
X95535000Y-118420000I75000J0D01*
G01*
X96935000Y-118420000D01*
G75*
G02*
X97010000Y-118495000I0J-75000D01*
G01*
G37*
G36*
G01*
X97010000Y-117995000D02*
X97010000Y-118145000D01*
G75*
G02*
X96935000Y-118220000I-75000J0D01*
G01*
X95535000Y-118220000D01*
G75*
G02*
X95460000Y-118145000I0J75000D01*
G01*
X95460000Y-117995000D01*
G75*
G02*
X95535000Y-117920000I75000J0D01*
G01*
X96935000Y-117920000D01*
G75*
G02*
X97010000Y-117995000I0J-75000D01*
G01*
G37*
G36*
G01*
X97010000Y-117495000D02*
X97010000Y-117645000D01*
G75*
G02*
X96935000Y-117720000I-75000J0D01*
G01*
X95535000Y-117720000D01*
G75*
G02*
X95460000Y-117645000I0J75000D01*
G01*
X95460000Y-117495000D01*
G75*
G02*
X95535000Y-117420000I75000J0D01*
G01*
X96935000Y-117420000D01*
G75*
G02*
X97010000Y-117495000I0J-75000D01*
G01*
G37*
G36*
G01*
X97010000Y-116995000D02*
X97010000Y-117145000D01*
G75*
G02*
X96935000Y-117220000I-75000J0D01*
G01*
X95535000Y-117220000D01*
G75*
G02*
X95460000Y-117145000I0J75000D01*
G01*
X95460000Y-116995000D01*
G75*
G02*
X95535000Y-116920000I75000J0D01*
G01*
X96935000Y-116920000D01*
G75*
G02*
X97010000Y-116995000I0J-75000D01*
G01*
G37*
G36*
G01*
X97010000Y-116495000D02*
X97010000Y-116645000D01*
G75*
G02*
X96935000Y-116720000I-75000J0D01*
G01*
X95535000Y-116720000D01*
G75*
G02*
X95460000Y-116645000I0J75000D01*
G01*
X95460000Y-116495000D01*
G75*
G02*
X95535000Y-116420000I75000J0D01*
G01*
X96935000Y-116420000D01*
G75*
G02*
X97010000Y-116495000I0J-75000D01*
G01*
G37*
G36*
G01*
X97010000Y-115995000D02*
X97010000Y-116145000D01*
G75*
G02*
X96935000Y-116220000I-75000J0D01*
G01*
X95535000Y-116220000D01*
G75*
G02*
X95460000Y-116145000I0J75000D01*
G01*
X95460000Y-115995000D01*
G75*
G02*
X95535000Y-115920000I75000J0D01*
G01*
X96935000Y-115920000D01*
G75*
G02*
X97010000Y-115995000I0J-75000D01*
G01*
G37*
G36*
G01*
X97010000Y-115495000D02*
X97010000Y-115645000D01*
G75*
G02*
X96935000Y-115720000I-75000J0D01*
G01*
X95535000Y-115720000D01*
G75*
G02*
X95460000Y-115645000I0J75000D01*
G01*
X95460000Y-115495000D01*
G75*
G02*
X95535000Y-115420000I75000J0D01*
G01*
X96935000Y-115420000D01*
G75*
G02*
X97010000Y-115495000I0J-75000D01*
G01*
G37*
G36*
G01*
X97010000Y-114995000D02*
X97010000Y-115145000D01*
G75*
G02*
X96935000Y-115220000I-75000J0D01*
G01*
X95535000Y-115220000D01*
G75*
G02*
X95460000Y-115145000I0J75000D01*
G01*
X95460000Y-114995000D01*
G75*
G02*
X95535000Y-114920000I75000J0D01*
G01*
X96935000Y-114920000D01*
G75*
G02*
X97010000Y-114995000I0J-75000D01*
G01*
G37*
G36*
G01*
X97010000Y-114495000D02*
X97010000Y-114645000D01*
G75*
G02*
X96935000Y-114720000I-75000J0D01*
G01*
X95535000Y-114720000D01*
G75*
G02*
X95460000Y-114645000I0J75000D01*
G01*
X95460000Y-114495000D01*
G75*
G02*
X95535000Y-114420000I75000J0D01*
G01*
X96935000Y-114420000D01*
G75*
G02*
X97010000Y-114495000I0J-75000D01*
G01*
G37*
G36*
G01*
X97010000Y-113995000D02*
X97010000Y-114145000D01*
G75*
G02*
X96935000Y-114220000I-75000J0D01*
G01*
X95535000Y-114220000D01*
G75*
G02*
X95460000Y-114145000I0J75000D01*
G01*
X95460000Y-113995000D01*
G75*
G02*
X95535000Y-113920000I75000J0D01*
G01*
X96935000Y-113920000D01*
G75*
G02*
X97010000Y-113995000I0J-75000D01*
G01*
G37*
G36*
G01*
X97010000Y-113495000D02*
X97010000Y-113645000D01*
G75*
G02*
X96935000Y-113720000I-75000J0D01*
G01*
X95535000Y-113720000D01*
G75*
G02*
X95460000Y-113645000I0J75000D01*
G01*
X95460000Y-113495000D01*
G75*
G02*
X95535000Y-113420000I75000J0D01*
G01*
X96935000Y-113420000D01*
G75*
G02*
X97010000Y-113495000I0J-75000D01*
G01*
G37*
G36*
G01*
X97010000Y-112995000D02*
X97010000Y-113145000D01*
G75*
G02*
X96935000Y-113220000I-75000J0D01*
G01*
X95535000Y-113220000D01*
G75*
G02*
X95460000Y-113145000I0J75000D01*
G01*
X95460000Y-112995000D01*
G75*
G02*
X95535000Y-112920000I75000J0D01*
G01*
X96935000Y-112920000D01*
G75*
G02*
X97010000Y-112995000I0J-75000D01*
G01*
G37*
G36*
G01*
X94460000Y-110445000D02*
X94460000Y-111845000D01*
G75*
G02*
X94385000Y-111920000I-75000J0D01*
G01*
X94235000Y-111920000D01*
G75*
G02*
X94160000Y-111845000I0J75000D01*
G01*
X94160000Y-110445000D01*
G75*
G02*
X94235000Y-110370000I75000J0D01*
G01*
X94385000Y-110370000D01*
G75*
G02*
X94460000Y-110445000I0J-75000D01*
G01*
G37*
G36*
G01*
X93960000Y-110445000D02*
X93960000Y-111845000D01*
G75*
G02*
X93885000Y-111920000I-75000J0D01*
G01*
X93735000Y-111920000D01*
G75*
G02*
X93660000Y-111845000I0J75000D01*
G01*
X93660000Y-110445000D01*
G75*
G02*
X93735000Y-110370000I75000J0D01*
G01*
X93885000Y-110370000D01*
G75*
G02*
X93960000Y-110445000I0J-75000D01*
G01*
G37*
G36*
G01*
X93460000Y-110445000D02*
X93460000Y-111845000D01*
G75*
G02*
X93385000Y-111920000I-75000J0D01*
G01*
X93235000Y-111920000D01*
G75*
G02*
X93160000Y-111845000I0J75000D01*
G01*
X93160000Y-110445000D01*
G75*
G02*
X93235000Y-110370000I75000J0D01*
G01*
X93385000Y-110370000D01*
G75*
G02*
X93460000Y-110445000I0J-75000D01*
G01*
G37*
G36*
G01*
X92960000Y-110445000D02*
X92960000Y-111845000D01*
G75*
G02*
X92885000Y-111920000I-75000J0D01*
G01*
X92735000Y-111920000D01*
G75*
G02*
X92660000Y-111845000I0J75000D01*
G01*
X92660000Y-110445000D01*
G75*
G02*
X92735000Y-110370000I75000J0D01*
G01*
X92885000Y-110370000D01*
G75*
G02*
X92960000Y-110445000I0J-75000D01*
G01*
G37*
G36*
G01*
X92460000Y-110445000D02*
X92460000Y-111845000D01*
G75*
G02*
X92385000Y-111920000I-75000J0D01*
G01*
X92235000Y-111920000D01*
G75*
G02*
X92160000Y-111845000I0J75000D01*
G01*
X92160000Y-110445000D01*
G75*
G02*
X92235000Y-110370000I75000J0D01*
G01*
X92385000Y-110370000D01*
G75*
G02*
X92460000Y-110445000I0J-75000D01*
G01*
G37*
G36*
G01*
X91960000Y-110445000D02*
X91960000Y-111845000D01*
G75*
G02*
X91885000Y-111920000I-75000J0D01*
G01*
X91735000Y-111920000D01*
G75*
G02*
X91660000Y-111845000I0J75000D01*
G01*
X91660000Y-110445000D01*
G75*
G02*
X91735000Y-110370000I75000J0D01*
G01*
X91885000Y-110370000D01*
G75*
G02*
X91960000Y-110445000I0J-75000D01*
G01*
G37*
G36*
G01*
X91460000Y-110445000D02*
X91460000Y-111845000D01*
G75*
G02*
X91385000Y-111920000I-75000J0D01*
G01*
X91235000Y-111920000D01*
G75*
G02*
X91160000Y-111845000I0J75000D01*
G01*
X91160000Y-110445000D01*
G75*
G02*
X91235000Y-110370000I75000J0D01*
G01*
X91385000Y-110370000D01*
G75*
G02*
X91460000Y-110445000I0J-75000D01*
G01*
G37*
G36*
G01*
X90960000Y-110445000D02*
X90960000Y-111845000D01*
G75*
G02*
X90885000Y-111920000I-75000J0D01*
G01*
X90735000Y-111920000D01*
G75*
G02*
X90660000Y-111845000I0J75000D01*
G01*
X90660000Y-110445000D01*
G75*
G02*
X90735000Y-110370000I75000J0D01*
G01*
X90885000Y-110370000D01*
G75*
G02*
X90960000Y-110445000I0J-75000D01*
G01*
G37*
G36*
G01*
X90460000Y-110445000D02*
X90460000Y-111845000D01*
G75*
G02*
X90385000Y-111920000I-75000J0D01*
G01*
X90235000Y-111920000D01*
G75*
G02*
X90160000Y-111845000I0J75000D01*
G01*
X90160000Y-110445000D01*
G75*
G02*
X90235000Y-110370000I75000J0D01*
G01*
X90385000Y-110370000D01*
G75*
G02*
X90460000Y-110445000I0J-75000D01*
G01*
G37*
G36*
G01*
X89960000Y-110445000D02*
X89960000Y-111845000D01*
G75*
G02*
X89885000Y-111920000I-75000J0D01*
G01*
X89735000Y-111920000D01*
G75*
G02*
X89660000Y-111845000I0J75000D01*
G01*
X89660000Y-110445000D01*
G75*
G02*
X89735000Y-110370000I75000J0D01*
G01*
X89885000Y-110370000D01*
G75*
G02*
X89960000Y-110445000I0J-75000D01*
G01*
G37*
G36*
G01*
X89460000Y-110445000D02*
X89460000Y-111845000D01*
G75*
G02*
X89385000Y-111920000I-75000J0D01*
G01*
X89235000Y-111920000D01*
G75*
G02*
X89160000Y-111845000I0J75000D01*
G01*
X89160000Y-110445000D01*
G75*
G02*
X89235000Y-110370000I75000J0D01*
G01*
X89385000Y-110370000D01*
G75*
G02*
X89460000Y-110445000I0J-75000D01*
G01*
G37*
G36*
G01*
X88960000Y-110445000D02*
X88960000Y-111845000D01*
G75*
G02*
X88885000Y-111920000I-75000J0D01*
G01*
X88735000Y-111920000D01*
G75*
G02*
X88660000Y-111845000I0J75000D01*
G01*
X88660000Y-110445000D01*
G75*
G02*
X88735000Y-110370000I75000J0D01*
G01*
X88885000Y-110370000D01*
G75*
G02*
X88960000Y-110445000I0J-75000D01*
G01*
G37*
G36*
G01*
X88460000Y-110445000D02*
X88460000Y-111845000D01*
G75*
G02*
X88385000Y-111920000I-75000J0D01*
G01*
X88235000Y-111920000D01*
G75*
G02*
X88160000Y-111845000I0J75000D01*
G01*
X88160000Y-110445000D01*
G75*
G02*
X88235000Y-110370000I75000J0D01*
G01*
X88385000Y-110370000D01*
G75*
G02*
X88460000Y-110445000I0J-75000D01*
G01*
G37*
G36*
G01*
X87960000Y-110445000D02*
X87960000Y-111845000D01*
G75*
G02*
X87885000Y-111920000I-75000J0D01*
G01*
X87735000Y-111920000D01*
G75*
G02*
X87660000Y-111845000I0J75000D01*
G01*
X87660000Y-110445000D01*
G75*
G02*
X87735000Y-110370000I75000J0D01*
G01*
X87885000Y-110370000D01*
G75*
G02*
X87960000Y-110445000I0J-75000D01*
G01*
G37*
G36*
G01*
X87460000Y-110445000D02*
X87460000Y-111845000D01*
G75*
G02*
X87385000Y-111920000I-75000J0D01*
G01*
X87235000Y-111920000D01*
G75*
G02*
X87160000Y-111845000I0J75000D01*
G01*
X87160000Y-110445000D01*
G75*
G02*
X87235000Y-110370000I75000J0D01*
G01*
X87385000Y-110370000D01*
G75*
G02*
X87460000Y-110445000I0J-75000D01*
G01*
G37*
G36*
G01*
X86960000Y-110445000D02*
X86960000Y-111845000D01*
G75*
G02*
X86885000Y-111920000I-75000J0D01*
G01*
X86735000Y-111920000D01*
G75*
G02*
X86660000Y-111845000I0J75000D01*
G01*
X86660000Y-110445000D01*
G75*
G02*
X86735000Y-110370000I75000J0D01*
G01*
X86885000Y-110370000D01*
G75*
G02*
X86960000Y-110445000I0J-75000D01*
G01*
G37*
G36*
G01*
X85660000Y-112995000D02*
X85660000Y-113145000D01*
G75*
G02*
X85585000Y-113220000I-75000J0D01*
G01*
X84185000Y-113220000D01*
G75*
G02*
X84110000Y-113145000I0J75000D01*
G01*
X84110000Y-112995000D01*
G75*
G02*
X84185000Y-112920000I75000J0D01*
G01*
X85585000Y-112920000D01*
G75*
G02*
X85660000Y-112995000I0J-75000D01*
G01*
G37*
G36*
G01*
X85660000Y-113495000D02*
X85660000Y-113645000D01*
G75*
G02*
X85585000Y-113720000I-75000J0D01*
G01*
X84185000Y-113720000D01*
G75*
G02*
X84110000Y-113645000I0J75000D01*
G01*
X84110000Y-113495000D01*
G75*
G02*
X84185000Y-113420000I75000J0D01*
G01*
X85585000Y-113420000D01*
G75*
G02*
X85660000Y-113495000I0J-75000D01*
G01*
G37*
G36*
G01*
X85660000Y-113995000D02*
X85660000Y-114145000D01*
G75*
G02*
X85585000Y-114220000I-75000J0D01*
G01*
X84185000Y-114220000D01*
G75*
G02*
X84110000Y-114145000I0J75000D01*
G01*
X84110000Y-113995000D01*
G75*
G02*
X84185000Y-113920000I75000J0D01*
G01*
X85585000Y-113920000D01*
G75*
G02*
X85660000Y-113995000I0J-75000D01*
G01*
G37*
G36*
G01*
X85660000Y-114495000D02*
X85660000Y-114645000D01*
G75*
G02*
X85585000Y-114720000I-75000J0D01*
G01*
X84185000Y-114720000D01*
G75*
G02*
X84110000Y-114645000I0J75000D01*
G01*
X84110000Y-114495000D01*
G75*
G02*
X84185000Y-114420000I75000J0D01*
G01*
X85585000Y-114420000D01*
G75*
G02*
X85660000Y-114495000I0J-75000D01*
G01*
G37*
G36*
G01*
X85660000Y-114995000D02*
X85660000Y-115145000D01*
G75*
G02*
X85585000Y-115220000I-75000J0D01*
G01*
X84185000Y-115220000D01*
G75*
G02*
X84110000Y-115145000I0J75000D01*
G01*
X84110000Y-114995000D01*
G75*
G02*
X84185000Y-114920000I75000J0D01*
G01*
X85585000Y-114920000D01*
G75*
G02*
X85660000Y-114995000I0J-75000D01*
G01*
G37*
G36*
G01*
X85660000Y-115495000D02*
X85660000Y-115645000D01*
G75*
G02*
X85585000Y-115720000I-75000J0D01*
G01*
X84185000Y-115720000D01*
G75*
G02*
X84110000Y-115645000I0J75000D01*
G01*
X84110000Y-115495000D01*
G75*
G02*
X84185000Y-115420000I75000J0D01*
G01*
X85585000Y-115420000D01*
G75*
G02*
X85660000Y-115495000I0J-75000D01*
G01*
G37*
G36*
G01*
X85660000Y-115995000D02*
X85660000Y-116145000D01*
G75*
G02*
X85585000Y-116220000I-75000J0D01*
G01*
X84185000Y-116220000D01*
G75*
G02*
X84110000Y-116145000I0J75000D01*
G01*
X84110000Y-115995000D01*
G75*
G02*
X84185000Y-115920000I75000J0D01*
G01*
X85585000Y-115920000D01*
G75*
G02*
X85660000Y-115995000I0J-75000D01*
G01*
G37*
G36*
G01*
X85660000Y-116495000D02*
X85660000Y-116645000D01*
G75*
G02*
X85585000Y-116720000I-75000J0D01*
G01*
X84185000Y-116720000D01*
G75*
G02*
X84110000Y-116645000I0J75000D01*
G01*
X84110000Y-116495000D01*
G75*
G02*
X84185000Y-116420000I75000J0D01*
G01*
X85585000Y-116420000D01*
G75*
G02*
X85660000Y-116495000I0J-75000D01*
G01*
G37*
G36*
G01*
X85660000Y-116995000D02*
X85660000Y-117145000D01*
G75*
G02*
X85585000Y-117220000I-75000J0D01*
G01*
X84185000Y-117220000D01*
G75*
G02*
X84110000Y-117145000I0J75000D01*
G01*
X84110000Y-116995000D01*
G75*
G02*
X84185000Y-116920000I75000J0D01*
G01*
X85585000Y-116920000D01*
G75*
G02*
X85660000Y-116995000I0J-75000D01*
G01*
G37*
G36*
G01*
X85660000Y-117495000D02*
X85660000Y-117645000D01*
G75*
G02*
X85585000Y-117720000I-75000J0D01*
G01*
X84185000Y-117720000D01*
G75*
G02*
X84110000Y-117645000I0J75000D01*
G01*
X84110000Y-117495000D01*
G75*
G02*
X84185000Y-117420000I75000J0D01*
G01*
X85585000Y-117420000D01*
G75*
G02*
X85660000Y-117495000I0J-75000D01*
G01*
G37*
G36*
G01*
X85660000Y-117995000D02*
X85660000Y-118145000D01*
G75*
G02*
X85585000Y-118220000I-75000J0D01*
G01*
X84185000Y-118220000D01*
G75*
G02*
X84110000Y-118145000I0J75000D01*
G01*
X84110000Y-117995000D01*
G75*
G02*
X84185000Y-117920000I75000J0D01*
G01*
X85585000Y-117920000D01*
G75*
G02*
X85660000Y-117995000I0J-75000D01*
G01*
G37*
G36*
G01*
X85660000Y-118495000D02*
X85660000Y-118645000D01*
G75*
G02*
X85585000Y-118720000I-75000J0D01*
G01*
X84185000Y-118720000D01*
G75*
G02*
X84110000Y-118645000I0J75000D01*
G01*
X84110000Y-118495000D01*
G75*
G02*
X84185000Y-118420000I75000J0D01*
G01*
X85585000Y-118420000D01*
G75*
G02*
X85660000Y-118495000I0J-75000D01*
G01*
G37*
G36*
G01*
X85660000Y-118995000D02*
X85660000Y-119145000D01*
G75*
G02*
X85585000Y-119220000I-75000J0D01*
G01*
X84185000Y-119220000D01*
G75*
G02*
X84110000Y-119145000I0J75000D01*
G01*
X84110000Y-118995000D01*
G75*
G02*
X84185000Y-118920000I75000J0D01*
G01*
X85585000Y-118920000D01*
G75*
G02*
X85660000Y-118995000I0J-75000D01*
G01*
G37*
G36*
G01*
X85660000Y-119495000D02*
X85660000Y-119645000D01*
G75*
G02*
X85585000Y-119720000I-75000J0D01*
G01*
X84185000Y-119720000D01*
G75*
G02*
X84110000Y-119645000I0J75000D01*
G01*
X84110000Y-119495000D01*
G75*
G02*
X84185000Y-119420000I75000J0D01*
G01*
X85585000Y-119420000D01*
G75*
G02*
X85660000Y-119495000I0J-75000D01*
G01*
G37*
G36*
G01*
X85660000Y-119995000D02*
X85660000Y-120145000D01*
G75*
G02*
X85585000Y-120220000I-75000J0D01*
G01*
X84185000Y-120220000D01*
G75*
G02*
X84110000Y-120145000I0J75000D01*
G01*
X84110000Y-119995000D01*
G75*
G02*
X84185000Y-119920000I75000J0D01*
G01*
X85585000Y-119920000D01*
G75*
G02*
X85660000Y-119995000I0J-75000D01*
G01*
G37*
G36*
G01*
X85660000Y-120495000D02*
X85660000Y-120645000D01*
G75*
G02*
X85585000Y-120720000I-75000J0D01*
G01*
X84185000Y-120720000D01*
G75*
G02*
X84110000Y-120645000I0J75000D01*
G01*
X84110000Y-120495000D01*
G75*
G02*
X84185000Y-120420000I75000J0D01*
G01*
X85585000Y-120420000D01*
G75*
G02*
X85660000Y-120495000I0J-75000D01*
G01*
G37*
G36*
G01*
X86960000Y-121795000D02*
X86960000Y-123195000D01*
G75*
G02*
X86885000Y-123270000I-75000J0D01*
G01*
X86735000Y-123270000D01*
G75*
G02*
X86660000Y-123195000I0J75000D01*
G01*
X86660000Y-121795000D01*
G75*
G02*
X86735000Y-121720000I75000J0D01*
G01*
X86885000Y-121720000D01*
G75*
G02*
X86960000Y-121795000I0J-75000D01*
G01*
G37*
G36*
G01*
X87460000Y-121795000D02*
X87460000Y-123195000D01*
G75*
G02*
X87385000Y-123270000I-75000J0D01*
G01*
X87235000Y-123270000D01*
G75*
G02*
X87160000Y-123195000I0J75000D01*
G01*
X87160000Y-121795000D01*
G75*
G02*
X87235000Y-121720000I75000J0D01*
G01*
X87385000Y-121720000D01*
G75*
G02*
X87460000Y-121795000I0J-75000D01*
G01*
G37*
G36*
G01*
X87960000Y-121795000D02*
X87960000Y-123195000D01*
G75*
G02*
X87885000Y-123270000I-75000J0D01*
G01*
X87735000Y-123270000D01*
G75*
G02*
X87660000Y-123195000I0J75000D01*
G01*
X87660000Y-121795000D01*
G75*
G02*
X87735000Y-121720000I75000J0D01*
G01*
X87885000Y-121720000D01*
G75*
G02*
X87960000Y-121795000I0J-75000D01*
G01*
G37*
G36*
G01*
X88460000Y-121795000D02*
X88460000Y-123195000D01*
G75*
G02*
X88385000Y-123270000I-75000J0D01*
G01*
X88235000Y-123270000D01*
G75*
G02*
X88160000Y-123195000I0J75000D01*
G01*
X88160000Y-121795000D01*
G75*
G02*
X88235000Y-121720000I75000J0D01*
G01*
X88385000Y-121720000D01*
G75*
G02*
X88460000Y-121795000I0J-75000D01*
G01*
G37*
G36*
G01*
X88960000Y-121795000D02*
X88960000Y-123195000D01*
G75*
G02*
X88885000Y-123270000I-75000J0D01*
G01*
X88735000Y-123270000D01*
G75*
G02*
X88660000Y-123195000I0J75000D01*
G01*
X88660000Y-121795000D01*
G75*
G02*
X88735000Y-121720000I75000J0D01*
G01*
X88885000Y-121720000D01*
G75*
G02*
X88960000Y-121795000I0J-75000D01*
G01*
G37*
G36*
G01*
X89460000Y-121795000D02*
X89460000Y-123195000D01*
G75*
G02*
X89385000Y-123270000I-75000J0D01*
G01*
X89235000Y-123270000D01*
G75*
G02*
X89160000Y-123195000I0J75000D01*
G01*
X89160000Y-121795000D01*
G75*
G02*
X89235000Y-121720000I75000J0D01*
G01*
X89385000Y-121720000D01*
G75*
G02*
X89460000Y-121795000I0J-75000D01*
G01*
G37*
G36*
G01*
X89960000Y-121795000D02*
X89960000Y-123195000D01*
G75*
G02*
X89885000Y-123270000I-75000J0D01*
G01*
X89735000Y-123270000D01*
G75*
G02*
X89660000Y-123195000I0J75000D01*
G01*
X89660000Y-121795000D01*
G75*
G02*
X89735000Y-121720000I75000J0D01*
G01*
X89885000Y-121720000D01*
G75*
G02*
X89960000Y-121795000I0J-75000D01*
G01*
G37*
G36*
G01*
X90460000Y-121795000D02*
X90460000Y-123195000D01*
G75*
G02*
X90385000Y-123270000I-75000J0D01*
G01*
X90235000Y-123270000D01*
G75*
G02*
X90160000Y-123195000I0J75000D01*
G01*
X90160000Y-121795000D01*
G75*
G02*
X90235000Y-121720000I75000J0D01*
G01*
X90385000Y-121720000D01*
G75*
G02*
X90460000Y-121795000I0J-75000D01*
G01*
G37*
G36*
G01*
X90960000Y-121795000D02*
X90960000Y-123195000D01*
G75*
G02*
X90885000Y-123270000I-75000J0D01*
G01*
X90735000Y-123270000D01*
G75*
G02*
X90660000Y-123195000I0J75000D01*
G01*
X90660000Y-121795000D01*
G75*
G02*
X90735000Y-121720000I75000J0D01*
G01*
X90885000Y-121720000D01*
G75*
G02*
X90960000Y-121795000I0J-75000D01*
G01*
G37*
G36*
G01*
X91460000Y-121795000D02*
X91460000Y-123195000D01*
G75*
G02*
X91385000Y-123270000I-75000J0D01*
G01*
X91235000Y-123270000D01*
G75*
G02*
X91160000Y-123195000I0J75000D01*
G01*
X91160000Y-121795000D01*
G75*
G02*
X91235000Y-121720000I75000J0D01*
G01*
X91385000Y-121720000D01*
G75*
G02*
X91460000Y-121795000I0J-75000D01*
G01*
G37*
G36*
G01*
X91960000Y-121795000D02*
X91960000Y-123195000D01*
G75*
G02*
X91885000Y-123270000I-75000J0D01*
G01*
X91735000Y-123270000D01*
G75*
G02*
X91660000Y-123195000I0J75000D01*
G01*
X91660000Y-121795000D01*
G75*
G02*
X91735000Y-121720000I75000J0D01*
G01*
X91885000Y-121720000D01*
G75*
G02*
X91960000Y-121795000I0J-75000D01*
G01*
G37*
G36*
G01*
X92460000Y-121795000D02*
X92460000Y-123195000D01*
G75*
G02*
X92385000Y-123270000I-75000J0D01*
G01*
X92235000Y-123270000D01*
G75*
G02*
X92160000Y-123195000I0J75000D01*
G01*
X92160000Y-121795000D01*
G75*
G02*
X92235000Y-121720000I75000J0D01*
G01*
X92385000Y-121720000D01*
G75*
G02*
X92460000Y-121795000I0J-75000D01*
G01*
G37*
G36*
G01*
X92960000Y-121795000D02*
X92960000Y-123195000D01*
G75*
G02*
X92885000Y-123270000I-75000J0D01*
G01*
X92735000Y-123270000D01*
G75*
G02*
X92660000Y-123195000I0J75000D01*
G01*
X92660000Y-121795000D01*
G75*
G02*
X92735000Y-121720000I75000J0D01*
G01*
X92885000Y-121720000D01*
G75*
G02*
X92960000Y-121795000I0J-75000D01*
G01*
G37*
G36*
G01*
X93460000Y-121795000D02*
X93460000Y-123195000D01*
G75*
G02*
X93385000Y-123270000I-75000J0D01*
G01*
X93235000Y-123270000D01*
G75*
G02*
X93160000Y-123195000I0J75000D01*
G01*
X93160000Y-121795000D01*
G75*
G02*
X93235000Y-121720000I75000J0D01*
G01*
X93385000Y-121720000D01*
G75*
G02*
X93460000Y-121795000I0J-75000D01*
G01*
G37*
G36*
G01*
X93960000Y-121795000D02*
X93960000Y-123195000D01*
G75*
G02*
X93885000Y-123270000I-75000J0D01*
G01*
X93735000Y-123270000D01*
G75*
G02*
X93660000Y-123195000I0J75000D01*
G01*
X93660000Y-121795000D01*
G75*
G02*
X93735000Y-121720000I75000J0D01*
G01*
X93885000Y-121720000D01*
G75*
G02*
X93960000Y-121795000I0J-75000D01*
G01*
G37*
G36*
G01*
X94460000Y-121795000D02*
X94460000Y-123195000D01*
G75*
G02*
X94385000Y-123270000I-75000J0D01*
G01*
X94235000Y-123270000D01*
G75*
G02*
X94160000Y-123195000I0J75000D01*
G01*
X94160000Y-121795000D01*
G75*
G02*
X94235000Y-121720000I75000J0D01*
G01*
X94385000Y-121720000D01*
G75*
G02*
X94460000Y-121795000I0J-75000D01*
G01*
G37*
G36*
G01*
X129925000Y-110085000D02*
X129925000Y-110385000D01*
G75*
G02*
X129775000Y-110535000I-150000J0D01*
G01*
X128450000Y-110535000D01*
G75*
G02*
X128300000Y-110385000I0J150000D01*
G01*
X128300000Y-110085000D01*
G75*
G02*
X128450000Y-109935000I150000J0D01*
G01*
X129775000Y-109935000D01*
G75*
G02*
X129925000Y-110085000I0J-150000D01*
G01*
G37*
G36*
G01*
X129925000Y-108815000D02*
X129925000Y-109115000D01*
G75*
G02*
X129775000Y-109265000I-150000J0D01*
G01*
X128450000Y-109265000D01*
G75*
G02*
X128300000Y-109115000I0J150000D01*
G01*
X128300000Y-108815000D01*
G75*
G02*
X128450000Y-108665000I150000J0D01*
G01*
X129775000Y-108665000D01*
G75*
G02*
X129925000Y-108815000I0J-150000D01*
G01*
G37*
G36*
G01*
X136300000Y-108815000D02*
X136300000Y-109115000D01*
G75*
G02*
X136150000Y-109265000I-150000J0D01*
G01*
X134825000Y-109265000D01*
G75*
G02*
X134675000Y-109115000I0J150000D01*
G01*
X134675000Y-108815000D01*
G75*
G02*
X134825000Y-108665000I150000J0D01*
G01*
X136150000Y-108665000D01*
G75*
G02*
X136300000Y-108815000I0J-150000D01*
G01*
G37*
G36*
G01*
X136300000Y-110085000D02*
X136300000Y-110385000D01*
G75*
G02*
X136150000Y-110535000I-150000J0D01*
G01*
X134825000Y-110535000D01*
G75*
G02*
X134675000Y-110385000I0J150000D01*
G01*
X134675000Y-110085000D01*
G75*
G02*
X134825000Y-109935000I150000J0D01*
G01*
X136150000Y-109935000D01*
G75*
G02*
X136300000Y-110085000I0J-150000D01*
G01*
G37*
G36*
G01*
X129925000Y-105585000D02*
X129925000Y-105885000D01*
G75*
G02*
X129775000Y-106035000I-150000J0D01*
G01*
X128450000Y-106035000D01*
G75*
G02*
X128300000Y-105885000I0J150000D01*
G01*
X128300000Y-105585000D01*
G75*
G02*
X128450000Y-105435000I150000J0D01*
G01*
X129775000Y-105435000D01*
G75*
G02*
X129925000Y-105585000I0J-150000D01*
G01*
G37*
G36*
G01*
X129925000Y-104315000D02*
X129925000Y-104615000D01*
G75*
G02*
X129775000Y-104765000I-150000J0D01*
G01*
X128450000Y-104765000D01*
G75*
G02*
X128300000Y-104615000I0J150000D01*
G01*
X128300000Y-104315000D01*
G75*
G02*
X128450000Y-104165000I150000J0D01*
G01*
X129775000Y-104165000D01*
G75*
G02*
X129925000Y-104315000I0J-150000D01*
G01*
G37*
G36*
G01*
X136300000Y-104315000D02*
X136300000Y-104615000D01*
G75*
G02*
X136150000Y-104765000I-150000J0D01*
G01*
X134825000Y-104765000D01*
G75*
G02*
X134675000Y-104615000I0J150000D01*
G01*
X134675000Y-104315000D01*
G75*
G02*
X134825000Y-104165000I150000J0D01*
G01*
X136150000Y-104165000D01*
G75*
G02*
X136300000Y-104315000I0J-150000D01*
G01*
G37*
G36*
G01*
X136300000Y-105585000D02*
X136300000Y-105885000D01*
G75*
G02*
X136150000Y-106035000I-150000J0D01*
G01*
X134825000Y-106035000D01*
G75*
G02*
X134675000Y-105885000I0J150000D01*
G01*
X134675000Y-105585000D01*
G75*
G02*
X134825000Y-105435000I150000J0D01*
G01*
X136150000Y-105435000D01*
G75*
G02*
X136300000Y-105585000I0J-150000D01*
G01*
G37*
G36*
G01*
X84525000Y-88185000D02*
X84525000Y-88485000D01*
G75*
G02*
X84375000Y-88635000I-150000J0D01*
G01*
X83050000Y-88635000D01*
G75*
G02*
X82900000Y-88485000I0J150000D01*
G01*
X82900000Y-88185000D01*
G75*
G02*
X83050000Y-88035000I150000J0D01*
G01*
X84375000Y-88035000D01*
G75*
G02*
X84525000Y-88185000I0J-150000D01*
G01*
G37*
G36*
G01*
X84525000Y-86915000D02*
X84525000Y-87215000D01*
G75*
G02*
X84375000Y-87365000I-150000J0D01*
G01*
X83050000Y-87365000D01*
G75*
G02*
X82900000Y-87215000I0J150000D01*
G01*
X82900000Y-86915000D01*
G75*
G02*
X83050000Y-86765000I150000J0D01*
G01*
X84375000Y-86765000D01*
G75*
G02*
X84525000Y-86915000I0J-150000D01*
G01*
G37*
G36*
G01*
X90900000Y-86915000D02*
X90900000Y-87215000D01*
G75*
G02*
X90750000Y-87365000I-150000J0D01*
G01*
X89425000Y-87365000D01*
G75*
G02*
X89275000Y-87215000I0J150000D01*
G01*
X89275000Y-86915000D01*
G75*
G02*
X89425000Y-86765000I150000J0D01*
G01*
X90750000Y-86765000D01*
G75*
G02*
X90900000Y-86915000I0J-150000D01*
G01*
G37*
G36*
G01*
X90900000Y-88185000D02*
X90900000Y-88485000D01*
G75*
G02*
X90750000Y-88635000I-150000J0D01*
G01*
X89425000Y-88635000D01*
G75*
G02*
X89275000Y-88485000I0J150000D01*
G01*
X89275000Y-88185000D01*
G75*
G02*
X89425000Y-88035000I150000J0D01*
G01*
X90750000Y-88035000D01*
G75*
G02*
X90900000Y-88185000I0J-150000D01*
G01*
G37*
G36*
G01*
X71025000Y-88185000D02*
X71025000Y-88485000D01*
G75*
G02*
X70875000Y-88635000I-150000J0D01*
G01*
X69550000Y-88635000D01*
G75*
G02*
X69400000Y-88485000I0J150000D01*
G01*
X69400000Y-88185000D01*
G75*
G02*
X69550000Y-88035000I150000J0D01*
G01*
X70875000Y-88035000D01*
G75*
G02*
X71025000Y-88185000I0J-150000D01*
G01*
G37*
G36*
G01*
X71025000Y-86915000D02*
X71025000Y-87215000D01*
G75*
G02*
X70875000Y-87365000I-150000J0D01*
G01*
X69550000Y-87365000D01*
G75*
G02*
X69400000Y-87215000I0J150000D01*
G01*
X69400000Y-86915000D01*
G75*
G02*
X69550000Y-86765000I150000J0D01*
G01*
X70875000Y-86765000D01*
G75*
G02*
X71025000Y-86915000I0J-150000D01*
G01*
G37*
G36*
G01*
X77400000Y-86915000D02*
X77400000Y-87215000D01*
G75*
G02*
X77250000Y-87365000I-150000J0D01*
G01*
X75925000Y-87365000D01*
G75*
G02*
X75775000Y-87215000I0J150000D01*
G01*
X75775000Y-86915000D01*
G75*
G02*
X75925000Y-86765000I150000J0D01*
G01*
X77250000Y-86765000D01*
G75*
G02*
X77400000Y-86915000I0J-150000D01*
G01*
G37*
G36*
G01*
X77400000Y-88185000D02*
X77400000Y-88485000D01*
G75*
G02*
X77250000Y-88635000I-150000J0D01*
G01*
X75925000Y-88635000D01*
G75*
G02*
X75775000Y-88485000I0J150000D01*
G01*
X75775000Y-88185000D01*
G75*
G02*
X75925000Y-88035000I150000J0D01*
G01*
X77250000Y-88035000D01*
G75*
G02*
X77400000Y-88185000I0J-150000D01*
G01*
G37*
G36*
G01*
X57525000Y-88185000D02*
X57525000Y-88485000D01*
G75*
G02*
X57375000Y-88635000I-150000J0D01*
G01*
X56050000Y-88635000D01*
G75*
G02*
X55900000Y-88485000I0J150000D01*
G01*
X55900000Y-88185000D01*
G75*
G02*
X56050000Y-88035000I150000J0D01*
G01*
X57375000Y-88035000D01*
G75*
G02*
X57525000Y-88185000I0J-150000D01*
G01*
G37*
G36*
G01*
X57525000Y-86915000D02*
X57525000Y-87215000D01*
G75*
G02*
X57375000Y-87365000I-150000J0D01*
G01*
X56050000Y-87365000D01*
G75*
G02*
X55900000Y-87215000I0J150000D01*
G01*
X55900000Y-86915000D01*
G75*
G02*
X56050000Y-86765000I150000J0D01*
G01*
X57375000Y-86765000D01*
G75*
G02*
X57525000Y-86915000I0J-150000D01*
G01*
G37*
G36*
G01*
X63900000Y-86915000D02*
X63900000Y-87215000D01*
G75*
G02*
X63750000Y-87365000I-150000J0D01*
G01*
X62425000Y-87365000D01*
G75*
G02*
X62275000Y-87215000I0J150000D01*
G01*
X62275000Y-86915000D01*
G75*
G02*
X62425000Y-86765000I150000J0D01*
G01*
X63750000Y-86765000D01*
G75*
G02*
X63900000Y-86915000I0J-150000D01*
G01*
G37*
G36*
G01*
X63900000Y-88185000D02*
X63900000Y-88485000D01*
G75*
G02*
X63750000Y-88635000I-150000J0D01*
G01*
X62425000Y-88635000D01*
G75*
G02*
X62275000Y-88485000I0J150000D01*
G01*
X62275000Y-88185000D01*
G75*
G02*
X62425000Y-88035000I150000J0D01*
G01*
X63750000Y-88035000D01*
G75*
G02*
X63900000Y-88185000I0J-150000D01*
G01*
G37*
G36*
G01*
X44025000Y-88185000D02*
X44025000Y-88485000D01*
G75*
G02*
X43875000Y-88635000I-150000J0D01*
G01*
X42550000Y-88635000D01*
G75*
G02*
X42400000Y-88485000I0J150000D01*
G01*
X42400000Y-88185000D01*
G75*
G02*
X42550000Y-88035000I150000J0D01*
G01*
X43875000Y-88035000D01*
G75*
G02*
X44025000Y-88185000I0J-150000D01*
G01*
G37*
G36*
G01*
X44025000Y-86915000D02*
X44025000Y-87215000D01*
G75*
G02*
X43875000Y-87365000I-150000J0D01*
G01*
X42550000Y-87365000D01*
G75*
G02*
X42400000Y-87215000I0J150000D01*
G01*
X42400000Y-86915000D01*
G75*
G02*
X42550000Y-86765000I150000J0D01*
G01*
X43875000Y-86765000D01*
G75*
G02*
X44025000Y-86915000I0J-150000D01*
G01*
G37*
G36*
G01*
X50400000Y-86915000D02*
X50400000Y-87215000D01*
G75*
G02*
X50250000Y-87365000I-150000J0D01*
G01*
X48925000Y-87365000D01*
G75*
G02*
X48775000Y-87215000I0J150000D01*
G01*
X48775000Y-86915000D01*
G75*
G02*
X48925000Y-86765000I150000J0D01*
G01*
X50250000Y-86765000D01*
G75*
G02*
X50400000Y-86915000I0J-150000D01*
G01*
G37*
G36*
G01*
X50400000Y-88185000D02*
X50400000Y-88485000D01*
G75*
G02*
X50250000Y-88635000I-150000J0D01*
G01*
X48925000Y-88635000D01*
G75*
G02*
X48775000Y-88485000I0J150000D01*
G01*
X48775000Y-88185000D01*
G75*
G02*
X48925000Y-88035000I150000J0D01*
G01*
X50250000Y-88035000D01*
G75*
G02*
X50400000Y-88185000I0J-150000D01*
G01*
G37*
D19*
X101425000Y-106900000D03*
X107175000Y-106900000D03*
X107175000Y-110900000D03*
X101425000Y-110900000D03*
G36*
G01*
X194543750Y-78675000D02*
X195456250Y-78675000D01*
G75*
G02*
X195700000Y-78918750I0J-243750D01*
G01*
X195700000Y-79406250D01*
G75*
G02*
X195456250Y-79650000I-243750J0D01*
G01*
X194543750Y-79650000D01*
G75*
G02*
X194300000Y-79406250I0J243750D01*
G01*
X194300000Y-78918750D01*
G75*
G02*
X194543750Y-78675000I243750J0D01*
G01*
G37*
G36*
G01*
X194543750Y-76800000D02*
X195456250Y-76800000D01*
G75*
G02*
X195700000Y-77043750I0J-243750D01*
G01*
X195700000Y-77531250D01*
G75*
G02*
X195456250Y-77775000I-243750J0D01*
G01*
X194543750Y-77775000D01*
G75*
G02*
X194300000Y-77531250I0J243750D01*
G01*
X194300000Y-77043750D01*
G75*
G02*
X194543750Y-76800000I243750J0D01*
G01*
G37*
G36*
G01*
X197756250Y-77775000D02*
X196843750Y-77775000D01*
G75*
G02*
X196600000Y-77531250I0J243750D01*
G01*
X196600000Y-77043750D01*
G75*
G02*
X196843750Y-76800000I243750J0D01*
G01*
X197756250Y-76800000D01*
G75*
G02*
X198000000Y-77043750I0J-243750D01*
G01*
X198000000Y-77531250D01*
G75*
G02*
X197756250Y-77775000I-243750J0D01*
G01*
G37*
G36*
G01*
X197756250Y-79650000D02*
X196843750Y-79650000D01*
G75*
G02*
X196600000Y-79406250I0J243750D01*
G01*
X196600000Y-78918750D01*
G75*
G02*
X196843750Y-78675000I243750J0D01*
G01*
X197756250Y-78675000D01*
G75*
G02*
X198000000Y-78918750I0J-243750D01*
G01*
X198000000Y-79406250D01*
G75*
G02*
X197756250Y-79650000I-243750J0D01*
G01*
G37*
G36*
G01*
X199193750Y-80500000D02*
X200106250Y-80500000D01*
G75*
G02*
X200350000Y-80743750I0J-243750D01*
G01*
X200350000Y-81231250D01*
G75*
G02*
X200106250Y-81475000I-243750J0D01*
G01*
X199193750Y-81475000D01*
G75*
G02*
X198950000Y-81231250I0J243750D01*
G01*
X198950000Y-80743750D01*
G75*
G02*
X199193750Y-80500000I243750J0D01*
G01*
G37*
G36*
G01*
X199243750Y-78625000D02*
X200156250Y-78625000D01*
G75*
G02*
X200400000Y-78868750I0J-243750D01*
G01*
X200400000Y-79356250D01*
G75*
G02*
X200156250Y-79600000I-243750J0D01*
G01*
X199243750Y-79600000D01*
G75*
G02*
X199000000Y-79356250I0J243750D01*
G01*
X199000000Y-78868750D01*
G75*
G02*
X199243750Y-78625000I243750J0D01*
G01*
G37*
G36*
G01*
X58450000Y-135743750D02*
X58450000Y-136656250D01*
G75*
G02*
X58206250Y-136900000I-243750J0D01*
G01*
X57718750Y-136900000D01*
G75*
G02*
X57475000Y-136656250I0J243750D01*
G01*
X57475000Y-135743750D01*
G75*
G02*
X57718750Y-135500000I243750J0D01*
G01*
X58206250Y-135500000D01*
G75*
G02*
X58450000Y-135743750I0J-243750D01*
G01*
G37*
G36*
G01*
X60325000Y-135743750D02*
X60325000Y-136656250D01*
G75*
G02*
X60081250Y-136900000I-243750J0D01*
G01*
X59593750Y-136900000D01*
G75*
G02*
X59350000Y-136656250I0J243750D01*
G01*
X59350000Y-135743750D01*
G75*
G02*
X59593750Y-135500000I243750J0D01*
G01*
X60081250Y-135500000D01*
G75*
G02*
X60325000Y-135743750I0J-243750D01*
G01*
G37*
G36*
G01*
X57550000Y-144556250D02*
X57550000Y-143643750D01*
G75*
G02*
X57793750Y-143400000I243750J0D01*
G01*
X58281250Y-143400000D01*
G75*
G02*
X58525000Y-143643750I0J-243750D01*
G01*
X58525000Y-144556250D01*
G75*
G02*
X58281250Y-144800000I-243750J0D01*
G01*
X57793750Y-144800000D01*
G75*
G02*
X57550000Y-144556250I0J243750D01*
G01*
G37*
G36*
G01*
X55675000Y-144556250D02*
X55675000Y-143643750D01*
G75*
G02*
X55918750Y-143400000I243750J0D01*
G01*
X56406250Y-143400000D01*
G75*
G02*
X56650000Y-143643750I0J-243750D01*
G01*
X56650000Y-144556250D01*
G75*
G02*
X56406250Y-144800000I-243750J0D01*
G01*
X55918750Y-144800000D01*
G75*
G02*
X55675000Y-144556250I0J243750D01*
G01*
G37*
G36*
G01*
X49143750Y-114750000D02*
X50056250Y-114750000D01*
G75*
G02*
X50300000Y-114993750I0J-243750D01*
G01*
X50300000Y-115481250D01*
G75*
G02*
X50056250Y-115725000I-243750J0D01*
G01*
X49143750Y-115725000D01*
G75*
G02*
X48900000Y-115481250I0J243750D01*
G01*
X48900000Y-114993750D01*
G75*
G02*
X49143750Y-114750000I243750J0D01*
G01*
G37*
G36*
G01*
X49143750Y-112875000D02*
X50056250Y-112875000D01*
G75*
G02*
X50300000Y-113118750I0J-243750D01*
G01*
X50300000Y-113606250D01*
G75*
G02*
X50056250Y-113850000I-243750J0D01*
G01*
X49143750Y-113850000D01*
G75*
G02*
X48900000Y-113606250I0J243750D01*
G01*
X48900000Y-113118750D01*
G75*
G02*
X49143750Y-112875000I243750J0D01*
G01*
G37*
G36*
G01*
X189256250Y-67850000D02*
X188343750Y-67850000D01*
G75*
G02*
X188100000Y-67606250I0J243750D01*
G01*
X188100000Y-67118750D01*
G75*
G02*
X188343750Y-66875000I243750J0D01*
G01*
X189256250Y-66875000D01*
G75*
G02*
X189500000Y-67118750I0J-243750D01*
G01*
X189500000Y-67606250D01*
G75*
G02*
X189256250Y-67850000I-243750J0D01*
G01*
G37*
G36*
G01*
X189256250Y-69725000D02*
X188343750Y-69725000D01*
G75*
G02*
X188100000Y-69481250I0J243750D01*
G01*
X188100000Y-68993750D01*
G75*
G02*
X188343750Y-68750000I243750J0D01*
G01*
X189256250Y-68750000D01*
G75*
G02*
X189500000Y-68993750I0J-243750D01*
G01*
X189500000Y-69481250D01*
G75*
G02*
X189256250Y-69725000I-243750J0D01*
G01*
G37*
G36*
G01*
X175556250Y-67850000D02*
X174643750Y-67850000D01*
G75*
G02*
X174400000Y-67606250I0J243750D01*
G01*
X174400000Y-67118750D01*
G75*
G02*
X174643750Y-66875000I243750J0D01*
G01*
X175556250Y-66875000D01*
G75*
G02*
X175800000Y-67118750I0J-243750D01*
G01*
X175800000Y-67606250D01*
G75*
G02*
X175556250Y-67850000I-243750J0D01*
G01*
G37*
G36*
G01*
X175556250Y-69725000D02*
X174643750Y-69725000D01*
G75*
G02*
X174400000Y-69481250I0J243750D01*
G01*
X174400000Y-68993750D01*
G75*
G02*
X174643750Y-68750000I243750J0D01*
G01*
X175556250Y-68750000D01*
G75*
G02*
X175800000Y-68993750I0J-243750D01*
G01*
X175800000Y-69481250D01*
G75*
G02*
X175556250Y-69725000I-243750J0D01*
G01*
G37*
G36*
G01*
X161856250Y-67850000D02*
X160943750Y-67850000D01*
G75*
G02*
X160700000Y-67606250I0J243750D01*
G01*
X160700000Y-67118750D01*
G75*
G02*
X160943750Y-66875000I243750J0D01*
G01*
X161856250Y-66875000D01*
G75*
G02*
X162100000Y-67118750I0J-243750D01*
G01*
X162100000Y-67606250D01*
G75*
G02*
X161856250Y-67850000I-243750J0D01*
G01*
G37*
G36*
G01*
X161856250Y-69725000D02*
X160943750Y-69725000D01*
G75*
G02*
X160700000Y-69481250I0J243750D01*
G01*
X160700000Y-68993750D01*
G75*
G02*
X160943750Y-68750000I243750J0D01*
G01*
X161856250Y-68750000D01*
G75*
G02*
X162100000Y-68993750I0J-243750D01*
G01*
X162100000Y-69481250D01*
G75*
G02*
X161856250Y-69725000I-243750J0D01*
G01*
G37*
G36*
G01*
X148156250Y-67850000D02*
X147243750Y-67850000D01*
G75*
G02*
X147000000Y-67606250I0J243750D01*
G01*
X147000000Y-67118750D01*
G75*
G02*
X147243750Y-66875000I243750J0D01*
G01*
X148156250Y-66875000D01*
G75*
G02*
X148400000Y-67118750I0J-243750D01*
G01*
X148400000Y-67606250D01*
G75*
G02*
X148156250Y-67850000I-243750J0D01*
G01*
G37*
G36*
G01*
X148156250Y-69725000D02*
X147243750Y-69725000D01*
G75*
G02*
X147000000Y-69481250I0J243750D01*
G01*
X147000000Y-68993750D01*
G75*
G02*
X147243750Y-68750000I243750J0D01*
G01*
X148156250Y-68750000D01*
G75*
G02*
X148400000Y-68993750I0J-243750D01*
G01*
X148400000Y-69481250D01*
G75*
G02*
X148156250Y-69725000I-243750J0D01*
G01*
G37*
G36*
G01*
X188250000Y-163143750D02*
X188250000Y-164056250D01*
G75*
G02*
X188006250Y-164300000I-243750J0D01*
G01*
X187518750Y-164300000D01*
G75*
G02*
X187275000Y-164056250I0J243750D01*
G01*
X187275000Y-163143750D01*
G75*
G02*
X187518750Y-162900000I243750J0D01*
G01*
X188006250Y-162900000D01*
G75*
G02*
X188250000Y-163143750I0J-243750D01*
G01*
G37*
G36*
G01*
X190125000Y-163143750D02*
X190125000Y-164056250D01*
G75*
G02*
X189881250Y-164300000I-243750J0D01*
G01*
X189393750Y-164300000D01*
G75*
G02*
X189150000Y-164056250I0J243750D01*
G01*
X189150000Y-163143750D01*
G75*
G02*
X189393750Y-162900000I243750J0D01*
G01*
X189881250Y-162900000D01*
G75*
G02*
X190125000Y-163143750I0J-243750D01*
G01*
G37*
G36*
G01*
X171150000Y-163143750D02*
X171150000Y-164056250D01*
G75*
G02*
X170906250Y-164300000I-243750J0D01*
G01*
X170418750Y-164300000D01*
G75*
G02*
X170175000Y-164056250I0J243750D01*
G01*
X170175000Y-163143750D01*
G75*
G02*
X170418750Y-162900000I243750J0D01*
G01*
X170906250Y-162900000D01*
G75*
G02*
X171150000Y-163143750I0J-243750D01*
G01*
G37*
G36*
G01*
X173025000Y-163143750D02*
X173025000Y-164056250D01*
G75*
G02*
X172781250Y-164300000I-243750J0D01*
G01*
X172293750Y-164300000D01*
G75*
G02*
X172050000Y-164056250I0J243750D01*
G01*
X172050000Y-163143750D01*
G75*
G02*
X172293750Y-162900000I243750J0D01*
G01*
X172781250Y-162900000D01*
G75*
G02*
X173025000Y-163143750I0J-243750D01*
G01*
G37*
G36*
G01*
X83413750Y-147650000D02*
X84326250Y-147650000D01*
G75*
G02*
X84570000Y-147893750I0J-243750D01*
G01*
X84570000Y-148381250D01*
G75*
G02*
X84326250Y-148625000I-243750J0D01*
G01*
X83413750Y-148625000D01*
G75*
G02*
X83170000Y-148381250I0J243750D01*
G01*
X83170000Y-147893750D01*
G75*
G02*
X83413750Y-147650000I243750J0D01*
G01*
G37*
G36*
G01*
X83413750Y-145775000D02*
X84326250Y-145775000D01*
G75*
G02*
X84570000Y-146018750I0J-243750D01*
G01*
X84570000Y-146506250D01*
G75*
G02*
X84326250Y-146750000I-243750J0D01*
G01*
X83413750Y-146750000D01*
G75*
G02*
X83170000Y-146506250I0J243750D01*
G01*
X83170000Y-146018750D01*
G75*
G02*
X83413750Y-145775000I243750J0D01*
G01*
G37*
G36*
G01*
X166950000Y-160143750D02*
X166950000Y-161056250D01*
G75*
G02*
X166706250Y-161300000I-243750J0D01*
G01*
X166218750Y-161300000D01*
G75*
G02*
X165975000Y-161056250I0J243750D01*
G01*
X165975000Y-160143750D01*
G75*
G02*
X166218750Y-159900000I243750J0D01*
G01*
X166706250Y-159900000D01*
G75*
G02*
X166950000Y-160143750I0J-243750D01*
G01*
G37*
G36*
G01*
X168825000Y-160143750D02*
X168825000Y-161056250D01*
G75*
G02*
X168581250Y-161300000I-243750J0D01*
G01*
X168093750Y-161300000D01*
G75*
G02*
X167850000Y-161056250I0J243750D01*
G01*
X167850000Y-160143750D01*
G75*
G02*
X168093750Y-159900000I243750J0D01*
G01*
X168581250Y-159900000D01*
G75*
G02*
X168825000Y-160143750I0J-243750D01*
G01*
G37*
G36*
G01*
X184950000Y-161056250D02*
X184950000Y-160143750D01*
G75*
G02*
X185193750Y-159900000I243750J0D01*
G01*
X185681250Y-159900000D01*
G75*
G02*
X185925000Y-160143750I0J-243750D01*
G01*
X185925000Y-161056250D01*
G75*
G02*
X185681250Y-161300000I-243750J0D01*
G01*
X185193750Y-161300000D01*
G75*
G02*
X184950000Y-161056250I0J243750D01*
G01*
G37*
G36*
G01*
X183075000Y-161056250D02*
X183075000Y-160143750D01*
G75*
G02*
X183318750Y-159900000I243750J0D01*
G01*
X183806250Y-159900000D01*
G75*
G02*
X184050000Y-160143750I0J-243750D01*
G01*
X184050000Y-161056250D01*
G75*
G02*
X183806250Y-161300000I-243750J0D01*
G01*
X183318750Y-161300000D01*
G75*
G02*
X183075000Y-161056250I0J243750D01*
G01*
G37*
G36*
G01*
X92126250Y-148550000D02*
X91213750Y-148550000D01*
G75*
G02*
X90970000Y-148306250I0J243750D01*
G01*
X90970000Y-147818750D01*
G75*
G02*
X91213750Y-147575000I243750J0D01*
G01*
X92126250Y-147575000D01*
G75*
G02*
X92370000Y-147818750I0J-243750D01*
G01*
X92370000Y-148306250D01*
G75*
G02*
X92126250Y-148550000I-243750J0D01*
G01*
G37*
G36*
G01*
X92126250Y-150425000D02*
X91213750Y-150425000D01*
G75*
G02*
X90970000Y-150181250I0J243750D01*
G01*
X90970000Y-149693750D01*
G75*
G02*
X91213750Y-149450000I243750J0D01*
G01*
X92126250Y-149450000D01*
G75*
G02*
X92370000Y-149693750I0J-243750D01*
G01*
X92370000Y-150181250D01*
G75*
G02*
X92126250Y-150425000I-243750J0D01*
G01*
G37*
G36*
G01*
X154050000Y-163143750D02*
X154050000Y-164056250D01*
G75*
G02*
X153806250Y-164300000I-243750J0D01*
G01*
X153318750Y-164300000D01*
G75*
G02*
X153075000Y-164056250I0J243750D01*
G01*
X153075000Y-163143750D01*
G75*
G02*
X153318750Y-162900000I243750J0D01*
G01*
X153806250Y-162900000D01*
G75*
G02*
X154050000Y-163143750I0J-243750D01*
G01*
G37*
G36*
G01*
X155925000Y-163143750D02*
X155925000Y-164056250D01*
G75*
G02*
X155681250Y-164300000I-243750J0D01*
G01*
X155193750Y-164300000D01*
G75*
G02*
X154950000Y-164056250I0J243750D01*
G01*
X154950000Y-163143750D01*
G75*
G02*
X155193750Y-162900000I243750J0D01*
G01*
X155681250Y-162900000D01*
G75*
G02*
X155925000Y-163143750I0J-243750D01*
G01*
G37*
G36*
G01*
X136950000Y-163143750D02*
X136950000Y-164056250D01*
G75*
G02*
X136706250Y-164300000I-243750J0D01*
G01*
X136218750Y-164300000D01*
G75*
G02*
X135975000Y-164056250I0J243750D01*
G01*
X135975000Y-163143750D01*
G75*
G02*
X136218750Y-162900000I243750J0D01*
G01*
X136706250Y-162900000D01*
G75*
G02*
X136950000Y-163143750I0J-243750D01*
G01*
G37*
G36*
G01*
X138825000Y-163143750D02*
X138825000Y-164056250D01*
G75*
G02*
X138581250Y-164300000I-243750J0D01*
G01*
X138093750Y-164300000D01*
G75*
G02*
X137850000Y-164056250I0J243750D01*
G01*
X137850000Y-163143750D01*
G75*
G02*
X138093750Y-162900000I243750J0D01*
G01*
X138581250Y-162900000D01*
G75*
G02*
X138825000Y-163143750I0J-243750D01*
G01*
G37*
G36*
G01*
X133050000Y-160143750D02*
X133050000Y-161056250D01*
G75*
G02*
X132806250Y-161300000I-243750J0D01*
G01*
X132318750Y-161300000D01*
G75*
G02*
X132075000Y-161056250I0J243750D01*
G01*
X132075000Y-160143750D01*
G75*
G02*
X132318750Y-159900000I243750J0D01*
G01*
X132806250Y-159900000D01*
G75*
G02*
X133050000Y-160143750I0J-243750D01*
G01*
G37*
G36*
G01*
X134925000Y-160143750D02*
X134925000Y-161056250D01*
G75*
G02*
X134681250Y-161300000I-243750J0D01*
G01*
X134193750Y-161300000D01*
G75*
G02*
X133950000Y-161056250I0J243750D01*
G01*
X133950000Y-160143750D01*
G75*
G02*
X134193750Y-159900000I243750J0D01*
G01*
X134681250Y-159900000D01*
G75*
G02*
X134925000Y-160143750I0J-243750D01*
G01*
G37*
G36*
G01*
X150750000Y-161056250D02*
X150750000Y-160143750D01*
G75*
G02*
X150993750Y-159900000I243750J0D01*
G01*
X151481250Y-159900000D01*
G75*
G02*
X151725000Y-160143750I0J-243750D01*
G01*
X151725000Y-161056250D01*
G75*
G02*
X151481250Y-161300000I-243750J0D01*
G01*
X150993750Y-161300000D01*
G75*
G02*
X150750000Y-161056250I0J243750D01*
G01*
G37*
G36*
G01*
X148875000Y-161056250D02*
X148875000Y-160143750D01*
G75*
G02*
X149118750Y-159900000I243750J0D01*
G01*
X149606250Y-159900000D01*
G75*
G02*
X149850000Y-160143750I0J-243750D01*
G01*
X149850000Y-161056250D01*
G75*
G02*
X149606250Y-161300000I-243750J0D01*
G01*
X149118750Y-161300000D01*
G75*
G02*
X148875000Y-161056250I0J243750D01*
G01*
G37*
G36*
G01*
X127056250Y-110750000D02*
X126143750Y-110750000D01*
G75*
G02*
X125900000Y-110506250I0J243750D01*
G01*
X125900000Y-110018750D01*
G75*
G02*
X126143750Y-109775000I243750J0D01*
G01*
X127056250Y-109775000D01*
G75*
G02*
X127300000Y-110018750I0J-243750D01*
G01*
X127300000Y-110506250D01*
G75*
G02*
X127056250Y-110750000I-243750J0D01*
G01*
G37*
G36*
G01*
X127056250Y-112625000D02*
X126143750Y-112625000D01*
G75*
G02*
X125900000Y-112381250I0J243750D01*
G01*
X125900000Y-111893750D01*
G75*
G02*
X126143750Y-111650000I243750J0D01*
G01*
X127056250Y-111650000D01*
G75*
G02*
X127300000Y-111893750I0J-243750D01*
G01*
X127300000Y-112381250D01*
G75*
G02*
X127056250Y-112625000I-243750J0D01*
G01*
G37*
G36*
G01*
X127056250Y-106250000D02*
X126143750Y-106250000D01*
G75*
G02*
X125900000Y-106006250I0J243750D01*
G01*
X125900000Y-105518750D01*
G75*
G02*
X126143750Y-105275000I243750J0D01*
G01*
X127056250Y-105275000D01*
G75*
G02*
X127300000Y-105518750I0J-243750D01*
G01*
X127300000Y-106006250D01*
G75*
G02*
X127056250Y-106250000I-243750J0D01*
G01*
G37*
G36*
G01*
X127056250Y-108125000D02*
X126143750Y-108125000D01*
G75*
G02*
X125900000Y-107881250I0J243750D01*
G01*
X125900000Y-107393750D01*
G75*
G02*
X126143750Y-107150000I243750J0D01*
G01*
X127056250Y-107150000D01*
G75*
G02*
X127300000Y-107393750I0J-243750D01*
G01*
X127300000Y-107881250D01*
G75*
G02*
X127056250Y-108125000I-243750J0D01*
G01*
G37*
G36*
G01*
X88650000Y-90043750D02*
X88650000Y-90956250D01*
G75*
G02*
X88406250Y-91200000I-243750J0D01*
G01*
X87918750Y-91200000D01*
G75*
G02*
X87675000Y-90956250I0J243750D01*
G01*
X87675000Y-90043750D01*
G75*
G02*
X87918750Y-89800000I243750J0D01*
G01*
X88406250Y-89800000D01*
G75*
G02*
X88650000Y-90043750I0J-243750D01*
G01*
G37*
G36*
G01*
X90525000Y-90043750D02*
X90525000Y-90956250D01*
G75*
G02*
X90281250Y-91200000I-243750J0D01*
G01*
X89793750Y-91200000D01*
G75*
G02*
X89550000Y-90956250I0J243750D01*
G01*
X89550000Y-90043750D01*
G75*
G02*
X89793750Y-89800000I243750J0D01*
G01*
X90281250Y-89800000D01*
G75*
G02*
X90525000Y-90043750I0J-243750D01*
G01*
G37*
G36*
G01*
X75150000Y-90043750D02*
X75150000Y-90956250D01*
G75*
G02*
X74906250Y-91200000I-243750J0D01*
G01*
X74418750Y-91200000D01*
G75*
G02*
X74175000Y-90956250I0J243750D01*
G01*
X74175000Y-90043750D01*
G75*
G02*
X74418750Y-89800000I243750J0D01*
G01*
X74906250Y-89800000D01*
G75*
G02*
X75150000Y-90043750I0J-243750D01*
G01*
G37*
G36*
G01*
X77025000Y-90043750D02*
X77025000Y-90956250D01*
G75*
G02*
X76781250Y-91200000I-243750J0D01*
G01*
X76293750Y-91200000D01*
G75*
G02*
X76050000Y-90956250I0J243750D01*
G01*
X76050000Y-90043750D01*
G75*
G02*
X76293750Y-89800000I243750J0D01*
G01*
X76781250Y-89800000D01*
G75*
G02*
X77025000Y-90043750I0J-243750D01*
G01*
G37*
G36*
G01*
X61650000Y-90043750D02*
X61650000Y-90956250D01*
G75*
G02*
X61406250Y-91200000I-243750J0D01*
G01*
X60918750Y-91200000D01*
G75*
G02*
X60675000Y-90956250I0J243750D01*
G01*
X60675000Y-90043750D01*
G75*
G02*
X60918750Y-89800000I243750J0D01*
G01*
X61406250Y-89800000D01*
G75*
G02*
X61650000Y-90043750I0J-243750D01*
G01*
G37*
G36*
G01*
X63525000Y-90043750D02*
X63525000Y-90956250D01*
G75*
G02*
X63281250Y-91200000I-243750J0D01*
G01*
X62793750Y-91200000D01*
G75*
G02*
X62550000Y-90956250I0J243750D01*
G01*
X62550000Y-90043750D01*
G75*
G02*
X62793750Y-89800000I243750J0D01*
G01*
X63281250Y-89800000D01*
G75*
G02*
X63525000Y-90043750I0J-243750D01*
G01*
G37*
G36*
G01*
X48150000Y-90043750D02*
X48150000Y-90956250D01*
G75*
G02*
X47906250Y-91200000I-243750J0D01*
G01*
X47418750Y-91200000D01*
G75*
G02*
X47175000Y-90956250I0J243750D01*
G01*
X47175000Y-90043750D01*
G75*
G02*
X47418750Y-89800000I243750J0D01*
G01*
X47906250Y-89800000D01*
G75*
G02*
X48150000Y-90043750I0J-243750D01*
G01*
G37*
G36*
G01*
X50025000Y-90043750D02*
X50025000Y-90956250D01*
G75*
G02*
X49781250Y-91200000I-243750J0D01*
G01*
X49293750Y-91200000D01*
G75*
G02*
X49050000Y-90956250I0J243750D01*
G01*
X49050000Y-90043750D01*
G75*
G02*
X49293750Y-89800000I243750J0D01*
G01*
X49781250Y-89800000D01*
G75*
G02*
X50025000Y-90043750I0J-243750D01*
G01*
G37*
G36*
G01*
X49243750Y-141312500D02*
X50156250Y-141312500D01*
G75*
G02*
X50400000Y-141556250I0J-243750D01*
G01*
X50400000Y-142043750D01*
G75*
G02*
X50156250Y-142287500I-243750J0D01*
G01*
X49243750Y-142287500D01*
G75*
G02*
X49000000Y-142043750I0J243750D01*
G01*
X49000000Y-141556250D01*
G75*
G02*
X49243750Y-141312500I243750J0D01*
G01*
G37*
G36*
G01*
X49243750Y-139437500D02*
X50156250Y-139437500D01*
G75*
G02*
X50400000Y-139681250I0J-243750D01*
G01*
X50400000Y-140168750D01*
G75*
G02*
X50156250Y-140412500I-243750J0D01*
G01*
X49243750Y-140412500D01*
G75*
G02*
X49000000Y-140168750I0J243750D01*
G01*
X49000000Y-139681250D01*
G75*
G02*
X49243750Y-139437500I243750J0D01*
G01*
G37*
G36*
G01*
X46643750Y-141312500D02*
X47556250Y-141312500D01*
G75*
G02*
X47800000Y-141556250I0J-243750D01*
G01*
X47800000Y-142043750D01*
G75*
G02*
X47556250Y-142287500I-243750J0D01*
G01*
X46643750Y-142287500D01*
G75*
G02*
X46400000Y-142043750I0J243750D01*
G01*
X46400000Y-141556250D01*
G75*
G02*
X46643750Y-141312500I243750J0D01*
G01*
G37*
G36*
G01*
X46643750Y-139437500D02*
X47556250Y-139437500D01*
G75*
G02*
X47800000Y-139681250I0J-243750D01*
G01*
X47800000Y-140168750D01*
G75*
G02*
X47556250Y-140412500I-243750J0D01*
G01*
X46643750Y-140412500D01*
G75*
G02*
X46400000Y-140168750I0J243750D01*
G01*
X46400000Y-139681250D01*
G75*
G02*
X46643750Y-139437500I243750J0D01*
G01*
G37*
G36*
G01*
X88982500Y-156856250D02*
X88982500Y-155943750D01*
G75*
G02*
X89226250Y-155700000I243750J0D01*
G01*
X89713750Y-155700000D01*
G75*
G02*
X89957500Y-155943750I0J-243750D01*
G01*
X89957500Y-156856250D01*
G75*
G02*
X89713750Y-157100000I-243750J0D01*
G01*
X89226250Y-157100000D01*
G75*
G02*
X88982500Y-156856250I0J243750D01*
G01*
G37*
G36*
G01*
X87107500Y-156856250D02*
X87107500Y-155943750D01*
G75*
G02*
X87351250Y-155700000I243750J0D01*
G01*
X87838750Y-155700000D01*
G75*
G02*
X88082500Y-155943750I0J-243750D01*
G01*
X88082500Y-156856250D01*
G75*
G02*
X87838750Y-157100000I-243750J0D01*
G01*
X87351250Y-157100000D01*
G75*
G02*
X87107500Y-156856250I0J243750D01*
G01*
G37*
G36*
G01*
X88982500Y-159456250D02*
X88982500Y-158543750D01*
G75*
G02*
X89226250Y-158300000I243750J0D01*
G01*
X89713750Y-158300000D01*
G75*
G02*
X89957500Y-158543750I0J-243750D01*
G01*
X89957500Y-159456250D01*
G75*
G02*
X89713750Y-159700000I-243750J0D01*
G01*
X89226250Y-159700000D01*
G75*
G02*
X88982500Y-159456250I0J243750D01*
G01*
G37*
G36*
G01*
X87107500Y-159456250D02*
X87107500Y-158543750D01*
G75*
G02*
X87351250Y-158300000I243750J0D01*
G01*
X87838750Y-158300000D01*
G75*
G02*
X88082500Y-158543750I0J-243750D01*
G01*
X88082500Y-159456250D01*
G75*
G02*
X87838750Y-159700000I-243750J0D01*
G01*
X87351250Y-159700000D01*
G75*
G02*
X87107500Y-159456250I0J243750D01*
G01*
G37*
G36*
G01*
X83287500Y-90956250D02*
X83287500Y-90043750D01*
G75*
G02*
X83531250Y-89800000I243750J0D01*
G01*
X84018750Y-89800000D01*
G75*
G02*
X84262500Y-90043750I0J-243750D01*
G01*
X84262500Y-90956250D01*
G75*
G02*
X84018750Y-91200000I-243750J0D01*
G01*
X83531250Y-91200000D01*
G75*
G02*
X83287500Y-90956250I0J243750D01*
G01*
G37*
G36*
G01*
X81412500Y-90956250D02*
X81412500Y-90043750D01*
G75*
G02*
X81656250Y-89800000I243750J0D01*
G01*
X82143750Y-89800000D01*
G75*
G02*
X82387500Y-90043750I0J-243750D01*
G01*
X82387500Y-90956250D01*
G75*
G02*
X82143750Y-91200000I-243750J0D01*
G01*
X81656250Y-91200000D01*
G75*
G02*
X81412500Y-90956250I0J243750D01*
G01*
G37*
G36*
G01*
X69787500Y-90956250D02*
X69787500Y-90043750D01*
G75*
G02*
X70031250Y-89800000I243750J0D01*
G01*
X70518750Y-89800000D01*
G75*
G02*
X70762500Y-90043750I0J-243750D01*
G01*
X70762500Y-90956250D01*
G75*
G02*
X70518750Y-91200000I-243750J0D01*
G01*
X70031250Y-91200000D01*
G75*
G02*
X69787500Y-90956250I0J243750D01*
G01*
G37*
G36*
G01*
X67912500Y-90956250D02*
X67912500Y-90043750D01*
G75*
G02*
X68156250Y-89800000I243750J0D01*
G01*
X68643750Y-89800000D01*
G75*
G02*
X68887500Y-90043750I0J-243750D01*
G01*
X68887500Y-90956250D01*
G75*
G02*
X68643750Y-91200000I-243750J0D01*
G01*
X68156250Y-91200000D01*
G75*
G02*
X67912500Y-90956250I0J243750D01*
G01*
G37*
G36*
G01*
X56287500Y-90956250D02*
X56287500Y-90043750D01*
G75*
G02*
X56531250Y-89800000I243750J0D01*
G01*
X57018750Y-89800000D01*
G75*
G02*
X57262500Y-90043750I0J-243750D01*
G01*
X57262500Y-90956250D01*
G75*
G02*
X57018750Y-91200000I-243750J0D01*
G01*
X56531250Y-91200000D01*
G75*
G02*
X56287500Y-90956250I0J243750D01*
G01*
G37*
G36*
G01*
X54412500Y-90956250D02*
X54412500Y-90043750D01*
G75*
G02*
X54656250Y-89800000I243750J0D01*
G01*
X55143750Y-89800000D01*
G75*
G02*
X55387500Y-90043750I0J-243750D01*
G01*
X55387500Y-90956250D01*
G75*
G02*
X55143750Y-91200000I-243750J0D01*
G01*
X54656250Y-91200000D01*
G75*
G02*
X54412500Y-90956250I0J243750D01*
G01*
G37*
G36*
G01*
X42787500Y-90956250D02*
X42787500Y-90043750D01*
G75*
G02*
X43031250Y-89800000I243750J0D01*
G01*
X43518750Y-89800000D01*
G75*
G02*
X43762500Y-90043750I0J-243750D01*
G01*
X43762500Y-90956250D01*
G75*
G02*
X43518750Y-91200000I-243750J0D01*
G01*
X43031250Y-91200000D01*
G75*
G02*
X42787500Y-90956250I0J243750D01*
G01*
G37*
G36*
G01*
X40912500Y-90956250D02*
X40912500Y-90043750D01*
G75*
G02*
X41156250Y-89800000I243750J0D01*
G01*
X41643750Y-89800000D01*
G75*
G02*
X41887500Y-90043750I0J-243750D01*
G01*
X41887500Y-90956250D01*
G75*
G02*
X41643750Y-91200000I-243750J0D01*
G01*
X41156250Y-91200000D01*
G75*
G02*
X40912500Y-90956250I0J243750D01*
G01*
G37*
D20*
X205597500Y-85360000D03*
D21*
X202897500Y-84360000D03*
X202897500Y-83710000D03*
X202897500Y-83060000D03*
X202897500Y-85660000D03*
X202897500Y-85010000D03*
D20*
X205597500Y-83360000D03*
G36*
G01*
X50056250Y-118150000D02*
X49143750Y-118150000D01*
G75*
G02*
X48900000Y-117906250I0J243750D01*
G01*
X48900000Y-117418750D01*
G75*
G02*
X49143750Y-117175000I243750J0D01*
G01*
X50056250Y-117175000D01*
G75*
G02*
X50300000Y-117418750I0J-243750D01*
G01*
X50300000Y-117906250D01*
G75*
G02*
X50056250Y-118150000I-243750J0D01*
G01*
G37*
G36*
G01*
X50056250Y-120025000D02*
X49143750Y-120025000D01*
G75*
G02*
X48900000Y-119781250I0J243750D01*
G01*
X48900000Y-119293750D01*
G75*
G02*
X49143750Y-119050000I243750J0D01*
G01*
X50056250Y-119050000D01*
G75*
G02*
X50300000Y-119293750I0J-243750D01*
G01*
X50300000Y-119781250D01*
G75*
G02*
X50056250Y-120025000I-243750J0D01*
G01*
G37*
D22*
X188350000Y-159100000D03*
X189300000Y-161100000D03*
X187400000Y-161100000D03*
X171250000Y-159100000D03*
X172200000Y-161100000D03*
X170300000Y-161100000D03*
X154150000Y-159100000D03*
X155100000Y-161100000D03*
X153200000Y-161100000D03*
X137350000Y-159100000D03*
X138300000Y-161100000D03*
X136400000Y-161100000D03*
G36*
G01*
X52650000Y-144556250D02*
X52650000Y-143643750D01*
G75*
G02*
X52893750Y-143400000I243750J0D01*
G01*
X53381250Y-143400000D01*
G75*
G02*
X53625000Y-143643750I0J-243750D01*
G01*
X53625000Y-144556250D01*
G75*
G02*
X53381250Y-144800000I-243750J0D01*
G01*
X52893750Y-144800000D01*
G75*
G02*
X52650000Y-144556250I0J243750D01*
G01*
G37*
G36*
G01*
X50775000Y-144556250D02*
X50775000Y-143643750D01*
G75*
G02*
X51018750Y-143400000I243750J0D01*
G01*
X51506250Y-143400000D01*
G75*
G02*
X51750000Y-143643750I0J-243750D01*
G01*
X51750000Y-144556250D01*
G75*
G02*
X51506250Y-144800000I-243750J0D01*
G01*
X51018750Y-144800000D01*
G75*
G02*
X50775000Y-144556250I0J243750D01*
G01*
G37*
G36*
G01*
X52650000Y-138181250D02*
X52650000Y-137268750D01*
G75*
G02*
X52893750Y-137025000I243750J0D01*
G01*
X53381250Y-137025000D01*
G75*
G02*
X53625000Y-137268750I0J-243750D01*
G01*
X53625000Y-138181250D01*
G75*
G02*
X53381250Y-138425000I-243750J0D01*
G01*
X52893750Y-138425000D01*
G75*
G02*
X52650000Y-138181250I0J243750D01*
G01*
G37*
G36*
G01*
X50775000Y-138181250D02*
X50775000Y-137268750D01*
G75*
G02*
X51018750Y-137025000I243750J0D01*
G01*
X51506250Y-137025000D01*
G75*
G02*
X51750000Y-137268750I0J-243750D01*
G01*
X51750000Y-138181250D01*
G75*
G02*
X51506250Y-138425000I-243750J0D01*
G01*
X51018750Y-138425000D01*
G75*
G02*
X50775000Y-138181250I0J243750D01*
G01*
G37*
G36*
G01*
X48837500Y-138181250D02*
X48837500Y-137268750D01*
G75*
G02*
X49081250Y-137025000I243750J0D01*
G01*
X49568750Y-137025000D01*
G75*
G02*
X49812500Y-137268750I0J-243750D01*
G01*
X49812500Y-138181250D01*
G75*
G02*
X49568750Y-138425000I-243750J0D01*
G01*
X49081250Y-138425000D01*
G75*
G02*
X48837500Y-138181250I0J243750D01*
G01*
G37*
G36*
G01*
X46962500Y-138181250D02*
X46962500Y-137268750D01*
G75*
G02*
X47206250Y-137025000I243750J0D01*
G01*
X47693750Y-137025000D01*
G75*
G02*
X47937500Y-137268750I0J-243750D01*
G01*
X47937500Y-138181250D01*
G75*
G02*
X47693750Y-138425000I-243750J0D01*
G01*
X47206250Y-138425000D01*
G75*
G02*
X46962500Y-138181250I0J243750D01*
G01*
G37*
G36*
G01*
X48837500Y-144456250D02*
X48837500Y-143543750D01*
G75*
G02*
X49081250Y-143300000I243750J0D01*
G01*
X49568750Y-143300000D01*
G75*
G02*
X49812500Y-143543750I0J-243750D01*
G01*
X49812500Y-144456250D01*
G75*
G02*
X49568750Y-144700000I-243750J0D01*
G01*
X49081250Y-144700000D01*
G75*
G02*
X48837500Y-144456250I0J243750D01*
G01*
G37*
G36*
G01*
X46962500Y-144456250D02*
X46962500Y-143543750D01*
G75*
G02*
X47206250Y-143300000I243750J0D01*
G01*
X47693750Y-143300000D01*
G75*
G02*
X47937500Y-143543750I0J-243750D01*
G01*
X47937500Y-144456250D01*
G75*
G02*
X47693750Y-144700000I-243750J0D01*
G01*
X47206250Y-144700000D01*
G75*
G02*
X46962500Y-144456250I0J243750D01*
G01*
G37*
G36*
G01*
X51612500Y-161256250D02*
X51612500Y-160343750D01*
G75*
G02*
X51856250Y-160100000I243750J0D01*
G01*
X52343750Y-160100000D01*
G75*
G02*
X52587500Y-160343750I0J-243750D01*
G01*
X52587500Y-161256250D01*
G75*
G02*
X52343750Y-161500000I-243750J0D01*
G01*
X51856250Y-161500000D01*
G75*
G02*
X51612500Y-161256250I0J243750D01*
G01*
G37*
G36*
G01*
X49737500Y-161256250D02*
X49737500Y-160343750D01*
G75*
G02*
X49981250Y-160100000I243750J0D01*
G01*
X50468750Y-160100000D01*
G75*
G02*
X50712500Y-160343750I0J-243750D01*
G01*
X50712500Y-161256250D01*
G75*
G02*
X50468750Y-161500000I-243750J0D01*
G01*
X49981250Y-161500000D01*
G75*
G02*
X49737500Y-161256250I0J243750D01*
G01*
G37*
G36*
G01*
X51612500Y-164756250D02*
X51612500Y-163843750D01*
G75*
G02*
X51856250Y-163600000I243750J0D01*
G01*
X52343750Y-163600000D01*
G75*
G02*
X52587500Y-163843750I0J-243750D01*
G01*
X52587500Y-164756250D01*
G75*
G02*
X52343750Y-165000000I-243750J0D01*
G01*
X51856250Y-165000000D01*
G75*
G02*
X51612500Y-164756250I0J243750D01*
G01*
G37*
G36*
G01*
X49737500Y-164756250D02*
X49737500Y-163843750D01*
G75*
G02*
X49981250Y-163600000I243750J0D01*
G01*
X50468750Y-163600000D01*
G75*
G02*
X50712500Y-163843750I0J-243750D01*
G01*
X50712500Y-164756250D01*
G75*
G02*
X50468750Y-165000000I-243750J0D01*
G01*
X49981250Y-165000000D01*
G75*
G02*
X49737500Y-164756250I0J243750D01*
G01*
G37*
G36*
G01*
X46850000Y-160343750D02*
X46850000Y-161256250D01*
G75*
G02*
X46606250Y-161500000I-243750J0D01*
G01*
X46118750Y-161500000D01*
G75*
G02*
X45875000Y-161256250I0J243750D01*
G01*
X45875000Y-160343750D01*
G75*
G02*
X46118750Y-160100000I243750J0D01*
G01*
X46606250Y-160100000D01*
G75*
G02*
X46850000Y-160343750I0J-243750D01*
G01*
G37*
G36*
G01*
X48725000Y-160343750D02*
X48725000Y-161256250D01*
G75*
G02*
X48481250Y-161500000I-243750J0D01*
G01*
X47993750Y-161500000D01*
G75*
G02*
X47750000Y-161256250I0J243750D01*
G01*
X47750000Y-160343750D01*
G75*
G02*
X47993750Y-160100000I243750J0D01*
G01*
X48481250Y-160100000D01*
G75*
G02*
X48725000Y-160343750I0J-243750D01*
G01*
G37*
G36*
G01*
X46850000Y-163843750D02*
X46850000Y-164756250D01*
G75*
G02*
X46606250Y-165000000I-243750J0D01*
G01*
X46118750Y-165000000D01*
G75*
G02*
X45875000Y-164756250I0J243750D01*
G01*
X45875000Y-163843750D01*
G75*
G02*
X46118750Y-163600000I243750J0D01*
G01*
X46606250Y-163600000D01*
G75*
G02*
X46850000Y-163843750I0J-243750D01*
G01*
G37*
G36*
G01*
X48725000Y-163843750D02*
X48725000Y-164756250D01*
G75*
G02*
X48481250Y-165000000I-243750J0D01*
G01*
X47993750Y-165000000D01*
G75*
G02*
X47750000Y-164756250I0J243750D01*
G01*
X47750000Y-163843750D01*
G75*
G02*
X47993750Y-163600000I243750J0D01*
G01*
X48481250Y-163600000D01*
G75*
G02*
X48725000Y-163843750I0J-243750D01*
G01*
G37*
G36*
G01*
X92126250Y-153450000D02*
X91213750Y-153450000D01*
G75*
G02*
X90970000Y-153206250I0J243750D01*
G01*
X90970000Y-152718750D01*
G75*
G02*
X91213750Y-152475000I243750J0D01*
G01*
X92126250Y-152475000D01*
G75*
G02*
X92370000Y-152718750I0J-243750D01*
G01*
X92370000Y-153206250D01*
G75*
G02*
X92126250Y-153450000I-243750J0D01*
G01*
G37*
G36*
G01*
X92126250Y-155325000D02*
X91213750Y-155325000D01*
G75*
G02*
X90970000Y-155081250I0J243750D01*
G01*
X90970000Y-154593750D01*
G75*
G02*
X91213750Y-154350000I243750J0D01*
G01*
X92126250Y-154350000D01*
G75*
G02*
X92370000Y-154593750I0J-243750D01*
G01*
X92370000Y-155081250D01*
G75*
G02*
X92126250Y-155325000I-243750J0D01*
G01*
G37*
G36*
G01*
X85851250Y-153450000D02*
X84938750Y-153450000D01*
G75*
G02*
X84695000Y-153206250I0J243750D01*
G01*
X84695000Y-152718750D01*
G75*
G02*
X84938750Y-152475000I243750J0D01*
G01*
X85851250Y-152475000D01*
G75*
G02*
X86095000Y-152718750I0J-243750D01*
G01*
X86095000Y-153206250D01*
G75*
G02*
X85851250Y-153450000I-243750J0D01*
G01*
G37*
G36*
G01*
X85851250Y-155325000D02*
X84938750Y-155325000D01*
G75*
G02*
X84695000Y-155081250I0J243750D01*
G01*
X84695000Y-154593750D01*
G75*
G02*
X84938750Y-154350000I243750J0D01*
G01*
X85851250Y-154350000D01*
G75*
G02*
X86095000Y-154593750I0J-243750D01*
G01*
X86095000Y-155081250D01*
G75*
G02*
X85851250Y-155325000I-243750J0D01*
G01*
G37*
G36*
G01*
X85851250Y-157262500D02*
X84938750Y-157262500D01*
G75*
G02*
X84695000Y-157018750I0J243750D01*
G01*
X84695000Y-156531250D01*
G75*
G02*
X84938750Y-156287500I243750J0D01*
G01*
X85851250Y-156287500D01*
G75*
G02*
X86095000Y-156531250I0J-243750D01*
G01*
X86095000Y-157018750D01*
G75*
G02*
X85851250Y-157262500I-243750J0D01*
G01*
G37*
G36*
G01*
X85851250Y-159137500D02*
X84938750Y-159137500D01*
G75*
G02*
X84695000Y-158893750I0J243750D01*
G01*
X84695000Y-158406250D01*
G75*
G02*
X84938750Y-158162500I243750J0D01*
G01*
X85851250Y-158162500D01*
G75*
G02*
X86095000Y-158406250I0J-243750D01*
G01*
X86095000Y-158893750D01*
G75*
G02*
X85851250Y-159137500I-243750J0D01*
G01*
G37*
G36*
G01*
X92126250Y-157262500D02*
X91213750Y-157262500D01*
G75*
G02*
X90970000Y-157018750I0J243750D01*
G01*
X90970000Y-156531250D01*
G75*
G02*
X91213750Y-156287500I243750J0D01*
G01*
X92126250Y-156287500D01*
G75*
G02*
X92370000Y-156531250I0J-243750D01*
G01*
X92370000Y-157018750D01*
G75*
G02*
X92126250Y-157262500I-243750J0D01*
G01*
G37*
G36*
G01*
X92126250Y-159137500D02*
X91213750Y-159137500D01*
G75*
G02*
X90970000Y-158893750I0J243750D01*
G01*
X90970000Y-158406250D01*
G75*
G02*
X91213750Y-158162500I243750J0D01*
G01*
X92126250Y-158162500D01*
G75*
G02*
X92370000Y-158406250I0J-243750D01*
G01*
X92370000Y-158893750D01*
G75*
G02*
X92126250Y-159137500I-243750J0D01*
G01*
G37*
G36*
G01*
X108826250Y-154487500D02*
X107913750Y-154487500D01*
G75*
G02*
X107670000Y-154243750I0J243750D01*
G01*
X107670000Y-153756250D01*
G75*
G02*
X107913750Y-153512500I243750J0D01*
G01*
X108826250Y-153512500D01*
G75*
G02*
X109070000Y-153756250I0J-243750D01*
G01*
X109070000Y-154243750D01*
G75*
G02*
X108826250Y-154487500I-243750J0D01*
G01*
G37*
G36*
G01*
X108826250Y-156362500D02*
X107913750Y-156362500D01*
G75*
G02*
X107670000Y-156118750I0J243750D01*
G01*
X107670000Y-155631250D01*
G75*
G02*
X107913750Y-155387500I243750J0D01*
G01*
X108826250Y-155387500D01*
G75*
G02*
X109070000Y-155631250I0J-243750D01*
G01*
X109070000Y-156118750D01*
G75*
G02*
X108826250Y-156362500I-243750J0D01*
G01*
G37*
G36*
G01*
X112326250Y-154487500D02*
X111413750Y-154487500D01*
G75*
G02*
X111170000Y-154243750I0J243750D01*
G01*
X111170000Y-153756250D01*
G75*
G02*
X111413750Y-153512500I243750J0D01*
G01*
X112326250Y-153512500D01*
G75*
G02*
X112570000Y-153756250I0J-243750D01*
G01*
X112570000Y-154243750D01*
G75*
G02*
X112326250Y-154487500I-243750J0D01*
G01*
G37*
G36*
G01*
X112326250Y-156362500D02*
X111413750Y-156362500D01*
G75*
G02*
X111170000Y-156118750I0J243750D01*
G01*
X111170000Y-155631250D01*
G75*
G02*
X111413750Y-155387500I243750J0D01*
G01*
X112326250Y-155387500D01*
G75*
G02*
X112570000Y-155631250I0J-243750D01*
G01*
X112570000Y-156118750D01*
G75*
G02*
X112326250Y-156362500I-243750J0D01*
G01*
G37*
G36*
G01*
X111413750Y-159250000D02*
X112326250Y-159250000D01*
G75*
G02*
X112570000Y-159493750I0J-243750D01*
G01*
X112570000Y-159981250D01*
G75*
G02*
X112326250Y-160225000I-243750J0D01*
G01*
X111413750Y-160225000D01*
G75*
G02*
X111170000Y-159981250I0J243750D01*
G01*
X111170000Y-159493750D01*
G75*
G02*
X111413750Y-159250000I243750J0D01*
G01*
G37*
G36*
G01*
X111413750Y-157375000D02*
X112326250Y-157375000D01*
G75*
G02*
X112570000Y-157618750I0J-243750D01*
G01*
X112570000Y-158106250D01*
G75*
G02*
X112326250Y-158350000I-243750J0D01*
G01*
X111413750Y-158350000D01*
G75*
G02*
X111170000Y-158106250I0J243750D01*
G01*
X111170000Y-157618750D01*
G75*
G02*
X111413750Y-157375000I243750J0D01*
G01*
G37*
G36*
G01*
X107913750Y-159250000D02*
X108826250Y-159250000D01*
G75*
G02*
X109070000Y-159493750I0J-243750D01*
G01*
X109070000Y-159981250D01*
G75*
G02*
X108826250Y-160225000I-243750J0D01*
G01*
X107913750Y-160225000D01*
G75*
G02*
X107670000Y-159981250I0J243750D01*
G01*
X107670000Y-159493750D01*
G75*
G02*
X107913750Y-159250000I243750J0D01*
G01*
G37*
G36*
G01*
X107913750Y-157375000D02*
X108826250Y-157375000D01*
G75*
G02*
X109070000Y-157618750I0J-243750D01*
G01*
X109070000Y-158106250D01*
G75*
G02*
X108826250Y-158350000I-243750J0D01*
G01*
X107913750Y-158350000D01*
G75*
G02*
X107670000Y-158106250I0J243750D01*
G01*
X107670000Y-157618750D01*
G75*
G02*
X107913750Y-157375000I243750J0D01*
G01*
G37*
G36*
G01*
X42287500Y-119956250D02*
X42287500Y-119043750D01*
G75*
G02*
X42531250Y-118800000I243750J0D01*
G01*
X43018750Y-118800000D01*
G75*
G02*
X43262500Y-119043750I0J-243750D01*
G01*
X43262500Y-119956250D01*
G75*
G02*
X43018750Y-120200000I-243750J0D01*
G01*
X42531250Y-120200000D01*
G75*
G02*
X42287500Y-119956250I0J243750D01*
G01*
G37*
G36*
G01*
X40412500Y-119956250D02*
X40412500Y-119043750D01*
G75*
G02*
X40656250Y-118800000I243750J0D01*
G01*
X41143750Y-118800000D01*
G75*
G02*
X41387500Y-119043750I0J-243750D01*
G01*
X41387500Y-119956250D01*
G75*
G02*
X41143750Y-120200000I-243750J0D01*
G01*
X40656250Y-120200000D01*
G75*
G02*
X40412500Y-119956250I0J243750D01*
G01*
G37*
G36*
G01*
X50056250Y-109550000D02*
X49143750Y-109550000D01*
G75*
G02*
X48900000Y-109306250I0J243750D01*
G01*
X48900000Y-108818750D01*
G75*
G02*
X49143750Y-108575000I243750J0D01*
G01*
X50056250Y-108575000D01*
G75*
G02*
X50300000Y-108818750I0J-243750D01*
G01*
X50300000Y-109306250D01*
G75*
G02*
X50056250Y-109550000I-243750J0D01*
G01*
G37*
G36*
G01*
X50056250Y-111425000D02*
X49143750Y-111425000D01*
G75*
G02*
X48900000Y-111181250I0J243750D01*
G01*
X48900000Y-110693750D01*
G75*
G02*
X49143750Y-110450000I243750J0D01*
G01*
X50056250Y-110450000D01*
G75*
G02*
X50300000Y-110693750I0J-243750D01*
G01*
X50300000Y-111181250D01*
G75*
G02*
X50056250Y-111425000I-243750J0D01*
G01*
G37*
D23*
X47400000Y-100651600D03*
X47400000Y-106900000D03*
G36*
G01*
X184050000Y-163143750D02*
X184050000Y-164056250D01*
G75*
G02*
X183806250Y-164300000I-243750J0D01*
G01*
X183318750Y-164300000D01*
G75*
G02*
X183075000Y-164056250I0J243750D01*
G01*
X183075000Y-163143750D01*
G75*
G02*
X183318750Y-162900000I243750J0D01*
G01*
X183806250Y-162900000D01*
G75*
G02*
X184050000Y-163143750I0J-243750D01*
G01*
G37*
G36*
G01*
X185925000Y-163143750D02*
X185925000Y-164056250D01*
G75*
G02*
X185681250Y-164300000I-243750J0D01*
G01*
X185193750Y-164300000D01*
G75*
G02*
X184950000Y-164056250I0J243750D01*
G01*
X184950000Y-163143750D01*
G75*
G02*
X185193750Y-162900000I243750J0D01*
G01*
X185681250Y-162900000D01*
G75*
G02*
X185925000Y-163143750I0J-243750D01*
G01*
G37*
G36*
G01*
X166950000Y-163143750D02*
X166950000Y-164056250D01*
G75*
G02*
X166706250Y-164300000I-243750J0D01*
G01*
X166218750Y-164300000D01*
G75*
G02*
X165975000Y-164056250I0J243750D01*
G01*
X165975000Y-163143750D01*
G75*
G02*
X166218750Y-162900000I243750J0D01*
G01*
X166706250Y-162900000D01*
G75*
G02*
X166950000Y-163143750I0J-243750D01*
G01*
G37*
G36*
G01*
X168825000Y-163143750D02*
X168825000Y-164056250D01*
G75*
G02*
X168581250Y-164300000I-243750J0D01*
G01*
X168093750Y-164300000D01*
G75*
G02*
X167850000Y-164056250I0J243750D01*
G01*
X167850000Y-163143750D01*
G75*
G02*
X168093750Y-162900000I243750J0D01*
G01*
X168581250Y-162900000D01*
G75*
G02*
X168825000Y-163143750I0J-243750D01*
G01*
G37*
G36*
G01*
X149850000Y-163143750D02*
X149850000Y-164056250D01*
G75*
G02*
X149606250Y-164300000I-243750J0D01*
G01*
X149118750Y-164300000D01*
G75*
G02*
X148875000Y-164056250I0J243750D01*
G01*
X148875000Y-163143750D01*
G75*
G02*
X149118750Y-162900000I243750J0D01*
G01*
X149606250Y-162900000D01*
G75*
G02*
X149850000Y-163143750I0J-243750D01*
G01*
G37*
G36*
G01*
X151725000Y-163143750D02*
X151725000Y-164056250D01*
G75*
G02*
X151481250Y-164300000I-243750J0D01*
G01*
X150993750Y-164300000D01*
G75*
G02*
X150750000Y-164056250I0J243750D01*
G01*
X150750000Y-163143750D01*
G75*
G02*
X150993750Y-162900000I243750J0D01*
G01*
X151481250Y-162900000D01*
G75*
G02*
X151725000Y-163143750I0J-243750D01*
G01*
G37*
G36*
G01*
X133050000Y-163143750D02*
X133050000Y-164056250D01*
G75*
G02*
X132806250Y-164300000I-243750J0D01*
G01*
X132318750Y-164300000D01*
G75*
G02*
X132075000Y-164056250I0J243750D01*
G01*
X132075000Y-163143750D01*
G75*
G02*
X132318750Y-162900000I243750J0D01*
G01*
X132806250Y-162900000D01*
G75*
G02*
X133050000Y-163143750I0J-243750D01*
G01*
G37*
G36*
G01*
X134925000Y-163143750D02*
X134925000Y-164056250D01*
G75*
G02*
X134681250Y-164300000I-243750J0D01*
G01*
X134193750Y-164300000D01*
G75*
G02*
X133950000Y-164056250I0J243750D01*
G01*
X133950000Y-163143750D01*
G75*
G02*
X134193750Y-162900000I243750J0D01*
G01*
X134681250Y-162900000D01*
G75*
G02*
X134925000Y-163143750I0J-243750D01*
G01*
G37*
G36*
G01*
X100437500Y-114356250D02*
X100437500Y-113443750D01*
G75*
G02*
X100681250Y-113200000I243750J0D01*
G01*
X101168750Y-113200000D01*
G75*
G02*
X101412500Y-113443750I0J-243750D01*
G01*
X101412500Y-114356250D01*
G75*
G02*
X101168750Y-114600000I-243750J0D01*
G01*
X100681250Y-114600000D01*
G75*
G02*
X100437500Y-114356250I0J243750D01*
G01*
G37*
G36*
G01*
X102312500Y-114356250D02*
X102312500Y-113443750D01*
G75*
G02*
X102556250Y-113200000I243750J0D01*
G01*
X103043750Y-113200000D01*
G75*
G02*
X103287500Y-113443750I0J-243750D01*
G01*
X103287500Y-114356250D01*
G75*
G02*
X103043750Y-114600000I-243750J0D01*
G01*
X102556250Y-114600000D01*
G75*
G02*
X102312500Y-114356250I0J243750D01*
G01*
G37*
G36*
G01*
X100475000Y-123156250D02*
X100475000Y-122243750D01*
G75*
G02*
X100718750Y-122000000I243750J0D01*
G01*
X101206250Y-122000000D01*
G75*
G02*
X101450000Y-122243750I0J-243750D01*
G01*
X101450000Y-123156250D01*
G75*
G02*
X101206250Y-123400000I-243750J0D01*
G01*
X100718750Y-123400000D01*
G75*
G02*
X100475000Y-123156250I0J243750D01*
G01*
G37*
G36*
G01*
X102350000Y-123156250D02*
X102350000Y-122243750D01*
G75*
G02*
X102593750Y-122000000I243750J0D01*
G01*
X103081250Y-122000000D01*
G75*
G02*
X103325000Y-122243750I0J-243750D01*
G01*
X103325000Y-123156250D01*
G75*
G02*
X103081250Y-123400000I-243750J0D01*
G01*
X102593750Y-123400000D01*
G75*
G02*
X102350000Y-123156250I0J243750D01*
G01*
G37*
G36*
G01*
X110556250Y-110325000D02*
X109643750Y-110325000D01*
G75*
G02*
X109400000Y-110081250I0J243750D01*
G01*
X109400000Y-109593750D01*
G75*
G02*
X109643750Y-109350000I243750J0D01*
G01*
X110556250Y-109350000D01*
G75*
G02*
X110800000Y-109593750I0J-243750D01*
G01*
X110800000Y-110081250D01*
G75*
G02*
X110556250Y-110325000I-243750J0D01*
G01*
G37*
G36*
G01*
X110556250Y-108450000D02*
X109643750Y-108450000D01*
G75*
G02*
X109400000Y-108206250I0J243750D01*
G01*
X109400000Y-107718750D01*
G75*
G02*
X109643750Y-107475000I243750J0D01*
G01*
X110556250Y-107475000D01*
G75*
G02*
X110800000Y-107718750I0J-243750D01*
G01*
X110800000Y-108206250D01*
G75*
G02*
X110556250Y-108450000I-243750J0D01*
G01*
G37*
M02*
